<?xml version="1.0" encoding="UTF-8"?>
<svg version="1.1" xmlns="http://www.w3.org/2000/svg" width="224" height="224">
<path d="M0 0 C2.4375 2.75 2.4375 2.75 4 5 C2.79816486 9.67380333 0.52100337 11.37299145 -3.34375 13.88671875 C-5.15604789 15.027789 -5.15604789 15.027789 -7 17 C-8.28200708 17.97121748 -9.57490209 18.92813624 -10.875 19.875 C-13.82613662 22.0642068 -16.49959244 24.29122515 -19 27 C-14.4338428 28.17415471 -11.22598959 27.91658395 -6.875 26.125 C-4.919513 25.08733696 -4.919513 25.08733696 -3.5625 23.3125 C-3.046875 22.879375 -2.53125 22.44625 -2 22 C0.6875 22.3125 0.6875 22.3125 3 23 C3.625 25.3125 3.625 25.3125 4 28 C3.34 28.99 2.68 29.98 2 31 C1.34 31 0.68 31 0 31 C0 31.66 0 32.32 0 33 C-6.14046176 37.26420956 -12.65785236 38.05171304 -20 37 C-25.79744389 34.38236625 -31.36683607 30.2354581 -33.7109375 24.15625 C-35.60244722 17.76933406 -34.92179018 12.01545036 -32 6 C-30 4 -30 4 -27.375 3.875 C-26.59125 3.91625 -25.8075 3.9575 -25 4 C-23.875 6.3125 -23.875 6.3125 -23 9 C-23.99 10.485 -23.99 10.485 -25 12 C-25.07905064 14.33199388 -25.08798769 16.66832622 -25 19 C-23.62714844 17.9171875 -23.62714844 17.9171875 -22.2265625 16.8125 C-21.02623905 15.8747473 -19.8257074 14.93726105 -18.625 14 C-18.02171875 13.52304688 -17.4184375 13.04609375 -16.796875 12.5546875 C-12.2265625 9 -12.2265625 9 -10 9 C-9.67 7.68 -9.34 6.36 -9 5 C-16.05651252 4.85024761 -16.05651252 4.85024761 -23 6 C-23 5.01 -23 4.02 -23 3 C-23.66 2.67 -24.32 2.34 -25 2 C-24.34 2 -23.68 2 -23 2 C-23 0.02 -23 -1.96 -23 -4 C-14.36066892 -5.65433999 -7.30674574 -5.15770288 0 0 Z " fill="#777878" transform="translate(63,80)"/>
<path d="M0 0 C0.9375 2.4375 0.9375 2.4375 1 5 C0.01 6.485 0.01 6.485 -1 8 C-3.390625 8.1875 -3.390625 8.1875 -6.25 8 C-10.96738613 7.88252905 -14.08505803 8.08888931 -18 11 C-19.41666667 13.33333333 -19.41666667 13.33333333 -20 16 C-20.28875 16.78375 -20.5775 17.5675 -20.875 18.375 C-21.06171469 22.2960085 -19.3374526 25.00421423 -17 28 C-14.25954574 30.23563374 -12.55132645 30.91788755 -9.0625 31.4375 C-5.07639219 30.86805603 -3.06892837 29.59153951 0 27 C2.31659398 23.56247345 3.06332166 21.83901203 2.75 17.6875 C2.26547044 15.10179942 2.26547044 15.10179942 1 14 C1.28730055 11.66055264 1.61936779 9.3260857 2 7 C3.65 6.67 5.3 6.34 7 6 C10.00507377 9.35086309 10.59979701 12.14719293 11.1875 16.5625 C11.34605469 17.69816406 11.50460938 18.83382812 11.66796875 20.00390625 C12 23 12 23 12 26 C11.34 26 10.68 26 10 26 C9.88914063 26.58652344 9.77828125 27.17304687 9.6640625 27.77734375 C8.14238092 32.87050151 4.19046971 36.2902969 -0.25 38.9375 C-6.43046072 40.68863054 -11.67073162 40.72550982 -17.8125 38.8125 C-23.94140989 35.32743359 -27.77669 30.65797674 -30 24 C-30.92409351 18.03446302 -29.96087347 13.30915242 -27 8 C-20.37796422 0.30412058 -9.94640786 -6.14336956 0 0 Z " fill="#828382" transform="translate(183,77)"/>
<path d="M0 0 C1.65 0 3.3 0 5 0 C6.09587955 4.24551856 5.92865836 7.9592839 5.5625 12.3125 C5.46066406 13.56675781 5.35882813 14.82101563 5.25390625 16.11328125 C5.12822266 17.54220703 5.12822266 17.54220703 5 19 C0.25 19.125 0.25 19.125 -2 18 C-2.99 18.66 -3.98 19.32 -5 20 C-8.46418389 19.65358161 -10.04929881 18.96713413 -13 17 C-13 16.34 -13 15.68 -13 15 C-13.66 15 -14.32 15 -15 15 C-15.66 16.65 -16.32 18.3 -17 20 C-19.97 20 -22.94 20 -26 20 C-26 19.01 -26 18.02 -26 17 C-26.99 17.33 -27.98 17.66 -29 18 C-29 17.01 -29 16.02 -29 15 C-29.33 16.65 -29.66 18.3 -30 20 C-31.98 19.34 -33.96 18.68 -36 18 C-36.125 11.25 -36.125 11.25 -35 9 C-35.99 9.33 -36.98 9.66 -38 10 C-37.67 10.99 -37.34 11.98 -37 13 C-37.66 13 -38.32 13 -39 13 C-38.67 13.99 -38.34 14.98 -38 16 C-38.33 16.99 -38.66 17.98 -39 19 C-39.94875 18.835 -40.8975 18.67 -41.875 18.5 C-46.21423737 17.706375 -46.21423737 17.706375 -50 20 C-50.66 19.67 -51.32 19.34 -52 19 C-52.33 19.66 -52.66 20.32 -53 21 C-59.90503247 16.44561688 -59.90503247 16.44561688 -60.8125 12.1875 C-61.13373609 9.15481352 -61.13976738 8.2541225 -59.625 5.5 C-55.87258018 3.3557601 -52.23804955 3.2963856 -48 4 C-47.34 4.66 -46.68 5.32 -46 6 C-45.01 5.34 -44.02 4.68 -43 4 C-40.30078125 3.5859375 -40.30078125 3.5859375 -37.3125 3.375 C-36.31863281 3.30023438 -35.32476562 3.22546875 -34.30078125 3.1484375 C-33.16189453 3.07496094 -33.16189453 3.07496094 -32 3 C-32 3.66 -32 4.32 -32 5 C-31.01 5 -30.02 5 -29 5 C-29 5.99 -29 6.98 -29 8 C-28.443125 7.360625 -27.88625 6.72125 -27.3125 6.0625 C-24.70648926 3.73822015 -23.44141035 3.25181051 -20 3 C-17.25 3.3125 -17.25 3.3125 -15 4 C-14.505 4.99 -14.505 4.99 -14 6 C-10.9254644 5.2236068 -10.9254644 5.2236068 -9 3 C-6.375 2.875 -6.375 2.875 -4 3 C-4 3.66 -4 4.32 -4 5 C-3.67 4.67 -3.34 4.34 -3 4 C-2.01 3.67 -1.02 3.34 0 3 C0 2.01 0 1.02 0 0 Z M-1 6 C0 8 0 8 0 8 Z M-45 7 C-44 9 -44 9 -44 9 Z M-14 7 C-14 8.32 -14 9.64 -14 11 C-13.34 10.67 -12.68 10.34 -12 10 C-12.66 9.01 -13.32 8.02 -14 7 Z M-21 8 C-21.33 8.66 -21.66 9.32 -22 10 C-21.01 9.67 -20.02 9.34 -19 9 C-19.66 8.67 -20.32 8.34 -21 8 Z M-55 9 C-54 11 -54 11 -54 11 Z M-53 9 C-53.66 10.32 -54.32 11.64 -55 13 C-53.68 13.33 -52.36 13.66 -51 14 C-50.67 12.35 -50.34 10.7 -50 9 C-50.99 9 -51.98 9 -53 9 Z M-30 9 C-29 11 -29 11 -29 11 Z M-1 9 C0 12 0 12 0 12 Z M-45 12 C-45.33 13.32 -45.66 14.64 -46 16 C-45.34 16 -44.68 16 -44 16 C-44.33 14.68 -44.66 13.36 -45 12 Z M-14 12 C-13 14 -13 14 -13 14 Z " fill="#646464" transform="translate(151,128)"/>
<path d="M0 0 C3.49151256 2.50754084 6.10770317 4.61356035 7.6484375 8.73046875 C6.7734375 10.98046875 6.7734375 10.98046875 5.6484375 12.73046875 C3.4609375 12.98046875 3.4609375 12.98046875 0.6484375 12.73046875 C-0.0734375 12.11171875 -0.7953125 11.49296875 -1.5390625 10.85546875 C-5.49053785 7.8699096 -9.52869577 7.44219277 -14.3515625 6.73046875 C-14.3515625 7.39046875 -14.3515625 8.05046875 -14.3515625 8.73046875 C-15.1353125 9.16359375 -15.9190625 9.59671875 -16.7265625 10.04296875 C-19.86346229 12.05954719 -20.43858735 13.1615659 -21.3515625 16.73046875 C-21.83969472 20.55417113 -21.47787029 22.45680188 -19.8515625 25.98046875 C-16.61374455 29.54206849 -14.06294977 30.31811269 -9.3515625 30.73046875 C-5.55821665 30.76225714 -5.55821665 30.76225714 -2.3515625 29.73046875 C-1.12628302 27.78025792 -1.12628302 27.78025792 -0.3515625 25.73046875 C1.5859375 24.79296875 1.5859375 24.79296875 3.6484375 24.73046875 C6.13459308 26.57206548 6.65000654 27.73517586 7.6484375 30.73046875 C6.9884375 31.72046875 6.3284375 32.71046875 5.6484375 33.73046875 C4.9884375 33.73046875 4.3284375 33.73046875 3.6484375 33.73046875 C3.6484375 34.39046875 3.6484375 35.05046875 3.6484375 35.73046875 C-2.72693443 39.57974991 -7.91491519 40.68645032 -15.3515625 39.73046875 C-21.63903274 37.65974502 -26.46422175 33.75104815 -29.8515625 28.04296875 C-32.66598161 21.73770362 -31.03623954 15.34079998 -29.3515625 8.91796875 C-25.98420213 3.55123815 -20.99769318 1.02538377 -15.4140625 -1.70703125 C-10.00227412 -2.7010332 -4.92760129 -2.66024986 0 0 Z " fill="#747575" transform="translate(142.3515625,77.26953125)"/>
<path d="M0 0 C1.75 3.125 1.75 3.125 2 6 C1.34 6.99 0.68 7.98 0 9 C-2.4375 9.375 -2.4375 9.375 -5 9 C-6.5 7.625 -6.5 7.625 -8 6 C-11.76016617 4.06910386 -14.79523471 3.48513078 -19 4 C-22.93992409 6.12149759 -25.46293602 7.76188185 -27 12 C-27.02751543 14.82962695 -27.02751543 14.82962695 -26.625 17.75 C-26.51414062 18.73484375 -26.40328125 19.7196875 -26.2890625 20.734375 C-26.19367188 21.48203125 -26.09828125 22.2296875 -26 23 C-25.34 23 -24.68 23 -24 23 C-23.62875 23.474375 -23.2575 23.94875 -22.875 24.4375 C-19.94999557 26.87500369 -16.68713757 27.12617581 -13 27 C-9.78303038 25.84991114 -9.78303038 25.84991114 -7 24 C-6.05125 23.443125 -5.1025 22.88625 -4.125 22.3125 C-3.073125 21.6628125 -3.073125 21.6628125 -2 21 C-0.68 21.99 0.64 22.98 2 24 C1.62403791 26.78211944 1.32681541 28.5879284 -0.4375 30.8125 C-2 32 -2 32 -4 32 C-4 32.66 -4 33.32 -4 34 C-10.61879687 36.78686184 -17.00789408 36.93196742 -23.8125 34.8125 C-28.93861494 31.89765033 -33.95951537 27.49981193 -35.6875 21.6875 C-36.48845826 14.79925892 -36.21828973 8.60472081 -32.5 2.5625 C-32.005 2.046875 -31.51 1.53125 -31 1 C-30.34 1 -29.68 1 -29 1 C-28.67 0.01 -28.34 -0.98 -28 -2 C-18.27075684 -7.88279819 -9.13031095 -6.2026569 0 0 Z " fill="#727272" transform="translate(106,81)"/>
<path d="M0 0 C1.98 0 3.96 0 6 0 C6 1.32 6 2.64 6 4 C7.4540625 3.7215625 7.4540625 3.7215625 8.9375 3.4375 C10.4534375 3.2209375 10.4534375 3.2209375 12 3 C12.33 3.33 12.66 3.66 13 4 C15.33297433 4.04092937 17.66705225 4.04241723 20 4 C20.66 5.65 21.32 7.3 22 9 C22.3403125 8.1028125 22.3403125 8.1028125 22.6875 7.1875 C24.35609042 4.40651597 26.1283832 3.4358084 29 2 C29.66 2 30.32 2 31 2 C31 2.66 31 3.32 31 4 C31.66 3.67 32.32 3.34 33 3 C33 2.01 33 1.02 33 0 C34.98 0 36.96 0 39 0 C38.67 1.65 38.34 3.3 38 5 C38.66 5.33 39.32 5.66 40 6 C39.835 6.680625 39.67 7.36125 39.5 8.0625 C38.88844234 11.1094027 38.88844234 11.1094027 39.0625 14.6875 C39 18 39 18 37 20 C35.65835921 19.7018576 34.32676508 19.35858516 33 19 C31.824375 19.04125 30.64875 19.0825 29.4375 19.125 C26 19 26 19 24.0625 17.5 C23.5365625 16.7575 23.5365625 16.7575 23 16 C22.67 16.99 22.34 17.98 22 19 C19.69 18.67 17.38 18.34 15 18 C14.875 11.25 14.875 11.25 16 9 C15.01 9.495 15.01 9.495 14 10 C14.020625 11.11375 14.04125 12.2275 14.0625 13.375 C14 17 14 17 13 19 C10.4375 19.625 10.4375 19.625 8 20 C7.80448662 18.39679026 7.61888017 16.79237014 7.4375 15.1875 C7.28087891 13.84751953 7.28087891 13.84751953 7.12109375 12.48046875 C7 10 7 10 8 7 C7.34 7 6.68 7 6 7 C6.09539063 7.77085937 6.19078125 8.54171875 6.2890625 9.3359375 C6.39992188 10.33882812 6.51078125 11.34171875 6.625 12.375 C6.74101563 13.37273437 6.85703125 14.37046875 6.9765625 15.3984375 C6.98429687 16.25695312 6.99203125 17.11546875 7 18 C6.34 18.66 5.68 19.32 5 20 C3.68 20 2.36 20 1 20 C1 19.34 1 18.68 1 18 C0.34 17.67 -0.32 17.34 -1 17 C-0.67 11.39 -0.34 5.78 0 0 Z M28 10 C28.33 10.66 28.66 11.32 29 12 C29.99 12 30.98 12 32 12 C32 11.34 32 10.68 32 10 C30.68 10 29.36 10 28 10 Z M22 11 C23 13 23 13 23 13 Z " fill="#666666" transform="translate(51,128)"/>
<path d="M0 0 C2.01143941 1.10948444 3.69453065 2.33914551 5.45703125 3.80859375 C7.10893105 5.21936787 7.10893105 5.21936787 10 6 C10.2734375 8.26171875 10.2734375 8.26171875 10 11 C8.1015625 13.01953125 8.1015625 13.01953125 5.625 14.8125 C4.81289063 15.41707031 4.00078125 16.02164063 3.1640625 16.64453125 C1 18 1 18 -1 18 C-1.66 19.32 -2.32 20.64 -3 22 C-3.99 22 -4.98 22 -6 22 C-5.67 21.34 -5.34 20.68 -5 20 C-5.66 19.67 -6.32 19.34 -7 19 C-7 20.98 -7 22.96 -7 25 C-7.63421875 25.23460938 -8.2684375 25.46921875 -8.921875 25.7109375 C-11.18250739 26.82290908 -11.18250739 26.82290908 -11.828125 29.1640625 C-11.96734375 29.97617188 -12.1065625 30.78828125 -12.25 31.625 C-12.39953125 32.44226563 -12.5490625 33.25953125 -12.703125 34.1015625 C-12.80109375 34.72804687 -12.8990625 35.35453125 -13 36 C-14.65 35.34 -16.3 34.68 -18 34 C-18 33.34 -18 32.68 -18 32 C-18.99 31.67 -19.98 31.34 -21 31 C-24.32877882 24.83559478 -24.71151262 20.10016213 -23.125 13.1875 C-22 10 -22 10 -20 8 C-17.875 8.375 -17.875 8.375 -16 9 C-16.144375 9.639375 -16.28875 10.27875 -16.4375 10.9375 C-17.17236798 14.93844788 -17.58581111 18.95504896 -18 23 C-14.21774458 22.4888844 -12.47663017 21.88940186 -10 19 C-5.41176471 14.17647059 -5.41176471 14.17647059 -2.8125 13.0625 C-0.20136718 11.7991169 -0.20136718 11.7991169 1 6 C-3.62 6 -8.24 6 -13 6 C-12 2 -12 2 -10.4375 0.75 C-6.88971474 -0.34162623 -3.63352237 -0.69145388 0 0 Z " fill="#808182" transform="translate(54,77)"/>
<path d="M0 0 C0.9375 2.4375 0.9375 2.4375 1 5 C0.01 6.485 0.01 6.485 -1 8 C-3.390625 8.1875 -3.390625 8.1875 -6.25 8 C-10.96738613 7.88252905 -14.08505803 8.08888931 -18 11 C-19.41666667 13.33333333 -19.41666667 13.33333333 -20 16 C-20.28875 16.78375 -20.5775 17.5675 -20.875 18.375 C-21.06285933 22.32004587 -19.14499616 24.8014545 -17 28 C-16.34 28.99 -15.68 29.98 -15 31 C-16.65 32.32 -18.3 33.64 -20 35 C-20 34.34 -20 33.68 -20 33 C-20.763125 32.773125 -21.52625 32.54625 -22.3125 32.3125 C-25.74256596 30.63735151 -26.56979878 29.53786617 -28 26 C-28.28322492 22.97721762 -28.32453039 20.02062897 -28 17 C-27.67 16.67 -27.34 16.34 -27 16 C-27 15.236875 -27 14.47375 -27 13.6875 C-27 9.39351305 -26.65533066 7.74634881 -23.75 4.4375 C-17.21184341 -1.35768425 -8.25689768 -5.09984857 0 0 Z " fill="#767676" transform="translate(183,77)"/>
<path d="M0 0 C0.66 0.66 1.32 1.32 2 2 C1.67 2.33 1.34 2.66 1 3 C0.78345196 5.67075915 0.73009748 7.4711666 1.9609375 9.8828125 C3.07698165 12.15685734 3.42851947 14.06873632 3.8125 16.5625 C4.52680823 20.09338946 4.66422082 20.7361735 7.625 23.0625 C8.40875 23.371875 9.1925 23.68125 10 24 C10.66 22.35 11.32 20.7 12 19 C13.175625 19.185625 14.35125 19.37125 15.5625 19.5625 C19.57011128 20.04654541 23.05205844 20.02646481 27 19 C28.22527948 17.04978917 28.22527948 17.04978917 29 15 C30.9375 14.0625 30.9375 14.0625 33 14 C35.48615558 15.84159673 36.00156904 17.00470711 37 20 C36.34 20.99 35.68 21.98 35 23 C34.34 23 33.68 23 33 23 C33 23.66 33 24.32 33 25 C26.62462807 28.84928116 21.43664731 29.95598157 14 29 C7.71252976 26.92927627 2.88734075 23.0205794 -0.5 17.3125 C-2.77686194 12.30340374 -2.03853079 7.27254095 -1 2 C-0.67 1.34 -0.34 0.68 0 0 Z " fill="#646565" transform="translate(113,88)"/>
<path d="M0 0 C0.99 -0.33 1.98 -0.66 3 -1 C5.26273207 2.55818936 5.07331744 5.12547951 4.625 9.25 C4.45871094 10.86648437 4.45871094 10.86648437 4.2890625 12.515625 C4.14597656 13.74539062 4.14597656 13.74539062 4 15 C-1.68849748 16.49697302 -6.41809068 15.3348044 -12 14 C-12.027193 12.41676312 -12.04648306 10.83338938 -12.0625 9.25 C-12.07410156 8.36828125 -12.08570313 7.4865625 -12.09765625 6.578125 C-12.00826198 4.2181162 -11.66912821 2.25501476 -11 0 C-6.92325362 -0.8532725 -4.04075573 -0.87367692 0 0 Z M-5 5 C-5.99 6.485 -5.99 6.485 -7 8 C-6.34 8.66 -5.68 9.32 -5 10 C-2.89179203 9.6814823 -2.89179203 9.6814823 -1 9 C-1.33 7.68 -1.66 6.36 -2 5 C-2.99 5 -3.98 5 -5 5 Z " fill="#7A7A7A" transform="translate(169,132)"/>
<path d="M0 0 C0.99 0.33 1.98 0.66 3 1 C2.67 1.33 2.34 1.66 2 2 C1.95907063 4.33297433 1.95758277 6.66705225 2 9 C1.67 9 1.34 9 1 9 C0.42535025 15.16359061 0.42535025 15.16359061 3.3125 20.375 C5.90891805 23.07257717 5.90891805 23.07257717 9 25 C9.33 24.01 9.66 23.02 10 22 C10.81984375 22.01160156 11.6396875 22.02320312 12.484375 22.03515625 C13.56203125 22.04417969 14.6396875 22.05320312 15.75 22.0625 C16.81734375 22.07410156 17.8846875 22.08570312 18.984375 22.09765625 C21.53368501 22.01510087 23.57933591 21.74617558 26 21 C23.93814793 24.0927781 23.09630198 24.68076198 19.875 26.1875 C19.15054688 26.53167969 18.42609375 26.87585938 17.6796875 27.23046875 C17.12539062 27.48441406 16.57109375 27.73835938 16 28 C21.841744 28.35050464 25.8531808 28.16727335 31 25 C30.505 24.01 30.505 24.01 30 23 C31.98 22.34 33.96 21.68 36 21 C34.19827485 25.58620946 31.00233392 27.85580919 26.8125 30.25 C19.82308392 32.11384429 13.3317033 31.60038031 7 28 C2.1271771 24.0337488 -1.44940189 19.01052946 -2.31640625 12.6953125 C-2.43246896 8.0992292 -1.76109628 4.29267219 0 0 Z " fill="#797A79" transform="translate(155,86)"/>
<path d="M0 0 C0 0.99 0 1.98 0 3 C-0.66 3 -1.32 3 -2 3 C-2 3.66 -2 4.32 -2 5 C-2.90492188 5.09087891 -2.90492188 5.09087891 -3.828125 5.18359375 C-5.02695313 5.30927734 -5.02695313 5.30927734 -6.25 5.4375 C-7.03890625 5.51871094 -7.8278125 5.59992188 -8.640625 5.68359375 C-10.84964597 5.97983663 -12.88743919 6.28648609 -15 7 C-16.16513613 9.19932935 -16.16513613 9.19932935 -17 12 C-17.88998035 14.42442922 -18.87566157 16.66137606 -20 19 C-20.99 19.33 -21.98 19.66 -23 20 C-25 18 -25 18 -25.1875 15.6875 C-24.92432682 11.9153511 -24.19483678 8.58451035 -23 5 C-18.36708317 2.17148236 -13.36900291 0.63916701 -8 0 C-4.71023192 -1.09658936 -3.28696233 -0.79953138 0 0 Z " fill="#797B7A" transform="translate(138,78)"/>
<path d="M0 0 C2.97 0.495 2.97 0.495 6 1 C6.33 1.99 6.66 2.98 7 4 C4.75112431 7.37331354 3.7612037 7.8358179 0 9 C-1.32 9 -2.64 9 -4 9 C-4 9.66 -4 10.32 -4 11 C-9.33646866 12.77882289 -13.95258476 12.44723163 -19 10 C-18.67 8.68 -18.34 7.36 -18 6 C-16.78763672 5.94392578 -16.78763672 5.94392578 -15.55078125 5.88671875 C-14.48214844 5.82097656 -13.41351563 5.75523438 -12.3125 5.6875 C-11.25675781 5.62949219 -10.20101562 5.57148437 -9.11328125 5.51171875 C-5.73492769 4.95643103 -3.75080954 4.0073475 -1 2 C-0.67 1.34 -0.34 0.68 0 0 Z " fill="#838484" transform="translate(143,104)"/>
<path d="M0 0 C2.4375 2.75 2.4375 2.75 4 5 C2.79816486 9.67380333 0.52100337 11.37299145 -3.34375 13.88671875 C-5.15604789 15.027789 -5.15604789 15.027789 -7 17 C-8.98768394 18.35162508 -10.9866347 19.68693567 -13 21 C-10.89943772 16.3141303 -8.06004072 13.98194662 -3.875 11.125 C-0.62849966 8.76702306 -0.62849966 8.76702306 1 5.125 C1 4.42375 1 3.7225 1 3 C0.484375 2.9175 -0.03125 2.835 -0.5625 2.75 C-3 2 -3 2 -6.3125 -0.0625 C-9.96376896 -2.21721881 -12.73839527 -2.48244582 -17 -2 C-19.35460678 -1.32575833 -19.35460678 -1.32575833 -21 0 C-21.33 0.99 -21.66 1.98 -22 3 C-21.40832031 2.91621094 -20.81664062 2.83242187 -20.20703125 2.74609375 C-15.90060543 2.19110576 -12.24447356 1.76773348 -8 3 C-8.33 3.66 -8.66 4.32 -9 5 C-9.59167969 4.98839844 -10.18335938 4.97679688 -10.79296875 4.96484375 C-15.00231785 4.91677614 -18.8922333 4.93993117 -23 6 C-23 5.01 -23 4.02 -23 3 C-23.66 2.67 -24.32 2.34 -25 2 C-24.34 2 -23.68 2 -23 2 C-23 0.02 -23 -1.96 -23 -4 C-14.36066892 -5.65433999 -7.30674574 -5.15770288 0 0 Z " fill="#676867" transform="translate(63,80)"/>
<path d="M0 0 C0.78375 0.04125 1.5675 0.0825 2.375 0.125 C3.5 2.4375 3.5 2.4375 4.375 5.125 C3.385 6.61 3.385 6.61 2.375 8.125 C2.29594936 10.45699388 2.28701231 12.79332622 2.375 15.125 C4.685 13.475 6.995 11.825 9.375 10.125 C7.92294521 14.72317352 7.92294521 14.72317352 5.5 16.5 C3.02211632 17.22878932 1.81088856 16.82824816 -0.625 16.125 C0.33855353 6.71497722 0.33855353 6.71497722 1.375 2.125 C0.055 2.455 -1.265 2.785 -2.625 3.125 C-4.64606456 9.31451021 -5.7670866 14.73922622 -3.25 21 C-1.97813012 24.19311311 -1.97813012 24.19311311 0.375 25.125 C0.375 25.785 0.375 26.445 0.375 27.125 C6.3627651 29.59055033 11.91800416 31.3501605 18.375 32.125 C18.375 32.455 18.375 32.785 18.375 33.125 C10.99688681 33.86970675 6.21620608 33.33225876 0.25 28.76171875 C-4.64093972 24.49233595 -6.8563576 20.53035337 -7.625 14.125 C-7.26309484 8.78689894 -6.64311431 0.31633878 0 0 Z " fill="#626263" transform="translate(35.625,83.875)"/>
<path d="M0 0 C0.33 0.99 0.66 1.98 1 3 C1.886875 2.896875 2.77375 2.79375 3.6875 2.6875 C8.00684858 3.09498572 9.25642975 4.7722703 12 8 C11.67 8.99 11.34 9.98 11 11 C6.35842294 10.37275986 6.35842294 10.37275986 4.4375 8.375 C3.963125 7.92125 3.48875 7.4675 3 7 C0.83700789 7.22757731 0.83700789 7.22757731 -1 8 C-1 7.67 -1 7.34 -1 7 C-5.29 7 -9.58 7 -14 7 C-12.68 5.68 -11.36 4.36 -10 3 C-9.34 3.33 -8.68 3.66 -8 4 C-8.33 3.01 -8.66 2.02 -9 1 C-5.8035914 -0.06546953 -3.34252724 -0.07427838 0 0 Z " fill="#828282" transform="translate(94,77)"/>
<path d="M0 0 C0.99 0.33 1.98 0.66 3 1 C2.67 5.95 2.34 10.9 2 16 C2.66 16 3.32 16 4 16 C4.28875 16.763125 4.5775 17.52625 4.875 18.3125 C5.96269013 21.15029308 5.96269013 21.15029308 8 24 C7.01 24.66 6.02 25.32 5 26 C5 25.34 5 24.68 5 24 C4.236875 23.773125 3.47375 23.54625 2.6875 23.3125 C-0.74256596 21.63735151 -1.56979878 20.53786617 -3 17 C-3.28322492 13.97721762 -3.32453039 11.02062897 -3 8 C-2.67 7.67 -2.34 7.34 -2 7 C-2.020625 6.195625 -2.04125 5.39125 -2.0625 4.5625 C-2 2 -2 2 0 0 Z " fill="#838383" transform="translate(158,86)"/>
<path d="M0 0 C0.66 0 1.32 0 2 0 C2 5.28 2 10.56 2 16 C0.68 16 -0.64 16 -2 16 C-1.67 13.36 -1.34 10.72 -1 8 C-2.65 7.67 -4.3 7.34 -6 7 C-7.12516085 8.83284443 -7.12516085 8.83284443 -8 11 C-7.67 11.99 -7.34 12.98 -7 14 C-5.68 14 -4.36 14 -3 14 C-3 14.99 -3 15.98 -3 17 C-5.3125 17.25 -5.3125 17.25 -8 17 C-10.25873743 14.89703757 -10.91755764 13.54961572 -11.375 10.5 C-10.90612711 7.37418075 -10.35608966 6.12808098 -8 4 C-4.3125 3.25 -4.3125 3.25 -1 3 C-0.67 2.01 -0.34 1.02 0 0 Z " fill="#797979" transform="translate(86,129)"/>
<path d="M0 0 C1.32 0.66 2.64 1.32 4 2 C3.91896914 4.75504918 3.40884366 6.51587351 1.62109375 8.6328125 C-2.38790496 12.34584486 -5.38663353 13.89976131 -11 14 C-13.34260643 13.7397104 -15.6817571 13.42579972 -18 13 C-17.44441406 12.731875 -16.88882813 12.46375 -16.31640625 12.1875 C-13.78782463 10.89122882 -11.3703823 9.46780229 -8.9375 8 C-8.08027344 7.484375 -7.22304687 6.96875 -6.33984375 6.4375 C-2.15506418 4.09966711 -2.15506418 4.09966711 0 0 Z " fill="#828382" transform="translate(187,101)"/>
<path d="M0 0 C0.99 0.66 1.98 1.32 3 2 C3 2.66 3 3.32 3 4 C4.32 4 5.64 4 7 4 C7.33 5.98 7.66 7.96 8 10 C5.8125 12.0625 5.8125 12.0625 3 14 C-0.55253709 13.83083157 -1.9992835 13.00047767 -5 11 C-4.8125 9.125 -4.8125 9.125 -4 7 C-1.4375 5.75 -1.4375 5.75 1 5 C0.34 3.68 -0.32 2.36 -1 1 C-0.67 0.67 -0.34 0.34 0 0 Z " fill="#5F5F5F" transform="translate(143,134)"/>
<path d="M0 0 C0.825 0.185625 1.65 0.37125 2.5 0.5625 C3.49 0.2325 4.48 -0.0975 5.5 -0.4375 C7.76273207 3.12068936 7.57331744 5.68797951 7.125 9.8125 C6.95871094 11.42898437 6.95871094 11.42898437 6.7890625 13.078125 C6.64597656 14.30789062 6.64597656 14.30789062 6.5 15.5625 C0.81150252 17.05947302 -3.91809068 15.8973044 -9.5 14.5625 C-9.5 12.2525 -9.5 9.9425 -9.5 7.5625 C-7.5 8.5625 -7.5 8.5625 -6.75 10.5625 C-5.61789657 12.88320839 -5.61789657 12.88320839 -2.625 13.3125 C0.64204618 13.61566348 0.64204618 13.61566348 4.5 13.5625 C4.83 9.9325 5.16 6.3025 5.5 2.5625 C4.18 2.5625 2.86 2.5625 1.5 2.5625 C1.17 3.8825 0.84 5.2025 0.5 6.5625 C-0.82 6.8925 -2.14 7.2225 -3.5 7.5625 C-2.54134491 9.89325929 -2.54134491 9.89325929 0.5 11.5625 C-1.15 11.5625 -2.8 11.5625 -4.5 11.5625 C-5.16 10.2425 -5.82 8.9225 -6.5 7.5625 C-5.21034824 6.18687146 -3.87310707 4.85483607 -2.5 3.5625 C-1.84 3.5625 -1.18 3.5625 -0.5 3.5625 C-0.5 2.9025 -0.5 2.2425 -0.5 1.5625 C-2.15 1.5625 -3.8 1.5625 -5.5 1.5625 C-2.5 -0.4375 -2.5 -0.4375 0 0 Z " fill="#5C5C5C" transform="translate(166.5,131.4375)"/>
<path d="M0 0 C1.75 3.125 1.75 3.125 2 6 C1.01 7.485 1.01 7.485 0 9 C-2.4375 9.375 -2.4375 9.375 -5 9 C-6.625 7.5625 -6.625 7.5625 -8 6 C-8.99 5.67 -9.98 5.34 -11 5 C-11 4.34 -11 3.68 -11 3 C-10.01 2.67 -9.02 2.34 -8 2 C-7.1028125 2.99 -7.1028125 2.99 -6.1875 4 C-4.12498166 6.3373846 -4.12498166 6.3373846 -1 6 C-2.15173355 3.53199953 -3.04783565 1.95216435 -5 0 C-6.5159375 -0.2475 -6.5159375 -0.2475 -8.0625 -0.5 C-9.031875 -0.665 -10.00125 -0.83 -11 -1 C-11.33 -1.66 -11.66 -2.32 -12 -3 C-18.435 -2.505 -18.435 -2.505 -25 -2 C-17.72660799 -9.27339201 -7.54807701 -5.12776971 0 0 Z " fill="#686868" transform="translate(106,81)"/>
<path d="M0 0 C2.375 0.0625 2.375 0.0625 5 1 C9.17944816 6.3735762 8.71904565 13.47023331 9 20 C8.34 20 7.68 20 7 20 C6.67 18.02 6.34 16.04 6 14 C5.67 14 5.34 14 5 14 C5 10.37 5 6.74 5 3 C3.35 3 1.7 3 0 3 C0.47730838 4.4589426 0.95691042 5.91713496 1.4375 7.375 C1.83775391 8.59316406 1.83775391 8.59316406 2.24609375 9.8359375 C2.95179729 12.01031799 2.95179729 12.01031799 4 14 C3.34 14 2.68 14 2 14 C1.67 16.64 1.34 19.28 1 22 C-0.98 22.66 -2.96 23.32 -5 24 C-4.62746094 23.41992188 -4.25492188 22.83984375 -3.87109375 22.2421875 C-0.76157499 17.23618105 -0.76157499 17.23618105 -0.125 11.5 C-0.76571176 9.08968304 -0.76571176 9.08968304 -2 8 C-1.28 1.28 -1.28 1.28 0 0 Z " fill="#6B6C6C" transform="translate(186,83)"/>
<path d="M0 0 C0.3125 3.3125 0.3125 3.3125 0 7 C-2.5 8.9375 -2.5 8.9375 -5 10 C-5 9.34 -5 8.68 -5 8 C-5.99 8.33 -6.98 8.66 -8 9 C-10.18083183 3.66907776 -10.18083183 3.66907776 -9.375 0.6875 C-8 -1 -8 -1 -6.125 -1.875 C-3.52613603 -2.02787435 -2.1980747 -1.33454536 0 0 Z " fill="#767676" transform="translate(195,72)"/>
<path d="M0 0 C7.54156479 0.48655257 7.54156479 0.48655257 9.5625 2.75 C10.10524168 5.54124293 9.92042851 7.30951665 9 10 C8.01 10.66 7.02 11.32 6 12 C5.01 11.67 4.02 11.34 3 11 C3.99 10.34 4.98 9.68 6 9 C6.72965366 6.43717258 6.72965366 6.43717258 7 4 C5.35 4.66 3.7 5.32 2 6 C2 5.34 2 4.68 2 4 C1.34 4 0.68 4 0 4 C0.66 6.64 1.32 9.28 2 12 C1.01 12 0.02 12 -1 12 C-2.49821059 8.62902617 -3 6.79557881 -3 3 C-2.34 3 -1.68 3 -1 3 C-0.67 2.01 -0.34 1.02 0 0 Z " fill="#707070" transform="translate(95,133)"/>
<path d="M0 0 C0.68707555 2.49064888 1 4.37886292 1 7 C1.99 7.66 2.98 8.32 4 9 C4 9.66 4 10.32 4 11 C4.8971875 11.1546875 4.8971875 11.1546875 5.8125 11.3125 C8.28243264 12.08876455 9.32251235 13.07088921 11 15 C10.34 15 9.68 15 9 15 C8.67 15.99 8.34 16.98 8 18 C7.34 18 6.68 18 6 18 C6 17.34 6 16.68 6 16 C5.071875 15.773125 4.14375 15.54625 3.1875 15.3125 C-0.5917165 13.75635203 -1.37373728 12.68048931 -3 9 C-3.6875 6.1875 -3.6875 6.1875 -4 4 C-3.01 3.67 -2.02 3.34 -1 3 C-0.67 2.01 -0.34 1.02 0 0 Z " fill="#838383" transform="translate(76,96)"/>
<path d="M0 0 C2.31 0 4.62 0 7 0 C7 0.66 7 1.32 7 2 C7.66 2 8.32 2 9 2 C10.20272819 4.40545638 10.10071472 5.94996953 10.0625 8.625 C10.05347656 9.44226563 10.04445313 10.25953125 10.03515625 11.1015625 C10.02355469 11.72804687 10.01195313 12.35453125 10 13 C9.01 13 8.02 13 7 13 C7 12.01 7 11.02 7 10 C6.34 9.67 5.68 9.34 5 9 C5.33 7.68 5.66 6.36 6 5 C4.35 5.33 2.7 5.66 1 6 C0.67 6.99 0.34 7.98 0 9 C-0.66 8.34 -1.32 7.68 -2 7 C-1.34 4.69 -0.68 2.38 0 0 Z " fill="#666666" transform="translate(110,132)"/>
<path d="M0 0 C1.71515678 3.11598203 3 6.41975064 3 10 C1.68 10.33 0.36 10.66 -1 11 C-1.33 8.36 -1.66 5.72 -2 3 C-3.32 2.67 -4.64 2.34 -6 2 C-6.33 5.3 -6.66 8.6 -7 12 C-7.99 11.67 -8.98 11.34 -10 11 C-10 7.37 -10 3.74 -10 0 C-3.08943089 -1.38211382 -3.08943089 -1.38211382 0 0 Z " fill="#787878" transform="translate(70,134)"/>
<path d="M0 0 C1.65819806 1.19214647 3.2352192 2.49570554 4.79296875 3.81640625 C3.04296875 4.94140625 3.04296875 4.94140625 0.79296875 5.81640625 C-1.67966074 4.99219642 -2.93459259 4.15076279 -4.58203125 2.12890625 C-6.20099124 0.51600436 -6.20099124 0.51600436 -8.83203125 1.00390625 C-10.50265625 1.40609375 -10.50265625 1.40609375 -12.20703125 1.81640625 C-13.7889707 2.19724352 -15.37238466 2.57199507 -16.95703125 2.94140625 C-18.09398438 3.22371094 -18.09398438 3.22371094 -19.25390625 3.51171875 C-21.20703125 3.81640625 -21.20703125 3.81640625 -23.20703125 2.81640625 C-15.76519676 -1.620072 -8.35238479 -4.47924352 0 0 Z " fill="#717171" transform="translate(142.20703125,77.18359375)"/>
<path d="M0 0 C0.99 0.33 1.98 0.66 3 1 C2.67 1.33 2.34 1.66 2 2 C1.95907063 4.33297433 1.95758277 6.66705225 2 9 C1.67 9 1.34 9 1 9 C0.43109605 15.20544629 0.43109605 15.20544629 3.375 20.4375 C5.71982856 22.98690417 5.71982856 22.98690417 8 24 C8 24.99 8 25.98 8 27 C9.32 27.33 10.64 27.66 12 28 C11.34 28.66 10.68 29.32 10 30 C3.57815132 26.22244195 0.36978387 22.1093516 -2 15 C-2.82959467 9.60763464 -2.07590782 5.06002531 0 0 Z " fill="#5D5D5D" transform="translate(155,86)"/>
<path d="M0 0 C0.66 0 1.32 0 2 0 C2.06058594 0.59167969 2.12117188 1.18335937 2.18359375 1.79296875 C2.62012371 5.90978208 3.08671346 9.95544533 4 14 C4.66 14 5.32 14 6 14 C6.33 14.99 6.66 15.98 7 17 C6.01 17 5.02 17 4 17 C3.34 16.01 2.68 15.02 2 14 C1.01 14.495 1.01 14.495 0 15 C0 14.01 0 13.02 0 12 C-0.66 11.67 -1.32 11.34 -2 11 C-1.34 10.67 -0.68 10.34 0 10 C0 9.01 0 8.02 0 7 C-0.99 7.99 -1.98 8.98 -3 10 C-5 7 -5 7 -4.625 4.3125 C-4.41875 3.549375 -4.2125 2.78625 -4 2 C-3.01 2.33 -2.02 2.66 -1 3 C-0.67 2.01 -0.34 1.02 0 0 Z " fill="#828282" transform="translate(76,90)"/>
<path d="M0 0 C2.97 0.495 2.97 0.495 6 1 C6.33 1.99 6.66 2.98 7 4 C4.42595029 7.86107457 2.38979741 7.94319692 -2 9 C-2 8.34 -2 7.68 -2 7 C-3.32 6.67 -4.64 6.34 -6 6 C-5.195625 5.38125 -4.39125 4.7625 -3.5625 4.125 C-0.96125481 2.25835959 -0.96125481 2.25835959 0 0 Z " fill="#828282" transform="translate(143,104)"/>
<path d="M0 0 C-0.33 2.64 -0.66 5.28 -1 8 C-0.01 7.34 0.98 6.68 2 6 C2.66 6.33 3.32 6.66 4 7 C4 7.66 4 8.32 4 9 C3.34 9 2.68 9 2 9 C2.33 9.99 2.66 10.98 3 12 C2.67 12.99 2.34 13.98 2 15 C-0.9375 14.625 -0.9375 14.625 -4 14 C-4.33 13.34 -4.66 12.68 -5 12 C-4.34 12 -3.68 12 -3 12 C-3.0721875 11.37351563 -3.144375 10.74703125 -3.21875 10.1015625 C-3.3115625 9.28429687 -3.404375 8.46703125 -3.5 7.625 C-3.5928125 6.81289062 -3.685625 6.00078125 -3.78125 5.1640625 C-4 3 -4 3 -4 1 C-2 0 -2 0 0 0 Z " fill="#5B5B5B" transform="translate(110,132)"/>
<path d="M0 0 C0.66 0.33 1.32 0.66 2 1 C1.67 1.721875 1.34 2.44375 1 3.1875 C-0.00603529 6.01697427 -0.16977402 8.02895466 0 11 C-0.99 11.33 -1.98 11.66 -3 12 C-2.71515154 13.73030291 -2.42180062 15.45920714 -2.125 17.1875 C-1.96257812 18.15042969 -1.80015625 19.11335938 -1.6328125 20.10546875 C-1.01960483 22.91032604 -0.14333657 25.37224747 1 28 C-3.98966664 23.52209404 -4.82618921 21.12859424 -5.1875 14.625 C-4.89399333 8.95053777 -3.80444033 4.32322765 0 0 Z M2 6 C2.33 6.66 2.66 7.32 3 8 C2.34 7.67 1.68 7.34 1 7 C1.33 6.67 1.66 6.34 2 6 Z " fill="#676767" transform="translate(75,82)"/>
<path d="M0 0 C0 0.99 0 1.98 0 3 C-0.66 3 -1.32 3 -2 3 C-2.33 3.66 -2.66 4.32 -3 5 C-4.051875 4.814375 -5.10375 4.62875 -6.1875 4.4375 C-9.60938035 4.04482521 -11.71785136 4.2497946 -15 5 C-15.66 4.67 -16.32 4.34 -17 4 C-17 3.34 -17 2.68 -17 2 C-16.38511719 1.86722656 -15.77023438 1.73445313 -15.13671875 1.59765625 C-14.32847656 1.42105469 -13.52023438 1.24445313 -12.6875 1.0625 C-11.88699219 0.88847656 -11.08648437 0.71445313 -10.26171875 0.53515625 C-3.94474708 -0.95953307 -3.94474708 -0.95953307 0 0 Z " fill="#7F7F7F" transform="translate(138,78)"/>
<path d="M0 0 C2 3.75 2 3.75 2 6 C2.99 6 3.98 6 5 6 C5 6.66 5 7.32 5 8 C6.32 8.33 7.64 8.66 9 9 C8.34 10.65 7.68 12.3 7 14 C4.42783554 13.6452187 3.20322713 13.1957002 1.3125 11.375 C-0.40917217 8.25959322 -0.73865627 5.52814037 -1 2 C-0.67 1.34 -0.34 0.68 0 0 Z " fill="#838584" transform="translate(116,98)"/>
<path d="M0 0 C-0.99 0.33 -1.98 0.66 -3 1 C-3 1.66 -3 2.32 -3 3 C-2.01 3 -1.02 3 0 3 C0 3.66 0 4.32 0 5 C-1.11375 4.95875 -2.2275 4.9175 -3.375 4.875 C-7.04366025 4.58878141 -7.04366025 4.58878141 -9 7 C-11.125 6.625 -11.125 6.625 -13 6 C-11.93363297 2.90753562 -10.99355341 1.99584553 -8.1875 0.1875 C-4.81023996 -1.07069492 -3.36888105 -1.0899321 0 0 Z " fill="#838383" transform="translate(174,78)"/>
<path d="M0 0 C-0.33 0.99 -0.66 1.98 -1 3 C-1.66 3 -2.32 3 -3 3 C-3 2.34 -3 1.68 -3 1 C-3.99 1.495 -3.99 1.495 -5 2 C-4.01 2.66 -3.02 3.32 -2 4 C-2.33 4.99 -2.66 5.98 -3 7 C-5.31 7 -7.62 7 -10 7 C-10 5.68 -10 4.36 -10 3 C-10.66 3 -11.32 3 -12 3 C-12 2.34 -12 1.68 -12 1 C-8.00439392 -1.83022097 -4.57262677 -0.76210446 0 0 Z M-6 4 C-6.33 4.66 -6.66 5.32 -7 6 C-6.01 5.67 -5.02 5.34 -4 5 C-4.66 4.67 -5.32 4.34 -6 4 Z " fill="#616161" transform="translate(136,132)"/>
<path d="M0 0 C2.0625 0.4375 2.0625 0.4375 4 1 C3.8125 3.3125 3.8125 3.3125 3 6 C0.4375 7.8125 0.4375 7.8125 -2 9 C-3.32 8.01 -4.64 7.02 -6 6 C-4 4 -2 2 0 0 Z " fill="#848484" transform="translate(102,104)"/>
<path d="M0 0 C0 0.99 0 1.98 0 3 C-6.09252798 8.80915458 -10.60181267 10.24171478 -18.98828125 10.0703125 C-19.65214844 10.04710938 -20.31601563 10.02390625 -21 10 C-21.33 9.34 -21.66 8.68 -22 8 C-21.20335937 7.96261719 -20.40671875 7.92523438 -19.5859375 7.88671875 C-13.68223426 7.52043059 -9.03056497 7.21397206 -4 4 C-4.33 3.34 -4.66 2.68 -5 2 C-3.35 1.34 -1.7 0.68 0 0 Z " fill="#686868" transform="translate(190,107)"/>
<path d="M0 0 C0.33 0.66 0.66 1.32 1 2 C0.030625 2.433125 -0.93875 2.86625 -1.9375 3.3125 C-5.27731765 4.7014861 -5.27731765 4.7014861 -6 8 C-5.40832031 7.91621094 -4.81664062 7.83242187 -4.20703125 7.74609375 C0.09939457 7.19110576 3.75552644 6.76773348 8 8 C7.67 8.66 7.34 9.32 7 10 C6.40832031 9.98839844 5.81664062 9.97679688 5.20703125 9.96484375 C0.99768215 9.91677614 -2.8922333 9.93993117 -7 11 C-7 10.01 -7 9.02 -7 8 C-7.66 7.67 -8.32 7.34 -9 7 C-8.34 7 -7.68 7 -7 7 C-7 5.02 -7 3.04 -7 1 C-3.535 0.505 -3.535 0.505 0 0 Z " fill="#5D5D5D" transform="translate(47,75)"/>
<path d="M0 0 C1.98 0 3.96 0 6 0 C5.67 0.66 5.34 1.32 5 2 C4.01 1.67 3.02 1.34 2 1 C1.67 2.32 1.34 3.64 1 5 C-0.11375 5.103125 -1.2275 5.20625 -2.375 5.3125 C-3.57125 5.539375 -4.7675 5.76625 -6 6 C-8.4294516 9.6441774 -8.16179575 11.71241272 -8 16 C-8.99 15.67 -9.98 15.34 -11 15 C-10.39252336 7.58878505 -10.39252336 7.58878505 -8.75 5.125 C-6.59600547 3.74028923 -4.41164151 2.8473335 -2 2 C-2 2.66 -2 3.32 -2 4 C-1.34 3.67 -0.68 3.34 0 3 C0 2.01 0 1.02 0 0 Z " fill="#565656" transform="translate(84,128)"/>
<path d="M0 0 C0.66 0.66 1.32 1.32 2 2 C1.67 2.33 1.34 2.66 1 3 C0.7799839 5.71353192 0.73856269 7.49346521 2 9.9375 C3.33343743 12.6877147 3.1370035 14.98592292 3 18 C0 17 0 17 -1.20703125 15.2890625 C-2.19768874 12.42933201 -2.02294214 10.37377194 -1.6875 7.375 C-1.58824219 6.41335937 -1.48898438 5.45171875 -1.38671875 4.4609375 C-1 2 -1 2 0 0 Z " fill="#6D6F6E" transform="translate(113,88)"/>
<path d="M0 0 C0.33 0 0.66 0 1 0 C1 3.63 1 7.26 1 11 C-4.68849748 12.49697302 -9.41809068 11.3348044 -15 10 C-15 7.69 -15 5.38 -15 3 C-13 4 -13 4 -12.25 6 C-11.11789657 8.32070839 -11.11789657 8.32070839 -8.125 8.75 C-4.85795382 9.05316348 -4.85795382 9.05316348 -1 9 C-0.67 6.03 -0.34 3.06 0 0 Z " fill="#656565" transform="translate(172,136)"/>
<path d="M0 0 C2.3125 0.125 2.3125 0.125 5 1 C9.17944816 6.3735762 8.71904565 13.47023331 9 20 C8.34 20 7.68 20 7 20 C6.67 18.02 6.34 16.04 6 14 C5.67 14 5.34 14 5 14 C5 10.37 5 6.74 5 3 C3.35 2.67 1.7 2.34 0 2 C0 1.34 0 0.68 0 0 Z " fill="#5E5E5E" transform="translate(186,83)"/>
<path d="M0 0 C0.66 0.99 1.32 1.98 2 3 C1.79375 3.5775 1.5875 4.155 1.375 4.75 C0.63938284 9.16370299 4.6216849 13.43252735 7 17 C4.625 16.75 4.625 16.75 2 16 C0.8125 14.0625 0.8125 14.0625 0 12 C-0.66 11.34 -1.32 10.68 -2 10 C-1.7578125 7.6171875 -1.7578125 7.6171875 -1.125 4.875 C-0.92132813 3.96492188 -0.71765625 3.05484375 -0.5078125 2.1171875 C-0.34023437 1.41851562 -0.17265625 0.71984375 0 0 Z " fill="#6F6F6F" transform="translate(161,91)"/>
<path d="M0 0 C1.65 0.99 3.3 1.98 5 3 C4.62403791 5.78211944 4.32681541 7.5879284 2.5625 9.8125 C1 11 1 11 -1 11 C-1 11.66 -1 12.32 -1 13 C-2.98 13.33 -4.96 13.66 -7 14 C-4.84646154 11.68694017 -3.0422105 10.02302391 -0.25 8.5 C0.4925 8.005 1.235 7.51 2 7 C2 5.68 2 4.36 2 3 C0.35 3 -1.3 3 -3 3 C-2.01 2.01 -1.02 1.02 0 0 Z " fill="#5E5E5E" transform="translate(103,102)"/>
<path d="M0 0 C2.9375 0.1875 2.9375 0.1875 6 1 C7.93846036 3.35986478 8.0294705 4.58741306 7.8125 7.625 C7 10 7 10 4 12 C3.01 11.67 2.02 11.34 1 11 C1.99 10.34 2.98 9.68 4 9 C4.5 6.5 4.5 6.5 4 4 C1.22739701 2.06201737 1.22739701 2.06201737 -1 1 C-0.67 0.67 -0.34 0.34 0 0 Z " fill="#7A7A7A" transform="translate(97,133)"/>
<path d="M0 0 C1.32 0.66 2.64 1.32 4 2 C4.3125 5.3125 4.3125 5.3125 4 9 C1.5 10.9375 1.5 10.9375 -1 12 C-1.33 11.01 -1.66 10.02 -2 9 C-1.34 9 -0.68 9 0 9 C0 6.03 0 3.06 0 0 Z " fill="#636363" transform="translate(191,70)"/>
<path d="M0 0 C2.5 0.3125 2.5 0.3125 5 1 C6.20272819 3.40545638 6.10071472 4.94996953 6.0625 7.625 C6.05347656 8.44226563 6.04445313 9.25953125 6.03515625 10.1015625 C6.02355469 10.72804687 6.01195313 11.35453125 6 12 C5.01 12 4.02 12 3 12 C2.04975021 8.30458414 2.04975021 5.69541586 3 2 C1.68 1.67 0.36 1.34 -1 1 C-0.67 0.67 -0.34 0.34 0 0 Z " fill="#7A7A7A" transform="translate(114,133)"/>
<path d="M0 0 C0 0.66 0 1.32 0 2 C-0.66 2 -1.32 2 -2 2 C-2 2.66 -2 3.32 -2 4 C-7.53846154 4.36923077 -7.53846154 4.36923077 -9.875 2.5 C-10.24625 2.005 -10.6175 1.51 -11 1 C-7.2297564 -1.56376565 -4.32597804 -0.83191885 0 0 Z " fill="#858585" transform="translate(141,111)"/>
<path d="M0 0 C0.625 2.3125 0.625 2.3125 1 5 C0.01 6.485 0.01 6.485 -1 8 C-1.66 7.67 -2.32 7.34 -3 7 C-2.67 6.01 -2.34 5.02 -2 4 C-2.99 3.34 -3.98 2.68 -5 2 C-5 3.32 -5 4.64 -5 6 C-5.99 5.67 -6.98 5.34 -8 5 C-7.625 2.5625 -7.625 2.5625 -7 0 C-4.3333581 -1.33332095 -2.83319697 -0.67102033 0 0 Z " fill="#656565" transform="translate(66,103)"/>
<path d="M0 0 C1.32 0.66 2.64 1.32 4 2 C3.57692877 3.31722179 3.13602514 4.62872664 2.6875 5.9375 C2.44386719 6.66839844 2.20023437 7.39929688 1.94921875 8.15234375 C1 10 1 10 -2 11 C-2.66 10.01 -3.32 9.02 -4 8 C-3 5 -3 5 0 3 C0 2.01 0 1.02 0 0 Z " fill="#828483" transform="translate(117,87)"/>
<path d="M0 0 C4.6724909 0.31570884 9.74965983 1.46702156 13 5 C13 5.99 13 6.98 13 8 C10.67244268 6.83622134 8.3604735 5.65982633 6.0625 4.4375 C3.29656688 3.13920486 1.00318063 2.44164421 -2 2 C-1.34 1.34 -0.68 0.68 0 0 Z " fill="#717271" transform="translate(50,75)"/>
<path d="M0 0 C0.763125 0.66 1.52625 1.32 2.3125 2 C4.84277939 4.29850538 4.84277939 4.29850538 8 4 C8.66 2.68 9.32 1.36 10 0 C10.625 1.8125 10.625 1.8125 11 4 C10.01 5.485 10.01 5.485 9 7 C6.5625 7.375 6.5625 7.375 4 7 C2.375 5.5625 2.375 5.5625 1 4 C0.01 3.67 -0.98 3.34 -2 3 C-2 2.34 -2 1.68 -2 1 C-1.34 0.67 -0.68 0.34 0 0 Z " fill="#626262" transform="translate(97,83)"/>
<path d="M0 0 C0.99 0.33 1.98 0.66 3 1 C3 2.98 3 4.96 3 7 C-0.62326739 8.2077558 -1.64146369 7.54311128 -5 6 C-5 5.34 -5 4.68 -5 4 C-3.35 4 -1.7 4 0 4 C0 2.68 0 1.36 0 0 Z " fill="#727272" transform="translate(146,139)"/>
<path d="M0 0 C0.33 0 0.66 0 1 0 C1.22151549 1.79008467 1.42682213 3.58218162 1.625 5.375 C1.74101563 6.37273437 1.85703125 7.37046875 1.9765625 8.3984375 C1.98429687 9.25695312 1.99203125 10.11546875 2 11 C1.34 11.66 0.68 12.32 0 13 C-1.32 13 -2.64 13 -4 13 C-4 12.34 -4 11.68 -4 11 C-4.66 10.67 -5.32 10.34 -6 10 C-5.67 8.02 -5.34 6.04 -5 4 C-4.67 4 -4.34 4 -4 4 C-3.67 5.65 -3.34 7.3 -3 9 C-2.01 9.33 -1.02 9.66 0 10 C0 6.7 0 3.4 0 0 Z " fill="#5E5E5E" transform="translate(56,135)"/>
<path d="M0 0 C1.32 0 2.64 0 4 0 C4.24042276 4.08718695 3.42258812 7.17679443 2 11 C1.34 11 0.68 11 0 11 C0 7.37 0 3.74 0 0 Z " fill="#7A7A7A" transform="translate(152,134)"/>
<path d="M0 0 C1.32 0 2.64 0 4 0 C4 2.31 4 4.62 4 7 C2.35 7.66 0.7 8.32 -1 9 C-0.67 6.03 -0.34 3.06 0 0 Z " fill="#757575" transform="translate(168,134)"/>
<path d="M0 0 C0.99 0.99 1.98 1.98 3 3 C2.38125 3.0825 1.7625 3.165 1.125 3.25 C-1.18437567 3.81258459 -1.18437567 3.81258459 -2.25 6.0625 C-2.4975 6.701875 -2.745 7.34125 -3 8 C-3.99 8 -4.98 8 -6 8 C-5.67 7.34 -5.34 6.68 -5 6 C-5.66 5.34 -6.32 4.68 -7 4 C-4.35261084 2.5393715 -3.10551666 2 0 2 C0 1.34 0 0.68 0 0 Z " fill="#838584" transform="translate(54,91)"/>
<path d="M0 0 C-0.33 0.66 -0.66 1.32 -1 2 C-2.32 1.67 -3.64 1.34 -5 1 C-5.2475 1.61875 -5.495 2.2375 -5.75 2.875 C-7.27221172 5.46275992 -8.16777975 6.05592658 -11 7 C-14.25 7.125 -14.25 7.125 -17 7 C-16.67 6.34 -16.34 5.68 -16 5 C-14.700625 4.87625 -13.40125 4.7525 -12.0625 4.625 C-9.91142492 4.46274005 -9.91142492 4.46274005 -8 4 C-6.54780623 2.09831644 -6.54780623 2.09831644 -6 0 C-3.50907189 -1.24546405 -2.58919267 -0.7767578 0 0 Z " fill="#595959" transform="translate(148,103)"/>
<path d="M0 0 C2.76223278 2.76223278 2.57856291 5.20706617 3 9 C3.66 9 4.32 9 5 9 C5.33 9.99 5.66 10.98 6 12 C5.01 12 4.02 12 3 12 C2.34 11.01 1.68 10.02 1 9 C0.01 9.495 0.01 9.495 -1 10 C-1 9.01 -1 8.02 -1 7 C-1.66 6.67 -2.32 6.34 -3 6 C-2.34 5.67 -1.68 5.34 -1 5 C-0.34444881 2.47266765 -0.34444881 2.47266765 0 0 Z " fill="#6E6E6E" transform="translate(77,95)"/>
<path d="M0 0 C0.33 0.66 0.66 1.32 1 2 C1.66 2 2.32 2 3 2 C3 2.99 3 3.98 3 5 C3.66 5 4.32 5 5 5 C6.32 7.31 7.64 9.62 9 12 C7.68 11.67 6.36 11.34 5 11 C5 10.34 5 9.68 5 9 C4.01 9 3.02 9 2 9 C1.34 6.03 0.68 3.06 0 0 Z " fill="#727473" transform="translate(116,95)"/>
<path d="M0 0 C1.65 0.33 3.3 0.66 5 1 C5.33 2.65 5.66 4.3 6 6 C5.01 6.495 5.01 6.495 4 7 C3.67 5.68 3.34 4.36 3 3 C2.01 3.66 1.02 4.32 0 5 C-0.99 5 -1.98 5 -3 5 C-2.01 3.35 -1.02 1.7 0 0 Z " fill="#595959" transform="translate(80,135)"/>
<path d="M0 0 C2.86207152 1.28299758 5.0245088 2.530636 7 5 C7 5.99 7 6.98 7 8 C8.32 8.33 9.64 8.66 11 9 C10.34 9.66 9.68 10.32 9 11 C2.35384615 6.81538462 2.35384615 6.81538462 0.5625 2.6875 C0.376875 1.800625 0.19125 0.91375 0 0 Z " fill="#6B6B6B" transform="translate(156,105)"/>
<path d="M0 0 C0.66 0.33 1.32 0.66 2 1 C1.67 1.721875 1.34 2.44375 1 3.1875 C-0.00603529 6.01697427 -0.16977402 8.02895466 0 11 C-3 10 -3 10 -3.9375 8.3125 C-4.03398292 4.74263198 -2.08083079 2.77444105 0 0 Z M2 6 C2.33 6.66 2.66 7.32 3 8 C2.34 7.67 1.68 7.34 1 7 C1.33 6.67 1.66 6.34 2 6 Z " fill="#707070" transform="translate(75,82)"/>
<path d="M0 0 C0.66 0.33 1.32 0.66 2 1 C2 1.66 2 2.32 2 3 C2.66 3.33 3.32 3.66 4 4 C2.625 6 2.625 6 1 8 C0.34 8 -0.32 8 -1 8 C-1.99 8.495 -1.99 8.495 -3 9 C-3 7.35 -3 5.7 -3 4 C-2.34 4 -1.68 4 -1 4 C-0.67 2.68 -0.34 1.36 0 0 Z " fill="#858585" transform="translate(77,82)"/>
<path d="M0 0 C2.97 0.495 2.97 0.495 6 1 C6.33 1.99 6.66 2.98 7 4 C6.01 5.485 6.01 5.485 5 7 C4.34 7 3.68 7 3 7 C2.67 5.68 2.34 4.36 2 3 C1.01 3 0.02 3 -1 3 C-0.67 2.01 -0.34 1.02 0 0 Z " fill="#727272" transform="translate(143,104)"/>
<path d="M0 0 C0.33 0 0.66 0 1 0 C1 2.64 1 5.28 1 8 C-0.65 8 -2.3 8 -4 8 C-4.625 5.625 -4.625 5.625 -5 3 C-4.34 2.34 -3.68 1.68 -3 1 C-2.67 1.66 -2.34 2.32 -2 3 C-2.33 3.99 -2.66 4.98 -3 6 C-2.34 6 -1.68 6 -1 6 C-1.020625 5.195625 -1.04125 4.39125 -1.0625 3.5625 C-1 1 -1 1 0 0 Z " fill="#6B6B6B" transform="translate(155,139)"/>
<path d="M0 0 C2 0 4 0 6 0 C6 2.31 6 4.62 6 7 C4.68 7 3.36 7 2 7 C2 6.01 2 5.02 2 4 C1.05021103 1.84971696 1.05021103 1.84971696 0 0 Z " fill="#767877" transform="translate(187,99)"/>
<path d="M0 0 C0.66 0.99 1.32 1.98 2 3 C-1.37817425 3.84454356 -3.67465243 4.10844919 -7 3 C-6.67 2.01 -6.34 1.02 -6 0 C-3.42525708 -0.99667468 -2.51072708 -1.25536354 0 0 Z " fill="#868686" transform="translate(52,111)"/>
<path d="M0 0 C-1.24176695 0.70226141 -2.49385599 1.38629109 -3.75 2.0625 C-4.79414063 2.63677734 -4.79414063 2.63677734 -5.859375 3.22265625 C-8.36140628 4.1312406 -9.5332355 3.88336837 -12 3 C-12 2.34 -12 1.68 -12 1 C-10.56496445 0.63597631 -9.12683494 0.28413409 -7.6875 -0.0625 C-6.88699219 -0.25972656 -6.08648437 -0.45695312 -5.26171875 -0.66015625 C-3 -1 -3 -1 0 0 Z " fill="#858685" transform="translate(133,79)"/>
<path d="M0 0 C1.0828125 0.495 1.0828125 0.495 2.1875 1 C5.01697427 2.00603529 7.02895466 2.16977402 10 2 C9.34 3.32 8.68 4.64 8 6 C7.401875 5.814375 6.80375 5.62875 6.1875 5.4375 C3.83591238 4.77906313 3.83591238 4.77906313 1 6 C0.67 4.02 0.34 2.04 0 0 Z " fill="#7B7C7E" transform="translate(30,98)"/>
<path d="M0 0 C2.00720923 0.28674418 4.0085944 0.61866701 6 1 C5.01 1.66 4.02 2.32 3 3 C2.34 2.67 1.68 2.34 1 2 C1.66 3.65 2.32 5.3 3 7 C1.35 6.67 -0.3 6.34 -2 6 C-1.125 1.125 -1.125 1.125 0 0 Z " fill="#7A7A7A" transform="translate(142,133)"/>
<path d="M0 0 C0.33 0 0.66 0 1 0 C1 2.64 1 5.28 1 8 C-0.98 7.34 -2.96 6.68 -5 6 C-4.67 4.35 -4.34 2.7 -4 1 C-2 2 -2 2 -1 4 C-0.67 2.68 -0.34 1.36 0 0 Z " fill="#656565" transform="translate(120,140)"/>
<path d="M0 0 C0.99 0.99 1.98 1.98 3 3 C2.34 4.65 1.68 6.3 1 8 C-0.65 8 -2.3 8 -4 8 C-4 7.01 -4 6.02 -4 5 C-3.34 5.33 -2.68 5.66 -2 6 C-1.34 5.67 -0.68 5.34 0 5 C0 3.35 0 1.7 0 0 Z " fill="#6C6C6C" transform="translate(147,82)"/>
<path d="M0 0 C-0.33 2.97 -0.66 5.94 -1 9 C-1.99 8.67 -2.98 8.34 -4 8 C-4 5.69 -4 3.38 -4 1 C-2 0 -2 0 0 0 Z " fill="#4B4B4B" transform="translate(110,132)"/>
<path d="M0 0 C0.66 0.99 1.32 1.98 2 3 C-5.42857143 3.28571429 -5.42857143 3.28571429 -9 1 C-5.95699684 -0.52150158 -3.345915 -0.23899393 0 0 Z " fill="#7A7A7A" transform="translate(134,113)"/>
<path d="M0 0 C2.31 0.33 4.62 0.66 7 1 C7 1.99 7 2.98 7 4 C5.35 4 3.7 4 2 4 C1.34 2.68 0.68 1.36 0 0 Z " fill="#797A7A" transform="translate(76,142)"/>
<path d="M0 0 C0.66 0 1.32 0 2 0 C1.125 4.875 1.125 4.875 0 6 C-1.66617115 6.04063832 -3.33388095 6.042721 -5 6 C-5.33 5.34 -5.66 4.68 -6 4 C-4.35 3.67 -2.7 3.34 -1 3 C-0.67 2.01 -0.34 1.02 0 0 Z " fill="#6D6D6D" transform="translate(182,79)"/>
<path d="M0 0 C0.8353125 0.37125 0.8353125 0.37125 1.6875 0.75 C1.0275 1.41 0.3675 2.07 -0.3125 2.75 C-1.3025 2.75 -2.2925 2.75 -3.3125 2.75 C-3.3125 3.41 -3.3125 4.07 -3.3125 4.75 C-4.6325 5.08 -5.9525 5.41 -7.3125 5.75 C-7.3125 5.09 -7.3125 4.43 -7.3125 3.75 C-3.10958131 -0.33617095 -3.10958131 -0.33617095 0 0 Z " fill="#7D7D7D" transform="translate(104.3125,104.25)"/>
<path d="M0 0 C1.32 0.66 2.64 1.32 4 2 C3.67 3.65 3.34 5.3 3 7 C1.68 6.34 0.36 5.68 -1 5 C-0.67 3.35 -0.34 1.7 0 0 Z " fill="#868887" transform="translate(187,101)"/>
<path d="M0 0 C0.99 0 1.98 0 3 0 C3 1.98 3 3.96 3 6 C1.68 5.34 0.36 4.68 -1 4 C-0.67 2.68 -0.34 1.36 0 0 Z " fill="#949494" transform="translate(188,73)"/>
<path d="M0 0 C-1.8125 2 -1.8125 2 -4 4 C-4.99 4 -5.98 4 -7 4 C-6.6875 2.0625 -6.6875 2.0625 -6 0 C-3 -1 -3 -1 0 0 Z " fill="#6A6A6A" transform="translate(135,144)"/>
<path d="M0 0 C2.00720923 0.28674418 4.0085944 0.61866701 6 1 C6.33 2.32 6.66 3.64 7 5 C4.33333333 3.66666667 1.66666667 2.33333333 -1 1 C-0.67 0.67 -0.34 0.34 0 0 Z " fill="#808080" transform="translate(97,133)"/>
<path d="M0 0 C2 1 2 1 2 1 Z " fill="#404040" transform="translate(162,148)"/>
<path d="M0 0 C2 1 2 1 2 1 Z " fill="#404040" transform="translate(97,140)"/>
<path d="M0 0 C2 1 2 1 2 1 Z " fill="#2D2D2D" transform="translate(72,133)"/>
<path d="" fill="#808080" transform="translate(0,0)"/>
<path d="" fill="#000000" transform="translate(0,0)"/>
<path d="" fill="#555555" transform="translate(0,0)"/>
<path d="" fill="#666666" transform="translate(0,0)"/>
<path d="" fill="#000000" transform="translate(0,0)"/>
<path d="" fill="#555555" transform="translate(0,0)"/>
<path d="" fill="#000000" transform="translate(0,0)"/>
<path d="" fill="#808080" transform="translate(0,0)"/>
<path d="" fill="#404040" transform="translate(0,0)"/>
<path d="" fill="#404040" transform="translate(0,0)"/>
<path d="" fill="#555555" transform="translate(0,0)"/>
<path d="" fill="#606060" transform="translate(0,0)"/>
<path d="" fill="#808080" transform="translate(0,0)"/>
<path d="" fill="#606060" transform="translate(0,0)"/>
<path d="" fill="#555555" transform="translate(0,0)"/>
<path d="" fill="#595959" transform="translate(0,0)"/>
<path d="" fill="#666666" transform="translate(0,0)"/>
<path d="" fill="#555555" transform="translate(0,0)"/>
<path d="" fill="#6D6D6D" transform="translate(0,0)"/>
<path d="" fill="#808080" transform="translate(0,0)"/>
<path d="" fill="#808080" transform="translate(0,0)"/>
<path d="" fill="#404040" transform="translate(0,0)"/>
<path d="" fill="#808080" transform="translate(0,0)"/>
<path d="" fill="#5B5B5B" transform="translate(0,0)"/>
<path d="" fill="#000000" transform="translate(0,0)"/>
<path d="" fill="#6D6D6D" transform="translate(0,0)"/>
<path d="" fill="#707070" transform="translate(0,0)"/>
<path d="" fill="#6D6D6D" transform="translate(0,0)"/>
<path d="" fill="#777777" transform="translate(0,0)"/>
<path d="" fill="#404040" transform="translate(0,0)"/>
</svg>
