<svg width="354" height="142" version="1.1" xmlns="http://www.w3.org/2000/svg" desc="Created with imagetracer.js version 1.2.6" ><path fill="rgb(16,3,3)" stroke="rgb(16,3,3)" stroke-width="1" opacity="0.1803921568627451" d="M 23.5 17 L 84 17.5 L 23.5 18 L 23.5 17 Z " /><path fill="rgb(16,3,3)" stroke="rgb(16,3,3)" stroke-width="1" opacity="0.1803921568627451" d="M 89.5 17 L 99.5 17 L 101 18.5 L 100.5 92 L 100 18 L 89.5 18 L 89.5 17 Z " /><path fill="rgb(16,3,3)" stroke="rgb(16,3,3)" stroke-width="1" opacity="0.1803921568627451" d="M 147.5 17 L 160 17.5 L 147.5 18 L 147.5 17 Z " /><path fill="rgb(16,3,3)" stroke="rgb(16,3,3)" stroke-width="1" opacity="0.1803921568627451" d="M 184.5 17 L 201.5 17 L 204 19.5 L 201.5 18 L 184.5 18 L 183.5 19 L 184.5 17 Z " /><path fill="rgb(16,3,3)" stroke="rgb(16,3,3)" stroke-width="1" opacity="0.1803921568627451" d="M 209.5 17 L 227 17.5 L 209.5 18 L 209.5 17 Z " /><path fill="rgb(16,3,3)" stroke="rgb(16,3,3)" stroke-width="1" opacity="0.1803921568627451" d="M 259.5 17 L 263 17.5 L 259.5 18 L 259.5 17 Z " /><path fill="rgb(16,3,3)" stroke="rgb(16,3,3)" stroke-width="1" opacity="0.1803921568627451" d="M 266.5 17 L 276 17.5 L 266.5 18 L 266.5 17 Z " /><path fill="rgb(16,3,3)" stroke="rgb(16,3,3)" stroke-width="1" opacity="0.1803921568627451" d="M 284.5 17 L 301 17.5 L 284.5 18 L 284.5 17 Z " /><path fill="rgb(16,3,3)" stroke="rgb(16,3,3)" stroke-width="1" opacity="0.1803921568627451" d="M 228.5 19 L 229.5 21 L 228.5 19 Z " /><path fill="rgb(16,3,3)" stroke="rgb(16,3,3)" stroke-width="1" opacity="0.1803921568627451" d="M 257.5 19 L 256.5 21 L 257.5 19 Z " /><path fill="rgb(16,3,3)" stroke="rgb(16,3,3)" stroke-width="1" opacity="0.1803921568627451" d="M 275.5 19 L 273.5 22 L 275.5 19 Z " /><path fill="rgb(16,3,3)" stroke="rgb(16,3,3)" stroke-width="1" opacity="0.1803921568627451" d="M 210.5 20 L 213.5 24 L 210.5 20 Z " /><path fill="rgb(16,3,3)" stroke="rgb(16,3,3)" stroke-width="1" opacity="0.1803921568627451" d="M 255.5 22 L 254.5 24 L 255.5 22 Z " /><path fill="rgb(16,3,3)" stroke="rgb(16,3,3)" stroke-width="1" opacity="0.1803921568627451" d="M 231.5 23 L 232.5 25 L 231.5 23 Z " /><path fill="rgb(16,3,3)" stroke="rgb(16,3,3)" stroke-width="1" opacity="0.1803921568627451" d="M 271.5 24 L 268.5 28 L 271.5 24 Z " /><path fill="rgb(16,3,3)" stroke="rgb(16,3,3)" stroke-width="1" opacity="0.1803921568627451" d="M 179.5 26 L 178.5 28 L 179.5 26 Z " /><path fill="rgb(16,3,3)" stroke="rgb(16,3,3)" stroke-width="1" opacity="0.1803921568627451" d="M 233.5 26 L 234.5 28 L 233.5 26 Z " /><path fill="rgb(16,3,3)" stroke="rgb(16,3,3)" stroke-width="1" opacity="0.1803921568627451" d="M 216.5 27 L 218.5 30 L 216.5 27 Z " /><path fill="rgb(16,3,3)" stroke="rgb(16,3,3)" stroke-width="1" opacity="0.1803921568627451" d="M 277.5 28 L 276.5 30 L 277.5 28 Z " /><path fill="rgb(16,3,3)" stroke="rgb(16,3,3)" stroke-width="1" opacity="0.1803921568627451" d="M 250.5 29 L 249.5 31 L 250.5 29 Z " /><path fill="rgb(16,3,3)" stroke="rgb(16,3,3)" stroke-width="1" opacity="0.1803921568627451" d="M 292.5 29 L 291.5 31 L 292.5 29 Z " /><path fill="rgb(16,3,3)" stroke="rgb(16,3,3)" stroke-width="1" opacity="0.1803921568627451" d="M 236.5 30 L 237.5 32 L 236.5 30 Z " /><path fill="rgb(16,3,3)" stroke="rgb(16,3,3)" stroke-width="1" opacity="0.1803921568627451" d="M 72.5 31 L 73 65.5 L 72 65.5 L 72.5 31 Z " /><path fill="rgb(16,3,3)" stroke="rgb(16,3,3)" stroke-width="1" opacity="0.1803921568627451" d="M 265.5 31 L 263.5 34 L 265.5 31 Z " /><path fill="rgb(16,3,3)" stroke="rgb(16,3,3)" stroke-width="1" opacity="0.1803921568627451" d="M 191.5 32 L 191 33.5 L 190.5 35 L 190 33.5 L 191.5 32 Z " /><path fill="rgb(16,3,3)" stroke="rgb(16,3,3)" stroke-width="1" opacity="0.1803921568627451" d="M 247.5 33 L 246.5 35 L 247.5 33 Z " /><path fill="rgb(16,3,3)" stroke="rgb(16,3,3)" stroke-width="1" opacity="0.1803921568627451" d="M 222.5 34 L 225.5 38 L 222.5 34 Z " /><path fill="rgb(16,3,3)" stroke="rgb(16,3,3)" stroke-width="1" opacity="0.1803921568627451" d="M 239.5 34 L 240.5 36 L 239.5 34 Z " /><path fill="rgb(16,3,3)" stroke="rgb(16,3,3)" stroke-width="1" opacity="0.1803921568627451" d="M 67.5 35 L 68 39.5 L 67 39.5 L 67.5 35 Z " /><path fill="rgb(16,3,3)" stroke="rgb(16,3,3)" stroke-width="1" opacity="0.1803921568627451" d="M 245.5 36 L 244.5 38 L 245.5 36 Z " /><path fill="rgb(16,3,3)" stroke="rgb(16,3,3)" stroke-width="1" opacity="0.1803921568627451" d="M 260.5 37 L 259.5 39 L 260.5 37 Z " /><path fill="rgb(16,3,3)" stroke="rgb(16,3,3)" stroke-width="1" opacity="0.1803921568627451" d="M 272.5 37 L 271.5 39 L 272.5 37 Z " /><path fill="rgb(16,3,3)" stroke="rgb(16,3,3)" stroke-width="1" opacity="0.1803921568627451" d="M 186.5 41 L 187 42.5 L 185 43.5 L 186.5 41 Z " /><path fill="rgb(16,3,3)" stroke="rgb(16,3,3)" stroke-width="1" opacity="0.1803921568627451" d="M 228.5 41 L 231.5 45 L 228.5 41 Z " /><path fill="rgb(16,3,3)" stroke="rgb(16,3,3)" stroke-width="1" opacity="0.1803921568627451" d="M 67.5 42 L 68 44.5 L 67 44.5 L 67.5 42 Z " /><path fill="rgb(16,3,3)" stroke="rgb(16,3,3)" stroke-width="1" opacity="0.1803921568627451" d="M 256.5 42 L 254.5 45 L 256.5 42 Z " /><path fill="rgb(16,3,3)" stroke="rgb(16,3,3)" stroke-width="1" opacity="0.1803921568627451" d="M 168.5 46 L 167.5 48 L 168.5 46 Z " /><path fill="rgb(16,3,3)" stroke="rgb(16,3,3)" stroke-width="1" opacity="0.1803921568627451" d="M 67.5 47 L 68 65.5 L 67 65.5 L 67.5 47 Z " /><path fill="rgb(16,3,3)" stroke="rgb(16,3,3)" stroke-width="1" opacity="0.1803921568627451" d="M 112.5 48 L 126 48.5 L 112 49 L 111.5 52 L 111 49.5 L 112.5 48 Z " /><path fill="rgb(16,3,3)" stroke="rgb(16,3,3)" stroke-width="1" opacity="0.1803921568627451" d="M 198.5 48 L 201 48.5 L 198.5 49 L 198.5 48 Z " /><path fill="rgb(16,3,3)" stroke="rgb(16,3,3)" stroke-width="1" opacity="0.1803921568627451" d="M 284.5 48 L 287 48.5 L 284.5 49 L 284.5 48 Z " /><path fill="rgb(16,3,3)" stroke="rgb(16,3,3)" stroke-width="1" opacity="0.1803921568627451" d="M 219.5 49 L 220.5 51 L 219.5 49 Z " /><path fill="rgb(16,3,3)" stroke="rgb(16,3,3)" stroke-width="1" opacity="0.1803921568627451" d="M 178.5 57 L 206.5 57 L 208 58.5 L 206.5 58 L 178.5 58 L 178.5 57 Z " /><path fill="rgb(16,3,3)" stroke="rgb(16,3,3)" stroke-width="1" opacity="0.1803921568627451" d="M 278.5 57 L 306 57.5 L 278.5 58 L 276.5 60 L 278.5 57 Z " /><path fill="rgb(16,3,3)" stroke="rgb(16,3,3)" stroke-width="1" opacity="0.1803921568627451" d="M 307.5 59 L 309 61.5 L 307 60.5 L 307.5 59 Z " /><path fill="rgb(16,3,3)" stroke="rgb(16,3,3)" stroke-width="1" opacity="0.1803921568627451" d="M 134.5 60 L 138 60.5 L 134.5 61 L 134.5 60 Z " /><path fill="rgb(16,3,3)" stroke="rgb(16,3,3)" stroke-width="1" opacity="0.1803921568627451" d="M 225.5 60 L 226.5 62 L 225.5 60 Z " /><path fill="rgb(16,3,3)" stroke="rgb(16,3,3)" stroke-width="1" opacity="0.1803921568627451" d="M 157.5 61 L 153.5 66 L 157.5 61 Z " /><path fill="rgb(16,3,3)" stroke="rgb(16,3,3)" stroke-width="1" opacity="0.1803921568627451" d="M 115.5 62 L 117.5 65 L 115.5 62 Z " /><path fill="rgb(16,3,3)" stroke="rgb(16,3,3)" stroke-width="1" opacity="0.1803921568627451" d="M 157.5 66 L 158.5 67 L 174 67.5 L 157 68 L 157.5 66 Z " /><path fill="rgb(16,3,3)" stroke="rgb(16,3,3)" stroke-width="1" opacity="0.1803921568627451" d="M 211.5 66 L 212.5 67 L 230 67.5 L 212.5 68 L 211.5 66 Z " /><path fill="rgb(16,3,3)" stroke="rgb(16,3,3)" stroke-width="1" opacity="0.1803921568627451" d="M 256.5 66 L 257.5 67 L 273 67.5 L 256 68 L 256.5 66 Z " /><path fill="rgb(16,3,3)" stroke="rgb(16,3,3)" stroke-width="1" opacity="0.1803921568627451" d="M 235.5 67 L 251 67.5 L 235.5 68 L 235.5 67 Z " /><path fill="rgb(16,3,3)" stroke="rgb(16,3,3)" stroke-width="1" opacity="0.1803921568627451" d="M 311.5 67 L 329 67.5 L 311.5 68 L 311.5 67 Z " /><path fill="rgb(16,3,3)" stroke="rgb(16,3,3)" stroke-width="1" opacity="0.1803921568627451" d="M 127.5 68 L 131 68.5 L 127.5 69 L 127.5 68 Z " /><path fill="rgb(16,3,3)" stroke="rgb(16,3,3)" stroke-width="1" opacity="0.1803921568627451" d="M 141.5 68 L 145 68.5 L 141.5 69 L 141.5 68 Z " /><path fill="rgb(16,3,3)" stroke="rgb(16,3,3)" stroke-width="1" opacity="0.1803921568627451" d="M 56.5 78 L 84 78.5 L 56.5 79 L 56.5 78 Z " /><path fill="rgb(16,3,3)" stroke="rgb(16,3,3)" stroke-width="1" opacity="0.1803921568627451" d="M 180.5 78 L 181 80.5 Q 179.8 83 176 82 L 175.5 95 L 175 81 Q 181.3 83.3 180.5 78 Z " /><path fill="rgb(16,3,3)" stroke="rgb(16,3,3)" stroke-width="1" opacity="0.1803921568627451" d="M 205.5 78 L 206 94.5 L 205 94.5 L 205.5 78 Z " /><path fill="rgb(16,3,3)" stroke="rgb(16,3,3)" stroke-width="1" opacity="0.1803921568627451" d="M 209.5 78 L 210.5 83 L 212 82.5 L 209 84 L 209.5 78 Z " /><path fill="rgb(16,3,3)" stroke="rgb(16,3,3)" stroke-width="1" opacity="0.1803921568627451" d="M 236.5 78 L 237 88 L 235 87.5 L 236 86.5 L 236.5 78 Z " /><path fill="rgb(16,3,3)" stroke="rgb(16,3,3)" stroke-width="1" opacity="0.1803921568627451" d="M 240.5 78 L 241 94.5 L 240 94.5 L 240.5 78 Z " /><path fill="rgb(16,3,3)" stroke="rgb(16,3,3)" stroke-width="1" opacity="0.1803921568627451" d="M 257.5 78 L 258 94.5 L 257 94.5 L 257.5 78 Z " /><path fill="rgb(16,3,3)" stroke="rgb(16,3,3)" stroke-width="1" opacity="0.1803921568627451" d="M 261.5 78 L 262.5 83 L 267 79.5 L 261 84 L 261.5 78 Z " /><path fill="rgb(16,3,3)" stroke="rgb(16,3,3)" stroke-width="1" opacity="0.1803921568627451" d="M 272.5 78 L 266.5 85 L 272.5 78 Z " /><path fill="rgb(16,3,3)" stroke="rgb(16,3,3)" stroke-width="1" opacity="0.1803921568627451" d="M 246.5 79 L 247 94.5 L 246 94.5 L 246.5 79 Z " /><path fill="rgb(16,3,3)" stroke="rgb(16,3,3)" stroke-width="1" opacity="0.1803921568627451" d="M 166.5 81 L 171 81.5 L 166.5 82 L 166.5 81 Z " /><path fill="rgb(16,3,3)" stroke="rgb(16,3,3)" stroke-width="1" opacity="0.1803921568627451" d="M 190.5 81 L 199 81.5 L 190.5 82 L 190.5 81 Z " /><path fill="rgb(16,3,3)" stroke="rgb(16,3,3)" stroke-width="1" opacity="0.1803921568627451" d="M 215.5 83 L 214.5 85 L 215.5 83 Z " /><path fill="rgb(16,3,3)" stroke="rgb(16,3,3)" stroke-width="1" opacity="0.1803921568627451" d="M 190.5 84 L 198 84.5 L 190.5 85 L 190.5 84 Z " /><path fill="rgb(16,3,3)" stroke="rgb(16,3,3)" stroke-width="1" opacity="0.1803921568627451" d="M 214.5 86 L 215.5 88 L 214.5 86 Z " /><path fill="rgb(16,3,3)" stroke="rgb(16,3,3)" stroke-width="1" opacity="0.1803921568627451" d="M 267.5 87 L 268.5 89 L 267.5 87 Z " /><path fill="rgb(16,3,3)" stroke="rgb(16,3,3)" stroke-width="1" opacity="0.1803921568627451" d="M 210.5 88 L 210 89.5 L 209.5 95 L 209 89.5 L 210.5 88 Z " /><path fill="rgb(16,3,3)" stroke="rgb(16,3,3)" stroke-width="1" opacity="0.1803921568627451" d="M 262.5 88 L 264 88.5 L 262 89 L 261.5 95 L 261 89.5 L 262.5 88 Z " /><path fill="rgb(16,3,3)" stroke="rgb(16,3,3)" stroke-width="1" opacity="0.1803921568627451" d="M 217.5 90 L 218.5 92 L 217.5 90 Z " /><path fill="rgb(16,3,3)" stroke="rgb(16,3,3)" stroke-width="1" opacity="0.1803921568627451" d="M 264.5 90 L 265.5 92 L 264.5 90 Z " /><path fill="rgb(16,3,3)" stroke="rgb(16,3,3)" stroke-width="1" opacity="0.1803921568627451" d="M 269.5 90 L 270.5 92 L 269.5 90 Z " /><path fill="rgb(16,3,3)" stroke="rgb(16,3,3)" stroke-width="1" opacity="0.1803921568627451" d="M 190.5 91 L 199 91.5 L 190.5 92 L 190.5 91 Z " /><path fill="rgb(16,3,3)" stroke="rgb(16,3,3)" stroke-width="1" opacity="0.1803921568627451" d="M 214.5 93 L 215.5 95 L 214.5 93 Z " /><path fill="rgb(16,3,3)" stroke="rgb(16,3,3)" stroke-width="1" opacity="0.1803921568627451" d="M 35.5 108 L 33.5 111 L 31 110.5 L 35.5 108 Z " /><path fill="rgb(16,3,3)" stroke="rgb(16,3,3)" stroke-width="1" opacity="0.1803921568627451" d="M 200.5 109 L 203 109.5 L 200.5 110 L 200.5 109 Z " /><path fill="rgb(16,3,3)" stroke="rgb(16,3,3)" stroke-width="1" opacity="0.1803921568627451" d="M 36.5 110 L 35.5 112 L 36.5 110 Z " /><path fill="rgb(16,3,3)" stroke="rgb(16,3,3)" stroke-width="1" opacity="0.1803921568627451" d="M 216.5 110 L 217.5 112 L 216.5 110 Z " /><path fill="rgb(16,3,3)" stroke="rgb(16,3,3)" stroke-width="1" opacity="0.1803921568627451" d="M 29.5 111 L 31 112.5 L 27.5 116 L 30 112.5 L 29.5 111 Z " /><path fill="rgb(16,3,3)" stroke="rgb(16,3,3)" stroke-width="1" opacity="0.1803921568627451" d="M 87.5 111 L 83.5 116 L 87.5 111 Z " /><path fill="rgb(16,3,3)" stroke="rgb(16,3,3)" stroke-width="1" opacity="0.1803921568627451" d="M 89.5 111 L 90 113.5 L 89 113.5 L 89.5 111 Z " /><path fill="rgb(16,3,3)" stroke="rgb(16,3,3)" stroke-width="1" opacity="0.1803921568627451" d="M 179.5 111 L 181 113.5 L 180 113.5 L 179.5 111 Z " /><path fill="rgb(16,3,3)" stroke="rgb(16,3,3)" stroke-width="1" opacity="0.1803921568627451" d="M 194.5 111 L 193 113.5 L 192.5 115 L 192 113.5 L 194.5 111 Z " /><path fill="rgb(16,3,3)" stroke="rgb(16,3,3)" stroke-width="1" opacity="0.1803921568627451" d="M 271.5 111 L 269.5 114 L 271.5 111 Z " /><path fill="rgb(16,3,3)" stroke="rgb(16,3,3)" stroke-width="1" opacity="0.1803921568627451" d="M 293.5 111 L 292.5 113 L 293.5 111 Z " /><path fill="rgb(16,3,3)" stroke="rgb(16,3,3)" stroke-width="1" opacity="0.1803921568627451" d="M 27.5 112 L 25.5 115 L 27.5 112 Z " /><path fill="rgb(16,3,3)" stroke="rgb(16,3,3)" stroke-width="1" opacity="0.1803921568627451" d="M 235.5 112 L 234.5 114 L 235.5 112 Z " /><path fill="rgb(16,3,3)" stroke="rgb(16,3,3)" stroke-width="1" opacity="0.1803921568627451" d="M 273.5 112 L 274 113.5 L 271 115.5 L 273.5 112 Z " /><path fill="rgb(16,3,3)" stroke="rgb(16,3,3)" stroke-width="1" opacity="0.1803921568627451" d="M 205.5 113 L 210 113.5 L 205.5 114 L 205.5 113 Z " /><path fill="rgb(16,3,3)" stroke="rgb(16,3,3)" stroke-width="1" opacity="0.1803921568627451" d="M 214.5 113 Q 216.8 112.3 216 114.5 L 214.5 113 Z " /><path fill="rgb(16,3,3)" stroke="rgb(16,3,3)" stroke-width="1" opacity="0.1803921568627451" d="M 106.5 114 L 107.5 116 L 106.5 114 Z " /><path fill="rgb(16,3,3)" stroke="rgb(16,3,3)" stroke-width="1" opacity="0.1803921568627451" d="M 176.5 114 L 175.5 116 L 176.5 114 Z " /><path fill="rgb(16,3,3)" stroke="rgb(16,3,3)" stroke-width="1" opacity="0.1803921568627451" d="M 198.5 114 L 201 114.5 L 198 115.5 L 198.5 117 L 196 116.5 L 198.5 114 Z " /><path fill="rgb(16,3,3)" stroke="rgb(16,3,3)" stroke-width="1" opacity="0.1803921568627451" d="M 290.5 114 L 293 115.5 L 291 116.5 L 291.5 118 L 289.5 116 L 287 117.5 L 290.5 114 Z " /><path fill="rgb(16,3,3)" stroke="rgb(16,3,3)" stroke-width="1" opacity="0.1803921568627451" d="M 312.5 114 L 314 117.5 L 313.5 119 L 312 116.5 L 312.5 114 Z " /><path fill="rgb(16,3,3)" stroke="rgb(16,3,3)" stroke-width="1" opacity="0.1803921568627451" d="M 179.5 115 L 178.5 117 L 179.5 115 Z " /><path fill="rgb(16,3,3)" stroke="rgb(16,3,3)" stroke-width="1" opacity="0.1803921568627451" d="M 202.5 115 L 201.5 117 L 202.5 115 Z " /><path fill="rgb(16,3,3)" stroke="rgb(16,3,3)" stroke-width="1" opacity="0.1803921568627451" d="M 245.5 115 L 248 116.5 L 246.5 116 L 245.5 115 Z " /><path fill="rgb(16,3,3)" stroke="rgb(16,3,3)" stroke-width="1" opacity="0.1803921568627451" d="M 267.5 115 L 265.5 118 L 267.5 115 Z " /><path fill="rgb(16,3,3)" stroke="rgb(16,3,3)" stroke-width="1" opacity="0.1803921568627451" d="M 301.5 115 L 304 115.5 L 300.5 117 L 301.5 115 Z " /><path fill="rgb(16,3,3)" stroke="rgb(16,3,3)" stroke-width="1" opacity="0.1803921568627451" d="M 310.5 115 L 308.5 118 L 306 117.5 L 310.5 115 Z " /><path fill="rgb(16,3,3)" stroke="rgb(16,3,3)" stroke-width="1" opacity="0.1803921568627451" d="M 234.5 116 L 236 116.5 L 234 117.5 L 237 118.5 L 233.5 120 L 232 119.5 L 234 118.5 Q 231.8 117.3 234.5 116 Z " /><path fill="rgb(16,3,3)" stroke="rgb(16,3,3)" stroke-width="1" opacity="0.1803921568627451" d="M 84.5 117 L 85.5 120 L 87 119.5 L 81 124.5 Q 84.5 123 82 121.5 Q 81.3 119.3 83.5 120 L 84.5 117 Z " /><path fill="rgb(16,3,3)" stroke="rgb(16,3,3)" stroke-width="1" opacity="0.1803921568627451" d="M 203.5 117 L 203.5 119 L 205 119.5 L 203.5 120 Q 200.5 118.5 203.5 117 Z " /><path fill="rgb(16,3,3)" stroke="rgb(16,3,3)" stroke-width="1" opacity="0.1803921568627451" d="M 216.5 117 L 215.5 119 L 216.5 117 Z " /><path fill="rgb(16,3,3)" stroke="rgb(16,3,3)" stroke-width="1" opacity="0.1803921568627451" d="M 272.5 117 L 271.5 119 L 272.5 117 Z " /><path fill="rgb(16,3,3)" stroke="rgb(16,3,3)" stroke-width="1" opacity="0.1803921568627451" d="M 303.5 117 L 302.5 119 L 303.5 117 Z " /><path fill="rgb(16,3,3)" stroke="rgb(16,3,3)" stroke-width="1" opacity="0.1803921568627451" d="M 26.5 118 L 27 123.5 L 26 123.5 L 26.5 118 Z " /><path fill="rgb(16,3,3)" stroke="rgb(16,3,3)" stroke-width="1" opacity="0.1803921568627451" d="M 99.5 118 L 98.5 120 L 99.5 118 Z " /><path fill="rgb(16,3,3)" stroke="rgb(16,3,3)" stroke-width="1" opacity="0.1803921568627451" d="M 177.5 118 L 176.5 120 L 177.5 118 Z " /><path fill="rgb(16,3,3)" stroke="rgb(16,3,3)" stroke-width="1" opacity="0.1803921568627451" d="M 200.5 118 L 198.5 121 L 200.5 118 Z " /><path fill="rgb(16,3,3)" stroke="rgb(16,3,3)" stroke-width="1" opacity="0.1803921568627451" d="M 318.5 118 L 320 120.5 L 319 120.5 L 318.5 118 Z " /><path fill="rgb(16,3,3)" stroke="rgb(16,3,3)" stroke-width="1" opacity="0.1803921568627451" d="M 52.5 119 L 55 120.5 L 49 125.5 L 53.5 120 L 52.5 119 Z " /><path fill="rgb(16,3,3)" stroke="rgb(16,3,3)" stroke-width="1" opacity="0.1803921568627451" d="M 107.5 119 L 105.5 122 L 101.5 124 L 103.5 121 L 107.5 119 Z " /><path fill="rgb(16,3,3)" stroke="rgb(16,3,3)" stroke-width="1" opacity="0.1803921568627451" d="M 119.5 119 L 120.5 121 L 119.5 119 Z " /><path fill="rgb(16,3,3)" stroke="rgb(16,3,3)" stroke-width="1" opacity="0.1803921568627451" d="M 268.5 119 Q 273 121 269.5 123 L 268.5 120 L 266.5 121 L 266.5 120 L 268.5 119 Z " /><path fill="rgb(16,3,3)" stroke="rgb(16,3,3)" stroke-width="1" opacity="0.1803921568627451" d="M 304.5 119 L 304.5 121 Q 306.8 120.3 306 122.5 L 302 126.5 L 303 127.5 L 302.5 131 L 301.5 129 L 300 129.5 L 300 127.5 L 304.5 122 Q 302.3 122.8 303 120.5 L 304.5 119 Z " /><path fill="rgb(16,3,3)" stroke="rgb(16,3,3)" stroke-width="1" opacity="0.1803921568627451" d="M 324.5 119 L 326 119.5 L 318.5 126 L 324.5 119 Z " /><path fill="rgb(16,3,3)" stroke="rgb(16,3,3)" stroke-width="1" opacity="0.1803921568627451" d="M 50.5 120 L 48.5 123 L 50.5 120 Z " /><path fill="rgb(16,3,3)" stroke="rgb(16,3,3)" stroke-width="1" opacity="0.1803921568627451" d="M 58.5 120 L 54.5 125 L 58.5 120 Z " /><path fill="rgb(16,3,3)" stroke="rgb(16,3,3)" stroke-width="1" opacity="0.1803921568627451" d="M 151.5 120 L 154 120.5 L 149.5 123 L 151.5 120 Z " /><path fill="rgb(16,3,3)" stroke="rgb(16,3,3)" stroke-width="1" opacity="0.1803921568627451" d="M 157.5 120 L 156.5 122 L 157.5 120 Z " /><path fill="rgb(16,3,3)" stroke="rgb(16,3,3)" stroke-width="1" opacity="0.1803921568627451" d="M 244.5 120 L 245 121.5 L 243 122.5 L 244.5 120 Z " /><path fill="rgb(16,3,3)" stroke="rgb(16,3,3)" stroke-width="1" opacity="0.1803921568627451" d="M 272.5 120 L 274 122.5 L 273 122.5 L 272.5 120 Z " /><path fill="rgb(16,3,3)" stroke="rgb(16,3,3)" stroke-width="1" opacity="0.1803921568627451" d="M 289.5 120 L 291 121.5 L 287.5 125 L 289.5 120 Z " /><path fill="rgb(16,3,3)" stroke="rgb(16,3,3)" stroke-width="1" opacity="0.1803921568627451" d="M 297.5 120 L 295.5 123 L 297.5 120 Z " /><path fill="rgb(16,3,3)" stroke="rgb(16,3,3)" stroke-width="1" opacity="0.1803921568627451" d="M 315.5 120 L 314.5 122 L 315.5 120 Z " /><path fill="rgb(16,3,3)" stroke="rgb(16,3,3)" stroke-width="1" opacity="0.1803921568627451" d="M 61.5 121 L 58.5 125 L 61.5 121 Z " /><path fill="rgb(16,3,3)" stroke="rgb(16,3,3)" stroke-width="1" opacity="0.1803921568627451" d="M 97.5 121 L 100 122.5 L 98.5 122 L 97.5 121 Z " /><path fill="rgb(16,3,3)" stroke="rgb(16,3,3)" stroke-width="1" opacity="0.1803921568627451" d="M 113.5 121 L 109.5 126 L 113.5 121 Z " /><path fill="rgb(16,3,3)" stroke="rgb(16,3,3)" stroke-width="1" opacity="0.1803921568627451" d="M 175.5 121 L 174.5 123 L 175.5 121 Z " /><path fill="rgb(16,3,3)" stroke="rgb(16,3,3)" stroke-width="1" opacity="0.1803921568627451" d="M 195.5 121 L 194.5 123 L 195.5 121 Z " /><path fill="rgb(16,3,3)" stroke="rgb(16,3,3)" stroke-width="1" opacity="0.1803921568627451" d="M 205.5 121 L 208 121.5 L 205.5 122 L 205.5 121 Z " /><path fill="rgb(16,3,3)" stroke="rgb(16,3,3)" stroke-width="1" opacity="0.1803921568627451" d="M 70.5 122 L 73 122.5 L 69.5 127 Q 71.8 126.3 71 128.5 L 68 128.5 L 68 126.5 L 71 123.5 L 70.5 122 Z " /><path fill="rgb(16,3,3)" stroke="rgb(16,3,3)" stroke-width="1" opacity="0.1803921568627451" d="M 94.5 122 L 91 126.5 L 90.5 128 L 90 126.5 L 94.5 122 Z " /><path fill="rgb(16,3,3)" stroke="rgb(16,3,3)" stroke-width="1" opacity="0.1803921568627451" d="M 115.5 122 L 111.5 127 L 115.5 122 Z " /><path fill="rgb(16,3,3)" stroke="rgb(16,3,3)" stroke-width="1" opacity="0.1803921568627451" d="M 153.5 122 L 151 125.5 L 150.5 127 L 150 125.5 L 153.5 122 Z " /><path fill="rgb(16,3,3)" stroke="rgb(16,3,3)" stroke-width="1" opacity="0.1803921568627451" d="M 164.5 122 L 163.5 124 L 164.5 122 Z " /><path fill="rgb(16,3,3)" stroke="rgb(16,3,3)" stroke-width="1" opacity="0.1803921568627451" d="M 200 122 Q 203 121 202 124 Q 199 125 200 122 Z " /><path fill="rgb(16,3,3)" stroke="rgb(16,3,3)" stroke-width="1" opacity="0.1803921568627451" d="M 248.5 122 L 246.5 125 L 248.5 122 Z " /><path fill="rgb(16,3,3)" stroke="rgb(16,3,3)" stroke-width="1" opacity="0.1803921568627451" d="M 254.5 122 L 257 122.5 L 254 125.5 L 255 126.5 Q 255.8 128.8 253.5 128 L 254.5 122 Z " /><path fill="rgb(16,3,3)" stroke="rgb(16,3,3)" stroke-width="1" opacity="0.1803921568627451" d="M 281.5 122 L 278 126.5 L 277.5 128 L 277 126.5 L 281.5 122 Z " /><path fill="rgb(16,3,3)" stroke="rgb(16,3,3)" stroke-width="1" opacity="0.1803921568627451" d="M 75.5 123 L 73.5 126 L 75.5 123 Z " /><path fill="rgb(16,3,3)" stroke="rgb(16,3,3)" stroke-width="1" opacity="0.1803921568627451" d="M 266.5 123 L 265 125.5 L 264.5 127 L 264 125.5 L 266.5 123 Z " /><path fill="rgb(16,3,3)" stroke="rgb(16,3,3)" stroke-width="1" opacity="0.1803921568627451" d="M 299.5 123 L 298.5 125 L 299.5 123 Z " /><path fill="rgb(16,3,3)" stroke="rgb(16,3,3)" stroke-width="1" opacity="0.1803921568627451" d="M 317.5 123 L 316.5 125 L 317.5 123 Z " /><path fill="rgb(16,3,3)" stroke="rgb(16,3,3)" stroke-width="1" opacity="0.1803921568627451" d="M 32.5 124 L 33.5 126 L 32.5 124 Z " /><path fill="rgb(16,3,3)" stroke="rgb(16,3,3)" stroke-width="1" opacity="0.1803921568627451" d="M 45.5 124 L 41.5 129 L 45.5 124 Z " /><path fill="rgb(16,3,3)" stroke="rgb(16,3,3)" stroke-width="1" opacity="0.1803921568627451" d="M 78.5 124 L 79 125.5 L 77 126.5 L 78.5 124 Z " /><path fill="rgb(16,3,3)" stroke="rgb(16,3,3)" stroke-width="1" opacity="0.1803921568627451" d="M 135.5 124 L 133.5 127 L 135.5 124 Z " /><path fill="rgb(16,3,3)" stroke="rgb(16,3,3)" stroke-width="1" opacity="0.1803921568627451" d="M 139.5 124 L 136.5 130 L 136 127.5 L 139.5 124 Z " /><path fill="rgb(16,3,3)" stroke="rgb(16,3,3)" stroke-width="1" opacity="0.1803921568627451" d="M 155.5 124 L 157 124.5 L 154 126.5 L 154.5 128 L 152 127.5 L 155.5 124 Z " /><path fill="rgb(16,3,3)" stroke="rgb(16,3,3)" stroke-width="1" opacity="0.1803921568627451" d="M 166.5 124 L 166 125.5 L 167 127.5 L 165 128 L 166.5 124 Z " /><path fill="rgb(16,3,3)" stroke="rgb(16,3,3)" stroke-width="1" opacity="0.1803921568627451" d="M 219.5 124 L 222 125.5 L 220.5 125 L 219.5 124 Z " /><path fill="rgb(16,3,3)" stroke="rgb(16,3,3)" stroke-width="1" opacity="0.1803921568627451" d="M 258.5 124 L 257.5 126 L 258.5 124 Z " /><path fill="rgb(16,3,3)" stroke="rgb(16,3,3)" stroke-width="1" opacity="0.1803921568627451" d="M 262.5 124 L 263 125.5 L 261 126.5 L 262.5 124 Z " /><path fill="rgb(16,3,3)" stroke="rgb(16,3,3)" stroke-width="1" opacity="0.1803921568627451" d="M 275.5 124 L 274.5 126 L 275.5 124 Z " /><path fill="rgb(16,3,3)" stroke="rgb(16,3,3)" stroke-width="1" opacity="0.1803921568627451" d="M 106.5 125 L 106.5 128 Q 103.5 126.5 106.5 125 Z " /><path fill="rgb(16,3,3)" stroke="rgb(16,3,3)" stroke-width="1" opacity="0.1803921568627451" d="M 120.5 125 L 122 125.5 L 118.5 128 L 120.5 125 Z " /><path fill="rgb(16,3,3)" stroke="rgb(16,3,3)" stroke-width="1" opacity="0.1803921568627451" d="M 178.5 125 L 177.5 127 L 178.5 125 Z " /><path fill="rgb(16,3,3)" stroke="rgb(16,3,3)" stroke-width="1" opacity="0.1803921568627451" d="M 227.5 125 L 227.5 128 Q 224.5 126.5 227.5 125 Z " /><path fill="rgb(16,3,3)" stroke="rgb(16,3,3)" stroke-width="1" opacity="0.1803921568627451" d="M 230.5 125 L 231 128 L 235 129.5 L 233 130.5 L 233.5 129 L 230 127.5 L 230.5 125 Z " /><path fill="rgb(16,3,3)" stroke="rgb(16,3,3)" stroke-width="1" opacity="0.1803921568627451" d="M 237.5 125 L 236.5 127 L 237.5 125 Z " /><path fill="rgb(16,3,3)" stroke="rgb(16,3,3)" stroke-width="1" opacity="0.1803921568627451" d="M 327.5 125 L 326.5 127 L 327.5 125 Z " /><path fill="rgb(16,3,3)" stroke="rgb(16,3,3)" stroke-width="1" opacity="0.1803921568627451" d="M 51.5 126 L 50.5 128 L 49 127.5 L 51.5 126 Z " /><path fill="rgb(16,3,3)" stroke="rgb(16,3,3)" stroke-width="1" opacity="0.1803921568627451" d="M 95.5 126 L 96.5 128 L 94 127.5 L 95.5 126 Z " /><path fill="rgb(16,3,3)" stroke="rgb(16,3,3)" stroke-width="1" opacity="0.1803921568627451" d="M 146.5 126 L 146.5 128 Q 148.8 127.3 148 129.5 L 148.5 131 L 145 127.5 L 146.5 126 Z " /><path fill="rgb(16,3,3)" stroke="rgb(16,3,3)" stroke-width="1" opacity="0.1803921568627451" d="M 197.5 126 L 199 126.5 L 196.5 128 L 197.5 126 Z " /><path fill="rgb(16,3,3)" stroke="rgb(16,3,3)" stroke-width="1" opacity="0.1803921568627451" d="M 292.5 126 L 291.5 128 L 292.5 126 Z " /><path fill="rgb(16,3,3)" stroke="rgb(16,3,3)" stroke-width="1" opacity="0.1803921568627451" d="M 314.5 126 L 315.5 128 Q 312.7 128.7 314.5 126 Z " /><path fill="rgb(16,3,3)" stroke="rgb(16,3,3)" stroke-width="1" opacity="0.1803921568627451" d="M 24.5 127 L 26.5 130 L 24.5 127 Z " /><path fill="rgb(16,3,3)" stroke="rgb(16,3,3)" stroke-width="1" opacity="0.1803921568627451" d="M 34.5 127 L 36.5 130 L 34.5 127 Z " /><path fill="rgb(16,3,3)" stroke="rgb(16,3,3)" stroke-width="1" opacity="0.1803921568627451" d="M 53.5 127 L 55 127.5 L 50.5 131 L 53.5 127 Z " /><path fill="rgb(16,3,3)" stroke="rgb(16,3,3)" stroke-width="1" opacity="0.1803921568627451" d="M 81.5 127 L 84 128.5 L 82.5 129 L 81.5 127 Z " /><path fill="rgb(16,3,3)" stroke="rgb(16,3,3)" stroke-width="1" opacity="0.1803921568627451" d="M 85.5 127 L 88 127.5 L 85 129.5 L 85.5 127 Z " /><path fill="rgb(16,3,3)" stroke="rgb(16,3,3)" stroke-width="1" opacity="0.1803921568627451" d="M 116.5 127 L 115.5 129 L 116.5 127 Z " /><path fill="rgb(16,3,3)" stroke="rgb(16,3,3)" stroke-width="1" opacity="0.1803921568627451" d="M 159.5 127 L 161.5 127 L 163 127.5 L 158.5 131 L 159.5 127 Z " /><path fill="rgb(16,3,3)" stroke="rgb(16,3,3)" stroke-width="1" opacity="0.1803921568627451" d="M 169.5 127 Q 172.5 126.1 171 130.5 L 170 130.5 L 169.5 128 L 168 128.5 L 169.5 127 Z " /><path fill="rgb(16,3,3)" stroke="rgb(16,3,3)" stroke-width="1" opacity="0.1803921568627451" d="M 256.5 127 L 257.5 129 L 256.5 127 Z " /><path fill="rgb(16,3,3)" stroke="rgb(16,3,3)" stroke-width="1" opacity="0.1803921568627451" d="M 259.5 127 Q 262.5 128.5 259.5 130 L 259.5 127 Z " /><path fill="rgb(16,3,3)" stroke="rgb(16,3,3)" stroke-width="1" opacity="0.1803921568627451" d="M 296.5 127 L 299 128.5 L 297.5 129 L 296.5 127 Z " /><path fill="rgb(16,3,3)" stroke="rgb(16,3,3)" stroke-width="1" opacity="0.1803921568627451" d="M 309.5 127 L 313 128.5 L 309 129.5 L 309.5 127 Z " /><path fill="rgb(16,3,3)" stroke="rgb(16,3,3)" stroke-width="1" opacity="0.1803921568627451" d="M 38.5 128 L 39.5 130 L 38.5 128 Z " /><path fill="rgb(16,3,3)" stroke="rgb(16,3,3)" stroke-width="1" opacity="0.1803921568627451" d="M 78.5 128 L 80 130.5 L 78 129.5 L 78.5 128 Z " /><path fill="rgb(16,3,3)" stroke="rgb(16,3,3)" stroke-width="1" opacity="0.1803921568627451" d="M 102.5 128 Q 105.5 129.5 102.5 131 L 102.5 128 Z " /><path fill="rgb(16,3,3)" stroke="rgb(16,3,3)" stroke-width="1" opacity="0.1803921568627451" d="M 173.5 128 L 176 129.5 L 174 130.5 L 174.5 129 L 173.5 128 Z " /><path fill="rgb(16,3,3)" stroke="rgb(16,3,3)" stroke-width="1" opacity="0.1803921568627451" d="M 193.5 128 L 192.5 130 L 193.5 128 Z " /><path fill="rgb(16,3,3)" stroke="rgb(16,3,3)" stroke-width="1" opacity="0.1803921568627451" d="M 245.5 128 L 247.5 131 L 245.5 128 Z " /><path fill="rgb(16,3,3)" stroke="rgb(16,3,3)" stroke-width="1" opacity="0.1803921568627451" d="M 248.5 128 L 251 129.5 L 249 130.5 L 249.5 129 L 248.5 128 Z " /><path fill="rgb(16,3,3)" stroke="rgb(16,3,3)" stroke-width="1" opacity="0.1803921568627451" d="M 317.5 128 L 318.5 130 L 316 129.5 L 317.5 128 Z " /><path fill="rgb(16,3,3)" stroke="rgb(16,3,3)" stroke-width="1" opacity="0.1803921568627451" d="M 321.5 128 L 322 129.5 L 320 130.5 L 321.5 128 Z " /><path fill="rgb(16,3,3)" stroke="rgb(16,3,3)" stroke-width="1" opacity="0.1803921568627451" d="M 62.5 129 L 63.5 131 L 62.5 129 Z " /><path fill="rgb(16,3,3)" stroke="rgb(16,3,3)" stroke-width="1" opacity="0.1803921568627451" d="M 75.5 129 L 74.5 131 L 75.5 129 Z " /><path fill="rgb(16,3,3)" stroke="rgb(16,3,3)" stroke-width="1" opacity="0.1803921568627451" d="M 94.5 129 L 93.5 131 L 94.5 129 Z " /><path fill="rgb(16,3,3)" stroke="rgb(16,3,3)" stroke-width="1" opacity="0.1803921568627451" d="M 96.5 129 L 98 131.5 L 96 130.5 L 96.5 129 Z " /><path fill="rgb(16,3,3)" stroke="rgb(16,3,3)" stroke-width="1" opacity="0.1803921568627451" d="M 107.5 129 L 108.5 131 L 107.5 129 Z " /><path fill="rgb(16,3,3)" stroke="rgb(16,3,3)" stroke-width="1" opacity="0.1803921568627451" d="M 118.5 129 L 112.5 136 L 118.5 129 Z " /><path fill="rgb(16,3,3)" stroke="rgb(16,3,3)" stroke-width="1" opacity="0.1803921568627451" d="M 163.5 129 L 166 130.5 L 164.5 131 L 163.5 129 Z " /><path fill="rgb(16,3,3)" stroke="rgb(16,3,3)" stroke-width="1" opacity="0.1803921568627451" d="M 214.5 129 L 215 131.5 L 214 131.5 L 214.5 129 Z " /><path fill="rgb(16,3,3)" stroke="rgb(16,3,3)" stroke-width="1" opacity="0.1803921568627451" d="M 224.5 129 L 223.5 131 L 224.5 129 Z " /><path fill="rgb(16,3,3)" stroke="rgb(16,3,3)" stroke-width="1" opacity="0.1803921568627451" d="M 268.5 129 L 267.5 131 L 268.5 129 Z " /><path fill="rgb(16,3,3)" stroke="rgb(16,3,3)" stroke-width="1" opacity="0.1803921568627451" d="M 281.5 129 L 280.5 131 L 281.5 129 Z " /><path fill="rgb(16,3,3)" stroke="rgb(16,3,3)" stroke-width="1" opacity="0.1803921568627451" d="M 154.5 130 L 157 131.5 L 155.5 132 L 154.5 130 Z " /><path fill="rgb(16,3,3)" stroke="rgb(16,3,3)" stroke-width="1" opacity="0.1803921568627451" d="M 253.5 130 L 254.5 132 L 253.5 130 Z " /><path fill="rgb(16,3,3)" stroke="rgb(16,3,3)" stroke-width="1" opacity="0.1803921568627451" d="M 294.5 130 L 298 131.5 L 295.5 132 L 294.5 130 Z " /><path fill="rgb(16,3,3)" stroke="rgb(16,3,3)" stroke-width="1" opacity="0.1803921568627451" d="M 30.5 131 L 36 131.5 L 30.5 132 L 30.5 131 Z " /><path fill="rgb(16,3,3)" stroke="rgb(16,3,3)" stroke-width="1" opacity="0.1803921568627451" d="M 191.5 131 L 192.5 133 L 191.5 131 Z " /><path fill="rgb(16,3,3)" stroke="rgb(16,3,3)" stroke-width="1" opacity="0.1803921568627451" d="M 218.5 131 L 221 131.5 L 218.5 132 L 218.5 131 Z " /><path fill="rgb(16,3,3)" stroke="rgb(16,3,3)" stroke-width="1" opacity="0.1803921568627451" d="M 40.5 132 L 41.5 134 L 40.5 132 Z " /><path fill="rgb(16,3,3)" stroke="rgb(16,3,3)" stroke-width="1" opacity="0.1803921568627451" d="M 320.5 133 L 316.5 138 L 320.5 133 Z " /><path fill="rgb(16,3,3)" stroke="rgb(16,3,3)" stroke-width="1" opacity="0.1803921568627451" d="M 39.5 134 L 40.5 136 L 39.5 134 Z " /><path fill="rgb(16,3,3)" stroke="rgb(16,3,3)" stroke-width="1" opacity="0.1803921568627451" d="M 46.5 135 Q 49.5 136.5 46.5 138 L 43 137.5 L 47 136.5 L 46.5 135 Z " /><path fill="rgb(16,3,3)" stroke="rgb(16,3,3)" stroke-width="1" opacity="0.1803921568627451" d="M 109.5 135 L 110 137.5 L 109 137.5 L 109.5 135 Z " /><path fill="rgb(196,29,35)" stroke="rgb(196,29,35)" stroke-width="1" opacity="0.9450980392156862" d="M 23 18 L 84 18 L 84 78 L 56 78 L 56 46.5 L 54.5 46 L 52.5 46 L 51 46.5 L 51 84 L 89 84 L 89 18.5 L 89.5 18 L 100 18 L 100 91.5 L 101 92.5 L 100 95 L 40.5 95 L 39 93.5 L 39 35.5 L 40.5 34 L 67 34 L 67 66.5 L 67.5 67 L 73 67 L 73 30.5 L 71.5 29 L 34 29 L 34 94.5 L 33.5 95 L 23 95 L 23 18 Z " /><path fill="rgb(0,0,0)" stroke="rgb(0,0,0)" stroke-width="1" opacity="0" d="M 0 0 L 354 0 L 354 142 L 0 142 L 0 0 Z M 23 17 L 23 95 L 34 95 L 34 95 L 34 29 L 72 29 Q 74 30 72 32 L 72 66 L 73 67 L 68 67 L 68 66 L 68 48 L 67 47 L 68 45 L 67 42 L 68 36 L 67 34 L 39 34 L 39 95 L 101 95 L 101 19 L 100 17 L 90 17 L 89 18 L 89 84 L 51 84 L 51 46 L 56 47 L 56 79 L 84 79 L 84 17 L 23 17 Z M 144 17 L 144 56 L 143 58 L 140 60 Q 132 61 129 59 L 127 54 L 127 50 L 126 48 L 113 48 L 111 50 Q 111 58 115 63 L 121 67 L 128 69 Q 144 71 154 66 L 160 58 L 160 17 L 148 17 L 147 18 L 144 17 Z M 185 17 L 157 67 L 158 68 L 174 68 L 178 60 L 179 58 L 207 58 L 213 68 L 230 68 L 204 20 L 202 17 L 185 17 Z M 209 17 L 210 21 L 235 50 L 235 68 L 251 68 L 251 50 L 276 20 L 276 17 L 267 17 L 266 18 L 260 17 L 244 39 L 230 21 L 227 17 L 209 17 Z M 285 17 L 281 21 L 256 67 L 257 68 L 273 68 L 276 61 L 279 58 L 307 58 L 311 68 L 329 68 L 303 20 L 301 17 L 285 17 Z M 166 78 L 166 82 L 171 83 L 171 95 L 176 95 L 176 82 Q 180 83 181 81 L 181 78 L 166 78 Z M 186 78 L 186 95 L 188 96 L 189 95 L 199 95 L 199 91 L 190 91 L 190 88 L 198 88 L 198 84 L 190 84 L 191 82 L 199 82 L 199 78 L 186 78 Z M 205 78 L 205 95 L 210 95 L 210 89 L 212 89 L 216 95 L 221 95 L 216 88 Q 212 86 216 84 Q 215 81 218 82 L 220 79 L 216 78 L 210 83 L 210 78 L 205 78 Z M 226 78 L 226 95 L 230 95 L 231 85 L 235 94 Q 236 96 241 95 L 241 79 L 236 78 L 236 87 L 231 80 L 231 78 L 226 78 Z M 248 78 L 246 80 L 246 95 L 251 95 L 251 79 L 248 78 Z M 257 78 L 257 95 L 262 95 L 262 89 L 264 89 L 267 95 L 273 95 L 269 89 L 266 86 L 273 79 L 268 78 L 262 83 L 262 78 L 257 78 Z M 38 107 L 28 112 L 23 119 L 24 128 Q 27 133 37 132 L 44 138 Q 47 139 48 137 L 38 131 L 42 129 Q 48 125 49 117 L 48 112 Q 47 106 38 107 Z M 201 109 L 195 111 L 192 114 L 192 117 L 199 117 L 198 116 L 202 114 L 203 115 L 201 118 Q 200 122 196 121 L 193 125 L 195 126 L 192 131 Q 190 132 193 133 L 198 127 L 201 127 L 212 132 Q 216 134 215 130 L 213 127 L 205 124 Q 201 125 202 122 Q 210 123 216 119 Q 219 117 218 112 L 215 109 L 201 109 Z M 275 109 L 272 111 Q 264 116 262 126 L 257 128 L 259 124 L 260 121 L 259 119 L 255 119 L 249 122 L 246 126 Q 245 129 240 128 L 245 122 Q 246 118 242 120 L 238 125 Q 237 129 231 128 L 231 125 L 239 115 L 239 111 L 236 112 Q 230 116 228 125 L 222 129 L 219 128 L 226 124 L 227 119 L 222 119 L 218 121 L 216 125 Q 215 131 219 132 Q 225 132 227 128 Q 229 127 228 131 L 231 132 L 237 128 L 240 132 L 245 129 L 248 131 Q 252 132 253 128 Q 255 127 254 130 Q 252 131 255 132 L 257 132 L 262 128 L 265 132 L 275 127 L 278 132 L 284 128 L 287 132 L 293 128 L 296 132 L 302 129 L 304 132 Q 308 133 310 130 Q 312 126 315 131 L 317 130 L 320 128 L 315 135 Q 313 139 317 138 L 328 126 L 327 125 L 322 129 L 326 123 L 326 119 L 315 127 Q 314 124 317 125 L 320 121 L 319 118 L 316 120 L 312 126 L 308 128 L 306 129 L 308 122 L 313 121 L 314 118 L 313 114 L 303 121 Q 302 123 305 122 L 300 128 L 296 127 L 299 125 L 301 122 Q 302 118 298 120 L 294 126 L 291 128 L 287 128 L 287 126 L 295 116 Q 297 110 294 111 L 285 121 L 284 126 L 278 128 L 282 123 L 282 120 L 277 121 L 274 126 L 272 126 L 274 123 L 273 120 L 271 121 L 268 125 Q 270 130 265 128 L 265 126 L 269 121 L 272 119 L 277 112 Q 278 108 275 109 Z M 88 111 L 80 120 L 78 126 Q 77 129 73 128 L 76 124 L 76 119 Q 68 118 65 123 Q 62 122 63 125 L 59 128 L 57 128 L 62 122 L 62 119 L 59 120 Q 56 126 50 127 L 55 121 L 54 119 L 51 120 L 46 128 L 49 131 Q 53 132 54 128 L 54 132 Q 59 132 62 128 L 64 131 L 70 128 L 70 132 Q 75 132 78 128 L 78 130 L 82 132 L 88 128 L 88 131 L 91 132 L 97 128 L 96 130 L 98 132 L 101 132 L 107 128 L 109 131 L 111 130 L 114 128 L 109 136 Q 108 139 111 138 L 122 126 L 121 125 L 115 130 L 120 122 Q 122 120 120 119 L 110 127 L 114 122 Q 115 118 112 119 L 107 125 L 103 128 Q 101 130 100 128 L 101 125 Q 101 122 106 122 Q 109 121 108 118 L 108 116 Q 107 113 106 115 Q 103 114 104 117 L 100 118 L 97 122 L 99 122 L 100 122 L 99 124 L 94 128 L 91 128 L 95 123 Q 96 119 93 120 L 88 126 L 85 128 L 81 127 L 90 114 Q 91 110 88 111 Z M 180 111 Q 175 114 174 119 Q 168 118 165 122 L 163 125 L 160 127 L 158 128 L 162 122 L 161 119 Q 154 121 152 126 L 154 123 Q 155 119 152 120 L 148 126 L 145 128 L 142 128 Q 146 125 145 119 L 140 119 L 131 126 Q 130 130 134 131 L 137 130 L 140 128 L 139 132 Q 144 133 146 129 L 149 131 L 156 125 L 154 128 Q 153 131 156 132 L 163 128 L 165 131 L 170 128 L 170 131 L 173 132 L 179 127 L 179 125 Q 177 129 173 128 L 174 124 L 181 114 L 180 111 Z M 97 115 L 94 119 L 98 118 Q 99 114 97 115 Z M 246 115 L 243 118 L 247 119 L 248 117 L 246 115 Z M 284 115 L 281 119 L 285 118 Q 286 114 284 115 Z M 302 115 L 300 119 L 304 118 Q 305 114 302 115 Z " /><path fill="rgb(0,0,0)" stroke="rgb(0,0,0)" stroke-width="1" opacity="0" d="M 292.5 30 L 301 48.5 L 299.5 48 Q 295.7 50.7 287.5 49 L 284.5 48 L 283 48.5 L 292.5 30 Z " /><path fill="rgb(0,0,0)" stroke="rgb(0,0,0)" stroke-width="1" opacity="0" d="M 192 31 Q 194.7 29.9 194 32.5 L 202 48.5 L 200.5 48 L 197.5 49 L 195.5 49 Q 188.7 50.3 185.5 48 L 183.5 49 L 184 47.5 L 192 31 Z " /><path fill="rgb(0,0,0)" stroke="rgb(0,0,0)" stroke-width="1" opacity="0" d="M 37.5 110 Q 42.6 109.4 44 112.5 L 45 118.5 Q 44.1 125.1 39.5 128 L 36.5 129 L 32.5 124 L 32 127.5 L 32.5 129 L 28 126.5 Q 25.7 123.3 27 116.5 L 32.5 112 L 32 113.5 Q 31.3 115.8 33.5 115 L 37.5 110 Z " /><path fill="rgb(0,0,0)" stroke="rgb(0,0,0)" stroke-width="1" opacity="0" d="M 210.5 113 Q 214.3 112.3 215 114.5 Q 215.8 116.8 213.5 116 L 202.5 120 L 204 117.5 L 205 114 L 210.5 113 Z " /><path fill="rgb(0,0,0)" stroke="rgb(0,0,0)" stroke-width="1" opacity="0" d="M 272.5 113 L 271 115.5 L 267.5 120 L 269 117.5 L 272.5 113 Z " /><path fill="rgb(0,0,0)" stroke="rgb(0,0,0)" stroke-width="1" opacity="0" d="M 86.5 115 L 86 116.5 L 83.5 120 L 85 117.5 L 86.5 115 Z " /><path fill="rgb(0,0,0)" stroke="rgb(0,0,0)" stroke-width="1" opacity="0" d="M 291.5 116 L 291 117.5 L 288.5 121 L 290 118.5 L 291.5 116 Z " /><path fill="rgb(0,0,0)" stroke="rgb(0,0,0)" stroke-width="1" opacity="0" d="M 234.5 117 L 233.5 119 L 234.5 117 Z " /><path fill="rgb(0,0,0)" stroke="rgb(0,0,0)" stroke-width="1" opacity="0" d="M 222.5 121 L 224 121.5 L 220.5 124 L 222.5 121 Z " /><path fill="rgb(0,0,0)" stroke="rgb(0,0,0)" stroke-width="1" opacity="0" d="M 255.5 122 L 250.5 128 Q 247.2 129.1 248 126.5 L 255.5 122 Z " /><path fill="rgb(0,0,0)" stroke="rgb(0,0,0)" stroke-width="1" opacity="0" d="M 69.5 123 L 71 123.5 L 66.5 128 L 64.5 128 L 65 126.5 Q 64.3 124.3 66.5 125 L 69.5 123 Z " /><path fill="rgb(0,0,0)" stroke="rgb(0,0,0)" stroke-width="1" opacity="0" d="M 138.5 123 L 141 123.5 L 135.5 128 L 133.5 128 L 136.5 124 L 138.5 123 Z " /><path fill="rgb(0,0,0)" stroke="rgb(0,0,0)" stroke-width="1" opacity="0" d="M 168.5 123 L 171 123.5 L 166 127 L 168.5 123 Z " /><path fill="rgb(60,27,29)" stroke="rgb(60,27,29)" stroke-width="1" opacity="0.996078431372549" d="M 145 19 L 159 19 L 159 55.5 L 158 59.5 L 153.5 64 L 146.5 67 L 132.5 68 L 121.5 66 L 116 61.5 L 114 58.5 L 113 50 L 124.5 50 L 126 51.5 Q 125.1 59.4 130.5 61 L 137.5 62 L 144 58.5 L 145 56.5 L 145 19 Z " /><path fill="rgb(60,27,29)" stroke="rgb(60,27,29)" stroke-width="1" opacity="0.996078431372549" d="M 184 19 L 201.5 19 L 203 20.5 L 227 66 L 213.5 66 L 211 63.5 L 206.5 56 L 178.5 56 L 177 57.5 L 172.5 66 L 159 65.5 L 178 32.5 L 184 19 Z M 193 28 L 182 48 L 184 50 L 203 50 L 204 49 L 196 32 L 193 28 Z " /><path fill="rgb(60,27,29)" stroke="rgb(60,27,29)" stroke-width="1" opacity="0.996078431372549" d="M 212.5 19 L 226.5 19 L 229 21.5 L 242.5 40 L 248 35.5 L 259.5 19 L 274 19.5 L 251 46.5 L 249 51.5 L 250 53.5 L 250 55.5 L 250 66 L 236 66 L 236 48.5 L 216 25.5 L 212.5 19 Z " /><path fill="rgb(60,27,29)" stroke="rgb(60,27,29)" stroke-width="1" opacity="0.996078431372549" d="M 284.5 19 L 300.5 19 L 302 20.5 L 326 66 L 312.5 66 L 311 64.5 L 308 58.5 L 308.5 57 L 306.5 56 L 278.5 56 L 276 57 L 275 61 L 273 61.5 L 273 63.5 L 271.5 66 L 258 65.5 L 269 45 L 271 44.5 L 271 42.5 L 284.5 19 Z M 293 28 L 290 29 L 281 49 L 283 50 L 303 50 L 303 48 L 293 28 Z " /><path fill="rgb(60,27,29)" stroke="rgb(60,27,29)" stroke-width="1" opacity="0.996078431372549" d="M 167.5 79 L 179 79.5 L 174 81.5 L 174 93.5 L 172.5 94 L 172 91.5 Q 170.8 86.8 173 85.5 L 170.5 80 Q 166.5 80.8 167.5 79 Z " /><path fill="rgb(60,27,29)" stroke="rgb(60,27,29)" stroke-width="1" opacity="0.996078431372549" d="M 187 79 L 197 79.5 L 188.5 80 L 187.5 81 L 187 79 Z " /><path fill="rgb(60,27,29)" stroke="rgb(60,27,29)" stroke-width="1" opacity="0.996078431372549" d="M 207.5 79 Q 206.9 83.6 209.5 85 L 215.5 80 L 212 84.5 L 219 93.5 L 216.5 94 L 211.5 87 L 207.5 90 L 207.5 79 Z " /><path fill="rgb(60,27,29)" stroke="rgb(60,27,29)" stroke-width="1" opacity="0.996078431372549" d="M 228.5 79 Q 231.9 78.1 230 83.5 L 229 84.5 L 228.5 93 Q 226 92 227 87.5 L 228 85.5 L 227 80.5 L 228.5 79 Z " /><path fill="rgb(60,27,29)" stroke="rgb(60,27,29)" stroke-width="1" opacity="0.996078431372549" d="M 248.5 79 L 249 89.5 L 250 90.5 L 250 92.5 Q 250.7 95.1 248 94 L 248.5 79 Z " /><path fill="rgb(60,27,29)" stroke="rgb(60,27,29)" stroke-width="1" opacity="0.996078431372549" d="M 259.5 84 L 261.5 86 L 265 85.5 L 262 86.5 L 259.5 90 L 259 87.5 L 259.5 84 Z " /><path fill="rgb(60,27,29)" stroke="rgb(60,27,29)" stroke-width="1" opacity="0.996078431372549" d="M 188.5 85 Q 191.5 86.5 188.5 88 Q 185.5 86.5 188.5 85 Z " /><path fill="rgb(60,27,29)" stroke="rgb(60,27,29)" stroke-width="1" opacity="0.996078431372549" d="M 238.5 88 L 239 94 L 236 92.5 L 235 90.5 L 237 90.5 L 238.5 88 Z " /><path fill="rgb(60,27,29)" stroke="rgb(60,27,29)" stroke-width="1" opacity="0.996078431372549" d="M 266.5 89 Q 268.8 88.3 268 90.5 L 269 93 Q 266 94.3 267 90.5 L 266.5 89 Z " /><path fill="rgb(60,27,29)" stroke="rgb(60,27,29)" stroke-width="1" opacity="0.996078431372549" d="M 187.5 93 L 198 93.5 L 187.5 94 L 187.5 93 Z " /><path fill="rgb(13,11,12)" stroke="rgb(13,11,12)" stroke-width="1" opacity="0.9254901960784314" d="M 144 18 L 160 18 L 160 55.5 L 158.5 59 L 158 56.5 L 159 55.5 L 159 19 L 145 19 L 145 56.5 L 142.5 60 Q 139.6 62.6 133.5 62 L 127 57.5 L 126 51.5 L 124.5 50 L 113 50 L 113 54.5 Q 113.9 61.1 118.5 64 L 125.5 67 L 140.5 68 L 149.5 66 L 157.5 60 L 152.5 66 L 140.5 69 L 131.5 69 L 121.5 67 L 114 60.5 Q 111.3 55.9 112 49 L 127 49 L 127 55.5 L 130.5 60 L 137.5 61 L 143 59 L 144 56.5 L 144 18 Z " /><path fill="rgb(13,11,12)" stroke="rgb(13,11,12)" stroke-width="1" opacity="0.9254901960784314" d="M 184.5 18 L 201.5 18 L 204 20.5 L 229 66.5 L 212.5 67 L 206.5 57 L 178.5 57 L 178 58.5 L 174 67 L 158.5 67 L 158 65.5 L 184.5 18 Z M 184 19 L 178 33 L 159 66 L 173 66 L 177 58 L 179 56 L 207 56 L 211 64 L 214 66 L 227 66 L 203 21 L 202 21 L 202 20 L 184 19 Z " /><path fill="rgb(13,11,12)" stroke="rgb(13,11,12)" stroke-width="1" opacity="0.9254901960784314" d="M 209.5 18 L 227.5 18 L 228 19.5 L 242 39 L 246 36.5 L 258 18 L 276 18.5 L 251 48.5 L 251 67 L 235 67 L 235 48.5 L 209.5 18 Z M 213 19 L 213 22 L 215 21 L 214 23 L 234 47 L 236 46 L 235 48 L 236 49 L 236 66 L 250 66 L 250 56 L 250 54 L 249 52 L 251 47 L 274 20 L 260 19 L 248 36 L 243 40 L 229 22 L 227 19 L 213 19 Z " /><path fill="rgb(13,11,12)" stroke="rgb(13,11,12)" stroke-width="1" opacity="0.9254901960784314" d="M 283.5 18 L 301.5 18 L 302 19.5 L 328 66.5 L 311.5 67 L 305.5 57 L 278.5 57 L 276 59.5 L 273 67 L 257.5 67 L 257 65.5 L 283.5 18 Z M 285 19 L 271 43 L 271 45 L 269 45 L 258 66 L 272 66 L 273 64 L 273 62 L 275 61 L 276 57 L 279 56 L 307 56 L 309 57 L 308 59 L 311 65 L 313 66 L 326 66 L 318 51 L 317 51 L 317 50 L 302 21 L 301 19 L 285 19 Z " /><path fill="rgb(13,11,12)" stroke="rgb(13,11,12)" stroke-width="1" opacity="0.9254901960784314" d="M 192.5 28 L 196 31.5 L 204 48.5 L 202.5 50 L 183.5 50 L 182 47.5 L 192.5 28 Z M 192 30 L 183 49 L 203 49 L 194 32 Q 195 29 192 30 Z " /><path fill="rgb(13,11,12)" stroke="rgb(13,11,12)" stroke-width="1" opacity="0.9254901960784314" d="M 292.5 28 L 303 47.5 L 303 50 L 282.5 50 L 281 48.5 L 290 29 L 292.5 28 Z M 293 29 L 282 49 L 302 49 L 293 29 Z " /><path fill="rgb(13,11,12)" stroke="rgb(13,11,12)" stroke-width="1" opacity="0.9254901960784314" d="M 166 78 L 179.5 78 L 180 81 L 175 81 L 175 94.5 L 171 95 L 171 81.5 L 166 81 L 166 78 Z M 168 79 Q 167 81 171 80 L 173 86 Q 171 87 172 92 L 173 94 L 174 94 L 174 82 L 179 80 L 168 79 Z " /><path fill="rgb(13,11,12)" stroke="rgb(13,11,12)" stroke-width="1" opacity="0.9254901960784314" d="M 186 78 L 198.5 78 L 199 81 L 190 81 L 190 85 L 198 85 L 198 88 L 190 88 L 190 92 L 199 92 L 199 95 L 186 95 L 186 78 Z M 187 79 L 188 81 L 189 80 L 197 80 L 187 79 Z M 188 93 L 188 94 L 198 94 L 188 93 Z " /><path fill="rgb(13,11,12)" stroke="rgb(13,11,12)" stroke-width="1" opacity="0.9254901960784314" d="M 206 78 L 209 78 L 209 83.5 L 210.5 84 L 215.5 78 L 220 78.5 L 214 84.5 L 214 86.5 L 220 95 Q 214.4 96 213 91.5 L 210.5 88 Q 207.5 89.6 209 95 L 206 94.5 L 206 78 Z M 208 79 L 208 90 L 212 87 L 217 94 L 219 94 L 212 84 L 210 85 Q 207 84 208 79 Z " /><path fill="rgb(13,11,12)" stroke="rgb(13,11,12)" stroke-width="1" opacity="0.9254901960784314" d="M 226 78 Q 230.7 77 232 80.5 L 235 88 L 237 87.5 L 237 78 L 240 78 L 240 94.5 L 236 95 L 230.5 85 L 230 95 L 226 94.5 L 226 78 Z M 229 79 L 227 81 L 228 86 L 227 88 Q 226 92 229 93 L 229 85 L 230 84 Q 232 78 229 79 Z M 239 88 L 236 93 L 239 94 L 239 88 Z " /><path fill="rgb(13,11,12)" stroke="rgb(13,11,12)" stroke-width="1" opacity="0.9254901960784314" d="M 247 78 L 251 78.5 L 251 95 L 247 94.5 L 247 78 Z M 249 79 L 248 94 Q 251 95 250 93 L 250 91 L 249 90 L 249 79 Z " /><path fill="rgb(13,11,12)" stroke="rgb(13,11,12)" stroke-width="1" opacity="0.9254901960784314" d="M 258 78 L 261 78 L 261 83.5 L 262.5 84 L 267 78 L 272 78.5 L 266 85.5 L 272 95 Q 267.3 96 266 92.5 L 264 88 L 261 89.5 Q 263.3 96.8 258 95 L 258 78 Z M 260 84 L 259 88 Q 261 91 262 88 L 260 84 Z M 267 89 L 267 91 Q 266 94 269 93 L 268 91 Q 269 88 267 89 Z " /><path fill="rgb(13,11,12)" stroke="rgb(13,11,12)" stroke-width="1" opacity="0.9254901960784314" d="M 38.5 107 Q 44.9 106.6 47 110.5 L 48 119.5 L 40.5 129 L 38 130.5 Q 37.3 132.8 39.5 132 L 47 136.5 L 42.5 137 L 35.5 131 Q 25.8 132.8 24 126.5 L 23 119.5 L 28.5 112 Q 35.6 111.6 38.5 107 Z M 37 110 L 34 115 L 33 115 Q 34 111 31 112 L 26 119 L 27 126 L 33 130 L 34 130 L 32 127 L 33 125 L 37 130 L 39 129 L 45 121 L 45 114 Q 44 109 37 110 Z " /><path fill="rgb(13,11,12)" stroke="rgb(13,11,12)" stroke-width="1" opacity="0.9254901960784314" d="M 203.5 109 Q 214.3 107.3 218 112.5 Q 217.6 118.1 213.5 120 L 200 122 Q 198.7 125.3 203.5 124 L 214 128 L 214 132 L 212.5 132 L 197.5 126 L 194 132 Q 191.3 133.1 192 130.5 L 195 125.5 L 194 123.5 L 201 118.5 L 203 114 L 198.5 114 Q 197.1 118 192 117 L 195.5 111 L 203.5 109 Z M 205 113 L 202 120 L 212 118 L 216 115 L 216 113 L 205 113 Z " /><path fill="rgb(13,11,12)" stroke="rgb(13,11,12)" stroke-width="1" opacity="0.9254901960784314" d="M 275.5 109 Q 277.8 108.3 277 110.5 L 264 126.5 L 265 129 L 269 126.5 L 269 124.5 L 271.5 121 Q 274.1 120.2 273 123.5 L 272 126 L 276 124.5 L 278.5 121 L 282 120 L 277 128 L 279.5 129 L 285 124.5 L 286 119.5 L 291 113 L 294.5 111 L 295 114.5 L 286 126.5 L 289.5 129 L 295 124.5 L 298.5 120 Q 301.8 118.9 301 121.5 L 296 127.5 L 298.5 129 L 306 122.5 Q 306.8 120.3 304.5 121 L 305 119.5 Q 304.1 116.5 308.5 118 L 312.5 115 L 312 116.5 L 313 119.5 L 307 123.5 L 306 129 Q 310.7 128.6 313 124.5 L 317.5 119 Q 320.1 118.2 319 121.5 L 314 128 L 326 120 L 320 130.5 L 327 125.5 L 315.5 138 L 315 135.5 L 319 128 L 313 130 L 311.5 127 Q 309 131.8 303 132 L 302.5 127 L 298.5 131 L 295.5 131 L 294 128 L 288.5 131 L 285 131 L 283.5 128 L 279.5 131 L 276.5 131 L 275 127 Q 269.2 126.4 266.5 131 L 263 131 Q 264.7 126.9 260.5 128 L 255.5 132 L 254 128.5 L 255 126.5 L 251.5 129 L 248.5 131 Q 246 125.5 243.5 130 L 238 131 L 236.5 128 L 232.5 131 L 229.5 131 L 227.5 127 L 222.5 131 L 217 131 L 216 125.5 L 220.5 120 L 227 119 Q 227.8 122.8 224.5 124 L 219 126 L 220.5 129 L 228 125.5 Q 230 115.5 237.5 111 Q 239.8 110.3 239 112.5 Q 236.3 120.8 230 125.5 L 230 127.5 L 233.5 129 L 238 125.5 L 240.5 121 L 244 120 L 241.5 125 Q 238.9 124.2 240 127.5 Q 241.3 130.3 242.5 128 L 246 127 L 249.5 122 L 255.5 119 L 259 119 Q 260.1 125.2 256 127.5 Q 257.3 130.3 258.5 128 L 263 125.5 L 263 122.5 L 268 114 L 275.5 109 Z M 274 112 L 266 121 L 268 121 L 274 114 L 274 112 Z M 236 115 L 232 120 L 233 121 L 236 117 L 236 115 Z M 292 115 L 288 121 L 289 122 L 293 116 L 292 115 Z M 224 120 L 220 125 L 224 123 L 224 120 Z M 255 122 L 251 124 Q 247 125 248 129 L 257 123 L 255 122 Z " /><path fill="rgb(13,11,12)" stroke="rgb(13,11,12)" stroke-width="1" opacity="0.9254901960784314" d="M 88.5 111 L 89 115.5 L 81 124.5 L 81 127.5 L 83.5 129 L 89 124.5 L 91.5 121 L 95 120 L 90 128 Q 92.7 126.9 92 129.5 L 93 129.5 Q 92.3 127.3 94.5 128 L 100 121 L 98 120.5 L 107 115 L 108 118.5 L 101 123.5 L 100 129 L 102.5 129 L 107 125.5 L 110.5 120 L 114 119 L 109 125.5 L 109 127.5 L 110.5 127 L 120 120 L 115 129.5 L 117.5 128 L 120.5 126 L 112 135.5 L 110.5 138 L 110 134.5 L 114 127.5 L 111.5 129 L 108.5 130 L 106.5 127 L 98.5 132 L 96.5 127 L 96 129 L 92.5 131 L 89.5 131 L 87.5 127 Q 85.7 130.7 80.5 131 L 79 128 L 71.5 132 L 70 129.5 L 71 127 L 64.5 131 Q 62 125.5 59.5 130 L 55.5 132 L 54 128.5 L 54.5 127 L 48.5 131 Q 46 130 47 125.5 L 51.5 120 L 54 120.5 L 49 125.5 L 49 128 L 62 119 L 57 128 L 62 127 L 65.5 122 L 74.5 119 L 76 122.5 L 73 125.5 Q 71.8 129.3 75.5 128 L 79 125.5 Q 80.4 114.9 88.5 111 Z M 87 115 L 82 121 L 83 122 L 87 117 L 87 115 Z M 71 122 L 67 124 Q 63 125 64 129 Q 70 127 73 123 L 71 122 Z " /><path fill="rgb(13,11,12)" stroke="rgb(13,11,12)" stroke-width="1" opacity="0.9254901960784314" d="M 178.5 112 Q 181.1 111.2 180 114.5 L 173 124.5 L 173 129 L 178.5 126 L 176.5 129 L 171 131 L 171 127 L 169.5 127 Q 169 130.5 164.5 130 L 163 127 L 157.5 131 L 155.5 131 L 154 128.5 L 157 124.5 L 155.5 124 L 149.5 131 L 148 128 L 140.5 132 L 139 129.5 L 140 127.5 L 138.5 128 L 133.5 131 L 131 126.5 L 134.5 122 L 143.5 119 L 145 120.5 L 144 123.5 L 142 127.5 Q 143.3 130.3 144.5 128 L 148 125.5 L 151.5 121 L 154 121.5 L 150 126.5 L 155.5 122 L 160.5 119 L 161 122.5 L 157 127.5 L 159.5 128 Q 163.3 121.2 171.5 119 L 174 120 L 178.5 112 Z M 141 122 L 136 124 Q 132 125 133 129 Q 139 128 142 123 L 141 122 Z M 171 122 L 167 124 L 165 128 L 172 123 L 171 122 Z " /><path fill="rgb(13,11,12)" stroke="rgb(13,11,12)" stroke-width="1" opacity="0.9254901960784314" d="M 95 116 Q 98.8 114.5 98 117.5 L 95 119 L 95 116 Z " /><path fill="rgb(13,11,12)" stroke="rgb(13,11,12)" stroke-width="1" opacity="0.9254901960784314" d="M 244 116 Q 247.8 114.5 247 117.5 L 244 119 L 244 116 Z " /><path fill="rgb(13,11,12)" stroke="rgb(13,11,12)" stroke-width="1" opacity="0.9254901960784314" d="M 282 116 Q 285.8 114.5 285 117.5 L 282 119 L 282 116 Z " /><path fill="rgb(13,11,12)" stroke="rgb(13,11,12)" stroke-width="1" opacity="0.9254901960784314" d="M 301.5 116 L 304 116.5 Q 302 121 300 117.5 L 301.5 116 Z " /></svg>