<svg width="259" height="194" version="1.1" xmlns="http://www.w3.org/2000/svg" desc="Created with imagetracer.js version 1.2.6" ><path fill="rgb(0,0,0)" stroke="rgb(0,0,0)" stroke-width="1" opacity="0" d="M 0 0 L 259 0 L 259 114.5 L 258 114.5 L 232.5 48 L 216.5 48 L 215 49.5 L 189 119 L 206.5 119 L 210 116.5 L 213 106.5 L 215.5 103 L 233.5 103 L 235 104.5 L 238 115.5 L 240.5 118 L 242.5 119 L 259 119 L 259 131.5 L 257 132 Q 258.5 128.3 255.5 129 L 254.5 132 Q 251.9 131.3 253 134 L 255 134.5 L 254 139.5 L 256.5 143 L 258.5 142 L 259 192 Q 255.9 191.3 256.5 194 L 0 194 L 0 142.5 L 2 142 L 2 140.5 L 3 138 Q 7.6 136.8 9 139.5 L 10.5 143 L 11 138.5 L 5.5 129 L 0.5 140 L 0 118 L 2.5 119 L 39.5 119 L 39 117.5 L 10 83.5 L 10 81.5 L 37 48 L 0 48 L 0 0 Z M 92 48 Q 89 49 91 51 L 91 114 L 90 115 L 91 118 L 94 119 L 110 119 L 110 90 Q 110 88 115 89 L 119 94 L 134 117 L 139 119 L 159 119 L 138 87 L 133 82 Q 130 83 131 81 L 134 79 L 156 50 L 157 48 L 137 48 L 132 50 L 114 76 L 110 76 L 110 48 L 92 48 Z M 164 48 L 164 116 L 165 118 L 167 119 L 184 119 L 184 49 L 184 48 L 164 48 Z M 31 64 L 16 82 L 16 84 L 32 101 L 46 84 L 46 82 L 31 64 Z M 53 83 L 35 104 Q 36 111 42 114 L 44 117 L 47 119 L 83 119 L 81 115 L 57 87 L 53 83 Z M 29 129 L 29 142 L 31 142 Q 30 136 34 134 Q 36 136 35 142 Q 37 145 38 142 L 37 134 Q 36 131 33 132 L 31 133 Q 32 128 29 129 Z M 39 129 L 40 132 L 39 134 L 39 142 L 42 142 L 42 130 L 39 129 Z M 44 129 L 43 133 L 44 142 L 47 143 L 49 142 Q 50 139 46 140 L 46 134 L 48 134 Q 49 131 46 132 L 46 129 L 44 129 Z M 71 129 L 70 133 L 71 141 L 74 143 L 76 142 Q 77 139 74 140 L 74 135 L 76 134 L 73 131 Q 74 128 71 129 Z M 104 129 L 104 131 L 104 133 Q 103 139 105 142 Q 109 143 108 141 L 107 141 L 106 139 L 107 135 L 106 132 L 107 130 L 104 129 Z M 114 129 L 114 142 L 116 142 L 116 137 L 122 137 L 122 135 L 116 135 L 116 131 L 123 131 L 123 129 L 114 129 Z M 159 129 L 159 133 L 158 132 L 154 133 Q 151 134 152 140 L 158 143 L 160 142 Q 159 144 162 143 L 162 130 L 159 129 Z M 182 129 L 179 130 L 178 135 L 182 137 L 185 137 L 186 140 L 181 139 Q 177 138 178 141 L 183 143 L 187 142 Q 189 141 188 137 L 181 134 L 183 131 L 185 132 L 188 132 Q 187 128 182 129 Z M 221 129 L 222 132 Q 220 135 221 142 Q 223 145 224 142 L 224 130 L 221 129 Z M 237 129 L 235 131 L 236 132 L 236 142 L 238 143 L 240 142 L 240 140 L 238 140 L 238 130 L 237 129 Z M 241 129 L 241 143 L 243 142 L 243 130 L 241 129 Z M 15 132 L 13 134 L 13 142 L 15 142 L 15 135 L 19 134 L 17 132 L 15 132 Z M 22 132 L 18 136 L 19 141 L 23 143 L 27 141 Q 29 142 28 139 L 21 140 L 20 138 L 23 134 L 26 135 Q 27 137 28 135 Q 27 131 22 132 Z M 54 132 L 52 133 L 49 137 L 49 139 L 54 143 L 58 142 L 59 139 L 55 141 L 53 138 L 59 138 L 59 135 Q 58 131 54 132 Z M 64 132 L 60 136 L 61 141 L 67 143 L 70 139 L 63 140 L 62 138 L 65 134 L 68 136 Q 70 137 69 135 Q 68 131 64 132 Z M 77 132 L 77 141 L 80 143 L 84 141 L 86 142 L 86 133 L 85 132 L 83 134 L 83 140 L 79 140 L 79 133 L 77 132 Z M 88 132 L 88 142 Q 92 143 90 137 L 93 135 L 95 135 L 98 134 L 100 136 L 96 136 L 94 139 L 93 140 L 97 143 L 101 142 Q 102 144 103 142 L 102 140 L 103 137 L 100 132 L 96 133 L 94 132 L 91 133 L 88 132 Z M 125 132 L 123 135 L 126 134 L 128 136 L 124 137 Q 121 136 122 141 L 126 143 L 130 142 L 131 143 Q 132 136 130 133 L 125 132 Z M 136 132 L 134 134 Q 131 133 132 140 L 137 143 L 140 142 L 141 139 L 139 140 Q 135 141 134 139 Q 134 134 137 134 L 140 136 Q 142 137 141 135 Q 140 131 136 132 Z M 145 132 L 143 135 L 146 134 L 148 136 L 144 137 Q 141 136 142 141 Q 143 144 147 143 Q 149 139 151 143 L 151 136 Q 150 131 145 132 Z M 167 132 Q 162 133 163 140 L 168 143 L 171 142 L 172 139 L 168 141 L 166 138 L 173 138 L 173 136 Q 172 131 167 132 Z M 191 132 L 189 136 L 190 144 Q 188 145 191 146 Q 194 147 192 143 L 194 143 L 197 142 Q 200 141 199 135 L 196 132 L 193 133 L 191 132 Z M 204 132 L 200 136 L 200 140 Q 203 139 202 142 L 207 143 L 210 139 L 206 141 L 203 140 L 204 138 L 210 138 L 209 133 L 204 132 Z M 215 132 L 211 134 Q 210 141 215 143 L 219 142 L 220 139 L 218 140 Q 214 141 213 139 Q 213 134 216 134 L 219 136 Q 221 137 220 135 Q 219 131 215 132 Z M 228 132 L 226 135 L 229 134 Q 232 133 231 136 Q 226 135 225 139 Q 225 142 228 143 L 231 142 Q 235 144 234 140 L 234 138 L 233 134 Q 232 131 228 132 Z M 248 132 Q 244 133 245 137 L 249 138 L 250 141 L 247 140 Q 245 138 244 141 L 248 143 L 252 142 L 253 139 L 250 136 Q 246 137 247 134 L 251 135 Q 253 136 252 134 Q 251 131 248 132 Z " /><path fill="rgb(0,0,0)" stroke="rgb(0,0,0)" stroke-width="1" opacity="0" d="M 224.5 66 L 231 91 L 217.5 91 L 217 89.5 L 224.5 66 Z " /><path fill="rgb(0,0,0)" stroke="rgb(0,0,0)" stroke-width="1" opacity="0" d="M 5.5 133 L 7 136.5 L 4 136.5 L 5.5 133 Z " /><path fill="rgb(0,0,0)" stroke="rgb(0,0,0)" stroke-width="1" opacity="0" d="M 53.5 134 L 57 135.5 L 52.5 136 L 53.5 134 Z " /><path fill="rgb(0,0,0)" stroke="rgb(0,0,0)" stroke-width="1" opacity="0" d="M 156.5 134 L 159 135.5 Q 161.2 141.8 155.5 140 L 154 136.5 L 156.5 134 Z " /><path fill="rgb(0,0,0)" stroke="rgb(0,0,0)" stroke-width="1" opacity="0" d="M 167.5 134 L 170 135.5 L 166.5 136 L 167.5 134 Z " /><path fill="rgb(0,0,0)" stroke="rgb(0,0,0)" stroke-width="1" opacity="0" d="M 193.5 134 L 197 136.5 L 195.5 140 L 192 138.5 Q 191.3 134.8 193.5 134 Z " /><path fill="rgb(0,0,0)" stroke="rgb(0,0,0)" stroke-width="1" opacity="0" d="M 204.5 134 L 207 135.5 L 203.5 136 L 204.5 134 Z " /><path fill="rgb(0,0,0)" stroke="rgb(0,0,0)" stroke-width="1" opacity="0" d="M 257 134 L 259 134 L 259 140 L 257 140 L 257 134 Z " /><path fill="rgb(0,0,0)" stroke="rgb(0,0,0)" stroke-width="1" opacity="0" d="M 96 138 Q 101.2 136.3 100 140 L 97.5 141 L 96 138 Z " /><path fill="rgb(0,0,0)" stroke="rgb(0,0,0)" stroke-width="1" opacity="0" d="M 124 138 Q 129.2 136.3 128 140 L 125.5 141 L 124 138 Z " /><path fill="rgb(0,0,0)" stroke="rgb(0,0,0)" stroke-width="1" opacity="0" d="M 144 138 Q 149.2 136.3 148 140 L 145.5 141 L 144 138 Z " /><path fill="rgb(0,0,0)" stroke="rgb(0,0,0)" stroke-width="1" opacity="0" d="M 228.5 138 Q 231.8 136.9 231 139.5 L 228.5 141 Q 225.5 139.5 228.5 138 Z " /><path fill="rgb(118,119,122)" stroke="rgb(118,119,122)" stroke-width="1" opacity="0.996078431372549" d="M 108.5 49 L 109 72.5 L 108 72.5 L 108.5 49 Z " /><path fill="rgb(118,119,122)" stroke="rgb(118,119,122)" stroke-width="1" opacity="0.996078431372549" d="M 93.5 50 L 94.5 52 L 95.5 50 L 96 51.5 L 96 53.5 L 95.5 55 L 93 51.5 L 93.5 50 Z " /><path fill="rgb(118,119,122)" stroke="rgb(118,119,122)" stroke-width="1" opacity="0.996078431372549" d="M 177.5 50 L 178 55.5 L 177 56.5 L 176.5 104 L 176 56.5 L 177.5 50 Z " /><path fill="rgb(118,119,122)" stroke="rgb(118,119,122)" stroke-width="1" opacity="0.996078431372549" d="M 104 51 L 106 51.5 L 104 52.5 L 104 51 Z " /><path fill="rgb(118,119,122)" stroke="rgb(118,119,122)" stroke-width="1" opacity="0.996078431372549" d="M 135.5 52 L 136 54.5 L 134.5 56 L 134.5 54 L 133 53.5 L 135.5 52 Z " /><path fill="rgb(118,119,122)" stroke="rgb(118,119,122)" stroke-width="1" opacity="0.996078431372549" d="M 232.5 52 Q 235.5 53.5 232.5 55 L 232.5 52 Z " /><path fill="rgb(118,119,122)" stroke="rgb(118,119,122)" stroke-width="1" opacity="0.996078431372549" d="M 104.5 54 L 106 57.5 L 104 56.5 L 104.5 54 Z " /><path fill="rgb(118,119,122)" stroke="rgb(118,119,122)" stroke-width="1" opacity="0.996078431372549" d="M 215.5 55 L 215 58.5 L 216 61.5 L 215 61.5 L 214 58.5 L 215.5 55 Z " /><path fill="rgb(118,119,122)" stroke="rgb(118,119,122)" stroke-width="1" opacity="0.996078431372549" d="M 94.5 56 L 95 111.5 L 93 112.5 L 94 111.5 L 94.5 56 Z " /><path fill="rgb(118,119,122)" stroke="rgb(118,119,122)" stroke-width="1" opacity="0.996078431372549" d="M 235.5 59 L 236.5 63 L 235 62.5 L 234.5 64 L 233 61.5 L 235.5 59 Z " /><path fill="rgb(118,119,122)" stroke="rgb(118,119,122)" stroke-width="1" opacity="0.996078431372549" d="M 133.5 60 L 134 62 L 132 62 Q 133.1 64.7 130.5 64 L 133.5 60 Z " /><path fill="rgb(118,119,122)" stroke="rgb(118,119,122)" stroke-width="1" opacity="0.996078431372549" d="M 145.5 60 L 144.5 62 L 145.5 60 Z " /><path fill="rgb(118,119,122)" stroke="rgb(118,119,122)" stroke-width="1" opacity="0.996078431372549" d="M 105.5 62 L 104.5 64 L 105.5 62 Z " /><path fill="rgb(118,119,122)" stroke="rgb(118,119,122)" stroke-width="1" opacity="0.996078431372549" d="M 127.5 62 L 125 65.5 L 128 70.5 L 127 70.5 L 126.5 69 L 125.5 72 Q 124 68.5 122.5 71 L 121 70.5 L 123 69.5 L 122.5 68 Q 124.3 71.8 126 68.5 L 124 65.5 L 125 63 L 127.5 62 Z " /><path fill="rgb(118,119,122)" stroke="rgb(118,119,122)" stroke-width="1" opacity="0.996078431372549" d="M 137.5 64 L 136.5 66 L 137.5 64 Z " /><path fill="rgb(118,119,122)" stroke="rgb(118,119,122)" stroke-width="1" opacity="0.996078431372549" d="M 141.5 64 L 139.5 67 L 139 65 L 141.5 64 Z " /><path fill="rgb(118,119,122)" stroke="rgb(118,119,122)" stroke-width="1" opacity="0.996078431372549" d="M 213.5 64 L 213 65.5 L 211 68.5 L 211.5 70 Q 208.3 68.3 212 66.5 L 213.5 64 Z " /><path fill="rgb(118,119,122)" stroke="rgb(118,119,122)" stroke-width="1" opacity="0.996078431372549" d="M 216.5 64 L 216 65.5 Q 215.3 68.1 218 67 L 218.5 64 L 220 67.5 L 218 67.5 Q 217.2 70.1 220.5 69 L 222 68.5 L 219 70.5 L 219.5 72 L 217.5 71 L 218 74.5 L 218.5 76 L 220 75.5 L 218.5 78 L 216 73.5 L 216.5 72 L 214 70.5 L 215 68.5 L 215 66.5 L 216.5 64 Z M 216 69 Q 214 72 217 71 L 216 69 Z " /><path fill="rgb(118,119,122)" stroke="rgb(118,119,122)" stroke-width="1" opacity="0.996078431372549" d="M 220.5 64 L 221.5 66 Q 218.7 66.7 220.5 64 Z " /><path fill="rgb(118,119,122)" stroke="rgb(118,119,122)" stroke-width="1" opacity="0.996078431372549" d="M 229.5 64 L 232 64.5 L 231 69 L 235 71.5 L 232.5 70 L 230.5 71 L 230.5 69 L 228.5 70 L 230 67.5 L 229.5 65 L 228 68 L 226 67.5 L 229.5 64 Z " /><path fill="rgb(118,119,122)" stroke="rgb(118,119,122)" stroke-width="1" opacity="0.996078431372549" d="M 236.5 64 L 238 67.5 L 237.5 69 L 235 67.5 L 237 70.5 L 233 67.5 L 235 67 L 236.5 64 Z " /><path fill="rgb(118,119,122)" stroke="rgb(118,119,122)" stroke-width="1" opacity="0.996078431372549" d="M 138.5 68 L 139 69.5 L 136.5 71 L 136.5 70 Q 139 70.7 138.5 68 Z " /><path fill="rgb(118,119,122)" stroke="rgb(118,119,122)" stroke-width="1" opacity="0.996078431372549" d="M 106.5 73 L 107 74.5 Q 104.8 75.8 107.5 77 L 109 77.5 L 107.5 78 L 106 77.5 Q 105.3 79.8 107.5 79 L 107.5 80 L 105 78.5 L 104 76.5 L 104.5 74 L 106 74.5 L 106.5 73 Z " /><path fill="rgb(118,119,122)" stroke="rgb(118,119,122)" stroke-width="1" opacity="0.996078431372549" d="M 119.5 73 L 118.5 75 L 119.5 73 Z " /><path fill="rgb(118,119,122)" stroke="rgb(118,119,122)" stroke-width="1" opacity="0.996078431372549" d="M 132.5 73 L 135 74.5 L 131.5 78 Q 130.3 75.8 129 78.5 L 129.5 80 L 128 78.5 L 128.5 76 L 132 76.5 Q 132.8 74.3 130.5 75 L 130.5 74 L 132.5 73 Z " /><path fill="rgb(118,119,122)" stroke="rgb(118,119,122)" stroke-width="1" opacity="0.996078431372549" d="M 228.5 74 L 232 75.5 L 231.5 78 L 228.5 74 Z " /><path fill="rgb(118,119,122)" stroke="rgb(118,119,122)" stroke-width="1" opacity="0.996078431372549" d="M 116.5 75 Q 118.3 78.1 120 76.5 L 116.5 78 L 114 79.5 L 112.5 82 L 112 80.5 L 116.5 75 Z " /><path fill="rgb(118,119,122)" stroke="rgb(118,119,122)" stroke-width="1" opacity="0.996078431372549" d="M 206.5 76 L 207.5 78 L 206.5 76 Z " /><path fill="rgb(118,119,122)" stroke="rgb(118,119,122)" stroke-width="1" opacity="0.996078431372549" d="M 241.5 77 L 243 79.5 L 240.5 81 L 240.5 80 Q 242.8 80.8 242 78.5 L 240 78.5 L 241.5 77 Z " /><path fill="rgb(118,119,122)" stroke="rgb(118,119,122)" stroke-width="1" opacity="0.996078431372549" d="M 119.5 79 L 122 80 L 121.5 82 L 119.5 79 Z " /><path fill="rgb(118,119,122)" stroke="rgb(118,119,122)" stroke-width="1" opacity="0.996078431372549" d="M 125 80 Q 128 78.8 127 82.5 L 125 81.5 L 125 80 Z " /><path fill="rgb(118,119,122)" stroke="rgb(118,119,122)" stroke-width="1" opacity="0.996078431372549" d="M 217.5 80 L 217.5 83 Q 214.5 81.5 217.5 80 Z " /><path fill="rgb(118,119,122)" stroke="rgb(118,119,122)" stroke-width="1" opacity="0.996078431372549" d="M 230.5 81 L 231.5 83 L 230.5 81 Z " /><path fill="rgb(118,119,122)" stroke="rgb(118,119,122)" stroke-width="1" opacity="0.996078431372549" d="M 129.5 82 L 132 87.5 L 131 87.5 L 128 83.5 L 129.5 82 Z " /><path fill="rgb(118,119,122)" stroke="rgb(118,119,122)" stroke-width="1" opacity="0.996078431372549" d="M 205.5 82 L 208 82.5 L 208 84.5 L 207.5 86 L 205.5 82 Z " /><path fill="rgb(118,119,122)" stroke="rgb(118,119,122)" stroke-width="1" opacity="0.996078431372549" d="M 240.5 82 Q 243.8 80.9 243 83.5 L 243 85.5 L 244 87.5 L 242 86.5 L 243 84.5 L 240.5 82 Z " /><path fill="rgb(118,119,122)" stroke="rgb(118,119,122)" stroke-width="1" opacity="0.996078431372549" d="M 204.5 84 L 205.5 86 L 203 85.5 L 204.5 84 Z " /><path fill="rgb(118,119,122)" stroke="rgb(118,119,122)" stroke-width="1" opacity="0.996078431372549" d="M 133.5 85 Q 136.5 86.5 133.5 88 L 133.5 85 Z " /><path fill="rgb(118,119,122)" stroke="rgb(118,119,122)" stroke-width="1" opacity="0.996078431372549" d="M 53.5 86 L 52.5 88 L 51 87.5 L 53.5 86 Z " /><path fill="rgb(118,119,122)" stroke="rgb(118,119,122)" stroke-width="1" opacity="0.996078431372549" d="M 107.5 88 L 109 88.5 L 109 99.5 L 108 99.5 L 108 89.5 L 107.5 88 Z " /><path fill="rgb(118,119,122)" stroke="rgb(118,119,122)" stroke-width="1" opacity="0.996078431372549" d="M 118.5 88 L 119.5 90 Q 116.7 90.7 118.5 88 Z " /><path fill="rgb(118,119,122)" stroke="rgb(118,119,122)" stroke-width="1" opacity="0.996078431372549" d="M 57.5 91 L 59 91.5 L 57 92.5 L 58 94.5 L 56 95.5 L 57 93.5 Q 54.8 92.3 57.5 91 Z " /><path fill="rgb(118,119,122)" stroke="rgb(118,119,122)" stroke-width="1" opacity="0.996078431372549" d="M 125 91 Q 128.3 89.7 127 94.5 L 126 94.5 L 125 91 Z " /><path fill="rgb(118,119,122)" stroke="rgb(118,119,122)" stroke-width="1" opacity="0.996078431372549" d="M 137 91 L 139 91.5 L 139 93.5 L 140 95.5 L 138.5 95 L 136.5 96 L 137 92.5 L 137 91 Z " /><path fill="rgb(118,119,122)" stroke="rgb(118,119,122)" stroke-width="1" opacity="0.996078431372549" d="M 241.5 91 L 242 93.5 L 241 93.5 L 241.5 91 Z " /><path fill="rgb(118,119,122)" stroke="rgb(118,119,122)" stroke-width="1" opacity="0.996078431372549" d="M 106.5 92 L 106 93.5 L 107 95.5 L 105.5 95 L 104 94.5 L 106.5 92 Z " /><path fill="rgb(118,119,122)" stroke="rgb(118,119,122)" stroke-width="1" opacity="0.996078431372549" d="M 121.5 92 L 122.5 94 L 121.5 92 Z " /><path fill="rgb(118,119,122)" stroke="rgb(118,119,122)" stroke-width="1" opacity="0.996078431372549" d="M 216.5 92 L 218.5 92 L 221 93.5 L 219.5 96 L 216.5 92 Z M 219 93 L 220 95 Q 221 92 219 93 Z " /><path fill="rgb(118,119,122)" stroke="rgb(118,119,122)" stroke-width="1" opacity="0.996078431372549" d="M 223.5 92 L 226 92.5 L 222.5 94 L 223.5 92 Z " /><path fill="rgb(118,119,122)" stroke="rgb(118,119,122)" stroke-width="1" opacity="0.996078431372549" d="M 228.5 92 L 230 92.5 L 226.5 95 L 228.5 92 Z " /><path fill="rgb(118,119,122)" stroke="rgb(118,119,122)" stroke-width="1" opacity="0.996078431372549" d="M 59.5 93 L 61 94.5 L 60.5 97 L 59 95.5 L 59.5 93 Z " /><path fill="rgb(118,119,122)" stroke="rgb(118,119,122)" stroke-width="1" opacity="0.996078431372549" d="M 231.5 93 L 230.5 95 L 231.5 93 Z " /><path fill="rgb(118,119,122)" stroke="rgb(118,119,122)" stroke-width="1" opacity="0.996078431372549" d="M 43.5 96 L 43.5 98 L 45.5 97 L 46.5 99 L 45.5 98 L 43 99.5 L 42.5 98 L 40 99.5 L 43.5 96 Z " /><path fill="rgb(118,119,122)" stroke="rgb(118,119,122)" stroke-width="1" opacity="0.996078431372549" d="M 125.5 96 L 128 96.5 L 128 98.5 L 125.5 101 L 127 98.5 L 125.5 97 L 124.5 99 L 124 97.5 L 125.5 96 Z " /><path fill="rgb(118,119,122)" stroke="rgb(118,119,122)" stroke-width="1" opacity="0.996078431372549" d="M 214.5 96 L 213.5 98 L 212 98.5 L 214.5 99 L 216 98.5 L 215.5 101 L 213.5 100 L 211 101.5 L 212 99.5 L 208 101.5 L 210.5 97 L 212.5 97 L 214.5 96 Z " /><path fill="rgb(118,119,122)" stroke="rgb(118,119,122)" stroke-width="1" opacity="0.996078431372549" d="M 249.5 96 L 248.5 98 L 249.5 96 Z " /><path fill="rgb(118,119,122)" stroke="rgb(118,119,122)" stroke-width="1" opacity="0.996078431372549" d="M 199.5 97 L 199.5 100 Q 196.5 98.5 199.5 97 Z " /><path fill="rgb(118,119,122)" stroke="rgb(118,119,122)" stroke-width="1" opacity="0.996078431372549" d="M 64.5 98 L 66.5 101 L 64.5 98 Z " /><path fill="rgb(118,119,122)" stroke="rgb(118,119,122)" stroke-width="1" opacity="0.996078431372549" d="M 249.5 99 L 248.5 101 L 249.5 99 Z " /><path fill="rgb(118,119,122)" stroke="rgb(118,119,122)" stroke-width="1" opacity="0.996078431372549" d="M 45.5 100 L 43.5 103 Q 40.2 101.9 41 104.5 L 40 104.5 L 41 102.5 L 39 101.5 L 41.5 101 L 43.5 102 L 45.5 100 Z " /><path fill="rgb(118,119,122)" stroke="rgb(118,119,122)" stroke-width="1" opacity="0.996078431372549" d="M 47.5 100 L 48 101.5 L 48 103.5 Q 48.7 106.5 45 105 L 47.5 100 Z " /><path fill="rgb(118,119,122)" stroke="rgb(118,119,122)" stroke-width="1" opacity="0.996078431372549" d="M 104.5 100 L 105 103.5 L 104 103.5 L 104.5 100 Z " /><path fill="rgb(118,119,122)" stroke="rgb(118,119,122)" stroke-width="1" opacity="0.996078431372549" d="M 235.5 100 L 239 101.5 L 237.5 101 L 235 101.5 L 235.5 103 Q 232.5 101.5 235.5 100 Z " /><path fill="rgb(118,119,122)" stroke="rgb(118,119,122)" stroke-width="1" opacity="0.996078431372549" d="M 64.5 101 L 66 103.5 L 65 103.5 L 64.5 101 Z " /><path fill="rgb(118,119,122)" stroke="rgb(118,119,122)" stroke-width="1" opacity="0.996078431372549" d="M 144.5 103 L 145 106 L 147 106.5 L 144.5 108 L 144 105.5 L 144.5 103 Z " /><path fill="rgb(118,119,122)" stroke="rgb(118,119,122)" stroke-width="1" opacity="0.996078431372549" d="M 197.5 103 L 198 104.5 L 196 105.5 L 197.5 103 Z " /><path fill="rgb(118,119,122)" stroke="rgb(118,119,122)" stroke-width="1" opacity="0.996078431372549" d="M 209.5 103 L 212 106.5 L 211 109 L 209 109.5 L 209 111.5 L 207.5 114 L 206 113.5 L 208 113 L 209 110.5 L 208 109.5 L 211 106.5 L 209 104.5 L 209.5 103 Z " /><path fill="rgb(118,119,122)" stroke="rgb(118,119,122)" stroke-width="1" opacity="0.996078431372549" d="M 237.5 103 L 238.5 105 L 236 104.5 L 237.5 103 Z " /><path fill="rgb(118,119,122)" stroke="rgb(118,119,122)" stroke-width="1" opacity="0.996078431372549" d="M 251.5 103 Q 254.3 104.3 252 105.5 L 253 107.5 L 251.5 107 L 248.5 108 L 249.5 106 L 251 105.5 Q 248.7 104.3 251.5 103 Z " /><path fill="rgb(118,119,122)" stroke="rgb(118,119,122)" stroke-width="1" opacity="0.996078431372549" d="M 132.5 105 L 132 106.5 L 132.5 108 L 135 106.5 L 134.5 105 L 136 106.5 L 135.5 109 L 133 108 L 132.5 110 L 131 106.5 L 132.5 105 Z " /><path fill="rgb(118,119,122)" stroke="rgb(118,119,122)" stroke-width="1" opacity="0.996078431372549" d="M 176.5 105 L 178 115.5 L 177 115.5 L 176.5 105 Z " /><path fill="rgb(118,119,122)" stroke="rgb(118,119,122)" stroke-width="1" opacity="0.996078431372549" d="M 238.5 106 L 239.5 108 L 238.5 106 Z " /><path fill="rgb(118,119,122)" stroke="rgb(118,119,122)" stroke-width="1" opacity="0.996078431372549" d="M 105.5 107 L 106 112 Q 103.3 113.1 104 110.5 L 105.5 107 Z " /><path fill="rgb(118,119,122)" stroke="rgb(118,119,122)" stroke-width="1" opacity="0.996078431372549" d="M 196.5 107 L 198 110 L 195.5 111 L 194.5 109 Q 195.8 111.2 197 108.5 L 196.5 107 Z " /><path fill="rgb(118,119,122)" stroke="rgb(118,119,122)" stroke-width="1" opacity="0.996078431372549" d="M 71.5 108 L 74 109.5 L 73 111.5 L 74.5 112 L 76 111.5 L 73.5 113 L 71 111.5 L 72.5 109 L 71.5 108 Z " /><path fill="rgb(118,119,122)" stroke="rgb(118,119,122)" stroke-width="1" opacity="0.996078431372549" d="M 150.5 108 L 149.5 112 Q 146 110 150.5 108 Z " /><path fill="rgb(118,119,122)" stroke="rgb(118,119,122)" stroke-width="1" opacity="0.996078431372549" d="M 68.5 109 L 69 111.5 L 68 111.5 L 68.5 109 Z " /><path fill="rgb(118,119,122)" stroke="rgb(118,119,122)" stroke-width="1" opacity="0.996078431372549" d="M 108.5 109 L 109 114.5 L 108 114.5 L 108.5 109 Z " /><path fill="rgb(118,119,122)" stroke="rgb(118,119,122)" stroke-width="1" opacity="0.996078431372549" d="M 144.5 109 L 145.5 111 L 146.5 109 L 147 110.5 Q 145.5 113.5 144 110.5 L 144.5 109 Z " /><path fill="rgb(118,119,122)" stroke="rgb(118,119,122)" stroke-width="1" opacity="0.996078431372549" d="M 46.5 112 L 48 113.5 L 47.5 116 Q 45.3 116.8 46 114.5 L 46.5 112 Z " /><path fill="rgb(118,119,122)" stroke="rgb(118,119,122)" stroke-width="1" opacity="0.996078431372549" d="M 138.5 112 L 141 112.5 L 140.5 115 Q 138.3 115.8 139 113.5 L 138.5 112 Z " /><path fill="rgb(118,119,122)" stroke="rgb(118,119,122)" stroke-width="1" opacity="0.996078431372549" d="M 204.5 112 L 206 115.5 L 204 114.5 L 204.5 112 Z " /><path fill="rgb(118,119,122)" stroke="rgb(118,119,122)" stroke-width="1" opacity="0.996078431372549" d="M 241.5 112 L 243.5 112 L 248 114.5 L 245.5 116 L 244.5 113 L 243 113.5 Q 245.3 114.8 242.5 116 L 241.5 112 Z " /><path fill="rgb(118,119,122)" stroke="rgb(118,119,122)" stroke-width="1" opacity="0.996078431372549" d="M 77.5 113 L 79.5 116 L 77 114.5 L 78.5 117 L 80 117.5 L 77 118 L 75.5 115 L 73 114.5 L 77.5 113 Z " /><path fill="rgb(118,119,122)" stroke="rgb(118,119,122)" stroke-width="1" opacity="0.996078431372549" d="M 95.5 113 L 95.5 116 Q 92.5 114.5 95.5 113 Z " /><path fill="rgb(118,119,122)" stroke="rgb(118,119,122)" stroke-width="1" opacity="0.996078431372549" d="M 201.5 113 L 203 113.5 L 202.5 116 L 200 115.5 L 201.5 113 Z " /><path fill="rgb(118,119,122)" stroke="rgb(118,119,122)" stroke-width="1" opacity="0.996078431372549" d="M 142.5 114 L 143.5 116 L 142.5 114 Z " /><path fill="rgb(118,119,122)" stroke="rgb(118,119,122)" stroke-width="1" opacity="0.996078431372549" d="M 172.5 114 L 176 114.5 L 172.5 115 L 172.5 114 Z " /><path fill="rgb(118,119,122)" stroke="rgb(118,119,122)" stroke-width="1" opacity="0.996078431372549" d="M 154.5 115 L 153.5 117 L 154.5 115 Z " /><path fill="rgb(118,119,122)" stroke="rgb(118,119,122)" stroke-width="1" opacity="0.996078431372549" d="M 72.5 116 L 76 117.5 L 47.5 118 L 47.5 117 L 71.5 117 L 72.5 116 Z " /><path fill="rgb(118,119,122)" stroke="rgb(118,119,122)" stroke-width="1" opacity="0.996078431372549" d="M 95.5 117 L 106 117.5 L 95.5 118 L 95.5 117 Z " /><path fill="rgb(118,119,122)" stroke="rgb(118,119,122)" stroke-width="1" opacity="0.996078431372549" d="M 168.5 117 L 180 117.5 L 168.5 118 L 168.5 117 Z " /><path fill="rgb(118,119,122)" stroke="rgb(118,119,122)" stroke-width="1" opacity="0.996078431372549" d="M 192.5 117 L 205 117.5 L 192.5 118 L 192.5 117 Z " /><path fill="rgb(118,119,122)" stroke="rgb(118,119,122)" stroke-width="1" opacity="0.996078431372549" d="M 245.5 117 L 255 117.5 L 245.5 118 L 245.5 117 Z " /><path fill="rgb(113,114,118)" stroke="rgb(113,114,118)" stroke-width="1" opacity="0.996078431372549" d="M 92 49 L 104.5 49 L 105.5 50 L 108 49 L 108 73.5 L 109 74.5 Q 106.8 75.8 109.5 77 L 112.5 78 L 118.5 71 Q 120.8 71.8 120 69.5 L 134.5 50 Q 136 52.5 137.5 49 L 155 49.5 L 150 57 Q 147.3 55.9 148 58.5 L 131.5 79 L 125 80 L 126.5 83 L 128.5 82 L 129.5 85 L 130 83 Q 135.4 83.7 138 88.5 L 137.5 90 L 140 91.5 L 140 94 Q 142.7 92.9 142 95.5 Q 144.8 96.6 144 100 L 146 100.5 L 144 101.5 L 148 103.5 L 147.5 105 L 150 106.5 Q 148.9 109.8 151.5 109 L 154 112.5 L 153.5 114 L 156 115.5 Q 156.8 117.8 154.5 117 L 152.5 117 L 141.5 117 L 140.5 116 L 136.5 117 L 130 108.5 L 130 106 L 128 105.5 L 130 104.5 L 125 101.5 L 125.5 100 L 123 98.5 L 115.5 88 L 107 88.5 L 108 89.5 L 108 114.5 L 109 115.5 L 107.5 117 L 94.5 117 L 92 116.5 L 92 54.5 L 93 53.5 L 92 49 Z M 104 51 L 104 53 L 106 52 L 104 51 Z M 105 54 L 104 57 L 106 58 L 105 54 Z M 95 56 L 94 112 L 95 112 L 95 56 Z M 134 60 L 132 62 L 134 62 L 134 60 Z M 132 62 L 130 64 L 132 64 L 132 62 Z M 125 63 L 125 65 L 127 64 L 125 63 Z M 139 65 L 139 67 L 141 66 L 139 65 Z M 132 75 L 132 77 L 134 76 L 132 75 Z M 116 76 Q 114 79 117 78 L 116 76 Z M 114 79 L 112 82 L 114 81 L 114 79 Z M 121 80 L 122 82 Q 123 79 121 80 Z M 119 88 Q 117 91 120 90 L 119 88 Z M 125 91 L 126 95 L 127 95 Q 128 90 125 91 Z M 137 91 L 137 93 L 139 92 L 137 91 Z M 106 93 L 104 95 L 106 95 L 106 93 Z M 139 93 L 137 95 L 139 95 L 139 93 Z M 105 100 L 104 104 L 105 104 L 105 100 Z M 145 103 L 144 106 L 145 106 L 145 103 Z M 132 106 L 131 109 L 133 110 L 132 106 Z M 146 106 L 145 108 L 147 107 L 146 106 Z M 106 107 L 104 111 Q 103 113 106 112 L 106 107 Z M 140 113 Q 138 116 141 115 L 140 113 Z " /><path fill="rgb(113,114,118)" stroke="rgb(113,114,118)" stroke-width="1" opacity="0.996078431372549" d="M 166.5 49 L 181.5 49 L 182 49.5 L 182 116.5 Q 180.8 119.3 179.5 117 L 166.5 117 Q 165.5 117 166 112.5 L 165 109.5 L 166 108.5 L 166 54.5 L 165 50.5 L 166.5 49 Z M 178 50 L 177 56 L 178 56 L 178 50 Z M 177 56 L 176 104 L 177 104 L 177 56 Z M 177 105 L 176 112 L 177 112 L 177 105 Z M 178 112 L 177 116 L 178 116 L 178 112 Z M 173 114 L 173 115 L 176 115 L 173 114 Z " /><path fill="rgb(113,114,118)" stroke="rgb(113,114,118)" stroke-width="1" opacity="0.996078431372549" d="M 217.5 49 L 231.5 49 L 233 50.5 L 232 52.5 L 236 58.5 L 235.5 60 Q 237.8 59.3 237 61.5 L 236.5 63 Q 238.8 62.3 238 64.5 L 237.5 66 Q 240.5 65.1 239 69.5 L 241 72.5 L 240.5 74 L 242 74.5 L 240 75.5 L 243 77.5 L 242 79.5 L 244 79.5 Q 243.3 83.8 246 84.5 L 245 87 Q 247.7 85.9 247 88.5 L 250 95.5 L 249.5 97 Q 252.1 96.2 251 99.5 L 253 103.5 Q 250.5 105 254 106.5 L 258 116.5 L 240.5 117 L 241 115.5 L 240.5 114 L 239 114.5 L 237 109.5 L 237 107.5 L 236 105.5 L 236.5 104 L 235 103.5 Q 237.3 102.3 234.5 101 L 231.5 102 L 213.5 102 L 213 103.5 L 212.5 106 L 211 106.5 L 212 108.5 L 210 114.5 L 207.5 117 L 192.5 117 L 191.5 118 L 191 115.5 L 194 111.5 L 193.5 110 L 195 109.5 L 195 107.5 L 197 100.5 L 199 98.5 L 199 96.5 L 202 86 L 204 85.5 L 204 83.5 L 213 57 L 215 56.5 L 215 54.5 L 217.5 49 Z M 225 63 L 223 67 Q 219 68 222 70 L 221 72 Q 222 76 220 75 L 220 77 L 219 81 Q 215 82 218 84 L 216 93 L 219 93 L 223 92 L 222 94 L 225 94 L 224 93 L 226 93 L 228 92 L 228 94 L 233 92 L 232 88 L 232 86 L 231 84 L 231 82 L 229 77 L 229 75 L 227 70 L 227 68 Q 229 69 228 67 L 226 67 L 227 65 L 225 63 Z M 219 64 L 218 67 L 219 67 L 219 64 Z M 221 64 Q 219 67 222 66 L 221 64 Z M 231 65 L 229 69 L 231 69 L 231 65 Z M 236 65 L 235 67 L 238 69 L 236 65 Z M 217 67 L 218 69 Q 219 66 217 67 Z M 234 67 L 235 69 Q 236 66 234 67 Z M 219 69 L 218 71 L 221 70 L 219 69 Z M 241 82 L 242 83 L 243 84 Q 244 81 241 82 Z M 242 91 L 241 94 L 242 94 L 242 91 Z M 211 97 L 211 100 Q 214 99 211 97 Z M 212 99 L 212 101 L 215 101 L 216 101 L 212 99 Z M 236 100 L 236 101 L 238 101 L 236 100 Z M 252 105 L 249 107 L 252 107 L 252 105 Z M 211 107 L 209 109 L 211 109 L 211 107 Z M 198 108 L 196 110 L 198 110 L 198 108 Z M 205 112 L 204 115 L 205 115 L 205 112 Z M 202 113 L 200 116 L 203 114 L 202 113 Z " /><path fill="rgb(113,114,118)" stroke="rgb(113,114,118)" stroke-width="1" opacity="0.996078431372549" d="M 52.5 85 L 59 90.5 L 57 91.5 Q 62.5 92 64 96.5 Q 63.5 100.5 66.5 101 L 71 104.5 L 76 110.5 L 75.5 112 Q 77.8 111.3 77 113.5 L 81 116 L 80.5 118 L 77.5 116 L 76.5 118 L 72.5 116 L 71.5 117 L 46.5 117 L 37 106.5 L 37 103.5 L 40.5 102 L 43.5 103 L 43.5 102 L 39 100.5 L 44 96.5 L 44 94.5 L 52.5 85 Z M 43 98 L 43 100 L 45 99 L 43 98 Z M 46 103 L 45 105 Q 49 106 48 104 L 46 103 Z M 69 109 L 68 112 L 69 112 L 69 109 Z M 74 109 L 72 112 L 74 111 L 74 109 Z M 47 114 Q 45 117 48 116 L 47 114 Z M 74 114 Q 73 116 76 115 L 77 116 Q 78 112 74 114 Z " /><path fill="rgb(134,44,45)" stroke="rgb(134,44,45)" stroke-width="1" opacity="0.9529411764705882" d="M 0 49 L 36 49.5 L 9 82.5 L 34 111.5 L 38 118 L 1.5 118 L 0 116.5 L 0 49 Z " /><path fill="rgb(134,44,45)" stroke="rgb(134,44,45)" stroke-width="1" opacity="0.9529411764705882" d="M 30.5 65 Q 32.8 64.3 32 66.5 L 46 82.5 L 31.5 100 Q 29.3 100.8 30 98.5 L 16 82.5 L 30.5 65 Z " /><path fill="rgb(134,44,45)" stroke="rgb(134,44,45)" stroke-width="1" opacity="0.9529411764705882" d="M 105.5 129 L 106 141 L 108 141.5 L 106.5 142 L 105 140.5 L 105.5 129 Z " /><path fill="rgb(134,44,45)" stroke="rgb(134,44,45)" stroke-width="1" opacity="0.9529411764705882" d="M 5.5 130 L 8 134.5 L 7 134.5 L 5.5 132 L 4 132.5 L 5.5 130 Z " /><path fill="rgb(134,44,45)" stroke="rgb(134,44,45)" stroke-width="1" opacity="0.9529411764705882" d="M 45.5 130 L 46 133 L 48 133.5 L 46 134 L 46 140.5 L 47.5 141 L 47.5 142 L 45 140.5 Q 46.5 135 44 133.5 L 45.5 130 Z " /><path fill="rgb(134,44,45)" stroke="rgb(134,44,45)" stroke-width="1" opacity="0.9529411764705882" d="M 72.5 130 L 74 133.5 L 73 134.5 L 73 141 L 75 141.5 L 73.5 142 L 72 140.5 Q 73.5 135 71 133.5 L 72.5 130 Z " /><path fill="rgb(134,44,45)" stroke="rgb(134,44,45)" stroke-width="1" opacity="0.9529411764705882" d="M 114 130 L 122 130.5 L 115 131 Q 112.7 137.4 120.5 135 L 120.5 136 Q 112.3 133.3 115 141.5 L 114 141.5 L 114 130 Z " /><path fill="rgb(134,44,45)" stroke="rgb(134,44,45)" stroke-width="1" opacity="0.9529411764705882" d="M 160.5 130 L 161 141 L 159 140.5 L 160 135.5 L 160 133.5 L 160.5 130 Z " /><path fill="rgb(134,44,45)" stroke="rgb(134,44,45)" stroke-width="1" opacity="0.9529411764705882" d="M 184.5 130 L 187 131.5 L 185.5 131 L 184.5 130 Z " /><path fill="rgb(134,44,45)" stroke="rgb(134,44,45)" stroke-width="1" opacity="0.9529411764705882" d="M 255.5 130 L 256 133 L 258 133.5 L 256 134 L 256 140.5 L 257 141.5 L 255 140.5 Q 256.5 135 254 133.5 L 255.5 130 Z " /><path fill="rgb(134,44,45)" stroke="rgb(134,44,45)" stroke-width="1" opacity="0.9529411764705882" d="M 179.5 132 L 181.5 135 L 187 136 L 186.5 138 L 179 133.5 L 179.5 132 Z " /><path fill="rgb(134,44,45)" stroke="rgb(134,44,45)" stroke-width="1" opacity="0.9529411764705882" d="M 16.5 133 L 14 136.5 L 13.5 141 L 13 134 L 16.5 133 Z " /><path fill="rgb(134,44,45)" stroke="rgb(134,44,45)" stroke-width="1" opacity="0.9529411764705882" d="M 21.5 133 L 27 134.5 L 25.5 135 L 21.5 134 Q 19.3 134.8 20 138.5 Q 20.5 141.5 24.5 141 L 26 140.5 L 22.5 142 L 20 141 L 19 135.5 L 21.5 133 Z " /><path fill="rgb(134,44,45)" stroke="rgb(134,44,45)" stroke-width="1" opacity="0.9529411764705882" d="M 32.5 133 L 37 134 L 36.5 141 Q 37.4 135.6 34.5 134 Q 31.5 134.5 32.5 133 Z " /><path fill="rgb(134,44,45)" stroke="rgb(134,44,45)" stroke-width="1" opacity="0.9529411764705882" d="M 40.5 133 L 41 140.5 L 40 140.5 L 40.5 133 Z " /><path fill="rgb(134,44,45)" stroke="rgb(134,44,45)" stroke-width="1" opacity="0.9529411764705882" d="M 54.5 133 L 58 134.5 L 56.5 134 Q 53.5 134.5 54.5 133 Z " /><path fill="rgb(134,44,45)" stroke="rgb(134,44,45)" stroke-width="1" opacity="0.9529411764705882" d="M 63.5 133 Q 67.3 132.3 68 134.5 L 66.5 134 Q 62.8 133.3 62 135.5 L 63 140.5 L 61 139.5 Q 60 134 63.5 133 Z " /><path fill="rgb(134,44,45)" stroke="rgb(134,44,45)" stroke-width="1" opacity="0.9529411764705882" d="M 78.5 133 L 79 141 L 82 141.5 L 79.5 142 L 78 140.5 L 78.5 133 Z " /><path fill="rgb(134,44,45)" stroke="rgb(134,44,45)" stroke-width="1" opacity="0.9529411764705882" d="M 84.5 133 L 85 140.5 L 84 140.5 L 84.5 133 Z " /><path fill="rgb(134,44,45)" stroke="rgb(134,44,45)" stroke-width="1" opacity="0.9529411764705882" d="M 91.5 133 L 89.5 136 L 91.5 133 Z " /><path fill="rgb(134,44,45)" stroke="rgb(134,44,45)" stroke-width="1" opacity="0.9529411764705882" d="M 99.5 133 L 100.5 135 L 99.5 133 Z " /><path fill="rgb(134,44,45)" stroke="rgb(134,44,45)" stroke-width="1" opacity="0.9529411764705882" d="M 124.5 133 Q 129.3 132.3 130 135.5 Q 131.3 141.6 128.5 141 L 129 139.5 Q 130 135 127.5 134 Q 123.5 134.8 124.5 133 Z " /><path fill="rgb(134,44,45)" stroke="rgb(134,44,45)" stroke-width="1" opacity="0.9529411764705882" d="M 135.5 133 Q 139.3 132.3 140 134.5 L 138.5 134 Q 134.8 133.3 134 135.5 L 133.5 137 L 133 135.5 L 135.5 133 Z " /><path fill="rgb(134,44,45)" stroke="rgb(134,44,45)" stroke-width="1" opacity="0.9529411764705882" d="M 154.5 133 L 158 133.5 L 154 135.5 L 153.5 137 L 153 134.5 L 154.5 133 Z " /><path fill="rgb(134,44,45)" stroke="rgb(134,44,45)" stroke-width="1" opacity="0.9529411764705882" d="M 166.5 133 Q 171.3 132.3 172 135.5 L 172 138 L 165.5 138 L 165 139.5 Q 165.8 141.8 169.5 141 L 171 140.5 Q 170.3 142.8 166.5 142 Q 163 141 164 135.5 L 166.5 133 Z M 167 134 L 165 137 L 171 137 L 171 136 Q 170 133 167 134 Z " /><path fill="rgb(134,44,45)" stroke="rgb(134,44,45)" stroke-width="1" opacity="0.9529411764705882" d="M 190.5 133 Q 193.5 134.5 190.5 136 L 190.5 133 Z " /><path fill="rgb(134,44,45)" stroke="rgb(134,44,45)" stroke-width="1" opacity="0.9529411764705882" d="M 193.5 133 Q 197.3 132.3 198 134.5 L 199 138.5 L 198 141 L 193.5 142 L 193.5 141 Q 197.5 141.5 198 138.5 L 197 134 Q 192.6 135 193.5 133 Z " /><path fill="rgb(134,44,45)" stroke="rgb(134,44,45)" stroke-width="1" opacity="0.9529411764705882" d="M 203.5 133 L 202 135.5 Q 201.1 138.5 205.5 137 L 205.5 138 Q 201.1 136.5 202 139.5 L 202.5 141 Q 200 140 201 135.5 L 203.5 133 Z " /><path fill="rgb(134,44,45)" stroke="rgb(134,44,45)" stroke-width="1" opacity="0.9529411764705882" d="M 214.5 133 Q 218.3 132.3 219 134.5 L 217.5 134 Q 213.3 133.3 212.5 136 L 214.5 133 Z " /><path fill="rgb(134,44,45)" stroke="rgb(134,44,45)" stroke-width="1" opacity="0.9529411764705882" d="M 222.5 133 L 223 141.5 L 222 141.5 L 222.5 133 Z " /><path fill="rgb(134,44,45)" stroke="rgb(134,44,45)" stroke-width="1" opacity="0.9529411764705882" d="M 3.5 134 L 4 135.5 L 3.5 137 L 8.5 136 L 11 141.5 L 10 141.5 L 9 138 Q 3.6 136.5 2 139.5 L 1.5 141 L 1 139.5 L 3.5 134 Z " /><path fill="rgb(134,44,45)" stroke="rgb(134,44,45)" stroke-width="1" opacity="0.9529411764705882" d="M 232.5 134 L 233 141 L 231 140.5 L 232.5 134 Z " /><path fill="rgb(134,44,45)" stroke="rgb(134,44,45)" stroke-width="1" opacity="0.9529411764705882" d="M 50.5 136 L 53 137.5 L 50 138 L 50.5 136 Z " /><path fill="rgb(134,44,45)" stroke="rgb(134,44,45)" stroke-width="1" opacity="0.9529411764705882" d="M 149.5 136 L 150 141.5 L 148 140.5 L 149.5 136 Z " /><path fill="rgb(134,44,45)" stroke="rgb(134,44,45)" stroke-width="1" opacity="0.9529411764705882" d="M 123 137 L 125 137.5 L 123 138.5 L 123 137 Z " /><path fill="rgb(134,44,45)" stroke="rgb(134,44,45)" stroke-width="1" opacity="0.9529411764705882" d="M 211.5 137 L 214.5 141 L 217 141.5 L 214.5 142 L 211.5 137 Z " /><path fill="rgb(134,44,45)" stroke="rgb(134,44,45)" stroke-width="1" opacity="0.9529411764705882" d="M 133.5 138 L 135.5 141 L 138 141.5 L 135.5 142 Q 131.9 140.9 133.5 138 Z " /><path fill="rgb(134,44,45)" stroke="rgb(134,44,45)" stroke-width="1" opacity="0.9529411764705882" d="M 153.5 138 L 155.5 141 L 158 141.5 L 155.5 142 Q 151.9 140.9 153.5 138 Z " /><path fill="rgb(134,44,45)" stroke="rgb(134,44,45)" stroke-width="1" opacity="0.9529411764705882" d="M 226.5 138 L 227 141 L 230 141.5 L 227.5 142 Q 225 141 226.5 138 Z " /><path fill="rgb(134,44,45)" stroke="rgb(134,44,45)" stroke-width="1" opacity="0.9529411764705882" d="M 51.5 139 L 56 141.5 L 53.5 142 L 51.5 139 Z " /><path fill="rgb(134,44,45)" stroke="rgb(134,44,45)" stroke-width="1" opacity="0.9529411764705882" d="M 94.5 139 L 99 141.5 L 96.5 142 L 94.5 139 Z " /><path fill="rgb(134,44,45)" stroke="rgb(134,44,45)" stroke-width="1" opacity="0.9529411764705882" d="M 101.5 139 L 102 141.5 L 100 140.5 L 101.5 139 Z " /><path fill="rgb(134,44,45)" stroke="rgb(134,44,45)" stroke-width="1" opacity="0.9529411764705882" d="M 190 139 Q 192.7 137.9 192 140.5 L 190 141.5 L 190 139 Z " /><path fill="rgb(134,44,45)" stroke="rgb(134,44,45)" stroke-width="1" opacity="0.9529411764705882" d="M 67.5 140 L 66.5 142 L 64 141.5 L 67.5 140 Z " /><path fill="rgb(134,44,45)" stroke="rgb(134,44,45)" stroke-width="1" opacity="0.9529411764705882" d="M 123.5 140 L 127 141.5 L 124.5 142 L 123.5 140 Z " /><path fill="rgb(134,44,45)" stroke="rgb(134,44,45)" stroke-width="1" opacity="0.9529411764705882" d="M 143.5 140 L 147 141.5 L 144.5 142 L 143.5 140 Z " /><path fill="rgb(134,44,45)" stroke="rgb(134,44,45)" stroke-width="1" opacity="0.9529411764705882" d="M 207.5 140 L 206.5 142 L 204 141.5 L 207.5 140 Z " /><path fill="rgb(134,44,45)" stroke="rgb(134,44,45)" stroke-width="1" opacity="0.9529411764705882" d="M 182.5 141 L 185 141.5 L 182.5 142 L 182.5 141 Z " /><path fill="rgb(134,44,45)" stroke="rgb(134,44,45)" stroke-width="1" opacity="0.9529411764705882" d="M 247.5 141 L 250 141.5 L 247.5 142 L 247.5 141 Z " /><path fill="rgb(134,44,45)" stroke="rgb(134,44,45)" stroke-width="1" opacity="0.9529411764705882" d="M 257 192 Q 260 191 259 194 Q 256 195 257 192 Z " /><path fill="rgb(105,106,108)" stroke="rgb(105,106,108)" stroke-width="1" opacity="0.7647058823529411" d="M 92.5 48 L 94 48.5 L 92 49 L 91.5 116 L 91 49.5 L 92.5 48 Z " /><path fill="rgb(105,106,108)" stroke="rgb(105,106,108)" stroke-width="1" opacity="0.7647058823529411" d="M 95.5 48 L 105 48.5 L 95.5 49 L 95.5 48 Z " /><path fill="rgb(105,106,108)" stroke="rgb(105,106,108)" stroke-width="1" opacity="0.7647058823529411" d="M 138.5 48 L 155.5 48 L 156 49.5 L 154 50.5 L 154.5 49 L 138.5 49 L 138.5 48 Z " /><path fill="rgb(105,106,108)" stroke="rgb(105,106,108)" stroke-width="1" opacity="0.7647058823529411" d="M 166.5 48 L 181.5 48 L 183 49.5 L 181.5 49 L 166.5 49 L 165.5 50 L 166.5 48 Z " /><path fill="rgb(105,106,108)" stroke="rgb(105,106,108)" stroke-width="1" opacity="0.7647058823529411" d="M 217.5 48 L 231.5 48 L 233 49.5 L 231.5 49 L 217.5 49 L 216 50.5 L 215.5 52 L 215 50.5 L 217.5 48 Z " /><path fill="rgb(105,106,108)" stroke="rgb(105,106,108)" stroke-width="1" opacity="0.7647058823529411" d="M 133.5 50 L 131.5 53 L 133.5 50 Z " /><path fill="rgb(105,106,108)" stroke="rgb(105,106,108)" stroke-width="1" opacity="0.7647058823529411" d="M 153.5 52 L 151 55.5 L 148.5 59 L 150 56.5 L 153.5 52 Z " /><path fill="rgb(105,106,108)" stroke="rgb(105,106,108)" stroke-width="1" opacity="0.7647058823529411" d="M 130.5 54 L 129.5 56 L 130.5 54 Z " /><path fill="rgb(105,106,108)" stroke="rgb(105,106,108)" stroke-width="1" opacity="0.7647058823529411" d="M 165.5 55 L 166 107.5 L 165 107.5 L 165.5 55 Z " /><path fill="rgb(105,106,108)" stroke="rgb(105,106,108)" stroke-width="1" opacity="0.7647058823529411" d="M 128.5 57 L 126.5 60 L 128.5 57 Z " /><path fill="rgb(105,106,108)" stroke="rgb(105,106,108)" stroke-width="1" opacity="0.7647058823529411" d="M 146.5 61 L 145.5 63 L 146.5 61 Z " /><path fill="rgb(105,106,108)" stroke="rgb(105,106,108)" stroke-width="1" opacity="0.7647058823529411" d="M 210.5 64 L 211 65.5 L 209.5 68 L 209 66.5 L 210.5 64 Z " /><path fill="rgb(105,106,108)" stroke="rgb(105,106,108)" stroke-width="1" opacity="0.7647058823529411" d="M 225.5 64 L 226 66.5 L 225 66.5 L 225.5 64 Z " /><path fill="rgb(105,106,108)" stroke="rgb(105,106,108)" stroke-width="1" opacity="0.7647058823529411" d="M 122.5 65 L 120.5 68 L 122.5 65 Z " /><path fill="rgb(105,106,108)" stroke="rgb(105,106,108)" stroke-width="1" opacity="0.7647058823529411" d="M 143.5 65 L 142.5 67 L 143.5 65 Z " /><path fill="rgb(105,106,108)" stroke="rgb(105,106,108)" stroke-width="1" opacity="0.7647058823529411" d="M 239.5 67 L 241 70.5 L 240 70.5 L 239.5 67 Z " /><path fill="rgb(105,106,108)" stroke="rgb(105,106,108)" stroke-width="1" opacity="0.7647058823529411" d="M 119.5 69 L 118.5 71 L 119.5 69 Z " /><path fill="rgb(105,106,108)" stroke="rgb(105,106,108)" stroke-width="1" opacity="0.7647058823529411" d="M 140.5 69 L 139.5 71 L 140.5 69 Z " /><path fill="rgb(105,106,108)" stroke="rgb(105,106,108)" stroke-width="1" opacity="0.7647058823529411" d="M 227.5 72 L 228 74.5 L 227 74.5 L 227.5 72 Z " /><path fill="rgb(105,106,108)" stroke="rgb(105,106,108)" stroke-width="1" opacity="0.7647058823529411" d="M 116.5 73 L 113.5 77 L 116.5 73 Z " /><path fill="rgb(105,106,108)" stroke="rgb(105,106,108)" stroke-width="1" opacity="0.7647058823529411" d="M 137.5 73 L 134.5 77 L 137.5 73 Z " /><path fill="rgb(105,106,108)" stroke="rgb(105,106,108)" stroke-width="1" opacity="0.7647058823529411" d="M 131.5 82 L 138 87.5 L 133.5 84 L 131.5 82 Z " /><path fill="rgb(105,106,108)" stroke="rgb(105,106,108)" stroke-width="1" opacity="0.7647058823529411" d="M 52.5 84 L 58 88.5 L 53.5 85 L 49.5 88 L 52.5 84 Z " /><path fill="rgb(105,106,108)" stroke="rgb(105,106,108)" stroke-width="1" opacity="0.7647058823529411" d="M 217.5 85 L 218 87.5 L 217 87.5 L 217.5 85 Z " /><path fill="rgb(105,106,108)" stroke="rgb(105,106,108)" stroke-width="1" opacity="0.7647058823529411" d="M 111.5 88 L 114 88.5 L 111.5 89 L 111.5 88 Z " /><path fill="rgb(105,106,108)" stroke="rgb(105,106,108)" stroke-width="1" opacity="0.7647058823529411" d="M 48.5 89 L 44.5 94 L 48.5 89 Z " /><path fill="rgb(105,106,108)" stroke="rgb(105,106,108)" stroke-width="1" opacity="0.7647058823529411" d="M 116.5 89 L 117.5 91 L 116.5 89 Z " /><path fill="rgb(105,106,108)" stroke="rgb(105,106,108)" stroke-width="1" opacity="0.7647058823529411" d="M 138.5 89 L 139.5 91 L 138.5 89 Z " /><path fill="rgb(105,106,108)" stroke="rgb(105,106,108)" stroke-width="1" opacity="0.7647058823529411" d="M 216.5 89 L 217 91 L 221 91.5 L 216 92 L 216.5 89 Z " /><path fill="rgb(105,106,108)" stroke="rgb(105,106,108)" stroke-width="1" opacity="0.7647058823529411" d="M 59.5 91 L 63.5 96 L 59.5 91 Z " /><path fill="rgb(105,106,108)" stroke="rgb(105,106,108)" stroke-width="1" opacity="0.7647058823529411" d="M 118.5 92 L 120.5 95 L 118.5 92 Z " /><path fill="rgb(105,106,108)" stroke="rgb(105,106,108)" stroke-width="1" opacity="0.7647058823529411" d="M 140.5 92 L 141.5 94 L 140.5 92 Z " /><path fill="rgb(105,106,108)" stroke="rgb(105,106,108)" stroke-width="1" opacity="0.7647058823529411" d="M 43.5 95 L 39 100.5 L 36 104.5 L 36.5 106 Q 32.7 103.7 38 101.5 L 43.5 95 Z " /><path fill="rgb(105,106,108)" stroke="rgb(105,106,108)" stroke-width="1" opacity="0.7647058823529411" d="M 142.5 95 L 143.5 97 L 142.5 95 Z " /><path fill="rgb(105,106,108)" stroke="rgb(105,106,108)" stroke-width="1" opacity="0.7647058823529411" d="M 121.5 96 L 122.5 98 L 121.5 96 Z " /><path fill="rgb(105,106,108)" stroke="rgb(105,106,108)" stroke-width="1" opacity="0.7647058823529411" d="M 64.5 97 L 69.5 103 L 64.5 97 Z " /><path fill="rgb(105,106,108)" stroke="rgb(105,106,108)" stroke-width="1" opacity="0.7647058823529411" d="M 144.5 98 L 145.5 100 L 144.5 98 Z " /><path fill="rgb(105,106,108)" stroke="rgb(105,106,108)" stroke-width="1" opacity="0.7647058823529411" d="M 123.5 99 L 124.5 101 L 123.5 99 Z " /><path fill="rgb(105,106,108)" stroke="rgb(105,106,108)" stroke-width="1" opacity="0.7647058823529411" d="M 146.5 101 L 147.5 103 L 146.5 101 Z " /><path fill="rgb(105,106,108)" stroke="rgb(105,106,108)" stroke-width="1" opacity="0.7647058823529411" d="M 196.5 101 L 197 102.5 L 195.5 105 L 195 103.5 L 196.5 101 Z " /><path fill="rgb(105,106,108)" stroke="rgb(105,106,108)" stroke-width="1" opacity="0.7647058823529411" d="M 125.5 102 L 130 107.5 L 127 105.5 L 125.5 102 Z " /><path fill="rgb(105,106,108)" stroke="rgb(105,106,108)" stroke-width="1" opacity="0.7647058823529411" d="M 214.5 102 L 235 102.5 L 214 103 L 213.5 105 L 213 103.5 L 214.5 102 Z " /><path fill="rgb(105,106,108)" stroke="rgb(105,106,108)" stroke-width="1" opacity="0.7647058823529411" d="M 148.5 104 L 149.5 106 L 148.5 104 Z " /><path fill="rgb(105,106,108)" stroke="rgb(105,106,108)" stroke-width="1" opacity="0.7647058823529411" d="M 71.5 105 L 77 111.5 L 76 111.5 L 71.5 105 Z " /><path fill="rgb(105,106,108)" stroke="rgb(105,106,108)" stroke-width="1" opacity="0.7647058823529411" d="M 194.5 106 L 195 107.5 L 193.5 110 L 193 108.5 L 194.5 106 Z " /><path fill="rgb(105,106,108)" stroke="rgb(105,106,108)" stroke-width="1" opacity="0.7647058823529411" d="M 37.5 107 L 40.5 111 L 37.5 107 Z " /><path fill="rgb(105,106,108)" stroke="rgb(105,106,108)" stroke-width="1" opacity="0.7647058823529411" d="M 150.5 107 L 152.5 110 L 150.5 107 Z " /><path fill="rgb(105,106,108)" stroke="rgb(105,106,108)" stroke-width="1" opacity="0.7647058823529411" d="M 130.5 109 L 131.5 111 L 130.5 109 Z " /><path fill="rgb(105,106,108)" stroke="rgb(105,106,108)" stroke-width="1" opacity="0.7647058823529411" d="M 153.5 111 L 158 117.5 L 155.5 118 L 156 116.5 L 153.5 111 Z " /><path fill="rgb(105,106,108)" stroke="rgb(105,106,108)" stroke-width="1" opacity="0.7647058823529411" d="M 41.5 112 L 43.5 115 L 41.5 112 Z " /><path fill="rgb(105,106,108)" stroke="rgb(105,106,108)" stroke-width="1" opacity="0.7647058823529411" d="M 132.5 112 L 133.5 114 L 132.5 112 Z " /><path fill="rgb(105,106,108)" stroke="rgb(105,106,108)" stroke-width="1" opacity="0.7647058823529411" d="M 78.5 113 L 80.5 116 L 78.5 113 Z " /><path fill="rgb(105,106,108)" stroke="rgb(105,106,108)" stroke-width="1" opacity="0.7647058823529411" d="M 238.5 113 L 240 115.5 L 238 114.5 L 238.5 113 Z " /><path fill="rgb(105,106,108)" stroke="rgb(105,106,108)" stroke-width="1" opacity="0.7647058823529411" d="M 134.5 115 L 135.5 117 L 134.5 115 Z " /><path fill="rgb(105,106,108)" stroke="rgb(105,106,108)" stroke-width="1" opacity="0.7647058823529411" d="M 209.5 115 L 207.5 118 L 209.5 115 Z " /><path fill="rgb(105,106,108)" stroke="rgb(105,106,108)" stroke-width="1" opacity="0.7647058823529411" d="M 165.5 116 L 166.5 118 L 165.5 116 Z " /><path fill="rgb(105,106,108)" stroke="rgb(105,106,108)" stroke-width="1" opacity="0.7647058823529411" d="M 241.5 117 L 244 117.5 L 241.5 118 L 241.5 117 Z " /><path fill="rgb(105,106,108)" stroke="rgb(105,106,108)" stroke-width="1" opacity="0.7647058823529411" d="M 236.5 130 L 237 139.5 L 238 140.5 L 236 141 L 236.5 130 Z " /><path fill="rgb(105,106,108)" stroke="rgb(105,106,108)" stroke-width="1" opacity="0.7647058823529411" d="M 148.5 134 L 149.5 136 L 148.5 134 Z " /><path fill="rgb(105,106,108)" stroke="rgb(105,106,108)" stroke-width="1" opacity="0.7647058823529411" d="M 242.5 134 L 243 138.5 L 242 138.5 L 242.5 134 Z " /><path fill="rgb(105,106,108)" stroke="rgb(105,106,108)" stroke-width="1" opacity="0.7647058823529411" d="M 56.5 137 L 59 137.5 L 56.5 138 L 56.5 137 Z " /><path fill="rgb(78,71,72)" stroke="rgb(78,71,72)" stroke-width="1" opacity="0.21568627450980393" d="M 0.5 48 L 36.5 48 L 37 49.5 L 32 53.5 L 35.5 49 L 0.5 49 L 0.5 48 Z " /><path fill="rgb(78,71,72)" stroke="rgb(78,71,72)" stroke-width="1" opacity="0.21568627450980393" d="M 91.5 48 L 90.5 50 L 91.5 48 Z " /><path fill="rgb(78,71,72)" stroke="rgb(78,71,72)" stroke-width="1" opacity="0.21568627450980393" d="M 109.5 48 L 110 76 L 113 76.5 L 110.5 77 L 109 75.5 L 109.5 48 Z " /><path fill="rgb(78,71,72)" stroke="rgb(78,71,72)" stroke-width="1" opacity="0.21568627450980393" d="M 164 48 L 166 48.5 L 165 49.5 L 164.5 116 L 164 48 Z " /><path fill="rgb(78,71,72)" stroke="rgb(78,71,72)" stroke-width="1" opacity="0.21568627450980393" d="M 182.5 48 L 184 48.5 L 184 119 L 166.5 119 L 165 117.5 L 166.5 118 L 182.5 118 L 183 117.5 L 183 49.5 L 182.5 48 Z " /><path fill="rgb(78,71,72)" stroke="rgb(78,71,72)" stroke-width="1" opacity="0.21568627450980393" d="M 216.5 48 L 215.5 50 L 216.5 48 Z " /><path fill="rgb(78,71,72)" stroke="rgb(78,71,72)" stroke-width="1" opacity="0.21568627450980393" d="M 232.5 48 L 234 50.5 L 233 50.5 L 232.5 48 Z " /><path fill="rgb(78,71,72)" stroke="rgb(78,71,72)" stroke-width="1" opacity="0.21568627450980393" d="M 155.5 50 L 154.5 52 L 155.5 50 Z " /><path fill="rgb(78,71,72)" stroke="rgb(78,71,72)" stroke-width="1" opacity="0.21568627450980393" d="M 130.5 53 L 129.5 55 L 130.5 53 Z " /><path fill="rgb(78,71,72)" stroke="rgb(78,71,72)" stroke-width="1" opacity="0.21568627450980393" d="M 152.5 54 L 151.5 56 L 152.5 54 Z " /><path fill="rgb(78,71,72)" stroke="rgb(78,71,72)" stroke-width="1" opacity="0.21568627450980393" d="M 30.5 56 L 28.5 59 L 30.5 56 Z " /><path fill="rgb(78,71,72)" stroke="rgb(78,71,72)" stroke-width="1" opacity="0.21568627450980393" d="M 128.5 56 L 126.5 59 L 128.5 56 Z " /><path fill="rgb(78,71,72)" stroke="rgb(78,71,72)" stroke-width="1" opacity="0.21568627450980393" d="M 149.5 58 L 147.5 61 L 149.5 58 Z " /><path fill="rgb(78,71,72)" stroke="rgb(78,71,72)" stroke-width="1" opacity="0.21568627450980393" d="M 27.5 60 L 24.5 64 L 27.5 60 Z " /><path fill="rgb(78,71,72)" stroke="rgb(78,71,72)" stroke-width="1" opacity="0.21568627450980393" d="M 125.5 60 L 124 62.5 L 121.5 66 L 123 63.5 L 125.5 60 Z " /><path fill="rgb(78,71,72)" stroke="rgb(78,71,72)" stroke-width="1" opacity="0.21568627450980393" d="M 237.5 60 L 239 63.5 L 238 63.5 L 237.5 60 Z " /><path fill="rgb(78,71,72)" stroke="rgb(78,71,72)" stroke-width="1" opacity="0.21568627450980393" d="M 146.5 62 L 144.5 65 L 146.5 62 Z " /><path fill="rgb(78,71,72)" stroke="rgb(78,71,72)" stroke-width="1" opacity="0.21568627450980393" d="M 210.5 62 L 211 63.5 L 209.5 66 L 209 64.5 L 210.5 62 Z " /><path fill="rgb(78,71,72)" stroke="rgb(78,71,72)" stroke-width="1" opacity="0.21568627450980393" d="M 23.5 65 L 20.5 69 L 23.5 65 Z " /><path fill="rgb(78,71,72)" stroke="rgb(78,71,72)" stroke-width="1" opacity="0.21568627450980393" d="M 32.5 66 L 36.5 71 L 32.5 66 Z " /><path fill="rgb(78,71,72)" stroke="rgb(78,71,72)" stroke-width="1" opacity="0.21568627450980393" d="M 28.5 67 L 24.5 72 L 28.5 67 Z " /><path fill="rgb(78,71,72)" stroke="rgb(78,71,72)" stroke-width="1" opacity="0.21568627450980393" d="M 142.5 67 L 141.5 69 L 142.5 67 Z " /><path fill="rgb(78,71,72)" stroke="rgb(78,71,72)" stroke-width="1" opacity="0.21568627450980393" d="M 119.5 68 L 118.5 70 L 119.5 68 Z " /><path fill="rgb(78,71,72)" stroke="rgb(78,71,72)" stroke-width="1" opacity="0.21568627450980393" d="M 140.5 70 L 138.5 73 L 140.5 70 Z " /><path fill="rgb(78,71,72)" stroke="rgb(78,71,72)" stroke-width="1" opacity="0.21568627450980393" d="M 18.5 71 L 15.5 75 L 18.5 71 Z " /><path fill="rgb(78,71,72)" stroke="rgb(78,71,72)" stroke-width="1" opacity="0.21568627450980393" d="M 117.5 71 L 115.5 74 L 117.5 71 Z " /><path fill="rgb(78,71,72)" stroke="rgb(78,71,72)" stroke-width="1" opacity="0.21568627450980393" d="M 23.5 73 L 19.5 78 L 23.5 73 Z " /><path fill="rgb(78,71,72)" stroke="rgb(78,71,72)" stroke-width="1" opacity="0.21568627450980393" d="M 38.5 73 L 41.5 77 L 38.5 73 Z " /><path fill="rgb(78,71,72)" stroke="rgb(78,71,72)" stroke-width="1" opacity="0.21568627450980393" d="M 206.5 73 L 207 74.5 L 205.5 77 L 205 75.5 L 206.5 73 Z " /><path fill="rgb(78,71,72)" stroke="rgb(78,71,72)" stroke-width="1" opacity="0.21568627450980393" d="M 221.5 73 L 222 75.5 L 221 75.5 L 221.5 73 Z " /><path fill="rgb(78,71,72)" stroke="rgb(78,71,72)" stroke-width="1" opacity="0.21568627450980393" d="M 137.5 74 L 133.5 79 L 137.5 74 Z " /><path fill="rgb(78,71,72)" stroke="rgb(78,71,72)" stroke-width="1" opacity="0.21568627450980393" d="M 14.5 76 L 11.5 80 L 14.5 76 Z " /><path fill="rgb(78,71,72)" stroke="rgb(78,71,72)" stroke-width="1" opacity="0.21568627450980393" d="M 43.5 79 L 45.5 82 L 43.5 79 Z " /><path fill="rgb(78,71,72)" stroke="rgb(78,71,72)" stroke-width="1" opacity="0.21568627450980393" d="M 131.5 79 L 131 80.5 Q 131.7 83.1 129 82 Q 127.9 79.3 130.5 80 L 131.5 79 Z " /><path fill="rgb(78,71,72)" stroke="rgb(78,71,72)" stroke-width="1" opacity="0.21568627450980393" d="M 17.5 80 L 16.5 82 L 17.5 80 Z " /><path fill="rgb(78,71,72)" stroke="rgb(78,71,72)" stroke-width="1" opacity="0.21568627450980393" d="M 16.5 83 L 19.5 87 L 16.5 83 Z " /><path fill="rgb(78,71,72)" stroke="rgb(78,71,72)" stroke-width="1" opacity="0.21568627450980393" d="M 52.5 83 L 57 86.5 L 53.5 84 L 49.5 87 L 52.5 83 Z " /><path fill="rgb(78,71,72)" stroke="rgb(78,71,72)" stroke-width="1" opacity="0.21568627450980393" d="M 135.5 84 L 137.5 87 L 135.5 84 Z " /><path fill="rgb(78,71,72)" stroke="rgb(78,71,72)" stroke-width="1" opacity="0.21568627450980393" d="M 11.5 85 L 14.5 89 L 11.5 85 Z " /><path fill="rgb(78,71,72)" stroke="rgb(78,71,72)" stroke-width="1" opacity="0.21568627450980393" d="M 44.5 85 L 40.5 90 L 44.5 85 Z " /><path fill="rgb(78,71,72)" stroke="rgb(78,71,72)" stroke-width="1" opacity="0.21568627450980393" d="M 20.5 88 L 24.5 93 L 20.5 88 Z " /><path fill="rgb(78,71,72)" stroke="rgb(78,71,72)" stroke-width="1" opacity="0.21568627450980393" d="M 48.5 88 L 44.5 93 L 48.5 88 Z " /><path fill="rgb(78,71,72)" stroke="rgb(78,71,72)" stroke-width="1" opacity="0.21568627450980393" d="M 138.5 88 L 139.5 90 L 138.5 88 Z " /><path fill="rgb(78,71,72)" stroke="rgb(78,71,72)" stroke-width="1" opacity="0.21568627450980393" d="M 58.5 89 L 62.5 94 L 58.5 89 Z " /><path fill="rgb(78,71,72)" stroke="rgb(78,71,72)" stroke-width="1" opacity="0.21568627450980393" d="M 109.5 89 L 110 119 L 93 118.5 L 109 118 L 109.5 89 Z " /><path fill="rgb(78,71,72)" stroke="rgb(78,71,72)" stroke-width="1" opacity="0.21568627450980393" d="M 115.5 89 L 117.5 92 L 115.5 89 Z " /><path fill="rgb(78,71,72)" stroke="rgb(78,71,72)" stroke-width="1" opacity="0.21568627450980393" d="M 140.5 91 L 141.5 93 L 140.5 91 Z " /><path fill="rgb(78,71,72)" stroke="rgb(78,71,72)" stroke-width="1" opacity="0.21568627450980393" d="M 199.5 91 L 200 92.5 L 198.5 96 L 198 93.5 L 199.5 91 Z " /><path fill="rgb(78,71,72)" stroke="rgb(78,71,72)" stroke-width="1" opacity="0.21568627450980393" d="M 17.5 92 L 21.5 97 L 17.5 92 Z " /><path fill="rgb(78,71,72)" stroke="rgb(78,71,72)" stroke-width="1" opacity="0.21568627450980393" d="M 38.5 92 L 35.5 96 L 38.5 92 Z " /><path fill="rgb(78,71,72)" stroke="rgb(78,71,72)" stroke-width="1" opacity="0.21568627450980393" d="M 25.5 94 L 29.5 99 L 25.5 94 Z " /><path fill="rgb(78,71,72)" stroke="rgb(78,71,72)" stroke-width="1" opacity="0.21568627450980393" d="M 43.5 94 L 40.5 98 L 43.5 94 Z " /><path fill="rgb(78,71,72)" stroke="rgb(78,71,72)" stroke-width="1" opacity="0.21568627450980393" d="M 119.5 94 L 120.5 96 L 119.5 94 Z " /><path fill="rgb(78,71,72)" stroke="rgb(78,71,72)" stroke-width="1" opacity="0.21568627450980393" d="M 142.5 94 L 143.5 96 L 142.5 94 Z " /><path fill="rgb(78,71,72)" stroke="rgb(78,71,72)" stroke-width="1" opacity="0.21568627450980393" d="M 64.5 96 L 67.5 100 L 64.5 96 Z " /><path fill="rgb(78,71,72)" stroke="rgb(78,71,72)" stroke-width="1" opacity="0.21568627450980393" d="M 121.5 97 L 122.5 99 L 121.5 97 Z " /><path fill="rgb(78,71,72)" stroke="rgb(78,71,72)" stroke-width="1" opacity="0.21568627450980393" d="M 144.5 97 L 153 108.5 L 150 106.5 L 144.5 97 Z " /><path fill="rgb(78,71,72)" stroke="rgb(78,71,72)" stroke-width="1" opacity="0.21568627450980393" d="M 22.5 98 L 26.5 103 L 22.5 98 Z " /><path fill="rgb(78,71,72)" stroke="rgb(78,71,72)" stroke-width="1" opacity="0.21568627450980393" d="M 33.5 98 L 31.5 101 L 33.5 98 Z " /><path fill="rgb(78,71,72)" stroke="rgb(78,71,72)" stroke-width="1" opacity="0.21568627450980393" d="M 123.5 100 L 124.5 102 L 123.5 100 Z " /><path fill="rgb(78,71,72)" stroke="rgb(78,71,72)" stroke-width="1" opacity="0.21568627450980393" d="M 37.5 101 L 35.5 104 L 37.5 101 Z " /><path fill="rgb(78,71,72)" stroke="rgb(78,71,72)" stroke-width="1" opacity="0.21568627450980393" d="M 70.5 103 L 73.5 107 L 70.5 103 Z " /><path fill="rgb(78,71,72)" stroke="rgb(78,71,72)" stroke-width="1" opacity="0.21568627450980393" d="M 125.5 103 L 126.5 105 L 125.5 103 Z " /><path fill="rgb(78,71,72)" stroke="rgb(78,71,72)" stroke-width="1" opacity="0.21568627450980393" d="M 28.5 105 L 32.5 110 L 28.5 105 Z " /><path fill="rgb(78,71,72)" stroke="rgb(78,71,72)" stroke-width="1" opacity="0.21568627450980393" d="M 35.5 105 L 41 111.5 L 36 107.5 L 35.5 105 Z " /><path fill="rgb(78,71,72)" stroke="rgb(78,71,72)" stroke-width="1" opacity="0.21568627450980393" d="M 128.5 107 L 129.5 109 L 128.5 107 Z " /><path fill="rgb(78,71,72)" stroke="rgb(78,71,72)" stroke-width="1" opacity="0.21568627450980393" d="M 130.5 110 L 131.5 112 L 130.5 110 Z " /><path fill="rgb(78,71,72)" stroke="rgb(78,71,72)" stroke-width="1" opacity="0.21568627450980393" d="M 77.5 111 L 80.5 115 L 77.5 111 Z " /><path fill="rgb(78,71,72)" stroke="rgb(78,71,72)" stroke-width="1" opacity="0.21568627450980393" d="M 34.5 112 L 38.5 117 L 34.5 112 Z " /><path fill="rgb(78,71,72)" stroke="rgb(78,71,72)" stroke-width="1" opacity="0.21568627450980393" d="M 132.5 113 L 133.5 115 L 132.5 113 Z " /><path fill="rgb(78,71,72)" stroke="rgb(78,71,72)" stroke-width="1" opacity="0.21568627450980393" d="M 238.5 115 L 240.5 118 L 238.5 115 Z " /><path fill="rgb(78,71,72)" stroke="rgb(78,71,72)" stroke-width="1" opacity="0.21568627450980393" d="M 44.5 116 L 46.5 118 L 81.5 118 L 81.5 116 L 83 119 L 46.5 119 L 44.5 116 Z " /><path fill="rgb(78,71,72)" stroke="rgb(78,71,72)" stroke-width="1" opacity="0.21568627450980393" d="M 209.5 116 L 208.5 118 L 209.5 116 Z " /><path fill="rgb(78,71,72)" stroke="rgb(78,71,72)" stroke-width="1" opacity="0.21568627450980393" d="M 189.5 117 L 190.5 118 L 207 118.5 L 189 119 L 189.5 117 Z " /><path fill="rgb(78,71,72)" stroke="rgb(78,71,72)" stroke-width="1" opacity="0.21568627450980393" d="M 2.5 118 L 40 118.5 L 2.5 119 L 2.5 118 Z " /><path fill="rgb(78,71,72)" stroke="rgb(78,71,72)" stroke-width="1" opacity="0.21568627450980393" d="M 138.5 118 L 159 118.5 L 138.5 119 L 138.5 118 Z " /><path fill="rgb(78,71,72)" stroke="rgb(78,71,72)" stroke-width="1" opacity="0.21568627450980393" d="M 242.5 118 L 259 118.5 L 242.5 119 L 242.5 118 Z " /><path fill="rgb(78,71,72)" stroke="rgb(78,71,72)" stroke-width="1" opacity="0.21568627450980393" d="M 5.5 129 L 8 132.5 L 7 134.5 L 9 134.5 L 7.5 137 L 5.5 133 L 4.5 135 L 3 134.5 L 4 136.5 L 2 135.5 L 3.5 133 L 5 132.5 L 4.5 131 L 7 132.5 L 5.5 129 Z " /><path fill="rgb(78,71,72)" stroke="rgb(78,71,72)" stroke-width="1" opacity="0.21568627450980393" d="M 29 129 Q 32.3 127.7 31 132.5 L 32.5 132 Q 36.3 131.3 37 133.5 L 35.5 133 L 32 133.5 Q 34.5 135 31 136.5 Q 33 143.4 29 142 L 29 129 Z M 30 134 L 30 136 L 32 135 L 30 134 Z " /><path fill="rgb(78,71,72)" stroke="rgb(78,71,72)" stroke-width="1" opacity="0.21568627450980393" d="M 39 129 L 42 129.5 L 42 142 L 39 142 L 39 133.5 L 40 131.5 L 39 129 Z M 41 133 L 40 141 L 41 141 L 41 133 Z " /><path fill="rgb(78,71,72)" stroke="rgb(78,71,72)" stroke-width="1" opacity="0.21568627450980393" d="M 44 129 L 46 129.5 L 44 133.5 L 45.5 141 L 49 140 L 47.5 143 L 44 142 L 43 132.5 L 44 129 Z " /><path fill="rgb(78,71,72)" stroke="rgb(78,71,72)" stroke-width="1" opacity="0.21568627450980393" d="M 71 129 L 73 129.5 L 71 133.5 L 72.5 141 L 73.5 134 L 74 140 Q 76.7 138.9 76 141.5 L 73.5 143 L 71 140.5 L 70 132.5 L 71 129 Z " /><path fill="rgb(78,71,72)" stroke="rgb(78,71,72)" stroke-width="1" opacity="0.21568627450980393" d="M 114.5 129 L 122.5 129 L 123 130.5 L 121.5 130 L 114.5 130 L 114.5 129 Z " /><path fill="rgb(78,71,72)" stroke="rgb(78,71,72)" stroke-width="1" opacity="0.21568627450980393" d="M 159 129 L 162 129.5 L 162 143 Q 159.3 144.1 160 141.5 L 161 140.5 L 161 130.5 L 160 130.5 L 159 134.5 L 160 139.5 L 157.5 143 L 156 142.5 L 158 141.5 L 155.5 141 Q 153.8 143.8 152 139.5 Q 150.8 134.3 153.5 133 L 153 134.5 L 154 137.5 L 153 139.5 L 155.5 140 Q 161.2 141.8 159 135.5 L 158 133 L 155 132.5 L 157.5 132 L 159 132.5 L 159 129 Z " /><path fill="rgb(78,71,72)" stroke="rgb(78,71,72)" stroke-width="1" opacity="0.21568627450980393" d="M 181.5 129 Q 187 128 188 131.5 L 185.5 132 L 182.5 131 L 181 134 L 183 134.5 L 181 135.5 L 183.5 136 L 186.5 135 L 188 137.5 L 188 139.5 L 186.5 142 L 182.5 143 L 180 141.5 L 180.5 140 L 178.5 141 L 178 139 L 186.5 141 L 187 139.5 L 185.5 137 L 187 137.5 Q 187.8 134.9 184.5 136 L 181.5 137 L 178 135 L 179.5 130 L 181.5 131 L 181.5 129 Z M 183 141 L 183 142 L 185 142 L 183 141 Z " /><path fill="rgb(78,71,72)" stroke="rgb(78,71,72)" stroke-width="1" opacity="0.21568627450980393" d="M 221 129 L 224 129.5 L 224 141.5 Q 222.5 144.5 221 141.5 Q 219.7 134.7 222 131.5 L 221 129 Z M 223 133 L 222 142 L 223 142 L 223 133 Z " /><path fill="rgb(78,71,72)" stroke="rgb(78,71,72)" stroke-width="1" opacity="0.21568627450980393" d="M 236.5 129 L 238 129.5 L 238 139.5 L 240 140 L 240 141.5 L 237.5 143 L 236.5 141 L 238.5 142 L 237 139.5 L 236.5 130 L 235 130.5 L 236.5 129 Z " /><path fill="rgb(78,71,72)" stroke="rgb(78,71,72)" stroke-width="1" opacity="0.21568627450980393" d="M 241 129 Q 244.7 127.7 243 133.5 L 242 138.5 L 243 141.5 L 241.5 143 L 241 129 Z " /><path fill="rgb(78,71,72)" stroke="rgb(78,71,72)" stroke-width="1" opacity="0.21568627450980393" d="M 255.5 129 L 257 129 L 257 132 Q 259.7 130.9 259 133.5 L 257.5 133 Q 254.9 133.8 256 130.5 L 254 130.5 L 255.5 129 Z " /><path fill="rgb(78,71,72)" stroke="rgb(78,71,72)" stroke-width="1" opacity="0.21568627450980393" d="M 73.5 131 L 75.5 134 L 73 133 L 73.5 131 Z " /><path fill="rgb(78,71,72)" stroke="rgb(78,71,72)" stroke-width="1" opacity="0.21568627450980393" d="M 115.5 131 L 116 134.5 L 115 134.5 L 115.5 131 Z " /><path fill="rgb(78,71,72)" stroke="rgb(78,71,72)" stroke-width="1" opacity="0.21568627450980393" d="M 14.5 132 L 16.5 132 L 19.5 134 Q 20.3 131.3 24.5 132 L 28 134.5 L 26 135.5 L 26.5 134 L 24.5 135 L 24.5 133 L 21 133.5 L 21 135.5 L 20.5 137 L 19.5 135 L 19 138.5 L 21 138.5 L 20 141 L 28 139 Q 29.1 141.7 26.5 141 L 22.5 143 L 19 140.5 L 18 135 L 13 133.5 L 14.5 132 Z M 23 141 L 23 142 L 25 142 L 23 141 Z " /><path fill="rgb(78,71,72)" stroke="rgb(78,71,72)" stroke-width="1" opacity="0.21568627450980393" d="M 53.5 132 Q 58.3 131.3 59 134.5 L 57.5 137 Q 52 138.5 50.5 136 L 50 138.5 Q 52 136.8 54 140.5 L 53.5 142 L 56 141.5 L 55.5 140 L 59 139 L 57.5 142 L 53.5 143 L 51.5 139 Q 50.3 141.3 49 138.5 L 51.5 133 L 52.5 136 L 57 135.5 L 56.5 133 Q 52.5 133.8 53.5 132 Z " /><path fill="rgb(78,71,72)" stroke="rgb(78,71,72)" stroke-width="1" opacity="0.21568627450980393" d="M 63.5 132 Q 68.3 131.3 69 134.5 Q 69.8 136.8 67.5 136 L 66.5 133 L 63 133.5 L 63 135.5 L 62.5 137 L 61.5 135 L 60.5 139 L 60 135.5 L 63.5 132 Z " /><path fill="rgb(78,71,72)" stroke="rgb(78,71,72)" stroke-width="1" opacity="0.21568627450980393" d="M 77 132 L 79 132.5 Q 76.2 134.3 78 140.5 L 79.5 140 L 83 140 L 83 133.5 L 86 132 L 86 141.5 L 84.5 142 Q 83 139.5 81.5 143 Q 77.5 143.5 77 140.5 L 77 132 Z M 85 133 L 84 141 L 85 141 L 85 133 Z M 80 141 L 80 142 L 82 142 L 80 141 Z " /><path fill="rgb(78,71,72)" stroke="rgb(78,71,72)" stroke-width="1" opacity="0.21568627450980393" d="M 88 132 L 90.5 133 L 93.5 132 L 95.5 133 L 99.5 132 L 103 136.5 L 100 137.5 L 101 139.5 Q 98.8 140.8 101.5 142 L 102.5 140 L 103 141.5 Q 101.8 144.3 100.5 142 L 96.5 143 L 93 139.5 L 94 138.5 L 95.5 136 L 100 135.5 L 99.5 133 L 96 133.5 L 96.5 135 L 93.5 134 L 90 136.5 Q 92 143.4 88 142 L 88 132 Z M 89 134 L 89 136 L 91 135 L 89 134 Z M 96 138 L 96 140 L 96 142 L 99 142 L 98 141 L 100 140 Q 101 136 96 138 Z " /><path fill="rgb(78,71,72)" stroke="rgb(78,71,72)" stroke-width="1" opacity="0.21568627450980393" d="M 104.5 132 L 105 139.5 L 104 139.5 L 104.5 132 Z " /><path fill="rgb(78,71,72)" stroke="rgb(78,71,72)" stroke-width="1" opacity="0.21568627450980393" d="M 124.5 132 L 130 133 Q 131.9 135.7 131 142.5 L 129.5 142 L 125.5 143 L 125.5 142 L 127 141.5 L 126.5 140 Q 129.1 140.7 128 138 L 124 136.5 L 128 135.5 L 127.5 133 L 124 133.5 L 124.5 135 Q 122.3 135.8 123 133.5 L 124.5 132 Z M 130 135 L 128 141 L 130 141 L 130 135 Z " /><path fill="rgb(78,71,72)" stroke="rgb(78,71,72)" stroke-width="1" opacity="0.21568627450980393" d="M 135.5 132 Q 140.3 131.3 141 134.5 Q 141.8 136.8 139.5 136 L 138.5 133 L 135 133.5 Q 137.3 134.8 134.5 136 L 133 135.5 L 134 137.5 L 133 139.5 L 135.5 140 L 141 139 L 139.5 142 L 136.5 143 L 136.5 142 L 138 141.5 L 135.5 141 Q 133.8 143.8 132 139.5 Q 130.8 133.4 133.5 134 L 135.5 132 Z " /><path fill="rgb(78,71,72)" stroke="rgb(78,71,72)" stroke-width="1" opacity="0.21568627450980393" d="M 144.5 132 Q 150.3 131.3 151 135.5 L 150.5 143 L 149.5 135 L 148 137.5 L 149 139.5 L 146.5 143 Q 142.5 143.5 142 140.5 L 142.5 137 L 144 137.5 Q 143.1 134.5 147.5 136 L 145.5 133 L 144 133.5 L 144.5 135 L 142 134.5 L 144.5 132 Z M 144 138 L 144 140 L 144 142 L 147 142 L 146 141 L 148 140 Q 149 136 144 138 Z " /><path fill="rgb(78,71,72)" stroke="rgb(78,71,72)" stroke-width="1" opacity="0.21568627450980393" d="M 166.5 132 Q 172.3 131.3 173 135.5 L 172.5 138 L 171.5 135 L 171 137 L 165.5 137 L 165 135.5 L 164 135.5 L 164.5 140 Q 165.8 137.8 167 140.5 Q 165 144 163 139.5 Q 162 133 166.5 132 Z M 167 133 L 166 136 L 170 136 L 170 134 L 167 133 Z " /><path fill="rgb(78,71,72)" stroke="rgb(78,71,72)" stroke-width="1" opacity="0.21568627450980393" d="M 190.5 132 L 192.5 133 L 195.5 132 L 195.5 133 Q 192.2 131.9 193 134.5 L 192 138.5 L 195.5 140 L 197 136.5 L 195.5 134 L 197.5 133 L 199 135.5 L 198 138.5 L 198.5 140 Q 197.3 137.8 196 140.5 L 196.5 142 L 193.5 141 L 193.5 142 L 195 142.5 L 193.5 143 L 192 142.5 Q 193.5 146.9 190.5 146 L 189.5 144 L 191 144.5 Q 189.5 140.1 192.5 141 L 191 138.5 L 192 134.5 L 189 133.5 L 190.5 132 Z " /><path fill="rgb(78,71,72)" stroke="rgb(78,71,72)" stroke-width="1" opacity="0.21568627450980393" d="M 203.5 132 L 209 133.5 L 208 135.5 L 210 135.5 L 209.5 138 L 208.5 137 L 202 137 L 201.5 135 L 200.5 140 L 200 135.5 L 203.5 132 Z M 204 133 L 203 136 L 207 136 L 207 134 L 204 133 Z " /><path fill="rgb(78,71,72)" stroke="rgb(78,71,72)" stroke-width="1" opacity="0.21568627450980393" d="M 214.5 132 Q 219.3 131.3 220 134.5 Q 220.8 136.8 218.5 136 L 217.5 133 L 214 133.5 Q 216.5 135 213 136.5 L 212 139.5 L 214.5 140 L 220 139 L 218.5 142 L 214.5 143 L 211 138.5 L 211 136.5 Q 209.9 133.2 212.5 134 L 214.5 132 Z M 215 141 L 215 142 L 217 142 L 215 141 Z " /><path fill="rgb(78,71,72)" stroke="rgb(78,71,72)" stroke-width="1" opacity="0.21568627450980393" d="M 227.5 132 Q 232 131 233 133.5 L 231 140.5 L 233 141 L 233.5 139 L 234 142 L 227.5 143 Q 224.5 142.5 225 138.5 Q 226.3 135 231 136 L 232 133.5 L 227.5 133 L 227.5 135 Q 225.3 135.8 226 133.5 L 227.5 132 Z M 227 138 L 226 141 L 228 140 L 227 142 L 230 142 L 231 140 Q 232 137 229 138 L 227 138 Z " /><path fill="rgb(78,71,72)" stroke="rgb(78,71,72)" stroke-width="1" opacity="0.21568627450980393" d="M 247.5 132 Q 251.3 131.3 252 133.5 Q 252.8 135.8 250.5 135 L 250.5 133 Q 246.8 132.3 246 134.5 L 250 136.5 L 246.5 138 L 245 134.5 L 247.5 132 Z " /><path fill="rgb(78,71,72)" stroke="rgb(78,71,72)" stroke-width="1" opacity="0.21568627450980393" d="M 253 132 L 255 132.5 L 253 133.5 L 253 132 Z " /><path fill="rgb(78,71,72)" stroke="rgb(78,71,72)" stroke-width="1" opacity="0.21568627450980393" d="M 34.5 134 Q 37.4 135.6 36.5 141 L 37.5 136 L 38 141.5 Q 36.5 144.5 35 141.5 Q 35.5 135.5 34.5 134 Z " /><path fill="rgb(78,71,72)" stroke="rgb(78,71,72)" stroke-width="1" opacity="0.21568627450980393" d="M 106.5 134 L 107 137.5 L 106 137.5 L 106.5 134 Z " /><path fill="rgb(78,71,72)" stroke="rgb(78,71,72)" stroke-width="1" opacity="0.21568627450980393" d="M 155.5 134 L 154.5 136 L 155.5 134 Z " /><path fill="rgb(78,71,72)" stroke="rgb(78,71,72)" stroke-width="1" opacity="0.21568627450980393" d="M 256.5 134 L 257 140 Q 259.7 138.9 259 141.5 L 256.5 143 Q 253.8 141.8 256 140.5 L 256.5 134 Z " /><path fill="rgb(78,71,72)" stroke="rgb(78,71,72)" stroke-width="1" opacity="0.21568627450980393" d="M 121.5 135 L 125 140.5 Q 123.5 143.5 122 140.5 L 122 137 L 116 137 L 115.5 142 L 115 136 L 121.5 135 Z " /><path fill="rgb(78,71,72)" stroke="rgb(78,71,72)" stroke-width="1" opacity="0.21568627450980393" d="M 189.5 135 L 190 141.5 L 189 141.5 L 189.5 135 Z " /><path fill="rgb(78,71,72)" stroke="rgb(78,71,72)" stroke-width="1" opacity="0.21568627450980393" d="M 233.5 135 L 234 137.5 L 233 137.5 L 233.5 135 Z " /><path fill="rgb(78,71,72)" stroke="rgb(78,71,72)" stroke-width="1" opacity="0.21568627450980393" d="M 254.5 135 L 255 139.5 L 254 139.5 L 254.5 135 Z " /><path fill="rgb(78,71,72)" stroke="rgb(78,71,72)" stroke-width="1" opacity="0.21568627450980393" d="M 14.5 136 L 15 142 L 13 141.5 L 14.5 136 Z " /><path fill="rgb(78,71,72)" stroke="rgb(78,71,72)" stroke-width="1" opacity="0.21568627450980393" d="M 9.5 137 L 11 139.5 L 9 140.5 L 10 138.5 L 8 138.5 L 9.5 137 Z " /><path fill="rgb(78,71,72)" stroke="rgb(78,71,72)" stroke-width="1" opacity="0.21568627450980393" d="M 251.5 137 L 253 140.5 L 247.5 143 L 244 140.5 Q 245.3 137.8 246.5 140 L 248 140.5 L 247.5 142 Q 251.3 143.3 250 139.5 L 249.5 138 L 251.5 137 Z M 252 138 L 251 141 L 252 141 L 252 138 Z " /><path fill="rgb(78,71,72)" stroke="rgb(78,71,72)" stroke-width="1" opacity="0.21568627450980393" d="M 1.5 138 L 2.5 140 L 1.5 138 Z " /><path fill="rgb(78,71,72)" stroke="rgb(78,71,72)" stroke-width="1" opacity="0.21568627450980393" d="M 62.5 138 L 63 140 L 69.5 139 L 66.5 143 L 61 140.5 L 62.5 138 Z M 65 141 L 65 142 L 67 142 L 65 141 Z " /><path fill="rgb(78,71,72)" stroke="rgb(78,71,72)" stroke-width="1" opacity="0.21568627450980393" d="M 202.5 138 L 204 142 L 207 141.5 Q 204.8 140.3 207.5 139 L 210 139.5 Q 209.5 143.5 204.5 143 L 202 141.5 L 202 139.5 L 202.5 138 Z " /><path fill="rgb(78,71,72)" stroke="rgb(78,71,72)" stroke-width="1" opacity="0.21568627450980393" d="M 106.5 139 L 107.5 141 L 106.5 139 Z " /><path fill="rgb(78,71,72)" stroke="rgb(78,71,72)" stroke-width="1" opacity="0.21568627450980393" d="M 170.5 139 Q 172.8 138.3 172 140.5 Q 170.5 143.5 169 140.5 L 170.5 139 Z " /><path fill="rgb(78,71,72)" stroke="rgb(78,71,72)" stroke-width="1" opacity="0.21568627450980393" d="M 0.5 140 L 1.5 142 Q -1.3 142.7 0.5 140 Z " /><path fill="rgb(119,120,123)" stroke="rgb(119,120,123)" stroke-width="1" opacity="0.8745098039215686" d="M 105.5 48 L 108 48.5 L 105.5 49 L 105.5 48 Z " /><path fill="rgb(119,120,123)" stroke="rgb(119,120,123)" stroke-width="1" opacity="0.8745098039215686" d="M 182.5 50 L 183 116.5 L 181 117.5 L 182 116.5 L 182.5 50 Z " /><path fill="rgb(119,120,123)" stroke="rgb(119,120,123)" stroke-width="1" opacity="0.8745098039215686" d="M 127.5 80 L 128.5 82 Q 125.7 82.7 127.5 80 Z " /><path fill="rgb(119,120,123)" stroke="rgb(119,120,123)" stroke-width="1" opacity="0.8745098039215686" d="M 221.5 91 L 229 91.5 L 221.5 92 L 221.5 91 Z " /><path fill="rgb(119,120,123)" stroke="rgb(119,120,123)" stroke-width="1" opacity="0.8745098039215686" d="M 230.5 91 L 233 91.5 L 230.5 92 L 230.5 91 Z " /><path fill="rgb(119,120,123)" stroke="rgb(119,120,123)" stroke-width="1" opacity="0.8745098039215686" d="M 108.5 102 L 109 108.5 L 108 108.5 L 108.5 102 Z " /><path fill="rgb(119,120,123)" stroke="rgb(119,120,123)" stroke-width="1" opacity="0.8745098039215686" d="M 44.5 115 L 46.5 118 L 44.5 115 Z " /><path fill="rgb(119,120,123)" stroke="rgb(119,120,123)" stroke-width="1" opacity="0.8745098039215686" d="M 141.5 117 L 155 117.5 L 141.5 118 L 141.5 117 Z " /></svg>