<?xml version="1.0" encoding="UTF-8"?>
<svg version="1.1" xmlns="http://www.w3.org/2000/svg" width="148" height="148">
<path d="M0 0 C48.84 0 97.68 0 148 0 C148 48.84 148 97.68 148 148 C99.16 148 50.32 148 0 148 C0 99.16 0 50.32 0 0 Z " fill="#FD0002" transform="translate(0,0)"/>
<path d="M0 0 C3 1 3 1 3.94799805 2.64794922 C4.21652588 3.35967285 4.48505371 4.07139648 4.76171875 4.8046875 C5.07238281 5.60729004 5.38304688 6.40989258 5.703125 7.23681641 C6.19039062 8.54271729 6.19039062 8.54271729 6.6875 9.875 C7.38752081 11.69340311 8.08939473 13.51109374 8.79296875 15.328125 C9.15310059 16.26333984 9.51323242 17.19855469 9.88427734 18.16210938 C11.99014578 23.5184802 14.27888257 28.79847974 16.5612793 34.08154297 C19 39.78887373 19 39.78887373 19 42 C7.78 42 -3.44 42 -15 42 C-14.29936352 37.79618111 -13.87172215 35.24672079 -12.2578125 31.57421875 C-11.91363281 30.77693359 -11.56945312 29.97964844 -11.21484375 29.15820312 C-10.85519531 28.34287109 -10.49554688 27.52753906 -10.125 26.6875 C-7.70960294 21.17101623 -5.47820462 15.68707923 -3.62988281 9.95288086 C-2.92107626 7.75530581 -2.1360843 5.59450651 -1.3125 3.4375 C-0.879375 2.303125 -0.44625 1.16875 0 0 Z " fill="#FAF0EF" transform="translate(112,54)"/>
<path d="M0 0 C3.3 0 6.6 0 10 0 C10.11214844 0.85851562 10.22429688 1.71703125 10.33984375 2.6015625 C11.02648164 6.1363256 12.13294687 9.07603124 13.5625 12.375 C14.01753906 13.43460938 14.47257812 14.49421875 14.94140625 15.5859375 C15.29074219 16.38257812 15.64007813 17.17921875 16 18 C16.84124316 15.75267898 17.67314832 13.50261215 18.5 11.25 C18.85771484 10.29867187 18.85771484 10.29867187 19.22265625 9.328125 C20.44801758 5.96713393 21 3.63128413 21 0 C24.63 0 28.26 0 32 0 C32.0825 0.94875 32.165 1.8975 32.25 2.875 C32.93991766 7.88977467 35.00337644 12.38454926 37 17 C37.84442881 15.10908264 38.67511587 13.21202485 39.5 11.3125 C39.9640625 10.25675781 40.428125 9.20101562 40.90625 8.11328125 C42.2762146 4.76374481 42.2762146 4.76374481 42 0 C45.3 0 48.6 0 52 0 C49.34565315 7.73713869 46.62849664 15.1931143 42.91796875 22.5 C41.83229711 25.45672277 41.84100486 27.87460981 42 31 C38.7 31 35.4 31 32 31 C32.05027344 30.15050781 32.10054687 29.30101563 32.15234375 28.42578125 C31.9797353 24.54430412 31.01248852 21.78166417 29.5625 18.1875 C29.11003906 17.04667969 28.65757813 15.90585938 28.19140625 14.73046875 C27.25682467 12.1350553 27.25682467 12.1350553 26 11 C24.98914564 13.39175361 23.99120797 15.78761585 23 18.1875 C22.57074219 19.19780273 22.57074219 19.19780273 22.1328125 20.22851562 C20.50354709 24.20469908 20 26.59030287 20 31 C16.7 31 13.4 31 10 31 C10.20214111 30.28142822 10.40428223 29.56285645 10.61254883 28.82250977 C11.07000536 25.49002394 10.50498413 23.91395761 9.19921875 20.83984375 C8.79896484 19.88142578 8.39871094 18.92300781 7.98632812 17.93554688 C7.55771484 16.94619141 7.12910156 15.95683594 6.6875 14.9375 C6.27048828 13.94427734 5.85347656 12.95105469 5.42382812 11.92773438 C3.71696674 7.88516795 1.96336845 3.92673691 0 0 Z " fill="#FBF1F0" transform="translate(49,65)"/>
<path d="M0 0 C1.82145828 0.69326599 3.59985298 1.4982764 5.36328125 2.328125 C4.78743693 4.71376577 4.1410053 6.99495284 3.36328125 9.328125 C1.36328125 9.328125 1.36328125 9.328125 -0.13671875 7.890625 C-0.63171875 7.375 -1.12671875 6.859375 -1.63671875 6.328125 C-4.16147337 5.06574769 -5.94872341 5.22956096 -8.76171875 5.265625 C-9.67179687 5.27464844 -10.581875 5.28367187 -11.51953125 5.29296875 C-12.56753906 5.31037109 -12.56753906 5.31037109 -13.63671875 5.328125 C-13.96671875 6.648125 -14.29671875 7.968125 -14.63671875 9.328125 C-12.99123047 9.56595703 -12.99123047 9.56595703 -11.3125 9.80859375 C-9.85790085 10.04320652 -8.40348268 10.27894323 -6.94921875 10.515625 C-6.22798828 10.61681641 -5.50675781 10.71800781 -4.76367188 10.82226562 C0.35895309 11.68773194 3.04323695 13.08799091 6.36328125 17.328125 C7.08478601 21.17615039 6.72432966 22.73974981 4.67578125 26.078125 C-0.3411152 30.95942965 -5.78471691 30.68091674 -12.453125 30.59765625 C-16.4854735 30.25626724 -19.12826385 29.28633239 -22.63671875 27.328125 C-21.88671875 22.578125 -21.88671875 22.578125 -19.63671875 20.328125 C-19.05921875 20.8025 -18.48171875 21.276875 -17.88671875 21.765625 C-13.66686272 24.69608058 -9.71291053 24.60500819 -4.63671875 24.328125 C-3.64671875 23.668125 -2.65671875 23.008125 -1.63671875 22.328125 C-1.63671875 21.338125 -1.63671875 20.348125 -1.63671875 19.328125 C-2.66152344 19.23015625 -3.68632813 19.1321875 -4.7421875 19.03125 C-6.10296277 18.88109549 -7.46363489 18.73000413 -8.82421875 18.578125 C-9.83452148 18.4853125 -9.83452148 18.4853125 -10.86523438 18.390625 C-15.55532107 17.84154168 -18.40389568 16.80772845 -21.63671875 13.328125 C-22.50584729 10.26188271 -22.27153925 7.43931737 -21.63671875 4.328125 C-16.56453681 -2.43478426 -7.66965859 -1.95434263 0 0 Z " fill="#FBF3F2" transform="translate(40.63671875,65.671875)"/>
<path d="M0 0 C3.053271 3.557565 4.53435469 7.43291046 6.1875 11.75 C7.115625 14.1425 8.04375 16.535 9 19 C3.72 19 -1.56 19 -7 19 C-5.13446958 12.377367 -2.95594577 6.21198756 0 0 Z " fill="#F51213" transform="translate(113,71)"/>
<path d="M0 0 C4.17740335 0.08451394 6.93378754 0.47862141 10.1875 3.3125 C10.5175 4.3025 10.8475 5.2925 11.1875 6.3125 C10.8575 6.9725 10.5275 7.6325 10.1875 8.3125 C4.9075 7.6525 -0.3725 6.9925 -5.8125 6.3125 C-6.1425 4.9925 -6.4725 3.6725 -6.8125 2.3125 C-4.32244323 -0.17755677 -3.43779268 0.01546234 0 0 Z " fill="#F60D0D" transform="translate(31.8125,69.6875)"/>
</svg>
