<?xml version="1.0" encoding="UTF-8"?>
<svg version="1.1" xmlns="http://www.w3.org/2000/svg" width="360" height="108">
<path d="M0 0 C40.92747383 -1.2103415 78.81381502 10.85808691 116 27 C116 27.66 116 28.32 116 29 C100.15469493 37.64289368 83.22808461 35.92781056 66.28320312 31.25 C45.18694113 25.02912274 25.40617248 15.87450144 6.38671875 4.8984375 C3.15413715 2.94691622 3.15413715 2.94691622 0 2 C0 1.34 0 0.68 0 0 Z " fill="#04675E" transform="translate(10,58)"/>
<path d="M0 0 C0.71337524 -0.00067474 1.42675049 -0.00134949 2.16174316 -0.00204468 C22.40591691 0.02840068 42.28086839 2.97784782 57.76171875 17.41796875 C62.02179093 21.99301854 64.94160383 26.53023793 67.4375 32.25 C60.00823422 31.6993968 53.39714746 29.94110273 46.3125 27.6875 C45.1773999 27.33324951 44.0422998 26.97899902 42.87280273 26.61401367 C35.35998796 24.24597445 27.9218416 21.69978926 20.5 19.0625 C-1.45602216 11.29306985 -22.33772394 8.07550136 -45.5625 7.25 C-45.5625 6.59 -45.5625 5.93 -45.5625 5.25 C-42.25113914 4.59823577 -38.93822755 3.95470172 -35.625 3.3125 C-34.69880859 3.13009766 -33.77261719 2.94769531 -32.81835938 2.75976562 C-21.82999531 0.63920414 -11.18372265 0.00949738 0 0 Z " fill="#144633" transform="translate(63.5625,46.75)"/>
<path d="M0 0 C5.3491614 1.24399102 8.00935831 3.54423725 11 8 C12.6543807 11.17301001 14.02117272 14.43936506 15.375 17.75 C15.76075195 18.66507324 16.14650391 19.58014648 16.54394531 20.52294922 C18.44626574 25.07296665 20.26055647 29.64413703 21.9609375 34.2734375 C22.26467285 35.09231445 22.5684082 35.91119141 22.88134766 36.75488281 C23.44683751 38.29782141 23.99686087 39.84654568 24.52880859 41.40136719 C25.74562699 44.73852837 26.62723188 46.72331807 29.515625 48.8671875 C30.33546875 49.24101563 31.1553125 49.61484375 32 50 C32.99 50.66 33.98 51.32 35 52 C31.79593131 55.20406869 28.59858071 55.71944684 24.24609375 56.0625 C19.7119181 55.93633163 16.99177273 53.99177273 13.875 50.875 C11.28946785 46.91051737 8 41.86044767 8 37 C2.06 37 -3.88 37 -10 37 C-10.350625 38.485 -10.70125 39.97 -11.0625 41.5 C-12.71719877 47.05788773 -15.47751636 51.32034286 -20 55 C-20.99 55 -21.98 55 -23 55 C-21.30806756 49.5990646 -19.16125486 44.43157093 -16.97265625 39.21875 C-16.38828041 37.82118469 -16.38828041 37.82118469 -15.792099 36.39538574 C-14.97029498 34.43160072 -14.1474018 32.46827118 -13.32348633 30.50537109 C-12.0672891 27.5114141 -10.8156368 24.51558633 -9.56445312 21.51953125 C-8.76329323 19.60665673 -7.96186972 17.69389258 -7.16015625 15.78125 C-6.78818619 14.89046753 -6.41621613 13.99968506 -6.03297424 13.08190918 C-4.16348616 8.63629573 -2.22221172 4.28078746 0 0 Z M-2 16 C-4.97 23.92 -4.97 23.92 -8 32 C-3.71 32 0.58 32 5 32 C4.24821231 28.24106155 3.4528605 25.25475779 2.0625 21.75 C1.72347656 20.87859375 1.38445312 20.0071875 1.03515625 19.109375 C0.18608628 16.8405718 0.18608628 16.8405718 -2 16 Z " fill="#144433" transform="translate(166,18)"/>
<path d="M0 0 C0.97030151 0.53983521 0.97030151 0.53983521 1.96020508 1.09057617 C31.3733126 17.31209712 62.31998194 31.26397151 96 35 C96 35.66 96 36.32 96 37 C94.08588443 37.98414433 92.1686033 38.96213349 90.25 39.9375 C89.18265625 40.48277344 88.1153125 41.02804688 87.015625 41.58984375 C77.37922499 46.09598417 62.70783755 45.61156537 52.6875 42.5625 C40.58541246 37.6525102 29.6961073 30.71078859 20 22 C19.50516113 21.56397461 19.01032227 21.12794922 18.50048828 20.67871094 C5.1959057 8.95334439 5.1959057 8.95334439 0 2 C0 1.34 0 0.68 0 0 Z " fill="#3EAE4B" transform="translate(10,63)"/>
<path d="M0 0 C1.77697266 -0.02513672 1.77697266 -0.02513672 3.58984375 -0.05078125 C8.10220754 0.42126581 11.38751429 1.92630493 14.875 4.8125 C17.30395518 7.88065391 17.23994013 11.10338356 17.37890625 14.85546875 C17.42080078 15.92861328 17.46269531 17.00175781 17.50585938 18.10742188 C17.54517578 19.22697266 17.58449219 20.34652344 17.625 21.5 C17.66818359 22.63115234 17.71136719 23.76230469 17.75585938 24.92773438 C17.86199099 27.72253354 17.96404385 30.51742162 18.0625 33.3125 C19.7125 33.6425 21.3625 33.9725 23.0625 34.3125 C21.69266497 37.47365776 21.0734362 38.3052092 18.0625 40.3125 C14.2471438 41.00289779 10.55499268 41.18312073 7.140625 39.19140625 C5.5 37.8125 5.5 37.8125 3.0625 35.3125 C2.464375 35.951875 1.86625 36.59125 1.25 37.25 C-2.17911295 40.48316364 -5.32734246 40.6035393 -9.94140625 40.52734375 C-14.05855877 40.084206 -16.24041929 38.14899685 -18.8125 35.0625 C-20.3487222 31.30729018 -20.04699563 29.19573469 -18.9375 25.3125 C-15.01586151 20.41616301 -10.89857187 18.83418587 -5.125 17 C-4.33673828 16.73638672 -3.54847656 16.47277344 -2.73632812 16.20117188 C-0.80776677 15.55831809 1.12680532 14.93354427 3.0625 14.3125 C2.918125 13.013125 2.77375 11.71375 2.625 10.375 C2.50318359 9.27865234 2.50318359 9.27865234 2.37890625 8.16015625 C2.24363386 6.30109771 2.24363386 6.30109771 1.0625 5.3125 C-0.60367115 5.27186168 -2.27138095 5.269779 -3.9375 5.3125 C-3.875625 6.405625 -3.81375 7.49875 -3.75 8.625 C-3.9375 12.3125 -3.9375 12.3125 -4.9375 14.25 C-8.17076302 15.96767098 -11.36408505 15.85595686 -14.9375 15.3125 C-16.9375 14.125 -16.9375 14.125 -17.9375 12.3125 C-18.5 9.9375 -18.5 9.9375 -17.9375 7.3125 C-12.48441596 1.85941596 -7.78780615 0.02536745 0 0 Z M-4.9375 23.3125 C-6.0353557 26.2058072 -5.98883372 28.12980929 -5.9375 31.3125 C-4.11546419 33.54216747 -4.11546419 33.54216747 -1.5 33.625 C1.04491036 33.51996691 1.04491036 33.51996691 2.7109375 32.1484375 C4.59882761 29.5839625 4.36099149 27.76975881 4.25 24.625 C4.22292969 23.63113281 4.19585937 22.63726562 4.16796875 21.61328125 C4.13316406 20.85402344 4.09835937 20.09476563 4.0625 19.3125 C0.51511741 19.3125 -2.37252938 20.99120159 -4.9375 23.3125 Z " fill="#164534" transform="translate(278.9375,33.6875)"/>
<path d="M0 0 C3.68590332 2.10623047 5.42956288 4.11638028 7 8 C7.27124023 10.71728516 7.27124023 10.71728516 7.30859375 13.7890625 C7.33373047 14.89507812 7.35886719 16.00109375 7.38476562 17.140625 C7.42003924 19.47129674 7.45126264 21.80203317 7.47851562 24.1328125 C7.50494141 25.23625 7.53136719 26.3396875 7.55859375 27.4765625 C7.57204834 28.48799316 7.58550293 29.49942383 7.59936523 30.54150391 C7.79767944 31.75845947 7.79767944 31.75845947 8 33 C8.99 33.66 9.98 34.32 11 35 C11 35.66 11 36.32 11 37 C8.07508744 38.66188214 5.86280527 39.31741772 2.5 39.375 C1.7471875 39.40335938 0.994375 39.43171875 0.21875 39.4609375 C-2.90896531 38.81116566 -3.99531231 37.45123561 -6 35 C-6.51416016 32.39038086 -6.51416016 32.39038086 -6.5390625 29.46484375 C-6.56226563 28.40845703 -6.58546875 27.35207031 -6.609375 26.26367188 C-6.61453125 25.16603516 -6.6196875 24.06839844 -6.625 22.9375 C-6.65049443 20.75900071 -6.68398252 18.58057608 -6.7265625 16.40234375 C-6.73550537 14.95589478 -6.73550537 14.95589478 -6.74462891 13.48022461 C-6.83103854 10.7479986 -6.83103854 10.7479986 -9 8 C-14.01535052 8.32960216 -14.01535052 8.32960216 -18 11 C-18.30546327 13.45681528 -18.30546327 13.45681528 -18.2734375 16.3046875 C-18.2940625 17.36300781 -18.3146875 18.42132813 -18.3359375 19.51171875 C-18.36188754 21.74601742 -18.38017155 23.98041884 -18.390625 26.21484375 C-18.41382813 27.27574219 -18.43703125 28.33664063 -18.4609375 29.4296875 C-18.46915527 30.40147949 -18.47737305 31.37327148 -18.48583984 32.37451172 C-19 35 -19 35 -20.47119141 37.34814453 C-23 39 -23 39 -32 39 C-32 26.46 -32 13.92 -32 1 C-23 1 -23 1 -18 5 C-17.21625 4.360625 -16.4325 3.72125 -15.625 3.0625 C-10.70200947 -0.80556399 -6.11477161 -0.64505539 0 0 Z " fill="#144534" transform="translate(336,35)"/>
<path d="M0 0 C3.59095802 3.04058506 5.28085145 6.10114279 5.859375 10.78125 C5.99157249 15.66521287 5.47146835 19.76405173 3.5546875 24.31640625 C4.204375 24.71472656 4.8540625 25.11304687 5.5234375 25.5234375 C6.77640625 26.31814453 6.77640625 26.31814453 8.0546875 27.12890625 C8.89 27.65097656 9.7253125 28.17304688 10.5859375 28.7109375 C11.56046875 29.50564453 11.56046875 29.50564453 12.5546875 30.31640625 C12.5546875 31.30640625 12.5546875 32.29640625 12.5546875 33.31640625 C8.15408789 35.65422479 4.27414623 35.58976964 -0.4453125 34.31640625 C-2.94684168 33.15059926 -5.11698486 31.82011785 -7.4453125 30.31640625 C-4.3204118 36.81745594 -0.45795333 41.78911854 4.56640625 46.95703125 C7.75629943 50.7422876 8.5546875 53.37498909 8.5546875 58.31640625 C7.5646875 57.98640625 6.5746875 57.65640625 5.5546875 57.31640625 C5.5546875 56.65640625 5.5546875 55.99640625 5.5546875 55.31640625 C4.8946875 55.31640625 4.2346875 55.31640625 3.5546875 55.31640625 C2.63121142 53.91409071 1.71291394 52.50810472 0.8203125 51.0859375 C-0.57992548 49.12819736 -2.13502822 47.59420226 -3.8828125 45.94140625 C-7.78034367 42.1278736 -11.92427965 37.84339784 -12.75 32.25390625 C-12.7578125 30.31640625 -12.7578125 30.31640625 -12.4453125 27.31640625 C-11.75824219 27.08566406 -11.07117188 26.85492187 -10.36328125 26.6171875 C-4.80180011 24.66580087 -4.80180011 24.66580087 -0.3203125 21.00390625 C0.82935189 17.47279419 1.08219491 15.00895811 0.5546875 11.31640625 C-2.05948193 8.04869446 -4.57577242 5.86972074 -8.4453125 4.31640625 C-11.32261308 3.9630481 -11.32261308 3.9630481 -14.3828125 4.00390625 C-15.40246094 3.98714844 -16.42210938 3.97039063 -17.47265625 3.953125 C-20.91286945 4.37354527 -22.71242567 5.20184096 -25.4453125 7.31640625 C-26.84100776 9.3317666 -26.84100776 9.3317666 -27.6953125 11.62890625 C-28.00984375 12.36753906 -28.324375 13.10617188 -28.6484375 13.8671875 C-30.5383472 19.67588054 -30.71338233 25.63869416 -31.0078125 31.69140625 C-31.07258789 32.93857422 -31.07258789 32.93857422 -31.13867188 34.2109375 C-31.24393055 36.24593853 -31.34504322 38.28115328 -31.4453125 40.31640625 C-32.7653125 40.31640625 -34.0853125 40.31640625 -35.4453125 40.31640625 C-38.85885998 33.48931129 -37.17183708 20.98061717 -35.7265625 13.69140625 C-33.44811461 7.07655755 -30.48871093 2.25900099 -24.5078125 -1.55859375 C-17.04770716 -4.29069373 -6.8522528 -4.22016428 0 0 Z M-1.4453125 26.31640625 C-2.1053125 26.97640625 -2.7653125 27.63640625 -3.4453125 28.31640625 C-2.3728125 28.99703125 -1.3003125 29.67765625 -0.1953125 30.37890625 C0.40796875 30.76175781 1.01125 31.14460938 1.6328125 31.5390625 C4.01019123 32.50064455 5.17860801 32.15223952 7.5546875 31.31640625 C6.43394888 30.4773506 5.30794203 29.64532794 4.1796875 28.81640625 C3.55320312 28.35234375 2.92671875 27.88828125 2.28125 27.41015625 C0.61374137 26.13802524 0.61374137 26.13802524 -1.4453125 26.31640625 Z " fill="#194335" transform="translate(116.4453125,3.68359375)"/>
<path d="M0 0 C8.40608125 4.9035474 11.46757801 15.36519068 15 24 C15.29132813 23.41734375 15.58265625 22.8346875 15.8828125 22.234375 C16.75338682 20.49322636 17.62737763 18.75378374 18.50390625 17.015625 C19.53660994 14.9340395 20.54290302 12.83921503 21.52734375 10.734375 C22.03394531 9.66703125 22.54054687 8.5996875 23.0625 7.5 C23.52785156 6.4996875 23.99320313 5.499375 24.47265625 4.46875 C26.13961559 1.77432979 27.01494074 0.94799614 30 0 C31.32 0 32.64 0 34 0 C33 3 33 3 31.61328125 4.3449707 C29.51055343 6.50211234 28.48388391 8.76337485 27.1875 11.48046875 C26.41019531 13.1037207 26.41019531 13.1037207 25.6171875 14.75976562 C25.08351562 15.89091797 24.54984375 17.02207031 24 18.1875 C23.46632812 19.29931641 22.93265625 20.41113281 22.3828125 21.55664062 C19.65103103 27.29542035 17.10872154 33.00332311 15 39 C10.52584667 38.48866819 8.26347463 37.07529248 5 34 C3.43193245 31.58445396 2.21625083 29.04453916 1 26.4375 C0.65678711 25.73093262 0.31357422 25.02436523 -0.04003906 24.29638672 C-2.45902274 19.28205884 -4.70753701 14.20003919 -6.796875 9.0390625 C-8.21801373 6.63050919 -9.42437711 5.98479699 -12 5 C-11 2 -11 2 -8.8125 0.8125 C-5.54966322 -0.13009729 -3.37887363 -0.48269623 0 0 Z " fill="#164333" transform="translate(201,34)"/>
<path d="M0 0 C0 10.89 0 21.78 0 33 C1.65 33.33 3.3 33.66 5 34 C5 34.66 5 35.32 5 36 C0.45945632 38.4216233 -4.98730971 39.16555238 -10 38 C-13.71839895 34.25801531 -14.51025177 31.74652948 -14.53125 26.52734375 C-14.53640625 25.29822266 -14.5415625 24.06910156 -14.546875 22.80273438 C-14.53140625 21.52720703 -14.5159375 20.25167969 -14.5 18.9375 C-14.51546875 17.65810547 -14.5309375 16.37871094 -14.546875 15.06054688 C-14.54171875 13.83271484 -14.5365625 12.60488281 -14.53125 11.33984375 C-14.52673828 10.21956787 -14.52222656 9.09929199 -14.51757812 7.94506836 C-13.88697961 4.35690331 -12.84846656 3.20317138 -10 1 C-7 0 -7 0 0 0 Z " fill="#134532" transform="translate(251,35)"/>
<path d="M0 0 C3.79620155 1.26540052 4.48678188 2.78218431 6.6875 6.0625 C7.31011719 6.98160156 7.93273437 7.90070313 8.57421875 8.84765625 C9.04472656 9.55792969 9.51523437 10.26820312 10 11 C10.33 7.7 10.66 4.4 11 1 C12.32 1 13.64 1 15 1 C15 6.94 15 12.88 15 19 C13.68 19 12.36 19 11 19 C9.078125 17.03125 9.078125 17.03125 7.25 14.5 C6.32960938 13.24703125 6.32960938 13.24703125 5.390625 11.96875 C4.70226562 10.99421875 4.70226562 10.99421875 4 10 C3.67 12.97 3.34 15.94 3 19 C1.68 19 0.36 19 -1 19 C-1.02683987 16.02077407 -1.04676037 13.04178705 -1.0625 10.0625 C-1.07087891 9.21236328 -1.07925781 8.36222656 -1.08789062 7.48632812 C-1.09111328 6.67744141 -1.09433594 5.86855469 -1.09765625 5.03515625 C-1.10289307 4.2862915 -1.10812988 3.53742676 -1.11352539 2.76586914 C-1 1 -1 1 0 0 Z " fill="#1A4234" transform="translate(250,80)"/>
<path d="M0 0 C2.6089926 1.70933998 2.97832893 2.93209731 3.9375 5.9375 C4 9 4 9 2.5 11.3125 C-0.82219542 13.55498191 -2.98990393 14.07035256 -7 14 C-10 12 -10 12 -12 9 C-12.125 5.375 -12.125 5.375 -11 2 C-7.3487558 -1.33828041 -4.64215415 -1.41282953 0 0 Z " fill="#154433" transform="translate(247,19)"/>
<path d="M0 0 C1.588125 -0.061875 3.17625 -0.12375 4.8125 -0.1875 C6.15248047 -0.23970703 6.15248047 -0.23970703 7.51953125 -0.29296875 C10 0 10 0 11.80078125 1.359375 C13.51945589 3.71065627 13.4169534 5.15081845 13 8 C11.5 10.3125 11.5 10.3125 10 12 C11.65 13.65 13.3 15.3 15 17 C14.67 17.66 14.34 18.32 14 19 C10.61476342 17.81059255 8.36421299 16.71884494 6 14 C5.67 13.67 5.34 13.34 5 13 C5 14.65 5 16.3 5 18 C3.35 18 1.7 18 0 18 C0 12.06 0 6.12 0 0 Z M4 3 C4 4.65 4 6.3 4 8 C5.65 7.67 7.3 7.34 9 7 C9 6.01 9 5.02 9 4 C7.35 3.67 5.7 3.34 4 3 Z " fill="#184236" transform="translate(215,81)"/>
<path d="M0 0 C9.05660377 -0.60377358 9.05660377 -0.60377358 13.125 2 C15.19618595 5.31389753 15.76001833 7.21775808 15.46875 11.0625 C14.58556388 14.71300264 13.120231 16.00305216 10 18 C6.55189604 18.40534963 3.49364097 18.2329094 0 18 C0 12.06 0 6.12 0 0 Z M4 3 C4 6.96 4 10.92 4 15 C8.86132495 14.50847518 8.86132495 14.50847518 11 12 C11.50010524 9.04230823 11.50010524 9.04230823 11 6 C9.2890789 4.02901574 9.2890789 4.02901574 7 3 C6.01 3 5.02 3 4 3 Z " fill="#1A4436" transform="translate(266,81)"/>
<path d="M0 0 C2.97 0 5.94 0 9 0 C12 3 12 3 12.125 5.875 C12.08375 6.90625 12.0425 7.9375 12 9 C12.2475 9.86625 12.495 10.7325 12.75 11.625 C13 14 13 14 11.625 16.3125 C9 18 9 18 0 18 C0 12.06 0 6.12 0 0 Z M4 3 C4 4.32 4 5.64 4 7 C5.32 6.67 6.64 6.34 8 6 C7.67 5.01 7.34 4.02 7 3 C6.01 3 5.02 3 4 3 Z M4 10 C4 11.65 4 13.3 4 15 C5.98491642 14.73323796 5.98491642 14.73323796 8 14 C8.33 13.01 8.66 12.02 9 11 C7.35 10.67 5.7 10.34 4 10 Z " fill="#194236" transform="translate(202,81)"/>
<path d="M0 0 C2 2 2 2 2 5 C-0.66666667 4.33333333 -3.33333333 3.66666667 -6 3 C-4.37010468 4.79288485 -3.05810535 5.97094732 -0.875 7.0625 C1 8 1 8 2 10 C2.375 12.9375 2.375 12.9375 2 16 C-0.125 18 -0.125 18 -3 19 C-6.1875 18.4375 -6.1875 18.4375 -9 17 C-10.375 14.875 -10.375 14.875 -11 13 C-9.68 12.67 -8.36 12.34 -7 12 C-7 12.66 -7 13.32 -7 14 C-5.35 14.33 -3.7 14.66 -2 15 C-2 13.68 -2 12.36 -2 11 C-2.94875 10.71125 -3.8975 10.4225 -4.875 10.125 C-8 9 -8 9 -10 7 C-10.375 4.5625 -10.375 4.5625 -10 2 C-6.89011997 -1.58832311 -4.37100102 -1.2352829 0 0 Z " fill="#1A4235" transform="translate(292,81)"/>
<path d="M0 0 C3.1474731 2.64652393 4.49972268 5.79939195 6.1875 9.5 C6.71730469 10.6446875 7.24710938 11.789375 7.79296875 12.96875 C9 16 9 16 9 19 C7.68 19 6.36 19 5 19 C4.67 17.68 4.34 16.36 4 15 C1.69 15 -0.62 15 -3 15 C-3.33 16.32 -3.66 17.64 -4 19 C-5.32 19 -6.64 19 -8 19 C-7.38188466 14.44684052 -5.53234107 10.71540233 -3.4375 6.6875 C-2.9434668 5.71973633 -2.9434668 5.71973633 -2.43945312 4.73242188 C-1.63175745 3.15214772 -0.81662387 1.57567895 0 0 Z M0 8 C-0.33 8.99 -0.66 9.98 -1 11 C-0.01 10.67 0.98 10.34 2 10 C1.34 9.34 0.68 8.68 0 8 Z " fill="#194133" transform="translate(239,80)"/>
<path d="M0 0 C0.33 0.99 0.66 1.98 1 3 C3.72435637 4.07585059 3.72435637 4.07585059 7 5 C7.94746094 5.50144531 8.89492188 6.00289063 9.87109375 6.51953125 C15.42060938 8.93459824 21.48547993 8.57384986 27.4375 8.6875 C28.64599609 8.72166016 29.85449219 8.75582031 31.09960938 8.79101562 C34.06631349 8.87309835 37.03273676 8.94238015 40 9 C40.33 8.34 40.66 7.68 41 7 C43.32156597 6.59270772 45.6568787 6.25561323 48 6 C39.55747638 13.14367383 27.39787958 11.8328893 17 11 C9.31431806 9.50958998 2.62722372 6.08344088 -4 2 C-2.68 1.34 -1.36 0.68 0 0 Z " fill="#54A25E" transform="translate(52,96)"/>
<path d="M0 0 C1.15177734 0.00451172 2.30355469 0.00902344 3.49023438 0.01367188 C6.30604518 0.02535574 9.12174398 0.04173719 11.9375 0.0625 C11.9375 0.3925 11.9375 0.7225 11.9375 1.0625 C11.28676514 1.08755615 10.63603027 1.1126123 9.96557617 1.13842773 C7.01851954 1.25443702 4.0717787 1.37714115 1.125 1.5 C-0.41124023 1.55897461 -0.41124023 1.55897461 -1.97851562 1.61914062 C-2.96142578 1.66103516 -3.94433594 1.70292969 -4.95703125 1.74609375 C-5.86300049 1.78275146 -6.76896973 1.81940918 -7.70239258 1.85717773 C-10.21298782 1.9833205 -10.21298782 1.9833205 -13.0625 3.0625 C-15.9921875 3.01367188 -15.9921875 3.01367188 -18.921875 2.96484375 C-22.18744289 3.11382039 -24.96992547 4.03164182 -28.0625 5.0625 C-25.5875 5.5575 -25.5875 5.5575 -23.0625 6.0625 C-23.0625 6.3925 -23.0625 6.7225 -23.0625 7.0625 C-29.6625 7.0625 -36.2625 7.0625 -43.0625 7.0625 C-43.0625 6.4025 -43.0625 5.7425 -43.0625 5.0625 C-39.75113914 4.41073577 -36.43822755 3.76720172 -33.125 3.125 C-32.19880859 2.94259766 -31.27261719 2.76019531 -30.31835938 2.57226562 C-20.09384691 0.5991141 -10.41930331 -0.07815981 0 0 Z " fill="#22473B" transform="translate(61.0625,46.9375)"/>
<path d="M0 0 C0.66 0.33 1.32 0.66 2 1 C2 10.24 2 19.48 2 29 C3.65 29.33 5.3 29.66 7 30 C7 30.66 7 31.32 7 32 C2.37851 34.46479466 -2.87370229 34.84379768 -8 34 C-8.66 33.01 -9.32 32.02 -10 31 C-6.04 31.33 -2.08 31.66 2 32 C1.34 30.35 0.68 28.7 0 27 C-0.22705078 23.95385742 -0.22705078 23.95385742 -0.1953125 20.60546875 C-0.18886719 19.40341797 -0.18242187 18.20136719 -0.17578125 16.96289062 C-0.15902344 15.71701172 -0.14226562 14.47113281 -0.125 13.1875 C-0.11597656 11.92228516 -0.10695312 10.65707031 -0.09765625 9.35351562 C-0.07412394 6.23548436 -0.04124545 3.11783903 0 0 Z " fill="#204337" transform="translate(249,39)"/>
<path d="M0 0 C0.57363281 0.10957031 1.14726563 0.21914062 1.73828125 0.33203125 C11.12734702 2.08446689 20.56307788 3.53312091 30 5 C30 5.66 30 6.32 30 7 C28.02 7.66 26.04 8.32 24 9 C24 8.01 24 7.02 24 6 C23.071875 6.04125 22.14375 6.0825 21.1875 6.125 C13.73872134 6.10986021 6.43350394 4.82532667 0 1 C0 0.67 0 0.34 0 0 Z " fill="#4B9F5B" transform="translate(76,93)"/>
<path d="M0 0 C14.60224226 -0.43182973 28.56698957 0.78437183 43 3 C43 3.33 43 3.66 43 4 C40.6739143 4.38063221 38.33944736 4.71269945 36 5 C35.505 4.505 35.505 4.505 35 4 C32.6020639 3.61391721 30.2228696 3.28602312 27.8125 3 C27.10158203 2.91314941 26.39066406 2.82629883 25.65820312 2.73681641 C18.78651711 1.92434776 11.90746201 1.41013056 5 1 C5 1.66 5 2.32 5 3 C3.35 2.67 1.7 2.34 0 2 C0 1.34 0 0.68 0 0 Z " fill="#1A6058" transform="translate(10,58)"/>
<path d="M0 0 C2.64 0 5.28 0 8 0 C9.32 1.32 10.64 2.64 12 4 C8.37 3.01 4.74 2.02 1 1 C1 12.55 1 24.1 1 36 C0.67 36 0.34 36 0 36 C0 24.12 0 12.24 0 0 Z " fill="#214537" transform="translate(304,36)"/>
<path d="M0 0 C1.79398267 0.95399078 3.58511655 1.91334026 5.375 2.875 C6.37273438 3.40867187 7.37046875 3.94234375 8.3984375 4.4921875 C11 6 11 6 13 8 C12.01 8 11.02 8 10 8 C10.33 9.65 10.66 11.3 11 13 C6.74418856 9.87072688 3.0800315 6.29722607 0 2 C0 1.34 0 0.68 0 0 Z " fill="#429B58" transform="translate(10,63)"/>
<path d="M0 0 C0.69480469 0.26296875 1.38960938 0.5259375 2.10546875 0.796875 C9.94542947 3.56242749 18.0929597 5.24372514 26.29296875 6.546875 C26.29296875 6.876875 26.29296875 7.206875 26.29296875 7.546875 C19.93136719 7.82569952 14.59634865 6.87152624 8.48046875 5.171875 C7.63548828 4.95015625 6.79050781 4.7284375 5.91992188 4.5 C2.20691462 3.4972816 -0.46665556 2.70712546 -3.70703125 0.546875 C-1.70703125 -0.453125 -1.70703125 -0.453125 0 0 Z " fill="#1C655F" transform="translate(69.70703125,84.453125)"/>
<path d="M0 0 C1.32 0.66 2.64 1.32 4 2 C0.79740055 5.20259945 -2.39467495 5.70151698 -6.73828125 6.08203125 C-10.00687756 5.96348112 -12.28386381 4.74111294 -15 3 C-13.25 2.375 -13.25 2.375 -11 2 C-10.401875 2.350625 -9.80375 2.70125 -9.1875 3.0625 C-5.8010644 4.51382954 -3.35843238 3.16253428 0 2 C0 1.34 0 0.68 0 0 Z " fill="#204135" transform="translate(197,68)"/>
<path d="M0 0 C-4.13585322 3.1708208 -6.20068175 4.12525957 -11.4453125 4.09765625 C-13.05986328 4.09282227 -13.05986328 4.09282227 -14.70703125 4.08789062 C-15.83496094 4.07951172 -16.96289062 4.07113281 -18.125 4.0625 C-19.26066406 4.05798828 -20.39632812 4.05347656 -21.56640625 4.04882812 C-24.37765638 4.03701615 -27.1888023 4.02054507 -30 4 C-30 3.67 -30 3.34 -30 3 C-22.74 3 -15.48 3 -8 3 C-7.67 2.34 -7.34 1.68 -7 1 C-4.53721199 -0.231394 -2.7204945 -0.07159196 0 0 Z " fill="#48A653" transform="translate(100,102)"/>
<path d="M0 0 C5.26630019 3.40554079 10.2703193 6.87668862 15 11 C14.01 11.495 14.01 11.495 13 12 C8.38 8.7 3.76 5.4 -1 2 C-0.67 1.34 -0.34 0.68 0 0 Z " fill="#49A459" transform="translate(33,85)"/>
<path d="M0 0 C0.33 0.66 0.66 1.32 1 2 C3.02463255 2.65213292 3.02463255 2.65213292 5 3 C5.66 2.01 6.32 1.02 7 0 C7.66 1.65 8.32 3.3 9 5 C7.58249437 4.88490339 6.16598831 4.75746342 4.75 4.625 C3.96109375 4.55539063 3.1721875 4.48578125 2.359375 4.4140625 C-0.085877 3.98492887 -1.84836903 3.21399362 -4 2 C-2.68 1.34 -1.36 0.68 0 0 Z " fill="#1C3E32" transform="translate(122,74)"/>
<path d="M0 0 C10.55808656 3.07517084 10.55808656 3.07517084 15 5 C14.01 6.485 14.01 6.485 13 8 C8.71 5.69 4.42 3.38 0 1 C0 0.67 0 0.34 0 0 Z " fill="#46A559" transform="translate(51,84)"/>
<path d="M0 0 C-0.33 0.99 -0.66 1.98 -1 3 C-1.33 2.34 -1.66 1.68 -2 1 C-3.43903046 1.62146808 -4.87616793 2.24732059 -6.3125 2.875 C-7.51326172 3.39707031 -7.51326172 3.39707031 -8.73828125 3.9296875 C-11.1961834 5.02571894 -11.1961834 5.02571894 -14 7 C-12.98929671 4.3354186 -12.0600516 3.04804128 -9.8125 1.25 C-6.37585024 -0.27739989 -3.72102151 -0.21888362 0 0 Z " fill="#223F35" transform="translate(251,35)"/>
<path d="M0 0 C1.98 0.66 3.96 1.32 6 2 C6 2.66 6 3.32 6 4 C4.75823305 4.70226141 3.50614401 5.38629109 2.25 6.0625 C1.20585938 6.63677734 1.20585938 6.63677734 0.140625 7.22265625 C-2.36140628 8.1312406 -3.5332355 7.88336837 -6 7 C-3.69 6.01 -1.38 5.02 1 4 C0.67 2.68 0.34 1.36 0 0 Z " fill="#165A55" transform="translate(120,83)"/>
<path d="M0 0 C1.32 0.33 2.64 0.66 4 1 C4.33 2.65 4.66 4.3 5 6 C-0.75 4.25 -0.75 4.25 -3 2 C-2.01 2 -1.02 2 0 2 C0 1.34 0 0.68 0 0 Z " fill="#0F655A" transform="translate(32,67)"/>
<path d="M0 0 C1.32 0 2.64 0 4 0 C4.33 0.99 4.66 1.98 5 3 C3.125 4.0625 3.125 4.0625 1 5 C0.34 4.67 -0.32 4.34 -1 4 C-0.67 2.68 -0.34 1.36 0 0 Z " fill="#1D3F35" transform="translate(110,20)"/>
<path d="M0 0 C4.35535069 1.16142685 6.64619703 2.07699505 9 6 C8.01 6 7.02 6 6 6 C5.34 5.01 4.68 4.02 4 3 C1.41619823 2.74969023 1.41619823 2.74969023 -1 3 C-0.67 2.01 -0.34 1.02 0 0 Z " fill="#1D3E31" transform="translate(166,18)"/>
<path d="M0 0 C0.66 0.66 1.32 1.32 2 2 C1.67028521 5.29714793 1.3773161 6.6226839 -1 9 C-1.09765625 2.84765625 -1.09765625 2.84765625 -1 1 C-0.67 0.67 -0.34 0.34 0 0 Z " fill="#1E4134" transform="translate(249,22)"/>
</svg>
