<?xml version="1.0" encoding="UTF-8"?>
<svg version="1.1" xmlns="http://www.w3.org/2000/svg" width="328" height="153">
<path d="M0 0 C1.010625 0.495 2.02125 0.99 3.0625 1.5 C3.0625 0.84 3.0625 0.18 3.0625 -0.5 C4.0525 -0.5 5.0425 -0.5 6.0625 -0.5 C6.0625 3.46 6.0625 7.42 6.0625 11.5 C5.0725 11.5 4.0825 11.5 3.0625 11.5 C2.629375 10.38625 2.19625 9.2725 1.75 8.125 C0.36338881 4.32487666 0.36338881 4.32487666 -2.9375 2.5 C-5.65722562 2.02843467 -8.21482447 2.0452734 -10.9375 2.5 C-14.23390693 5.26472839 -14.37813979 8.38330511 -14.9375 12.5 C-15.33304038 20.34641722 -15.43846719 27.99709843 -12.9375 35.5 C-10.17108116 37.33267998 -8.91275885 37.5 -5.5 37.5 C-0.73465452 36.16235916 0.31199905 34.54485433 3.0625 30.5 C3.3925 29.51 3.7225 28.52 4.0625 27.5 C5.0525 27.5 6.0425 27.5 7.0625 27.5 C7.0625 30.47 7.0625 33.44 7.0625 36.5 C8.0525 36.83 9.0425 37.16 10.0625 37.5 C10.17134521 36.67097168 10.28019043 35.84194336 10.39233398 34.98779297 C11.14729805 31.05867942 12.39356197 27.43148295 13.78515625 23.6953125 C14.05009384 22.9713327 14.31503143 22.24735291 14.58799744 21.50143433 C15.42874774 19.20744793 16.27674727 16.9162214 17.125 14.625 C17.69905002 13.06267713 18.27262274 11.5001788 18.84570312 9.9375 C20.24578791 6.12294772 21.65237687 2.31085222 23.0625 -1.5 C23.7225 -1.5 24.3825 -1.5 25.0625 -1.5 C29.3525 11.04 33.6425 23.58 38.0625 36.5 C40.7025 36.5 43.3425 36.5 46.0625 36.5 C46.0625 25.28 46.0625 14.06 46.0625 2.5 C44.4125 2.5 42.7625 2.5 41.0625 2.5 C41.0625 1.51 41.0625 0.52 41.0625 -0.5 C46.15271638 -1.68910792 51.15034545 -2.62718061 56.0625 -0.5 C60.83924788 4.13222843 63.86884262 10.31061806 66.85839844 16.18823242 C68.15713459 18.68168997 69.61603966 21.08923277 71.0625 23.5 C71.3925 16.57 71.7225 9.64 72.0625 2.5 C70.4125 2.5 68.7625 2.5 67.0625 2.5 C66.5675 1.015 66.5675 1.015 66.0625 -0.5 C70.6825 -0.5 75.3025 -0.5 80.0625 -0.5 C80.0625 0.49 80.0625 1.48 80.0625 2.5 C78.4125 2.5 76.7625 2.5 75.0625 2.5 C75.0625 15.04 75.0625 27.58 75.0625 40.5 C74.0725 40.5 73.0825 40.5 72.0625 40.5 C70.67138672 38.79443359 70.67138672 38.79443359 69.2421875 36.3984375 C68.71069092 35.52147217 68.17919434 34.64450684 67.6315918 33.7409668 C66.79301636 32.32231323 66.79301636 32.32231323 65.9375 30.875 C64.77573149 28.95122356 63.61296663 27.02804846 62.44921875 25.10546875 C61.8773584 24.15462402 61.30549805 23.2037793 60.71630859 22.22412109 C58.45757371 18.50357727 56.1186617 14.83871637 53.75 11.1875 C52.533125 9.310625 51.31625 7.43375 50.0625 5.5 C49.7325 16.06 49.4025 26.62 49.0625 37.5 C51.0425 37.5 53.0225 37.5 55.0625 37.5 C55.0625 38.49 55.0625 39.48 55.0625 40.5 C45.1625 40.5 35.2625 40.5 25.0625 40.5 C24.7325 39.51 24.4025 38.52 24.0625 37.5 C26.0425 37.5 28.0225 37.5 30.0625 37.5 C29.0725 34.2 28.0825 30.9 27.0625 27.5 C23.1025 27.5 19.1425 27.5 15.0625 27.5 C14.4025 30.47 13.7425 33.44 13.0625 36.5 C16.0325 36.995 16.0325 36.995 19.0625 37.5 C18.7325 38.49 18.4025 39.48 18.0625 40.5 C13.4425 40.5 8.8225 40.5 4.0625 40.5 C3.7325 39.84 3.4025 39.18 3.0625 38.5 C1.8559375 38.995 1.8559375 38.995 0.625 39.5 C-5.08030732 41.10148977 -9.79873045 41.56938477 -15.1875 38.875 C-20.66567532 34.14384859 -24.38883016 29.7613519 -25.15625 22.40234375 C-25.44147806 15.47367875 -23.85435882 9.72659574 -19.625 4.1875 C-13.80253147 -1.63496853 -7.68621774 -3.25424541 0 0 Z M21.0625 11.5 C20.22715351 13.64505044 19.39427374 15.79106165 18.5625 17.9375 C18.0984375 19.13246094 17.634375 20.32742187 17.15625 21.55859375 C16.00441162 24.13318662 16.00441162 24.13318662 16.0625 25.5 C19.3625 25.5 22.6625 25.5 26.0625 25.5 C25.61107225 23.72739369 25.15109477 21.9569632 24.6875 20.1875 C24.43226563 19.20136719 24.17703125 18.21523437 23.9140625 17.19921875 C23.14336826 14.3194184 23.14336826 14.3194184 21.0625 11.5 Z " fill="#8F782E" transform="translate(247.9375,112.5)"/>
<path d="M0 0 C4.95 0 9.9 0 15 0 C17.17233125 5.60601614 19.03010948 11.22284282 20.6875 17 C21.450625 19.64 22.21375 22.28 23 25 C25.64 16.75 28.28 8.5 31 0 C36.46312242 -0.06895947 41.9247282 -0.12866576 47.38793945 -0.16479492 C49.24541345 -0.17985946 51.10285201 -0.20031509 52.96020508 -0.22631836 C55.63371539 -0.26280459 58.30675444 -0.2797497 60.98046875 -0.29296875 C62.2213752 -0.31619453 62.2213752 -0.31619453 63.48735046 -0.33988953 C69.21274768 -0.34155186 72.46645178 0.72854298 76.8125 4.625 C78.67761359 8.35522719 78.79901522 11.9250224 78 16 C75.17608493 19.56705062 72.96057342 21.76155188 68.3984375 22.31640625 C64.19921875 22.65820312 64.19921875 22.65820312 60 23 C59.67 27.95 59.34 32.9 59 38 C60.98 38 62.96 38 65 38 C65 38.99 65 39.98 65 41 C52.46 41 39.92 41 27 41 C27 40.01 27 39.02 27 38 C28.65 38 30.3 38 32 38 C31.67 29.09 31.34 20.18 31 11 C28.03 20.57 25.06 30.14 22 40 C21.01 40 20.02 40 19 40 C14.545 25.15 14.545 25.15 10 10 C9.67 19.24 9.34 28.48 9 38 C10.98 38 12.96 38 15 38 C14.67 38.99 14.34 39.98 14 41 C9.71 41 5.42 41 1 41 C0.505 39.515 0.505 39.515 0 38 C1.98 38 3.96 38 6 38 C6 26.45 6 14.9 6 3 C4.35 3 2.7 3 1 3 C0.67 2.01 0.34 1.02 0 0 Z M40 3 C40 14.55 40 26.1 40 38 C46.68566989 39.35131012 46.68566989 39.35131012 52 38 C52 26.45 52 14.9 52 3 C45.31433011 1.64868988 45.31433011 1.64868988 40 3 Z M59 3 C59 8.61 59 14.22 59 20 C66.30862751 20.77166267 66.30862751 20.77166267 68.9375 18.625 C71.3922422 14.8706884 71.44132978 11.37868369 71 7 C70.27314412 4.36375359 70.27314412 4.36375359 68 3 C64.92076209 2.6724215 62.11411312 2.8194717 59 3 Z " fill="#8F772C" transform="translate(66,112)"/>
<path d="M0 0 C13.2 0 26.4 0 40 0 C40 33.33 40 66.66 40 101 C38.35 101 36.7 101 35 101 C33.18884376 99.18884376 33.88004624 96.70122499 33.87557983 94.29098511 C33.88097275 93.06208054 33.88097275 93.06208054 33.88647461 91.80834961 C33.88632858 90.94988937 33.88618256 90.09142914 33.8860321 89.20695496 C33.88673153 86.35539262 33.8945253 83.50389475 33.90234375 80.65234375 C33.90420782 78.68079158 33.90563178 76.70923895 33.90663147 74.73768616 C33.91045749 69.53773733 33.92028848 64.33781625 33.93133545 59.13787842 C33.94154778 53.83606339 33.94612871 48.5342439 33.95117188 43.23242188 C33.96191067 32.82160237 33.97898809 22.41080349 34 12 C33.0093882 12.04271278 33.0093882 12.04271278 31.99876404 12.08628845 C28.97733219 12.20001969 25.95635156 12.27025919 22.93359375 12.33984375 C21.37529846 12.4081842 21.37529846 12.4081842 19.78552246 12.47790527 C13.72092441 12.58257102 9.95295581 12.21835223 5.40124512 8.03869629 C0 2.08289642 0 2.08289642 0 0 Z " fill="#947C2F" transform="translate(122,0)"/>
<path d="M0 0 C12.87 0 25.74 0 39 0 C30.18989922 11.74680104 30.18989922 11.74680104 26.43457031 12.54589844 C25.49194336 12.5668457 24.54931641 12.58779297 23.578125 12.609375 C22.55332031 12.64160156 21.52851563 12.67382812 20.47265625 12.70703125 C19.40917969 12.72121094 18.34570312 12.73539063 17.25 12.75 C16.17105469 12.77964844 15.09210938 12.80929687 13.98046875 12.83984375 C11.32023756 12.91046936 8.66087898 12.96320196 6 13 C6.00222061 14.07297333 6.00444122 15.14594666 6.00672913 16.25143433 C6.02697034 26.34608519 6.04197688 36.44073196 6.05181217 46.53539848 C6.0570385 51.72559325 6.06413164 56.91577167 6.07543945 62.10595703 C6.08627718 67.11150397 6.09227873 72.11703516 6.09487724 77.12259293 C6.09672989 79.03562798 6.10034744 80.94866214 6.10573006 82.86169052 C6.11295221 85.53395219 6.11399044 88.20614816 6.11352539 90.87841797 C6.11712067 91.67539093 6.12071594 92.47236389 6.12442017 93.29348755 C6.11405216 98.77189568 6.11405216 98.77189568 5 101 C3.35 101 1.7 101 0 101 C0 67.67 0 34.34 0 0 Z " fill="#967D2F" transform="translate(166,0)"/>
<path d="M0 0 C13.2 0 26.4 0 40 0 C34 7 34 7 29 12 C21.41 12 13.82 12 6 12 C6 35.1 6 58.2 6 82 C4.02 82 2.04 82 0 82 C0 54.94 0 27.88 0 0 Z " fill="#917C37" transform="translate(175,19)"/>
<path d="M0 0 C13.2 0 26.4 0 40 0 C40 27.06 40 54.12 40 82 C38.02 82 36.04 82 34 82 C34 58.9 34 35.8 34 12 C26.41 12 18.82 12 11 12 C3.03576248 5.75775978 3.03576248 5.75775978 0 1 C0 0.67 0 0.34 0 0 Z " fill="#977D2B" transform="translate(113,19)"/>
<path d="M0 0 C1.60279192 0.00015914 3.20558896 0.00585476 4.80834961 0.01586914 C5.65038437 0.01728409 6.49241913 0.01869904 7.35997009 0.02015686 C10.06024671 0.02577276 12.76044163 0.03832791 15.46069336 0.05102539 C17.28686404 0.05603834 19.11303602 0.06060161 20.93920898 0.06469727 C25.42556878 0.07574735 29.9118672 0.0930226 34.39819336 0.11352539 C34.09163818 0.72486328 33.78508301 1.33620117 33.46923828 1.96606445 C32.72261586 3.46305348 31.98755738 4.965842 31.26147461 6.47290039 C29.71069336 8.86352539 29.71069336 8.86352539 24.39819336 13.11352539 C16.80819336 13.11352539 9.21819336 13.11352539 1.39819336 13.11352539 C1.39819336 29.94352539 1.39819336 46.77352539 1.39819336 64.11352539 C-0.58180664 64.11352539 -2.56180664 64.11352539 -4.60180664 64.11352539 C-4.62493374 55.91661978 -4.6427236 47.71972771 -4.65361881 39.52279758 C-4.65884684 35.71700962 -4.66594302 31.91124391 -4.67724609 28.10546875 C-4.68807784 24.43559995 -4.69408408 20.76575261 -4.69668388 17.09586906 C-4.69853761 15.69277547 -4.70215724 14.2896831 -4.7075367 12.88659859 C-4.71475083 10.92782859 -4.71521473 8.96903719 -4.71533203 7.01025391 C-4.71755264 5.89328629 -4.71977325 4.77631866 -4.72206116 3.62550354 C-4.53221645 -0.34013333 -4.13058151 0.13019185 0 0 Z " fill="#937A2A" transform="translate(188.601806640625,36.886474609375)"/>
<path d="M0 0 C5.39346988 -0.02464849 10.78690725 -0.04283531 16.18041992 -0.05493164 C18.01668875 -0.05997231 19.85295354 -0.06680477 21.68920898 -0.07543945 C24.32276401 -0.08751672 26.95626616 -0.09323081 29.58984375 -0.09765625 C30.41588608 -0.10281754 31.24192841 -0.10797882 32.09300232 -0.11329651 C34.06236368 -0.11349205 36.03161614 -0.06204152 38 0 C39.77916467 1.77916467 39.12764835 4.38313299 39.12939453 6.7890625 C39.13254669 8.0270459 39.13569885 9.2650293 39.13894653 10.54052734 C39.13715675 11.90201859 39.1351058 13.26350951 39.1328125 14.625 C39.13348559 16.01123064 39.13445566 17.39746117 39.13571167 18.78369141 C39.1371884 21.69239422 39.1350349 24.60106637 39.13037109 27.50976562 C39.12467381 31.24596598 39.12795294 34.98209452 39.13394356 38.71829224 C39.13754985 41.58179266 39.13641027 44.44527593 39.13381577 47.30877686 C39.13314668 48.68674732 39.13397426 50.06471932 39.13629532 51.44268799 C39.13882292 53.36543754 39.13429024 55.28819252 39.12939453 57.2109375 C39.12859894 58.30712402 39.12780334 59.40331055 39.12698364 60.53271484 C39 63 39 63 38 64 C36.35 64 34.7 64 33 64 C33 47.17 33 30.34 33 13 C25.41 13 17.82 13 10 13 C2.52010983 6.75465481 2.52010983 6.75465481 0 2 C0 1.34 0 0.68 0 0 Z " fill="#987E2B" transform="translate(105,37)"/>
<path d="M0 0 C5.0647547 4.48921439 8.20085958 9.72929603 8.98828125 16.48046875 C9.19772703 22.53234948 8.06310556 27.31899199 4.75 32.4375 C1.65127705 35.7294618 -1.77237889 39.16567466 -6.421875 39.67578125 C-12.26846537 39.84409218 -15.68192863 39.46175335 -20.25 35.4375 C-24.68338178 30.75078212 -27.35941701 25.5562806 -27.6875 19.0625 C-27.42695442 12.93446802 -25.5055388 7.86095618 -21.30859375 3.3515625 C-14.47441599 -2.81555923 -8.49837642 -4.08575789 0 0 Z M-15.6875 2.1875 C-19.16004687 7.1879675 -18.43350577 13.01546749 -18.4375 18.875 C-18.44974609 19.81666016 -18.46199219 20.75832031 -18.47460938 21.72851562 C-18.48644347 27.31815501 -18.19367434 31.47083916 -15.0625 36.25 C-12.0753084 38.20712553 -9.71957964 37.85624237 -6.25 37.4375 C-3.17250818 35.63114611 -1.55758115 34.598195 -0.62988281 31.09741211 C-0.00656206 26.73296508 -0.02433894 22.40230488 0 18 C0.020625 17.07123047 0.04125 16.14246094 0.0625 15.18554688 C0.09284864 9.85556774 -0.18386784 6.01437203 -3.25 1.4375 C-7.46544862 -0.67022431 -11.95836085 -0.48983067 -15.6875 2.1875 Z " fill="#8E7930" transform="translate(171.25,113.5625)"/>
<path d="M0 0 C9.57 0 19.14 0 29 0 C29.33 3.63 29.66 7.26 30 11 C29.01 11 28.02 11 27 11 C26.71125 10.030625 26.4225 9.06125 26.125 8.0625 C25.35785318 4.89335797 25.35785318 4.89335797 23 4 C21.12943209 3.7724985 19.25314042 3.59037189 17.375 3.4375 C15.60125 3.293125 13.8275 3.14875 12 3 C12.33 7.95 12.66 12.9 13 18 C14.65 17.67 16.3 17.34 18 17 C18.66 15.02 19.32 13.04 20 11 C20.66 11 21.32 11 22 11 C22 16.94 22 22.88 22 29 C21.34 29 20.68 29 20 29 C19.4121875 27.2984375 19.4121875 27.2984375 18.8125 25.5625 C18.214375 24.386875 17.61625 23.21125 17 22 C15.35 21.67 13.7 21.34 12 21 C12 26.61 12 32.22 12 38 C13.753125 37.896875 15.50625 37.79375 17.3125 37.6875 C18.29863281 37.62949219 19.28476562 37.57148438 20.30078125 37.51171875 C23.32836735 36.93774801 24.21214711 36.45829773 26 34 C26.98628417 31.96922316 26.98628417 31.96922316 27.6875 29.8125 C27.93886719 29.09707031 28.19023438 28.38164062 28.44921875 27.64453125 C28.63097656 27.10183594 28.81273438 26.55914062 29 26 C29.66 26 30.32 26 31 26 C30.67 30.95 30.34 35.9 30 41 C20.1 41 10.2 41 0 41 C0 40.01 0 39.02 0 38 C1.65 38 3.3 38 5 38 C5 26.45 5 14.9 5 3 C3.35 3 1.7 3 0 3 C0 2.01 0 1.02 0 0 Z " fill="#987D2A" transform="translate(35,112)"/>
<path d="M0 0 C1.0374939 0.00303635 1.0374939 0.00303635 2.09594727 0.00613403 C2.80243408 0.00517731 3.5089209 0.00422058 4.23681641 0.00323486 C5.7331552 0.00255321 7.22949694 0.00440649 8.72583008 0.00857544 C11.02374884 0.01392396 13.32147213 0.00863003 15.61938477 0.00222778 C17.06990603 0.00288857 18.52042718 0.00416974 19.97094727 0.00613403 C20.66260986 0.0041098 21.35427246 0.00208557 22.06689453 0 C26.91849503 0.0239943 26.91849503 0.0239943 28.03344727 1.13894653 C28.10603673 3.32534106 28.11718509 5.51395042 28.09594727 7.70144653 C28.08692383 8.8989856 28.07790039 10.09652466 28.06860352 11.33035278 C28.05700195 12.25718872 28.04540039 13.18402466 28.03344727 14.13894653 C27.37344727 14.13894653 26.71344727 14.13894653 26.03344727 14.13894653 C25.8259082 13.51246216 25.61836914 12.88597778 25.40454102 12.24050903 C25.09645508 11.42324341 24.78836914 10.60597778 24.47094727 9.76394653 C24.1809082 8.95183716 23.89086914 8.13972778 23.59204102 7.30300903 C21.75172185 4.27648032 21.75172185 4.27648032 15.03344727 3.13894653 C15.03344727 14.68894653 15.03344727 26.23894653 15.03344727 38.13894653 C17.01344727 38.13894653 18.99344727 38.13894653 21.03344727 38.13894653 C21.03344727 39.12894653 21.03344727 40.11894653 21.03344727 41.13894653 C14.43344727 41.13894653 7.83344727 41.13894653 1.03344727 41.13894653 C0.53844727 39.65394653 0.53844727 39.65394653 0.03344727 38.13894653 C2.34344727 38.13894653 4.65344727 38.13894653 7.03344727 38.13894653 C7.03344727 26.58894653 7.03344727 15.03894653 7.03344727 3.13894653 C0.31517268 4.27648032 0.31517268 4.27648032 -1.52514648 7.30300903 C-1.81518555 8.11511841 -2.10522461 8.92722778 -2.40405273 9.76394653 C-2.71213867 10.58121216 -3.02022461 11.39847778 -3.33764648 12.24050903 C-3.54518555 12.86699341 -3.75272461 13.49347778 -3.96655273 14.13894653 C-4.62655273 14.13894653 -5.28655273 14.13894653 -5.96655273 14.13894653 C-5.99341212 11.99318017 -6.01288361 9.84732008 -6.02905273 7.70144653 C-6.0406543 6.5064856 -6.05225586 5.31152466 -6.06420898 4.08035278 C-5.90461688 -0.72656134 -4.35956577 0.02156087 0 0 Z " fill="#8D7834" transform="translate(5.966552734375,111.86105346679688)"/>
<path d="M0 0 C1.33333333 0.66666667 2.66666667 1.33333333 4 2 C5.32 1.67 6.64 1.34 8 1 C8 4.63 8 8.26 8 12 C5 11 5 11 3.375 8 C2.92125 7.01 2.4675 6.02 2 5 C0.10871658 3.10871658 -2.57067726 3.7633148 -5.08984375 3.671875 C-5.72019531 3.78015625 -6.35054687 3.8884375 -7 4 C-9.1519437 7.22791555 -9.20086443 8.28400809 -9 12 C-7.2365625 12.6496875 -7.2365625 12.6496875 -5.4375 13.3125 C-3.95791636 13.8739023 -2.47875496 14.43641856 -1 15 C-0.34515625 15.23976563 0.3096875 15.47953125 0.984375 15.7265625 C4.74274058 17.18814911 7.00441343 18.45229053 9 22 C10.56840852 26.70522555 10.54895539 30.52648816 8.8125 35.1875 C6.76561603 38.36369926 5.28143555 40.10405946 2 42 C-2.54014999 42.72352988 -5.93642875 42.03178562 -10 40 C-11.32 40.66 -12.64 41.32 -14 42 C-14 37.71 -14 33.42 -14 29 C-13.34 29 -12.68 29 -12 29 C-11.74605469 29.55429688 -11.49210938 30.10859375 -11.23046875 30.6796875 C-10.88628906 31.40414062 -10.54210937 32.12859375 -10.1875 32.875 C-9.85105469 33.59429687 -9.51460937 34.31359375 -9.16796875 35.0546875 C-8.00532903 37.30542806 -8.00532903 37.30542806 -5 39 C-1.38449608 39.46155369 0.33636094 39.45406883 3.375 37.375 C5.45406883 34.33636094 5.46155369 32.61550392 5 29 C2.1476256 24.7214384 -1.25152034 24.5232172 -6.0546875 23.16015625 C-9.29124241 21.88527985 -10.86718151 20.72941107 -13 18 C-14.43808897 13.67787468 -14.30494722 9.91484166 -12.875 5.625 C-9.37186006 0.72060409 -5.96477468 -0.6345505 0 0 Z " fill="#8B762E" transform="translate(212,111)"/>
<path d="M0 0 C13.2 0 26.4 0 40 0 C40 27.06 40 54.12 40 82 C38.02 82 36.04 82 34 82 C34 59.56 34 37.12 34 14 C34.33 14 34.66 14 35 14 C35 36.11 35 58.22 35 81 C36.32 81 37.64 81 39 81 C39 54.6 39 28.2 39 1 C38.01 1.33 37.02 1.66 36 2 C33.6444552 2.15179014 31.28524877 2.24899289 28.92578125 2.31640625 C28.2419487 2.33718735 27.55811615 2.35796844 26.8535614 2.37937927 C24.6733079 2.44466154 22.49293595 2.50366017 20.3125 2.5625 C18.83267014 2.60570553 17.35285217 2.64932047 15.87304688 2.69335938 C12.24882378 2.80032083 8.62446811 2.90164823 5 3 C8.4060724 7.46881673 8.4060724 7.46881673 13.43164062 9.47900391 C16.22460867 9.55387012 18.96083551 9.47466073 21.75 9.3125 C23.64049642 9.24252873 25.53112245 9.17595076 27.421875 9.11328125 C28.25299805 9.06985596 29.08412109 9.02643066 29.94042969 8.98168945 C32 9 32 9 34 10 C34 10.66 34 11.32 34 12 C12.81048291 13.90980773 12.81048291 13.90980773 7.0234375 9.5859375 C4.27472889 7.01789118 2.02522123 4.17400198 0 1 C0 0.67 0 0.34 0 0 Z " fill="#877644" transform="translate(113,19)"/>
<path d="M0 0 C0.99 0.33 1.98 0.66 3 1 C3 6.94 3 12.88 3 19 C6.3 18.67 9.6 18.34 13 18 C15.27141454 12.60539047 15.20413361 7.73842251 15 2 C17.49361571 3.20381448 19.68143083 4.45428722 22 6 C22.71894519 9.04952584 22.58288777 11.93189076 22 15 C19.17608493 18.56705062 16.96057342 20.76155188 12.3984375 21.31640625 C10.90183594 21.43822266 10.90183594 21.43822266 9.375 21.5625 C7.87066406 21.68818359 7.87066406 21.68818359 6.3359375 21.81640625 C5.56507812 21.87699219 4.79421875 21.93757813 4 22 C3.34 25.3 2.68 28.6 2 32 C0.02 32.495 0.02 32.495 -2 33 C-2.04938149 28.62176083 -2.0857104 24.24366854 -2.10986328 19.86523438 C-2.11993043 18.3752968 -2.13358518 16.88537903 -2.15087891 15.39550781 C-2.17509653 13.25580972 -2.18647564 11.11637247 -2.1953125 8.9765625 C-2.21102295 7.04417725 -2.21102295 7.04417725 -2.22705078 5.07275391 C-2 2 -2 2 0 0 Z " fill="#987D2D" transform="translate(122,113)"/>
<path d="M0 0 C9.57 0 19.14 0 29 0 C29.33 3.63 29.66 7.26 30 11 C29.01 11 28.02 11 27 11 C26.71125 10.030625 26.4225 9.06125 26.125 8.0625 C25.35785318 4.89335797 25.35785318 4.89335797 23 4 C21.12943209 3.7724985 19.25314042 3.59037189 17.375 3.4375 C15.60125 3.293125 13.8275 3.14875 12 3 C12.33 7.95 12.66 12.9 13 18 C14.65 17.67 16.3 17.34 18 17 C18.66 15.02 19.32 13.04 20 11 C20.66 11 21.32 11 22 11 C22 16.94 22 22.88 22 29 C21.34 29 20.68 29 20 29 C19.4121875 27.2984375 19.4121875 27.2984375 18.8125 25.5625 C18.214375 24.386875 17.61625 23.21125 17 22 C15.35 21.67 13.7 21.34 12 21 C12 26.61 12 32.22 12 38 C11.67 38 11.34 38 11 38 C10.31583529 26.65019611 9.84701291 15.37204047 10 4 C8.68 3.34 7.36 2.68 6 2 C6 13.55 6 25.1 6 37 C5.67 37 5.34 37 5 37 C5 25.78 5 14.56 5 3 C3.35 3 1.7 3 0 3 C0 2.01 0 1.02 0 0 Z " fill="#8C7733" transform="translate(35,112)"/>
<path d="M0 0 C0.99 0.33 1.98 0.66 3 1 C2.34 1 1.68 1 1 1 C1.33 3.31 1.66 5.62 2 8 C2.99 8 3.98 8 5 8 C5 8.66 5 9.32 5 10 C4.34 10 3.68 10 3 10 C3.33 33.1 3.66 56.2 4 80 C2.68 80 1.36 80 0 80 C0 53.6 0 27.2 0 0 Z " fill="#977C2A" transform="translate(176,20)"/>
<path d="M0 0 C4.95 0 9.9 0 15 0 C15 4.29 15 8.58 15 13 C14.34 13 13.68 13 13 13 C12.79246094 12.37351562 12.58492187 11.74703125 12.37109375 11.1015625 C12.06300781 10.28429687 11.75492188 9.46703125 11.4375 8.625 C11.14746094 7.81289062 10.85742188 7.00078125 10.55859375 6.1640625 C8.71827458 3.13753379 8.71827458 3.13753379 2 2 C2 13.55 2 25.1 2 37 C3.98 37 5.96 37 8 37 C8 37.99 8 38.98 8 40 C1.4 40 -5.2 40 -12 40 C-12.495 38.515 -12.495 38.515 -13 37 C-10.36 37 -7.72 37 -5 37 C-5 35.35 -5 33.7 -5 32 C-4.67 32 -4.34 32 -4 32 C-4 33.98 -4 35.96 -4 38 C-2.515 37.505 -2.515 37.505 -1 37 C-1.00785522 35.47862427 -1.00785522 35.47862427 -1.01586914 33.92651367 C-1.03396807 30.16382733 -1.04544994 26.40114485 -1.05493164 22.63842773 C-1.05996065 21.00984042 -1.06678465 19.38125763 -1.07543945 17.75268555 C-1.08756769 15.41193528 -1.09324263 13.0712447 -1.09765625 10.73046875 C-1.10281754 10.00224411 -1.10797882 9.27401947 -1.11329651 8.52372742 C-1.11364279 5.40397712 -0.99455604 2.98366812 0 0 Z " fill="#8A7632" transform="translate(19,113)"/>
<path d="M0 0 C0.66 0.33 1.32 0.66 2 1 C1.67 11.89 1.34 22.78 1 34 C12.72524512 34.42491829 12.72524512 34.42491829 19 33 C19.33 32.01 19.66 31.02 20 30 C20.804375 29.87625 21.60875 29.7525 22.4375 29.625 C23.283125 29.41875 24.12875 29.2125 25 29 C25.33 28.34 25.66 27.68 26 27 C26 29.31 26 31.62 26 34 C27.98 34 29.96 34 32 34 C32 34.99 32 35.98 32 37 C19.46 37 6.92 37 -6 37 C-6 36.01 -6 35.02 -6 34 C-4.35 34 -2.7 34 -1 34 C-1.00523682 33.25427734 -1.01047363 32.50855469 -1.01586914 31.74023438 C-1.03679239 28.32683166 -1.04970873 24.91344249 -1.0625 21.5 C-1.07087891 20.32695312 -1.07925781 19.15390625 -1.08789062 17.9453125 C-1.10497844 11.86205118 -0.94502752 6.01245856 0 0 Z " fill="#896B1B" transform="translate(99,116)"/>
<path d="M0 0 C0.99 0 1.98 0 3 0 C3.33 9.9 3.66 19.8 4 30 C-1 28 -1 28 -2.36328125 26.15234375 C-5.10713135 19.75002684 -6.45206148 14.21944322 -4.12890625 7.46875 C-1.58913649 1.58913649 -1.58913649 1.58913649 0 0 Z " fill="#987D2D" transform="translate(149,118)"/>
<path d="M0 0 C0.66 0 1.32 0 2 0 C2.02312737 8.06652174 2.04091709 16.13302972 2.05181217 24.19957638 C2.05704014 27.94483037 2.06413622 31.69006176 2.07543945 35.43530273 C2.08627141 39.04681687 2.09227749 42.65830921 2.09487724 46.26983833 C2.09673094 47.65060329 2.10035049 49.031367 2.10573006 50.41212273 C2.11294447 52.33975952 2.11340809 54.26741807 2.11352539 56.19506836 C2.115746 57.29427109 2.11796661 58.39347382 2.12025452 59.52598572 C2 62 2 62 1 63 C-0.65 63 -2.3 63 -4 63 C-4 46.5 -4 30 -4 13 C-3.67 13 -3.34 13 -3 13 C-2.67 28.84 -2.34 44.68 -2 61 C-0.84801168 58.69602335 -0.88453137 57.42465092 -0.90234375 54.86425781 C-0.90564697 54.00866272 -0.9089502 53.15306763 -0.91235352 52.27154541 C-0.92065186 51.34146667 -0.9289502 50.41138794 -0.9375 49.453125 C-0.94128662 48.4903363 -0.94507324 47.52754761 -0.94897461 46.5355835 C-0.96527844 42.4144566 -0.99304712 38.29342875 -1.02050781 34.17236328 C-1.09026455 22.73042203 -1.11079773 11.4005535 0 0 Z " fill="#86702C" transform="translate(142,38)"/>
<path d="M0 0 C4.62 0 9.24 0 14 0 C14 0.99 14 1.98 14 3 C12.35 3 10.7 3 9 3 C9 15.54 9 28.08 9 41 C8.01 41 7.02 41 6 41 C4.25 38.625 4.25 38.625 3 36 C3.33 35.34 3.66 34.68 4 34 C4.66 34.99 5.32 35.98 6 37 C6.020625 35.741875 6.04125 34.48375 6.0625 33.1875 C6.07410156 32.47980469 6.08570313 31.77210938 6.09765625 31.04296875 C6.08263217 28.79694539 6.08263217 28.79694539 5 26 C4.34 26 3.68 26 3 26 C2.30289269 24.71349294 1.61757124 23.42059335 0.9375 22.125 C0.55464844 21.40570313 0.17179687 20.68640625 -0.22265625 19.9453125 C-0.47917969 19.30335938 -0.73570312 18.66140625 -1 18 C-0.67 17.34 -0.34 16.68 0 16 C1.65 18.64 3.3 21.28 5 24 C5.33 17.07 5.66 10.14 6 3 C4.35 3 2.7 3 1 3 C0.67 2.01 0.34 1.02 0 0 Z " fill="#846F27" transform="translate(314,112)"/>
<path d="M0 0 C0.33 0 0.66 0 1 0 C1.33 2.97 1.66 5.94 2 9 C2.66 8.67 3.32 8.34 4 8 C4 8.66 4 9.32 4 10 C7.63 10.33 11.26 10.66 15 11 C15 11.33 15 11.66 15 12 C10.545 12.495 10.545 12.495 6 13 C6 15.64 6 18.28 6 21 C5.34 19.68 4.68 18.36 4 17 C2.70366379 18.06645115 2.70366379 18.06645115 2.9375 20.5625 C2.958125 21.366875 2.97875 22.17125 3 23 C2.34 23 1.68 23 1 23 C1 48.08 1 73.16 1 99 C2.32 99 3.64 99 5 99 C5 99.66 5 100.32 5 101 C3.35 101 1.7 101 0 101 C0 67.67 0 34.34 0 0 Z " fill="#8C7835" transform="translate(166,0)"/>
<path d="M0 0 C12.54 0 25.08 0 38 0 C34.3732621 1.81336895 33.04897933 2.26734695 29.234375 2.4140625 C28.34492188 2.45273437 27.45546875 2.49140625 26.5390625 2.53125 C25.61867187 2.5621875 24.69828125 2.593125 23.75 2.625 C22.81414062 2.66367187 21.87828125 2.70234375 20.9140625 2.7421875 C18.60956946 2.83624844 16.30507987 2.92189399 14 3 C13.67 3.99 13.34 4.98 13 6 C12.34 6.66 11.68 7.32 11 8 C11 8.99 11 9.98 11 11 C18.26 11.33 25.52 11.66 33 12 C33 12.33 33 12.66 33 13 C11.66406745 14.90737582 11.66406745 14.90737582 6.24609375 10.62109375 C3.37992159 7.71944676 0 4.237442 0 0 Z " fill="#937E34" transform="translate(105,37)"/>
<path d="M0 0 C0.99 0.33 1.98 0.66 3 1 C2.83250244 1.53915039 2.66500488 2.07830078 2.49243164 2.63378906 C1.90257838 5.46812612 1.98828341 7.96706086 2.12109375 10.859375 C2.16943359 11.97441406 2.21777344 13.08945313 2.26757812 14.23828125 C2.32365234 15.39714844 2.37972656 16.55601562 2.4375 17.75 C2.48970703 18.92433594 2.54191406 20.09867188 2.59570312 21.30859375 C2.72526224 24.20600664 2.86022447 27.10306493 3 30 C3.33 30 3.66 30 4 30 C4.042721 31.66611905 4.04063832 33.33382885 4 35 C3 36 3 36 -0.0625 36.0625 C-1.031875 36.041875 -2.00125 36.02125 -3 36 C-2.90657189 31.19414942 -2.80050341 26.38880906 -2.68261719 21.58349609 C-2.64429148 19.9481576 -2.60944493 18.31273376 -2.578125 16.67724609 C-2.53255158 14.3287909 -2.47454633 11.98092505 -2.4140625 9.6328125 C-2.40251129 8.89942657 -2.39096008 8.16604065 -2.37905884 7.41043091 C-2.22774341 2.22774341 -2.22774341 2.22774341 0 0 Z " fill="#997E2D" transform="translate(102,115)"/>
<path d="M0 0 C0.66 0.66 1.32 1.32 2 2 C1.67 2.66 1.34 3.32 1 4 C0.91350549 6.48099734 0.88434946 8.93344928 0.90234375 11.4140625 C0.9037587 12.14370209 0.90517365 12.87334167 0.90663147 13.62509155 C0.91223469 15.95843585 0.92478765 18.29168464 0.9375 20.625 C0.94251459 22.20572778 0.94707757 23.78645707 0.95117188 25.3671875 C0.96220516 29.24482854 0.97947189 33.12239807 1 37 C-0.98 37.495 -0.98 37.495 -3 38 C-3.80630327 33.15946556 -4.06819384 28.65435169 -3.87890625 23.75390625 C-3.85529526 23.09792953 -3.83168427 22.44195282 -3.80735779 21.76609802 C-3.73158874 19.69796255 -3.64719987 17.63028696 -3.5625 15.5625 C-3.50919205 14.14911006 -3.45645247 12.73569856 -3.40429688 11.32226562 C-3.27609386 7.88123685 -3.14016527 4.44056469 -3 1 C-2.01 0.67 -1.02 0.34 0 0 Z " fill="#9A7F2A" transform="translate(18,113)"/>
<path d="M0 0 C0.66 0 1.32 0 2 0 C1.67 11.55 1.34 23.1 1 35 C2.98 35 4.96 35 7 35 C6.67 35.99 6.34 36.98 6 38 C1.71 38 -2.58 38 -7 38 C-7.495 36.515 -7.495 36.515 -8 35 C-6.02 35 -4.04 35 -2 35 C-2.01047363 34.18845459 -2.02094727 33.37690918 -2.03173828 32.54077148 C-2.0734865 28.83971289 -2.09938613 25.13870399 -2.125 21.4375 C-2.15013672 19.52227539 -2.15013672 19.52227539 -2.17578125 17.56835938 C-2.20811155 11.34477741 -2.23461206 5.85046072 0 0 Z " fill="#816624" transform="translate(74,115)"/>
<path d="M0 0 C4.95 0 9.9 0 15 0 C15 0.33 15 0.66 15 1 C13.02 1 11.04 1 9 1 C8.67 13.21 8.34 25.42 8 38 C7.01 37.67 6.02 37.34 5 37 C5 25.78 5 14.56 5 3 C3.35 3 1.7 3 0 3 C0 2.01 0 1.02 0 0 Z " fill="#8F793A" transform="translate(289,112)"/>
<path d="M0 0 C0.66 0.33 1.32 0.66 2 1 C1.814375 1.763125 1.62875 2.52625 1.4375 3.3125 C0.77180827 6.08967375 0.77180827 6.08967375 2 9 C1.34 9 0.68 9 0 9 C0 13.62 0 18.24 0 23 C-1.98 22.67 -3.96 22.34 -6 22 C-6.35368021 14.87399867 -5.95671348 9.52940894 -3 3 C-2.34 3 -1.68 3 -1 3 C-0.67 2.01 -0.34 1.02 0 0 Z " fill="#9B7D2B" transform="translate(231,116)"/>
<path d="M0 0 C0.66 0 1.32 0 2 0 C1.67 4.95 1.34 9.9 1 15 C-8.24 15 -17.48 15 -27 15 C-25.68 14.67 -24.36 14.34 -23 14 C-22.67 13.34 -22.34 12.68 -22 12 C-18.62346356 11.70162597 -15.28922047 11.58398386 -11.90234375 11.52148438 C-7.77306756 11.4109069 -7.77306756 11.4109069 -4.09765625 9.7265625 C-2.87165934 7.79812608 -2.05643346 5.97344957 -1.3125 3.8125 C-1.06113281 3.09707031 -0.80976562 2.38164062 -0.55078125 1.64453125 C-0.36902344 1.10183594 -0.18726562 0.55914062 0 0 Z " fill="#9D6314" transform="translate(64,138)"/>
<path d="M0 0 C1.33333333 0.66666667 2.66666667 1.33333333 4 2 C5.32 1.67 6.64 1.34 8 1 C8 4.63 8 8.26 8 12 C5 11 5 11 3.375 8 C2.92125 7.01 2.4675 6.02 2 5 C1.01732141 3.79438816 1.01732141 3.79438816 -0.84765625 3.90234375 C-2.8984375 3.93489583 -4.94921875 3.96744792 -7 4 C-7.99 6.31 -8.98 8.62 -10 11 C-10.66 11 -11.32 11 -12 11 C-12.33 12.32 -12.66 13.64 -13 15 C-13.33 15 -13.66 15 -14 15 C-13.88192841 10.07319446 -13.74997195 6.92304239 -10.5625 3 C-6.77548171 0.04427841 -4.79479812 -0.28768789 0 0 Z " fill="#816B2A" transform="translate(212,111)"/>
<path d="M0 0 C1.2406987 3.72209609 0.4506902 4.47616033 -1 8 C-1.2759478 9.92903132 -1.48449903 11.8689032 -1.625 13.8125 C-1.69976562 14.78832031 -1.77453125 15.76414063 -1.8515625 16.76953125 C-1.90054688 17.50558594 -1.94953125 18.24164063 -2 19 C-0.35 18.67 1.3 18.34 3 18 C3.33 14.04 3.66 10.08 4 6 C4.33 6 4.66 6 5 6 C5.6466598 14.01396246 6.16677223 21.95787245 6 30 C5.01 29.34 4.02 28.68 3 28 C3 27.34 3 26.68 3 26 C2.01 25.67 1.02 25.34 0 25 C-2.6448884 22.86374398 -3.34664869 21.28457523 -4 18 C-4.62422959 11.61365116 -3.60626385 6.83803102 -1 1 C-0.67 0.67 -0.34 0.34 0 0 Z " fill="#8D762F" transform="translate(227,119)"/>
<path d="M0 0 C11.22 0 22.44 0 34 0 C34 0.33 34 0.66 34 1 C18.655 1.495 18.655 1.495 3 2 C7.944353 7.96018977 7.944353 7.96018977 11.57714844 8.6652832 C12.4127832 8.62749756 13.24841797 8.58971191 14.109375 8.55078125 C15.02847656 8.52693359 15.94757813 8.50308594 16.89453125 8.47851562 C17.83683594 8.42373047 18.77914062 8.36894531 19.75 8.3125 C21.64049642 8.24252873 23.53112245 8.17595076 25.421875 8.11328125 C26.25299805 8.06985596 27.08412109 8.02643066 27.94042969 7.98168945 C30 8 30 8 32 9 C32 9.66 32 10.32 32 11 C10.49875896 12.5599933 10.49875896 12.5599933 5.46875 9.06640625 C0 3.51775568 0 3.51775568 0 0 Z " fill="#8C7835" transform="translate(115,20)"/>
<path d="M0 0 C0.33 0.66 0.66 1.32 1 2 C2.65 2 4.3 2 6 2 C6.33 1.34 6.66 0.68 7 0 C12.61 0.33 18.22 0.66 24 1 C24 1.99 24 2.98 24 4 C14.1 4 4.2 4 -6 4 C-6.33 3.01 -6.66 2.02 -7 1 C-3.535 0.505 -3.535 0.505 0 0 Z " fill="#936917" transform="translate(279,149)"/>
<path d="M0 0 C2 2 2 2 2.1953125 3.9453125 C2.13020833 5.96354167 2.06510417 7.98177083 2 10 C1.34 9.67 0.68 9.34 0 9 C-2.31 16.59 -4.62 24.18 -7 32 C-7.33 32 -7.66 32 -8 32 C-8 30.35 -8 28.7 -8 27 C-8.66 26.67 -9.32 26.34 -10 26 C-10.625 22.9375 -10.625 22.9375 -11 20 C-10.34 19.67 -9.68 19.34 -9 19 C-8.67 20.32 -8.34 21.64 -8 23 C-7.68977905 22.00818726 -7.68977905 22.00818726 -7.37329102 20.99633789 C-6.43956336 18.01737694 -5.5010976 15.03992995 -4.5625 12.0625 C-4.23701172 11.02158203 -3.91152344 9.98066406 -3.57617188 8.90820312 C-3.26357422 7.91884766 -2.95097656 6.92949219 -2.62890625 5.91015625 C-2.34088135 4.99371338 -2.05285645 4.07727051 -1.75610352 3.13305664 C-1 1 -1 1 0 0 Z " fill="#7E6B30" transform="translate(97,114)"/>
<path d="M0 0 C0.33 0 0.66 0 1 0 C1.33 7.92 1.66 15.84 2 24 C3.98 24.33 5.96 24.66 8 25 C8 25.99 8 26.98 8 28 C1.4 28 -5.2 28 -12 28 C-12.33 27.01 -12.66 26.02 -13 25 C-10.36 25 -7.72 25 -5 25 C-5 23.35 -5 21.7 -5 20 C-4.67 20 -4.34 20 -4 20 C-4 21.98 -4 23.96 -4 26 C-3.01 25.67 -2.02 25.34 -1 25 C-0.67 16.75 -0.34 8.5 0 0 Z " fill="#8E7625" transform="translate(19,125)"/>
<path d="M0 0 C0.33 0 0.66 0 1 0 C1.59244521 6.66500865 -0.51677155 11.86952975 -3 18 C-2.01 18.66 -1.02 19.32 0 20 C-1.65 20.33 -3.3 20.66 -5 21 C-5.10957031 21.63808594 -5.21914063 22.27617187 -5.33203125 22.93359375 C-5.49058594 23.75988281 -5.64914062 24.58617187 -5.8125 25.4375 C-5.96332031 26.26121094 -6.11414063 27.08492187 -6.26953125 27.93359375 C-6.51058594 28.61550781 -6.75164062 29.29742187 -7 30 C-7.99 30.33 -8.98 30.66 -10 31 C-9.39983288 26.75734394 -8.40522383 22.96638623 -6.93359375 18.9453125 C-6.53076172 17.83671875 -6.12792969 16.728125 -5.71289062 15.5859375 C-5.29201172 14.44382813 -4.87113281 13.30171875 -4.4375 12.125 C-4.01275391 10.9596875 -3.58800781 9.794375 -3.15039062 8.59375 C-2.1048911 5.72743669 -1.05462612 2.86296514 0 0 Z " fill="#806D2E" transform="translate(268,119)"/>
<path d="M0 0 C0.33 0 0.66 0 1 0 C1 2.31 1 4.62 1 7 C2.98 7 4.96 7 7 7 C7 7.99 7 8.98 7 10 C1.39 10 -4.22 10 -10 10 C-9.67 9.34 -9.34 8.68 -9 8 C-8.01 8 -7.02 8 -6 8 C-5.67 6.35 -5.34 4.7 -5 3 C-3.35 2.67 -1.7 2.34 0 2 C0 1.34 0 0.68 0 0 Z " fill="#97711C" transform="translate(124,143)"/>
<path d="M0 0 C12.54 0 25.08 0 38 0 C36 4 36 4 34 5 C34 4.34 34 3.68 34 3 C33.14768799 2.97494385 32.29537598 2.9498877 31.41723633 2.92407227 C28.23955034 2.82864431 25.06201106 2.72942876 21.88452148 2.62768555 C20.51217224 2.5845116 19.13977533 2.54282499 17.76733398 2.50268555 C15.78877932 2.44455608 13.8104003 2.3805429 11.83203125 2.31640625 C10.04889526 2.26141968 10.04889526 2.26141968 8.22973633 2.20532227 C5.38595153 2.02453589 2.77093195 1.64190592 0 1 C0 0.67 0 0.34 0 0 Z " fill="#857741" transform="translate(185,37)"/>
<path d="M0 0 C2.46800047 1.15173355 4.04783565 2.04783565 6 4 C6.80180859 10.98718915 6.80180859 10.98718915 3.625 15 C1 17 1 17 -1 17 C-0.835 16.05125 -0.67 15.1025 -0.5 14.125 C0.18541792 9.4236123 0.08583441 4.73996714 0 0 Z " fill="#997E2E" transform="translate(137,115)"/>
<path d="M0 0 C2.31 0 4.62 0 7 0 C7.33 1.32 7.66 2.64 8 4 C9.32 4.33 10.64 4.66 12 5 C12 5.99 12 6.98 12 8 C12.66 8 13.32 8 14 8 C14 8.66 14 9.32 14 10 C17.3 10 20.6 10 24 10 C24 10.33 24 10.66 24 11 C12.20337883 12.52982119 12.20337883 12.52982119 6.84375 8.80859375 C0 1.89601293 0 1.89601293 0 0 Z " fill="#987F29" transform="translate(124,0)"/>
<path d="M0 0 C2.75 -0.3125 2.75 -0.3125 6 0 C8.4375 2.0625 8.4375 2.0625 10 5 C9.75 8.8125 9.75 8.8125 9 12 C6.98810985 10.34577921 4.98948587 8.68068526 3 7 C2.38125 6.484375 1.7625 5.96875 1.125 5.4375 C0 4 0 4 0 0 Z " fill="#957C2B" transform="translate(298,113)"/>
<path d="M0 0 C0.66 0 1.32 0 2 0 C2.33 0.99 2.66 1.98 3 3 C5.56042066 4.03038956 5.56042066 4.03038956 8.5625 4.6875 C9.57441406 4.93886719 10.58632812 5.19023438 11.62890625 5.44921875 C12.80259766 5.72185547 12.80259766 5.72185547 14 6 C13.34 7.65 12.68 9.3 12 11 C7.64546078 10.74385063 5.50390232 10.42722153 2.125 7.5625 C0 5 0 5 -1 3 C-0.67 2.01 -0.34 1.02 0 0 Z " fill="#9A7E2D" transform="translate(200,122)"/>
<path d="M0 0 C4.95 0 9.9 0 15 0 C15 0.33 15 0.66 15 1 C13.02 1 11.04 1 9 1 C8.34 5.95 7.68 10.9 7 16 C5 14 5 14 4.8046875 11.3984375 C4.82789063 10.40070313 4.85109375 9.40296875 4.875 8.375 C4.89304687 7.37210937 4.91109375 6.36921875 4.9296875 5.3359375 C4.95289063 4.56507812 4.97609375 3.79421875 5 3 C3.35 3 1.7 3 0 3 C0 2.01 0 1.02 0 0 Z " fill="#8C742A" transform="translate(289,112)"/>
<path d="M0 0 C0.33 0 0.66 0 1 0 C1.78512397 8.00826446 1.78512397 8.00826446 -1.375 12 C-5.29537436 14.9869519 -7.23042026 15.11457 -12.125 15.0625 C-13.22070312 15.05347656 -14.31640625 15.04445312 -15.4453125 15.03515625 C-16.70988281 15.01775391 -16.70988281 15.01775391 -18 15 C-18 14.34 -18 13.68 -18 13 C-14.7 12.67 -11.4 12.34 -8 12 C-7.34 10.35 -6.68 8.7 -6 7 C-5.67 7.99 -5.34 8.98 -5 10 C-5.99 11.485 -5.99 11.485 -7 13 C-4.4246953 12.19583018 -4.4246953 12.19583018 -2 10 C-0.94753553 6.71567619 -0.42949815 3.41675391 0 0 Z " fill="#87732A" transform="translate(143,119)"/>
<path d="M0 0 C12.54 0 25.08 0 38 0 C33.59363482 2.20318259 31.66245297 2.1746907 26.828125 1.9765625 C26.1457074 1.95153656 25.46328979 1.92651062 24.76019287 1.90072632 C22.58960017 1.81882947 20.41995927 1.72212647 18.25 1.625 C16.77477793 1.56672921 15.29951728 1.50942661 13.82421875 1.453125 C10.21563108 1.31329779 6.60774764 1.16018957 3 1 C3.33 2.32 3.66 3.64 4 5 C2 3.625 2 3.625 0 2 C0 1.34 0 0.68 0 0 Z " fill="#7E7A3D" transform="translate(105,37)"/>
<path d="M0 0 C0.33 0.66 0.66 1.32 1 2 C0.319375 3.2065625 0.319375 3.2065625 -0.375 4.4375 C-2.56131206 9.23056874 -2.73104702 13.78787676 -3 19 C-2.34 19 -1.68 19 -1 19 C-1.33 20.65 -1.66 22.3 -2 24 C-4.79238215 21.20761785 -5.18290882 18.68088835 -5.3125 14.875 C-5.27907901 9.77829897 -3.72553238 3.72553238 0 0 Z " fill="#87762E" transform="translate(149,118)"/>
<path d="M0 0 C0 0.66 0 1.32 0 2 C-6.93 2 -13.86 2 -21 2 C-21.33 1.34 -21.66 0.68 -22 0 C-18.89635771 -0.19696449 -15.79207808 -0.38093262 -12.6875 -0.5625 C-11.36588867 -0.64661133 -11.36588867 -0.64661133 -10.01757812 -0.73242188 C-8.74624023 -0.80493164 -8.74624023 -0.80493164 -7.44921875 -0.87890625 C-6.27879028 -0.94960327 -6.27879028 -0.94960327 -5.0847168 -1.02172852 C-3 -1 -3 -1 0 0 Z " fill="#917E40" transform="translate(147,29)"/>
<path d="M0 0 C-1.16723633 1.97558594 -1.16723633 1.97558594 -3 4 C-5.4519043 4.45410156 -5.4519043 4.45410156 -8.32421875 4.390625 C-9.35224609 4.37773438 -10.38027344 4.36484375 -11.43945312 4.3515625 C-12.51130859 4.31804688 -13.58316406 4.28453125 -14.6875 4.25 C-15.77095703 4.23195313 -16.85441406 4.21390625 -17.97070312 4.1953125 C-20.64802146 4.14813508 -23.32356909 4.08232249 -26 4 C-25.34 3.34 -24.68 2.68 -24 2 C-21.24410223 2.01747927 -18.61213324 2.13863271 -15.875 2.375 C-15.12089844 2.43171875 -14.36679688 2.4884375 -13.58984375 2.546875 C-11.72581904 2.6884465 -9.86278863 2.84299959 -8 3 C-7.67 2.01 -7.34 1.02 -7 0 C-4.05610218 -1.17755913 -3.10046087 -1.03348696 0 0 Z " fill="#907D3C" transform="translate(216,46)"/>
<path d="M0 0 C0.51171875 2.1640625 0.51171875 2.1640625 0.6875 4.625 C0.75324219 5.44226563 0.81898438 6.25953125 0.88671875 7.1015625 C0.92410156 7.72804687 0.96148437 8.35453125 1 9 C-0.32 8.67 -1.64 8.34 -3 8 C-3.103125 6.88625 -3.20625 5.7725 -3.3125 4.625 C-3.539375 3.42875 -3.76625 2.2325 -4 1 C-4.99 0.34 -5.98 -0.32 -7 -1 C-3.51418144 -2.2020064 -3.32007656 -2.21338437 0 0 Z " fill="#9A802B" transform="translate(276,123)"/>
<path d="M0 0 C0.99 0 1.98 0 3 0 C3 3.63 3 7.26 3 11 C2.01 10.67 1.02 10.34 0 10 C-1.4477922 7.10441559 -2 5.25811062 -2 2 C-1.34 2 -0.68 2 0 2 C0 1.34 0 0.68 0 0 Z " fill="#897530" transform="translate(217,112)"/>
<path d="M0 0 C0.66 0 1.32 0 2 0 C1.67 4.95 1.34 9.9 1 15 C0.34 15 -0.32 15 -1 15 C-1 13.35 -1 11.7 -1 10 C-1.99 10 -2.98 10 -4 10 C-2.68 6.7 -1.36 3.4 0 0 Z " fill="#7D6A2C" transform="translate(64,138)"/>
<path d="M0 0 C2.97 0 5.94 0 9 0 C9 1.32 9 2.64 9 4 C6.03 4 3.06 4 0 4 C0 2.68 0 1.36 0 0 Z " fill="#9A802A" transform="translate(152,0)"/>
<path d="M0 0 C-1.75 3.875 -1.75 3.875 -4 5 C-4 4.34 -4 3.68 -4 3 C-10.27 2.67 -16.54 2.34 -23 2 C-23 1.67 -23 1.34 -23 1 C-20.47932687 0.83054298 -17.95850616 0.66436516 -15.4375 0.5 C-14.73302734 0.45230469 -14.02855469 0.40460937 -13.30273438 0.35546875 C-8.85739865 0.0686729 -4.45455341 -0.04682842 0 0 Z " fill="#907A3C" transform="translate(223,37)"/>
<path d="M0 0 C4.54805635 -0.17835515 7.8794254 0.00214565 12 2 C11.67 3.32 11.34 4.64 11 6 C10.01 5.34 9.02 4.68 8 4 C5.67612053 3.60612212 3.34206251 3.26513915 1 3 C0.67 2.01 0.34 1.02 0 0 Z " fill="#7F6D32" transform="translate(237,111)"/>
<path d="M0 0 C3.3 0 6.6 0 10 0 C9.67 0.99 9.34 1.98 9 3 C6.03 3 3.06 3 0 3 C0 2.01 0 1.02 0 0 Z " fill="#93641A" transform="translate(257,150)"/>
<path d="M0 0 C0.66 0 1.32 0 2 0 C1.979375 1.093125 1.95875 2.18625 1.9375 3.3125 C1.81455548 6.94384191 1.81455548 6.94384191 3 10 C2.67 10.99 2.34 11.98 2 13 C1.34 13 0.68 13 0 13 C0 8.71 0 4.42 0 0 Z " fill="#896F27" transform="translate(0,113)"/>
<path d="M0 0 C0.66 0 1.32 0 2 0 C2 1.98 2 3.96 2 6 C1.34 6 0.68 6 0 6 C-0.33 7.32 -0.66 8.64 -1 10 C-1.33 10 -1.66 10 -2 10 C-1.85950482 8.52031676 -1.71245174 7.04125484 -1.5625 5.5625 C-1.48128906 4.73878906 -1.40007812 3.91507812 -1.31640625 3.06640625 C-1 1 -1 1 0 0 Z " fill="#857425" transform="translate(200,116)"/>
<path d="M0 0 C1.32 0 2.64 0 4 0 C3.50168276 3.68754757 2.89932357 5.60490662 0 8 C-0.98120464 4.94736336 -0.98120464 3.05263664 0 0 Z " fill="#907A2A" transform="translate(2,113)"/>
<path d="M0 0 C2.64 0 5.28 0 8 0 C8 0.66 8 1.32 8 2 C9.32 2.33 10.64 2.66 12 3 C8.37 3 4.74 3 1 3 C0.67 2.01 0.34 1.02 0 0 Z " fill="#A35315" transform="translate(66,150)"/>
<path d="M0 0 C0.66 0.33 1.32 0.66 2 1 C2 3.97 2 6.94 2 10 C-0.79872437 7.47211993 -2.45773019 5.79588866 -3 2 C-2.34 1.67 -1.68 1.34 -1 1 C-0.67 1.33 -0.34 1.66 0 2 C0 1.34 0 0.68 0 0 Z " fill="#9B7D29" transform="translate(319,140)"/>
<path d="M0 0 C1.32 0.33 2.64 0.66 4 1 C4.144375 2.216875 4.28875 3.43375 4.4375 4.6875 C4.82780953 7.82670377 5.32351856 10.9075134 6 14 C4 13 4 13 2.9296875 10.05859375 C2.58164062 8.86363281 2.23359375 7.66867188 1.875 6.4375 C1.52179688 5.23996094 1.16859375 4.04242188 0.8046875 2.80859375 C0.53914063 1.88175781 0.27359375 0.95492187 0 0 Z " fill="#8C7635" transform="translate(269,123)"/>
<path d="M0 0 C3.37462715 0.54723683 5.08235 1.0549 8 3 C8.6875 6.125 8.6875 6.125 9 9 C8.01 9 7.02 9 6 9 C5.62875 7.6078125 5.62875 7.6078125 5.25 6.1875 C3.93545755 2.83541675 3.02036616 1.8122197 0 0 Z " fill="#847032" transform="translate(56,114)"/>
<path d="M0 0 C1.2065625 0.0309375 1.2065625 0.0309375 2.4375 0.0625 C1.4375 3.0625 1.4375 3.0625 0.4375 4.0625 C0.07587971 5.38844105 -0.25978039 6.72188457 -0.5625 8.0625 C-1.2225 8.0625 -1.8825 8.0625 -2.5625 8.0625 C-2.94313221 5.7364143 -3.27519945 3.40194736 -3.5625 1.0625 C-2.5625 0.0625 -2.5625 0.0625 0 0 Z " fill="#947B25" transform="translate(78.5625,112.9375)"/>
<path d="M0 0 C1.32 0.33 2.64 0.66 4 1 C4 2.98 4 4.96 4 7 C3.34 7 2.68 7 2 7 C2 6.34 2 5.68 2 5 C1.34 5 0.68 5 0 5 C0 3.35 0 1.7 0 0 Z " fill="#967C33" transform="translate(121,135)"/>
<path d="M0 0 C5.41538462 -0.36923077 5.41538462 -0.36923077 8.375 1.5 C8.91125 1.995 9.4475 2.49 10 3 C7.03 3 4.06 3 1 3 C0.67 2.01 0.34 1.02 0 0 Z " fill="#7C6A15" transform="translate(6,150)"/>
<path d="M0 0 C1.66666667 0 3.33333333 0 5 0 C4.67 1.98 4.34 3.96 4 6 C3.01 6 2.02 6 1 6 C0.67 4.02 0.34 2.04 0 0 Z " fill="#80692D" transform="translate(84,146)"/>
<path d="M0 0 C4.95 0 9.9 0 15 0 C15 0.33 15 0.66 15 1 C14.25234375 1.06058594 13.5046875 1.12117188 12.734375 1.18359375 C11.74953125 1.26738281 10.7646875 1.35117188 9.75 1.4375 C8.28820312 1.55931641 8.28820312 1.55931641 6.796875 1.68359375 C4.43538247 1.95074584 2.28098935 2.35371968 0 3 C0 2.01 0 1.02 0 0 Z " fill="#89753A" transform="translate(289,112)"/>
<path d="M0 0 C0.99 0 1.98 0 3 0 C3.66 1.65 4.32 3.3 5 5 C3.35 5 1.7 5 0 5 C-0.5625 3.0625 -0.5625 3.0625 -1 1 C-0.67 0.67 -0.34 0.34 0 0 Z " fill="#977F25" transform="translate(280,146)"/>
<path d="M0 0 C0.99 0 1.98 0 3 0 C3 3.96 3 7.92 3 12 C2.01 12 1.02 12 0 12 C0 11.01 0 10.02 0 9 C0.66 9 1.32 9 2 9 C1.51515724 4.35413108 1.51515724 4.35413108 0 0 Z " fill="#7B6928" transform="translate(251,112)"/>
<path d="M0 0 C0.66 0 1.32 0 2 0 C4.125 4.625 4.125 4.625 3 8 C2.34 7.01 1.68 6.02 1 5 C0.01 5.66 -0.98 6.32 -2 7 C-1.34 4.69 -0.68 2.38 0 0 Z " fill="#86743B" transform="translate(271,111)"/>
<path d="M0 0 C1.98 0 3.96 0 6 0 C6.33 2.31 6.66 4.62 7 7 C6.67 5.68 6.34 4.36 6 3 C4.35 3 2.7 3 1 3 C0.67 2.01 0.34 1.02 0 0 Z " fill="#877232" transform="translate(314,112)"/>
<path d="M0 0 C2.31 0 4.62 0 7 0 C7 0.99 7 1.98 7 3 C4.36 3 1.72 3 -1 3 C-0.67 2.01 -0.34 1.02 0 0 Z " fill="#816418" transform="translate(20,150)"/>
<path d="M0 0 C3.67230705 3.07999946 4.56802365 5.2482602 5 10 C2.08772731 6.71195019 0.50298788 4.40114397 0 0 Z " fill="#8C7336" transform="translate(174,118)"/>
<path d="M0 0 C3.3 0 6.6 0 10 0 C10 1.65 10 3.3 10 5 C9.01 5.495 9.01 5.495 8 6 C7.67 5.01 7.34 4.02 7 3 C7.33 2.67 7.66 2.34 8 2 C5.36 1.67 2.72 1.34 0 1 C0 0.67 0 0.34 0 0 Z " fill="#96803B" transform="translate(54,112)"/>
<path d="M0 0 C2.97 0.33 5.94 0.66 9 1 C7.515 2.485 7.515 2.485 6 4 C2.8125 3.6875 2.8125 3.6875 0 3 C0 2.01 0 1.02 0 0 Z " fill="#85701E" transform="translate(285,149)"/>
<path d="M0 0 C0.33 0.66 0.66 1.32 1 2 C0.67 2.66 0.34 3.32 0 4 C-3.0625 4.625 -3.0625 4.625 -6 5 C-6 4.01 -6 3.02 -6 2 C-4.02 1.34 -2.04 0.68 0 0 Z " fill="#867124" transform="translate(41,148)"/>
<path d="M0 0 C0 0.99 0 1.98 0 3 C-1.65 3 -3.3 3 -5 3 C-5.33 2.01 -5.66 1.02 -6 0 C-3.50907189 -1.24546405 -2.58919267 -0.7767578 0 0 Z " fill="#897118" transform="translate(257,150)"/>
<path d="M0 0 C2.31 0 4.62 0 7 0 C7 0.99 7 1.98 7 3 C4.36 2.67 1.72 2.34 -1 2 C-0.67 1.34 -0.34 0.68 0 0 Z " fill="#866E25" transform="translate(124,150)"/>
<path d="M0 0 C5.41538462 -0.36923077 5.41538462 -0.36923077 8.375 1.5 C8.91125 1.995 9.4475 2.49 10 3 C9.34 3.66 8.68 4.32 8 5 C7.01 4.34 6.02 3.68 5 3 C5 2.34 5 1.68 5 1 C3.35 1 1.7 1 0 1 C0 0.67 0 0.34 0 0 Z " fill="#7D6C38" transform="translate(206,111)"/>
</svg>
