<svg width="374" height="122" version="1.1" xmlns="http://www.w3.org/2000/svg" desc="Created with imagetracer.js version 1.2.6" ><path fill="rgb(83,90,83)" stroke="rgb(83,90,83)" stroke-width="1" opacity="0.054901960784313725" d="M 332.5 0 L 334 0.5 L 331.5 2 L 332.5 0 Z " /><path fill="rgb(83,90,83)" stroke="rgb(83,90,83)" stroke-width="1" opacity="0.054901960784313725" d="M 339.5 0 L 341.5 3 L 339.5 0 Z " /><path fill="rgb(83,90,83)" stroke="rgb(83,90,83)" stroke-width="1" opacity="0.054901960784313725" d="M 343.5 7 L 344 12.5 L 343 12.5 L 343.5 7 Z " /><path fill="rgb(83,90,83)" stroke="rgb(83,90,83)" stroke-width="1" opacity="0.054901960784313725" d="M 263.5 10 L 266 10.5 L 260 13.5 L 258.5 19 L 258 15.5 L 261.5 11 L 263.5 10 Z " /><path fill="rgb(83,90,83)" stroke="rgb(83,90,83)" stroke-width="1" opacity="0.054901960784313725" d="M 328.5 10 L 329 16.5 L 328 16.5 L 328.5 10 Z " /><path fill="rgb(83,90,83)" stroke="rgb(83,90,83)" stroke-width="1" opacity="0.054901960784313725" d="M 267.5 11 L 276.5 15 L 290 28.5 L 297 36.5 L 289 29.5 L 276.5 16 L 267.5 12 L 267.5 11 Z " /><path fill="rgb(83,90,83)" stroke="rgb(83,90,83)" stroke-width="1" opacity="0.054901960784313725" d="M 343.5 15 L 344 19.5 L 343 19.5 L 343.5 15 Z " /><path fill="rgb(83,90,83)" stroke="rgb(83,90,83)" stroke-width="1" opacity="0.054901960784313725" d="M 315.5 17 L 321 19.5 L 319.5 19 L 315.5 18 L 315.5 17 Z " /><path fill="rgb(83,90,83)" stroke="rgb(83,90,83)" stroke-width="1" opacity="0.054901960784313725" d="M 313.5 18 L 311 21.5 L 310.5 23 L 310 21.5 L 313.5 18 Z " /><path fill="rgb(83,90,83)" stroke="rgb(83,90,83)" stroke-width="1" opacity="0.054901960784313725" d="M 259.5 20 L 263.5 25 L 280 33.5 L 278.5 34 Q 267 30.5 260 22.5 L 259.5 20 Z " /><path fill="rgb(83,90,83)" stroke="rgb(83,90,83)" stroke-width="1" opacity="0.054901960784313725" d="M 322.5 20 L 324.5 23 L 322.5 20 Z " /><path fill="rgb(83,90,83)" stroke="rgb(83,90,83)" stroke-width="1" opacity="0.054901960784313725" d="M 329.5 20 L 330 22.5 L 329 22.5 L 329.5 20 Z " /><path fill="rgb(83,90,83)" stroke="rgb(83,90,83)" stroke-width="1" opacity="0.054901960784313725" d="M 342.5 22 L 343 25.5 L 342 25.5 L 342.5 22 Z " /><path fill="rgb(83,90,83)" stroke="rgb(83,90,83)" stroke-width="1" opacity="0.054901960784313725" d="M 325.5 24 L 327.5 27 L 325.5 24 Z " /><path fill="rgb(83,90,83)" stroke="rgb(83,90,83)" stroke-width="1" opacity="0.054901960784313725" d="M 341.5 27 L 342 29.5 L 341 29.5 L 341.5 27 Z " /><path fill="rgb(83,90,83)" stroke="rgb(83,90,83)" stroke-width="1" opacity="0.054901960784313725" d="M 328.5 28 L 330 30.5 L 329 30.5 L 328.5 28 Z " /><path fill="rgb(83,90,83)" stroke="rgb(83,90,83)" stroke-width="1" opacity="0.054901960784313725" d="M 331.5 29 L 332 31.5 L 330 32.5 L 331.5 29 Z " /><path fill="rgb(83,90,83)" stroke="rgb(83,90,83)" stroke-width="1" opacity="0.054901960784313725" d="M 313.5 33 L 314.5 35 L 313.5 33 Z " /><path fill="rgb(83,90,83)" stroke="rgb(83,90,83)" stroke-width="1" opacity="0.054901960784313725" d="M 332.5 33 L 334 39.5 L 333 39.5 L 331 34.5 L 332.5 33 Z " /><path fill="rgb(83,90,83)" stroke="rgb(83,90,83)" stroke-width="1" opacity="0.054901960784313725" d="M 281.5 34 L 291 37.5 L 289.5 38 L 281.5 35 L 281.5 34 Z " /><path fill="rgb(83,90,83)" stroke="rgb(83,90,83)" stroke-width="1" opacity="0.054901960784313725" d="M 339.5 35 L 340 37.5 L 339 37.5 L 339.5 35 Z " /><path fill="rgb(83,90,83)" stroke="rgb(83,90,83)" stroke-width="1" opacity="0.054901960784313725" d="M 315.5 36 L 322.5 44 L 315.5 36 Z " /><path fill="rgb(83,90,83)" stroke="rgb(83,90,83)" stroke-width="1" opacity="0.054901960784313725" d="M 297.5 38 L 302 40.5 L 300 41.5 L 303.5 46 L 295 39.5 L 297.5 38 Z " /><path fill="rgb(83,90,83)" stroke="rgb(83,90,83)" stroke-width="1" opacity="0.054901960784313725" d="M 325.5 45 L 331 50.5 L 329.5 52 L 323 48.5 L 324.5 48 L 328.5 50 L 325.5 45 Z " /><path fill="rgb(83,90,83)" stroke="rgb(83,90,83)" stroke-width="1" opacity="0.054901960784313725" d="M 305.5 48 L 321.5 65 L 305.5 48 Z " /><path fill="rgb(83,90,83)" stroke="rgb(83,90,83)" stroke-width="1" opacity="0.054901960784313725" d="M 332.5 51 Q 337 53 333.5 55 Q 329 53 332.5 51 Z " /><path fill="rgb(83,90,83)" stroke="rgb(83,90,83)" stroke-width="1" opacity="0.054901960784313725" d="M 340.5 56 L 343 59.5 L 340.5 60 Q 337.9 60.8 339 57.5 L 340.5 56 Z " /><path fill="rgb(83,90,83)" stroke="rgb(83,90,83)" stroke-width="1" opacity="0.054901960784313725" d="M 114.5 60 Q 127.1 58.4 132 64.5 L 131.5 67 L 131 64 Q 125.9 59.8 114.5 61 L 105 66.5 L 103.5 69 L 104 67.5 L 107.5 63 L 114.5 60 Z " /><path fill="rgb(83,90,83)" stroke="rgb(83,90,83)" stroke-width="1" opacity="0.054901960784313725" d="M 344.5 60 L 348.5 65 L 344.5 60 Z " /><path fill="rgb(83,90,83)" stroke="rgb(83,90,83)" stroke-width="1" opacity="0.054901960784313725" d="M 341.5 61 L 341 62.5 L 340.5 64 L 340 62.5 L 341.5 61 Z " /><path fill="rgb(83,90,83)" stroke="rgb(83,90,83)" stroke-width="1" opacity="0.054901960784313725" d="M 342.5 63 L 343 64.5 L 341.5 67 L 341 65.5 L 342.5 63 Z " /><path fill="rgb(83,90,83)" stroke="rgb(83,90,83)" stroke-width="1" opacity="0.054901960784313725" d="M 323.5 65 L 331 69.5 L 330.5 71 L 330 69 Q 324.1 68.5 323.5 65 Z " /><path fill="rgb(83,90,83)" stroke="rgb(83,90,83)" stroke-width="1" opacity="0.054901960784313725" d="M 350.5 65 L 354.5 70 L 350.5 65 Z " /><path fill="rgb(83,90,83)" stroke="rgb(83,90,83)" stroke-width="1" opacity="0.054901960784313725" d="M 117.5 66 Q 126.8 64.7 129 70.5 L 130.5 73 L 132 72.5 Q 132.8 74.8 130.5 74 L 125.5 68 L 117.5 67 L 113 70.5 L 111.5 75 L 111 72.5 L 115.5 67 L 117.5 66 Z " /><path fill="rgb(83,90,83)" stroke="rgb(83,90,83)" stroke-width="1" opacity="0.054901960784313725" d="M 343.5 66 L 345 69.5 L 344 69.5 L 343.5 66 Z " /><path fill="rgb(83,90,83)" stroke="rgb(83,90,83)" stroke-width="1" opacity="0.054901960784313725" d="M 342.5 69 L 343 71.5 L 342 71.5 L 342.5 69 Z " /><path fill="rgb(83,90,83)" stroke="rgb(83,90,83)" stroke-width="1" opacity="0.054901960784313725" d="M 356.5 70 L 368 82.5 L 366 81.5 L 356.5 70 Z " /><path fill="rgb(83,90,83)" stroke="rgb(83,90,83)" stroke-width="1" opacity="0.054901960784313725" d="M 1 71 L 16.5 71 L 18 72.5 L 18.5 88 L 33.5 73 L 36.5 72 L 36.5 73 L 33.5 74 L 17.5 90 L 17 72 L 2 72 L 2 116 L 17 116 L 17 97.5 L 18.5 97 L 20.5 100 L 18 98.5 L 18 117 L 1 117 L 1 71 Z " /><path fill="rgb(83,90,83)" stroke="rgb(83,90,83)" stroke-width="1" opacity="0.054901960784313725" d="M 38.5 71 L 98.5 71 L 99 72.5 L 92.5 82 L 90 81.5 L 95 78.5 L 98 72.5 L 38.5 72 L 38.5 71 Z " /><path fill="rgb(83,90,83)" stroke="rgb(83,90,83)" stroke-width="1" opacity="0.054901960784313725" d="M 168.5 71 L 207.5 71 L 208 73.5 L 202.5 82 L 177 81.5 L 203 81 L 207 72 L 168.5 72 L 168.5 71 Z " /><path fill="rgb(83,90,83)" stroke="rgb(83,90,83)" stroke-width="1" opacity="0.054901960784313725" d="M 345.5 71 L 347 74.5 L 346 74.5 L 345.5 71 Z " /><path fill="rgb(83,90,83)" stroke="rgb(83,90,83)" stroke-width="1" opacity="0.054901960784313725" d="M 164.5 72 L 167 72.5 L 164.5 73 L 164.5 72 Z " /><path fill="rgb(83,90,83)" stroke="rgb(83,90,83)" stroke-width="1" opacity="0.054901960784313725" d="M 101.5 73 L 102 76.5 L 101 76.5 L 101.5 73 Z " /><path fill="rgb(83,90,83)" stroke="rgb(83,90,83)" stroke-width="1" opacity="0.054901960784313725" d="M 161.5 73 L 163 73.5 L 155 79.5 L 151 87.5 L 150.5 101 L 150 87.5 Q 152.5 79.5 158.5 75 L 161.5 73 Z " /><path fill="rgb(83,90,83)" stroke="rgb(83,90,83)" stroke-width="1" opacity="0.054901960784313725" d="M 329.5 73 L 330 76.5 L 329 76.5 L 329.5 73 Z " /><path fill="rgb(83,90,83)" stroke="rgb(83,90,83)" stroke-width="1" opacity="0.054901960784313725" d="M 343.5 74 L 344 77.5 L 343 77.5 L 343.5 74 Z " /><path fill="rgb(83,90,83)" stroke="rgb(83,90,83)" stroke-width="1" opacity="0.054901960784313725" d="M 347.5 76 L 349 79.5 L 348 79.5 L 347.5 76 Z " /><path fill="rgb(83,90,83)" stroke="rgb(83,90,83)" stroke-width="1" opacity="0.054901960784313725" d="M 143 79 L 146 79 L 146 86.5 L 140 93.5 L 143 97.5 L 142 97.5 L 139 92 L 144 88.5 L 145 80.5 L 139.5 85 L 137.5 86 L 138.5 84 L 143 80.5 L 143 79 Z " /><path fill="rgb(83,90,83)" stroke="rgb(83,90,83)" stroke-width="1" opacity="0.054901960784313725" d="M 344.5 80 L 345 82.5 L 344 82.5 L 344.5 80 Z " /><path fill="rgb(83,90,83)" stroke="rgb(83,90,83)" stroke-width="1" opacity="0.054901960784313725" d="M 103.5 81 L 107 84.5 L 105.5 86 L 100 89.5 Q 94 94.5 96 107.5 L 101.5 116 L 110 120.5 L 108.5 121 L 99 114.5 Q 93 109.5 95 96.5 L 102.5 86 L 106 84.5 L 103.5 81 Z " /><path fill="rgb(83,90,83)" stroke="rgb(83,90,83)" stroke-width="1" opacity="0.054901960784313725" d="M 112.5 81 L 124 83 L 123.5 85 Q 121.5 81 113.5 83 L 112.5 81 Z " /><path fill="rgb(83,90,83)" stroke="rgb(83,90,83)" stroke-width="1" opacity="0.054901960784313725" d="M 41.5 82 L 33 91.5 L 35 93.5 L 46 107.5 L 42 104.5 L 32 91.5 L 41.5 82 Z " /><path fill="rgb(83,90,83)" stroke="rgb(83,90,83)" stroke-width="1" opacity="0.054901960784313725" d="M 60.5 82 Q 62.8 81.3 62 83.5 L 63 84.5 L 63 116 L 77 116 L 77 82.5 L 78 82.5 L 78 117 L 62 117 L 62 84.5 L 60.5 82 Z " /><path fill="rgb(83,90,83)" stroke="rgb(83,90,83)" stroke-width="1" opacity="0.054901960784313725" d="M 170.5 83 L 167.5 87 L 170.5 83 Z " /><path fill="rgb(83,90,83)" stroke="rgb(83,90,83)" stroke-width="1" opacity="0.054901960784313725" d="M 368.5 84 L 370 86.5 L 369 86.5 L 368.5 84 Z " /><path fill="rgb(83,90,83)" stroke="rgb(83,90,83)" stroke-width="1" opacity="0.054901960784313725" d="M 123.5 86 L 122.5 88 L 123.5 86 Z " /><path fill="rgb(83,90,83)" stroke="rgb(83,90,83)" stroke-width="1" opacity="0.054901960784313725" d="M 134.5 86 L 136 86.5 L 126 91 L 123.5 96 L 123 94.5 L 127.5 89 L 134.5 86 Z " /><path fill="rgb(83,90,83)" stroke="rgb(83,90,83)" stroke-width="1" opacity="0.054901960784313725" d="M 329.5 86 L 330 88.5 L 329 88.5 L 329.5 86 Z " /><path fill="rgb(83,90,83)" stroke="rgb(83,90,83)" stroke-width="1" opacity="0.054901960784313725" d="M 343.5 86 L 344 88.5 L 343 88.5 L 343.5 86 Z " /><path fill="rgb(83,90,83)" stroke="rgb(83,90,83)" stroke-width="1" opacity="0.054901960784313725" d="M 112.5 87 L 114 87.5 L 110 90.5 L 107.5 97 L 107 94.5 L 112.5 87 Z " /><path fill="rgb(83,90,83)" stroke="rgb(83,90,83)" stroke-width="1" opacity="0.054901960784313725" d="M 352.5 87 L 353.5 89 L 352.5 87 Z " /><path fill="rgb(83,90,83)" stroke="rgb(83,90,83)" stroke-width="1" opacity="0.054901960784313725" d="M 115.5 88 L 121 88.5 L 115.5 89 L 115.5 88 Z " /><path fill="rgb(83,90,83)" stroke="rgb(83,90,83)" stroke-width="1" opacity="0.054901960784313725" d="M 166.5 88 L 167 90.5 Q 164.8 91.7 166 96.5 L 167 99.5 L 166 99.5 L 165 91.5 L 166.5 88 Z " /><path fill="rgb(83,90,83)" stroke="rgb(83,90,83)" stroke-width="1" opacity="0.054901960784313725" d="M 181.5 88 L 198.5 88 L 206 92.5 Q 209.7 96.8 208 106.5 L 207 106.5 Q 208.4 96.2 205 92 L 198.5 89 L 181.5 89 L 178 91.5 L 179 89 L 181.5 88 Z " /><path fill="rgb(83,90,83)" stroke="rgb(83,90,83)" stroke-width="1" opacity="0.054901960784313725" d="M 370.5 88 L 371 93.5 L 370 93.5 L 370.5 88 Z " /><path fill="rgb(83,90,83)" stroke="rgb(83,90,83)" stroke-width="1" opacity="0.054901960784313725" d="M 330.5 90 L 332 94 L 338.5 95 L 341.5 93 L 340.5 95 L 334.5 96 L 331 93.5 L 330.5 90 Z " /><path fill="rgb(83,90,83)" stroke="rgb(83,90,83)" stroke-width="1" opacity="0.054901960784313725" d="M 354.5 90 Q 357.1 96.9 366.5 97 L 369.5 95 L 368.5 97 L 362.5 98 L 354.5 90 Z " /><path fill="rgb(83,90,83)" stroke="rgb(83,90,83)" stroke-width="1" opacity="0.054901960784313725" d="M 177.5 93 L 177 94.5 L 176 98 L 190 98.5 L 175 99 L 177.5 93 Z " /><path fill="rgb(83,90,83)" stroke="rgb(83,90,83)" stroke-width="1" opacity="0.054901960784313725" d="M 225 93 L 241.5 93 L 243 94.5 L 242 96.5 L 245.5 94 L 247 94.5 L 243 97.5 Q 242.2 103.3 245.5 105 L 253 109.5 L 251.5 113 Q 245.3 111.2 243.5 114 L 244.5 112 L 251.5 112 L 252 109.5 L 243 103.5 L 241.5 97 L 236 98 L 236 116.5 L 235.5 117 L 230 117 L 230 98.5 Q 230 97.5 225.5 98 L 225.5 97 L 231 97 L 231 115.5 L 235 116 L 235 98.5 L 236.5 97 Q 242.8 98.9 241 94 L 226.5 94 L 225.5 95 L 225 93 Z " /><path fill="rgb(83,90,83)" stroke="rgb(83,90,83)" stroke-width="1" opacity="0.054901960784313725" d="M 249.5 93 L 257.5 93 L 258 95.5 L 257 98 L 249.5 98 L 247.5 100 L 249.5 97 Q 255.5 98.5 257 95.5 L 256.5 94 L 249.5 94 L 249.5 93 Z " /><path fill="rgb(83,90,83)" stroke="rgb(83,90,83)" stroke-width="1" opacity="0.054901960784313725" d="M 260 93 L 270 93.5 L 261 94 L 261 115.5 L 265 116 L 265.5 109 L 266 117 L 260.5 117 L 260 116.5 L 260 93 Z " /><path fill="rgb(83,90,83)" stroke="rgb(83,90,83)" stroke-width="1" opacity="0.054901960784313725" d="M 278.5 93 Q 283.3 92.3 284 95.5 L 281.5 94 L 278 94.5 L 278 116 L 282 115.5 L 282 102.5 L 283 102.5 L 286.5 109 L 290 107.5 L 292.5 102 L 293 116 L 297 115.5 L 297 94 Q 293.2 93 292 95.5 L 288.5 103 L 288 101.5 L 293.5 93 Q 297.3 92.3 298 94.5 L 298 116.5 L 297.5 117 L 292 117 L 291.5 106 L 290 110 Q 285.3 111 284 107.5 L 283.5 106 L 283 117 L 277 117 L 277 105.5 L 276 105.5 L 273.5 109 L 270 108.5 L 275 107 Q 276.7 104.6 276 98.5 L 273.5 95 L 272 94.5 L 273.5 94 L 276.5 98 L 278.5 93 Z " /><path fill="rgb(83,90,83)" stroke="rgb(83,90,83)" stroke-width="1" opacity="0.054901960784313725" d="M 128.5 96 L 130 96.5 L 125 100.5 Q 125.7 103.5 122 102 L 122.5 97 L 123.5 101 L 126 97 L 128.5 96 Z " /><path fill="rgb(83,90,83)" stroke="rgb(83,90,83)" stroke-width="1" opacity="0.054901960784313725" d="M 133.5 96 L 137 98.5 L 136.5 100 L 134.5 97 L 133.5 96 Z " /><path fill="rgb(83,90,83)" stroke="rgb(83,90,83)" stroke-width="1" opacity="0.054901960784313725" d="M 265 97 Q 270.5 95.8 272 99.5 Q 273 104 270.5 105 L 269 104.5 L 271 104 Q 272.3 99.4 269.5 98 L 266 98 L 266 104.5 L 265 104.5 L 265 97 Z " /><path fill="rgb(83,90,83)" stroke="rgb(83,90,83)" stroke-width="1" opacity="0.054901960784313725" d="M 284.5 97 L 287 102.5 L 286 102.5 L 284.5 97 Z " /><path fill="rgb(83,90,83)" stroke="rgb(83,90,83)" stroke-width="1" opacity="0.054901960784313725" d="M 106.5 98 Q 106.7 109.3 114 113.5 L 111.5 112 Q 109.3 112.8 110 110.5 Q 104.5 106.6 106.5 98 Z " /><path fill="rgb(83,90,83)" stroke="rgb(83,90,83)" stroke-width="1" opacity="0.054901960784313725" d="M 143.5 99 L 144 106.5 L 142.5 109 L 142 107.5 L 143.5 99 Z " /><path fill="rgb(83,90,83)" stroke="rgb(83,90,83)" stroke-width="1" opacity="0.054901960784313725" d="M 191.5 99 Q 194 100 193 104.5 L 190.5 107 L 173.5 107 L 168 103.5 L 167 101.5 L 171.5 105 L 173.5 106 L 190.5 106 Q 193 105 192 100.5 L 191.5 99 Z " /><path fill="rgb(83,90,83)" stroke="rgb(83,90,83)" stroke-width="1" opacity="0.054901960784313725" d="M 21.5 101 L 32.5 115 L 34.5 116 L 50.5 116 L 49 113.5 L 46 109.5 L 50 112.5 L 52 117 L 34.5 117 L 29 112.5 L 21.5 101 Z " /><path fill="rgb(83,90,83)" stroke="rgb(83,90,83)" stroke-width="1" opacity="0.054901960784313725" d="M 248.5 101 Q 255 102.5 258 107.5 L 253.5 104 L 248.5 102 L 248.5 101 Z " /><path fill="rgb(83,90,83)" stroke="rgb(83,90,83)" stroke-width="1" opacity="0.054901960784313725" d="M 136.5 105 L 137 107.5 L 132.5 113 L 134 110.5 L 136.5 105 Z " /><path fill="rgb(83,90,83)" stroke="rgb(83,90,83)" stroke-width="1" opacity="0.054901960784313725" d="M 153.5 107 L 157.5 112 L 164 115.5 L 162.5 116 L 155 110.5 L 153.5 107 Z " /><path fill="rgb(83,90,83)" stroke="rgb(83,90,83)" stroke-width="1" opacity="0.054901960784313725" d="M 258.5 109 L 259 111.5 L 258 111.5 L 258.5 109 Z " /><path fill="rgb(83,90,83)" stroke="rgb(83,90,83)" stroke-width="1" opacity="0.054901960784313725" d="M 141.5 110 L 142 111.5 Q 137.1 120.1 125.5 122 L 125.5 121 Q 136.4 119.4 141 111.5 L 141.5 110 Z " /><path fill="rgb(83,90,83)" stroke="rgb(83,90,83)" stroke-width="1" opacity="0.054901960784313725" d="M 205.5 110 L 201.5 115 L 198.5 116 L 198.5 115 L 205.5 110 Z " /><path fill="rgb(83,90,83)" stroke="rgb(83,90,83)" stroke-width="1" opacity="0.054901960784313725" d="M 130.5 113 L 129.5 115 Q 125.7 117.7 117.5 116 L 117.5 115 Q 127 117 130.5 113 Z " /><path fill="rgb(83,90,83)" stroke="rgb(83,90,83)" stroke-width="1" opacity="0.054901960784313725" d="M 257.5 113 L 254.5 117 L 242.5 117 L 242 115.5 L 243.5 116 L 254.5 116 L 257.5 113 Z " /><path fill="rgb(83,90,83)" stroke="rgb(83,90,83)" stroke-width="1" opacity="0.054901960784313725" d="M 165.5 116 L 197 116.5 L 165.5 117 L 165.5 116 Z " /><path fill="rgb(83,90,83)" stroke="rgb(83,90,83)" stroke-width="1" opacity="0.054901960784313725" d="M 111.5 121 L 114 121.5 L 111.5 122 L 111.5 121 Z " /><path fill="rgb(0,0,0)" stroke="rgb(0,0,0)" stroke-width="1" opacity="0" d="M 0 0 L 332 0.5 L 329 5.5 L 328 16.5 L 332 33.5 L 331 33.5 L 330 29.5 L 322.5 20 L 315.5 17 L 310 21.5 L 310 27.5 L 313 33.5 L 322.5 44 L 334 53.5 L 331.5 52 L 324.5 48 L 302.5 41 L 297 38 Q 288.7 25.2 276.5 15 Q 272 10.5 263.5 10 L 259 13.5 L 258 18.5 L 263.5 26 L 275.5 33 L 298.5 41 L 305 47.5 L 321.5 65 L 330 69 Q 327.8 76.1 329 88.5 L 332.5 95 L 338.5 96 L 342 93.5 L 345 80.5 L 340 60.5 L 341 60.5 L 352 87.5 L 360.5 97 L 366.5 98 L 370 95.5 L 371 88.5 Q 366.5 76.5 356.5 70 L 341 57.5 L 337 48.5 L 337 45.5 L 343 25.5 L 344 7.5 L 340 0.5 L 374 0 L 374 122 L 129.5 122 L 129.5 121 Q 138.1 118.6 142 111.5 L 144 106.5 L 144 99.5 L 140 93.5 Q 147.8 90.4 146 79 Q 142.3 77.5 143 80.5 L 136.5 86 Q 128.7 86.7 125 91.5 Q 121.2 95.1 122 102 Q 125.7 103.5 125 100.5 Q 126.9 96.5 132.5 96 L 136 98.5 L 137 104.5 L 131.5 113 Q 126.8 116.8 116.5 115 L 109 108.5 Q 106.1 104.9 107 97.5 L 112.5 88 L 120.5 89 L 124 86.5 Q 125.5 82.1 122.5 83 L 121.5 82 L 113.5 82 L 112 80.5 L 111 75.5 L 115.5 68 L 123.5 67 L 128 70.5 L 130.5 74 L 132 73.5 L 132 64.5 Q 127.1 58.4 114.5 60 Q 107.5 61.5 104 66.5 L 101 76.5 L 106 84.5 L 99 89.5 Q 93 94.5 95 107.5 L 101.5 117 L 111 121.5 L 0 122 L 0 0 Z M 1 71 L 1 117 L 18 117 L 19 98 L 29 113 L 35 117 L 52 117 L 50 113 L 33 92 L 43 82 L 60 82 L 62 85 L 62 117 L 78 117 L 78 82 L 93 82 Q 98 78 99 71 L 39 71 L 34 73 L 19 88 L 18 73 L 17 71 L 1 71 Z M 169 71 L 159 75 Q 153 80 150 88 Q 148 104 155 111 L 166 117 L 197 117 L 202 115 L 208 107 Q 210 97 206 93 L 199 88 L 182 88 L 179 89 L 175 99 L 191 99 L 192 101 Q 193 105 191 106 L 174 106 L 172 105 L 167 101 L 166 97 L 167 88 L 175 82 L 203 82 L 208 74 L 208 71 L 169 71 Z M 225 93 L 225 98 L 230 99 L 230 117 L 236 117 L 236 99 Q 236 97 241 98 L 243 95 L 242 93 L 225 93 Z M 250 93 L 246 94 L 242 98 L 243 104 L 252 110 L 252 112 L 245 112 L 242 116 L 243 117 L 255 117 L 259 112 L 258 108 L 250 101 Q 247 102 248 100 L 250 98 L 257 98 L 258 96 L 258 93 L 250 93 Z M 260 93 L 260 117 L 266 117 L 266 109 L 274 109 L 276 106 L 277 106 L 277 117 L 283 117 L 284 106 L 284 108 Q 285 111 290 110 L 292 106 L 292 117 L 298 117 L 298 117 L 298 95 Q 297 92 294 93 Q 289 97 288 104 L 284 96 Q 283 92 279 93 L 277 98 L 276 97 Q 271 91 260 93 Z " /><path fill="rgb(0,0,0)" stroke="rgb(0,0,0)" stroke-width="1" opacity="0" d="M 266 98 Q 269.8 97 271 99.5 Q 272.9 104.9 269.5 104 L 266 105 L 266 98 Z " /><path fill="rgb(107,105,86)" stroke="rgb(107,105,86)" stroke-width="1" opacity="0.8823529411764706" d="M 334.5 0 Q 341 -1 342 3.5 L 344 14.5 L 343 15.5 L 342 26.5 L 336 47.5 L 340 56.5 L 339 59.5 Q 344 70 344 85.5 L 343 90.5 L 340.5 94 L 334.5 95 L 332 94 L 329 85.5 L 329 77.5 L 331 69.5 L 322.5 65 L 304 46.5 L 299 40.5 L 300.5 41 L 322.5 48 L 333.5 55 Q 337 53 332.5 51 L 315 35.5 Q 310.8 31.2 310 23.5 L 314.5 18 Q 322 18.5 325 23.5 L 333.5 40 L 334 37.5 L 329 19.5 L 329 7.5 L 332.5 1 L 334.5 0 Z " /><path fill="rgb(107,105,86)" stroke="rgb(107,105,86)" stroke-width="1" opacity="0.8823529411764706" d="M 263.5 11 Q 272 11.5 276.5 16 L 289 28.5 L 298 39.5 L 296.5 39 L 275.5 32 Q 266.8 28.8 261 22.5 Q 258.2 20.8 259 15.5 L 261.5 12 L 263.5 11 Z " /><path fill="rgb(107,105,86)" stroke="rgb(107,105,86)" stroke-width="1" opacity="0.8823529411764706" d="M 341.5 59 L 366 80.5 L 370 87.5 L 370 94.5 Q 368.3 97.8 362.5 97 L 354 89.5 L 349 80.5 L 341 60.5 L 341.5 59 Z " /><path fill="rgb(107,105,86)" stroke="rgb(107,105,86)" stroke-width="1" opacity="0.8823529411764706" d="M 114.5 61 Q 125.9 59.8 131 64 L 132 71.5 Q 130.5 74.5 129 71.5 L 125.5 67 L 117.5 66 L 112 70.5 L 111 79.5 L 113.5 83 Q 122 81 124 85.5 Q 122.3 89.8 114.5 88 L 112.5 87 Q 105.5 91.5 106 103.5 L 110 112 L 117.5 116 L 127.5 116 L 135 110.5 L 138 102.5 L 137 98.5 L 134.5 96 Q 128.4 95.3 126 97 L 123.5 101 L 123 96.5 L 126 91 L 139.5 85 L 144.5 80 L 145 86.5 L 140.5 92 Q 138.3 91.3 139 93.5 Q 144.8 96.2 143 106.5 Q 140.9 114.4 134.5 118 L 124.5 122 L 114.5 122 Q 105.6 119.9 100 114.5 Q 94 109.5 96 96.5 L 102.5 87 L 107 84.5 Q 101.2 81.8 102 72.5 L 107.5 64 L 114.5 61 Z " /><path fill="rgb(107,105,86)" stroke="rgb(107,105,86)" stroke-width="1" opacity="0.8823529411764706" d="M 2 72 L 17 72 L 17 89.5 L 33.5 74 L 37.5 72 L 97.5 72 L 97 73.5 L 92.5 81 L 89.5 82 L 77 82 L 77 116 L 63 116 L 63 84.5 L 62 82 L 41.5 82 L 32 91.5 L 51 115.5 L 34.5 116 L 30 112.5 L 18.5 97 L 17 97.5 L 17 116 L 2 116 L 2 72 Z " /><path fill="rgb(107,105,86)" stroke="rgb(107,105,86)" stroke-width="1" opacity="0.8823529411764706" d="M 167.5 72 L 206.5 72 L 207 73.5 L 203 81 L 177.5 81 L 170.5 83 L 167 86.5 Q 164.3 89.8 165 96.5 L 169.5 105 L 173.5 107 L 190.5 107 Q 194 106 193 100.5 L 189.5 98 L 176 98 Q 176.9 92.1 181.5 89 L 198.5 89 L 205 92 Q 208.6 96.5 207 107.5 L 201.5 114 L 197.5 116 L 164.5 116 L 156 110.5 Q 148.5 104 151 87.5 Q 153.1 80.1 158.5 76 L 167.5 72 Z " /><path fill="rgb(107,105,86)" stroke="rgb(107,105,86)" stroke-width="1" opacity="0.8823529411764706" d="M 226.5 94 L 240.5 94 L 241 97 Q 236.4 95.8 235 98.5 L 235 115.5 L 231 116 L 231 97.5 L 230.5 97 L 225 97 L 225 95.5 L 226.5 94 Z " /><path fill="rgb(107,105,86)" stroke="rgb(107,105,86)" stroke-width="1" opacity="0.8823529411764706" d="M 247.5 94 L 256.5 94 L 257 95.5 Q 255.5 98.5 249.5 97 L 247 99.5 L 248 102 Q 254.6 103.1 258 108.5 Q 259 115 254.5 116 L 243.5 116 L 243 114.5 L 244.5 113 Q 251.3 114.8 253 111.5 Q 253.5 107.5 250.5 107 L 244 103.5 L 243 97.5 L 247.5 94 Z " /><path fill="rgb(107,105,86)" stroke="rgb(107,105,86)" stroke-width="1" opacity="0.8823529411764706" d="M 261 94 L 271.5 94 L 275 96.5 L 276 104.5 L 275 107 Q 271.4 109.6 265 109 L 265 116 L 261 116 L 261 94 Z M 265 97 L 265 105 L 271 105 Q 273 104 272 100 Q 271 96 265 97 Z " /><path fill="rgb(107,105,86)" stroke="rgb(107,105,86)" stroke-width="1" opacity="0.8823529411764706" d="M 278 94 Q 282.7 93 284 96.5 L 287.5 105 L 293.5 94 L 297 94.5 L 297 116 L 293 115.5 L 293 102.5 L 292 102.5 L 288.5 109 L 285 107.5 L 282.5 102 L 282 116 L 278 115.5 L 278 94 Z " /></svg>