<?xml version="1.0" encoding="UTF-8"?>
<svg version="1.1" xmlns="http://www.w3.org/2000/svg" width="1280" height="280">
<path d="M0 0 C104.28 0 208.56 0 316 0 C314.34928601 3.30142797 313.45351102 4.79012651 310.96240234 7.23291016 C310.34771088 7.84099518 309.73301941 8.4490802 309.09970093 9.07559204 C308.435159 9.72353729 307.77061707 10.37148254 307.0859375 11.0390625 C306.39746735 11.71995941 305.70899719 12.40085632 304.99966431 13.10238647 C302.06245174 16.00706156 299.11374984 18.89996397 296.16552734 21.79345703 C284.4204546 33.30231002 284.4204546 33.30231002 274 46 C273.50016602 46.66209473 273.00033203 47.32418945 272.48535156 48.00634766 C271.11901847 49.82578711 269.77417358 51.6586946 268.4375 53.5 C267.96989258 54.14163086 267.50228516 54.78326172 267.02050781 55.44433594 C253.89987497 73.49086544 242.70069089 92.16657708 232.89794922 112.19384766 C232.08295413 113.83314447 231.23282624 115.45485724 230.37890625 117.07421875 C227.02225999 123.46492448 224.49203756 129.92122563 222.17700195 136.73999023 C220.8096161 140.76084619 219.32448461 144.6305436 217.5625 148.5 C211.27863832 163.15558709 208.07911499 179.70331877 204 195 C119.19 195 34.38 195 -53 195 C-50.75201738 181.51210428 -50.75201738 181.51210428 -48.7578125 174.953125 C-48.54816864 174.25338562 -48.33852478 173.55364624 -48.12252808 172.83270264 C-47.46355339 170.63632419 -46.79508671 168.44301106 -46.125 166.25 C-45.24774331 163.36082351 -44.37527464 160.47025742 -43.5078125 157.578125 C-43.29405975 156.86559067 -43.08030701 156.15305634 -42.8600769 155.41893005 C-41.21517263 149.87085041 -39.77308299 144.28685617 -38.39953613 138.66621399 C-36.94459984 132.71538552 -35.30899028 126.82681138 -33.625 120.9375 C-31.25266163 112.56604929 -28.97899429 104.17703069 -26.8125 95.75 C-25.08097724 89.02531385 -23.24027358 82.37851427 -21.12890625 75.76171875 C-19.11884665 69.0638385 -17.37595195 62.2914277 -15.57763672 55.53417969 C-13.80562387 48.90472176 -11.96547761 42.32925986 -9.82421875 35.80859375 C-8.68457226 31.92515382 -7.87796288 27.95083294 -7 24 C-3.535 12.12 -3.535 12.12 0 0 Z M171.25 47.1875 C168.72668432 52.86496028 168.33640313 58.71254929 170.0625 64.6875 C172.55424833 71.01184779 176.19977252 75.38647023 182.3125 78.4375 C189.11873786 81.08690803 195.45922385 80.8429327 202.15234375 77.96875 C207.36600986 75.23515762 210.90170634 71.69230775 213.30859375 66.375 C215.01519229 60.51278581 214.99351695 53.80333773 212.8125 48.0625 C209.17214925 41.91156253 203.8286277 37.27620923 197 35 C185.17309152 33.6625467 178.53663608 38.0792049 171.25 47.1875 Z " fill="#C4C4C4" transform="translate(570,0)"/>
<path d="M0 0 C1.45326187 -0.00262848 1.45326187 -0.00262848 2.93588257 -0.00531006 C6.12581194 -0.00969454 9.31568533 -0.00679908 12.50561523 -0.00341797 C14.74836742 -0.0040928 16.99111953 -0.00506432 19.23387146 -0.00631714 C23.93863622 -0.00779021 28.64338198 -0.00565513 33.34814453 -0.00097656 C39.31164123 0.00467107 45.27509242 0.00147106 51.23858738 -0.00454903 C55.87782619 -0.00820769 60.5170547 -0.00699121 65.15629387 -0.00442123 C67.35061588 -0.00376394 69.54493889 -0.00453738 71.73925972 -0.00690079 C83.02812568 -0.0163785 94.31182455 0.07902923 105.59521484 0.45019531 C107.0112253 0.48314099 107.0112253 0.48314099 108.45584202 0.51675224 C114.59449085 0.75751939 119.91528717 1.47202687 124.74389648 5.62939453 C129.3958906 11.7892764 129.60357736 16.61912389 129.00170898 24.12939453 C126.9601005 35.84588654 123.30171227 47.26857033 120.00244141 58.67529297 C117.80079608 66.28741371 115.70585168 73.91520756 113.72900391 81.58837891 C112.38713358 86.76212945 110.91438897 91.88567459 109.37670898 97.00439453 C107.59403747 102.9420934 106.08764188 108.88612437 104.74780273 114.94189453 C103.39206369 120.73395243 101.68889046 126.42672114 100.00170898 132.12939453 C99.72069336 133.08458984 99.43967773 134.03978516 99.15014648 135.02392578 C98.15480381 138.37692358 97.14826423 141.70854717 95.99780273 145.01220703 C94.99017104 148.1655015 94.31811329 151.25569869 93.68920898 154.50439453 C92.41862401 160.62394666 90.74694631 166.50939506 88.80322266 172.44726562 C87.32642055 176.97161313 86.12213521 181.50905555 85.00170898 186.12939453 C84.48861352 188.11058132 83.96877159 190.09004565 83.43920898 192.06689453 C83.19041992 193.00404297 82.94163086 193.94119141 82.68530273 194.90673828 C82.00170898 197.12939453 82.00170898 197.12939453 81.00170898 198.12939453 C78.53630474 198.19443259 76.10056526 198.19452224 73.63623047 198.15112305 C72.48021332 198.13671173 72.48021332 198.13671173 71.30084229 198.12200928 C68.74140617 198.08890319 66.18213464 198.04861547 63.62280273 198.00830078 C61.85303842 197.98401099 60.08326793 197.96016687 58.31349182 197.93675232 C53.64613846 197.87379778 48.97889375 197.80476357 44.31164551 197.73449707 C39.55278489 197.66391603 34.79384698 197.59903795 30.03491211 197.53369141 C20.69042614 197.40453261 11.34604497 197.26895611 2.00170898 197.12939453 C1.96603926 193.44824001 2.0286866 190.28787756 3.06030273 186.74658203 C3.28137695 185.97185547 3.50245117 185.19712891 3.73022461 184.39892578 C4.08117187 183.21363281 4.08117187 183.21363281 4.43920898 182.00439453 C4.89651989 180.41853765 5.35356053 178.8326028 5.81030273 177.24658203 C6.01453857 176.55161621 6.21877441 175.85665039 6.42919922 175.140625 C6.99624473 173.1485905 7.49937665 171.13872385 8.00170898 169.12939453 C2.72170898 169.12939453 -2.55829102 169.12939453 -7.99829102 169.12939453 C-11.23334228 176.89351756 -13.03882085 184.97376197 -14.99829102 193.12939453 C-15.33038498 194.46303709 -15.66340441 195.79645048 -15.99829102 197.12939453 C-25.6121474 197.15253327 -35.22599424 197.17031746 -44.83987236 197.1812067 C-49.30365861 197.18643217 -53.76742586 197.19352374 -58.23120117 197.20483398 C-62.53649203 197.21567477 -66.84176457 197.22167391 -71.14706802 197.22427177 C-72.79215915 197.22612386 -74.43724925 197.22974037 -76.08233261 197.23512459 C-78.38100119 197.24235081 -80.67959343 197.2433848 -82.97827148 197.24291992 C-84.94351273 197.24625084 -84.94351273 197.24625084 -86.94845581 197.24964905 C-89.99829102 197.12939453 -89.99829102 197.12939453 -91.99829102 196.12939453 C-90.59020194 189.53819664 -88.9315138 183.05859789 -87.12329102 176.56689453 C-85.31353235 170.02509782 -83.5724225 163.48165065 -81.99829102 156.87939453 C-80.59435764 151.13442868 -78.86337275 145.5936759 -76.93579102 140.00439453 C-74.72336549 133.58590679 -73.02437942 127.25512548 -71.71313477 120.58251953 C-70.18689852 113.20988105 -68.10183025 105.95880759 -66.01782227 98.72705078 C-65.08492757 95.43511204 -64.20708284 92.13538739 -63.34912109 88.82348633 C-61.26847602 80.79258524 -59.08841525 72.79419617 -56.81079102 64.81689453 C-56.56103516 63.9401709 -56.3112793 63.06344727 -56.05395508 62.16015625 C-55.0762786 58.7567602 -54.08489763 55.38189101 -52.93579102 52.03173828 C-51.99077688 49.10613201 -51.30295358 46.17044227 -50.65527344 43.16650391 C-47.85628863 30.27632739 -44.0815527 16.54392771 -32.68579102 8.56689453 C-29.99829102 7.12939453 -29.99829102 7.12939453 -27.99829102 7.12939453 C-27.99829102 6.46939453 -27.99829102 5.80939453 -27.99829102 5.12939453 C-26.50378247 4.47095327 -25.00228409 3.82837353 -23.49829102 3.19189453 C-22.24532227 2.65242187 -22.24532227 2.65242187 -20.96704102 2.10205078 C-14.16412938 -0.1267979 -7.08615702 -0.01596921 0 0 Z M30.00170898 22.12939453 C30.00170898 24.10939453 30.00170898 26.08939453 30.00170898 28.12939453 C29.34170898 28.12939453 28.68170898 28.12939453 28.00170898 28.12939453 C27.90696289 29.02851563 27.90696289 29.02851563 27.81030273 29.94580078 C26.63796841 38.62107478 24.09892844 46.72266584 21.39013672 55.0300293 C19.85055048 59.85060795 18.53196708 63.99702924 19.00170898 69.12939453 C18.34170898 69.12939453 17.68170898 69.12939453 17.00170898 69.12939453 C16.90374023 69.85642578 16.80577148 70.58345703 16.70483398 71.33251953 C15.71470128 77.99030844 14.18381798 84.04103275 11.80639648 90.34033203 C10.92644191 93.39027168 10.86197055 95.97130592 11.00170898 99.12939453 C10.34170898 99.12939453 9.68170898 99.12939453 9.00170898 99.12939453 C8.58211914 100.95083984 8.58211914 100.95083984 8.15405273 102.80908203 C5.44972166 114.41497826 2.49816689 125.93273876 -0.67431641 137.41992188 C-0.96169678 138.46744629 -1.24907715 139.5149707 -1.54516602 140.59423828 C-1.92946777 141.98050415 -1.92946777 141.98050415 -2.3215332 143.39477539 C-3.03825568 146.29088235 -3.54384372 149.18172357 -3.99829102 152.12939453 C-1.20656047 152.15629558 1.58491247 152.17618507 4.37670898 152.19189453 C5.17077148 152.20027344 5.96483398 152.20865234 6.78295898 152.21728516 C11.0256312 152.35979604 11.0256312 152.35979604 15.00170898 151.12939453 C15.73917889 148.31387176 16.36852898 145.54161272 16.93920898 142.69189453 C18.61843857 134.73682735 20.46245321 127.03354462 23.45092773 119.45361328 C25.16452923 114.91138481 26.20902018 110.30027759 27.25170898 105.56689453 C29.27625951 96.70365125 31.77266602 88.05660876 34.48071289 79.38061523 C36.19223465 73.86992735 37.77902038 68.36517975 39.12670898 62.75439453 C40.9684902 55.09353732 43.17211664 47.56910177 45.43676758 40.02563477 C46.75432061 35.60323443 48.02597406 31.17345814 49.12670898 26.69189453 C49.55983398 24.92845703 49.55983398 24.92845703 50.00170898 23.12939453 C47.70517199 21.98112603 46.41857731 22.01378278 43.86889648 22.03173828 C43.06323242 22.03496094 42.25756836 22.03818359 41.42749023 22.04150391 C40.58573242 22.04988281 39.74397461 22.05826172 38.87670898 22.06689453 C37.6024707 22.07366211 37.6024707 22.07366211 36.30249023 22.08056641 C34.2021999 22.09236579 32.10194568 22.11030147 30.00170898 22.12939453 Z " fill="#03438C" transform="translate(303.998291015625,-0.12939453125)"/>
<path d="M0 0 C0.97995438 -0.00281982 1.95990875 -0.00563965 2.96955872 -0.00854492 C4.05483353 -0.00652069 5.14010834 -0.00449646 6.25827026 -0.00241089 C7.39546005 -0.00416321 8.53264984 -0.00591553 9.70429993 -0.00772095 C13.50469448 -0.01215643 17.30504311 -0.00918825 21.10543823 -0.00582886 C23.76827044 -0.00650317 26.43110125 -0.0074734 29.09393311 -0.00872803 C34.71496066 -0.01055435 40.33597516 -0.00814136 45.95700073 -0.00338745 C51.64939235 0.001373 57.34175767 0.00149792 63.03414917 -0.00338745 C81.514062 -0.01861846 99.99297931 0.01017946 118.47262573 0.12698364 C119.56590683 0.13347427 120.65918793 0.1399649 121.78559875 0.14665222 C127.53588317 0.18385592 133.28498086 0.24283602 139.03451157 0.34405899 C140.66844446 0.37076058 142.30249362 0.39123617 143.93658829 0.40481186 C158.79815703 0.54152235 158.79815703 0.54152235 164.47262573 5.12698364 C167.90102982 9.92674936 168.75348793 15.32249831 168.47262573 21.12698364 C167.68303461 24.63985841 166.69585373 28.01760695 165.57809448 31.43948364 C164.73116068 34.26459145 164.09579922 36.91469179 163.55465698 39.79885864 C162.40865799 45.77365756 160.70884404 51.55084523 158.97262573 57.37698364 C158.66453979 58.42628052 158.35645386 59.47557739 158.03903198 60.55667114 C156.86376385 64.54148586 155.682596 68.51015058 154.34371948 72.44338989 C153.33910792 75.5383143 152.6787609 78.62539864 152.03512573 81.81448364 C150.4510026 89.37688049 148.62935645 96.78810325 146.10153198 104.09182739 C143.62982853 111.44663368 141.88402114 119.01035006 139.99020386 126.52932739 C139.54644409 128.27149536 139.54644409 128.27149536 139.09371948 130.04885864 C138.83002563 131.09654419 138.56633179 132.14422974 138.29464722 133.22366333 C137.52088824 135.95652396 136.5382013 138.49799294 135.47262573 141.12698364 C135.24575073 142.19948364 135.01887573 143.27198364 134.78512573 144.37698364 C133.02593647 149.40323869 130.16171496 153.29821843 126.47262573 157.12698364 C125.48262573 157.45698364 124.49262573 157.78698364 123.47262573 158.12698364 C123.47262573 158.78698364 123.47262573 159.44698364 123.47262573 160.12698364 C117.65337729 164.81778467 111.87655332 167.81860321 104.46871948 168.83792114 C102.40445905 169.03006353 102.40445905 169.03006353 100.47262573 170.12698364 C98.25659929 170.21893984 96.03772366 170.24448382 93.8197937 170.24050903 C92.79523071 170.24072807 92.79523071 170.24072807 91.74996948 170.24095154 C89.48821863 170.24025387 87.22654973 170.23246829 84.96481323 170.22463989 C83.39825485 170.2227752 81.83169589 170.22135154 80.26513672 170.22035217 C76.13872675 170.21653107 72.01235189 170.20670424 67.88595581 170.19564819 C63.67656937 170.18542534 59.46717726 170.18085268 55.25778198 170.17581177 C46.99604711 170.16508162 38.73434079 170.14801006 30.47262573 170.12698364 C30.4839856 171.2233313 30.49534546 172.31967896 30.50704956 173.44924927 C30.45812737 178.67594375 29.04729798 183.17801371 27.47262573 188.12698364 C27.13037964 189.22913208 27.13037964 189.22913208 26.78121948 190.35354614 C26.09762573 192.25198364 26.09762573 192.25198364 24.47262573 195.12698364 C19.70444303 196.7542206 14.32750609 196.27447705 9.34762573 196.25198364 C8.28044312 196.25005005 7.2132605 196.24811646 6.11373901 196.24612427 C-15.10180128 196.14370246 -36.31719147 195.58418361 -57.52737427 195.12698364 C-58.82638886 192.52895446 -58.30628642 191.71725213 -57.48831177 188.97073364 C-57.24008667 188.12244995 -56.99186157 187.27416626 -56.7361145 186.400177 C-56.46098022 185.48502319 -56.18584595 184.56986938 -55.90237427 183.62698364 C-55.3380586 181.70135283 -54.77426475 179.77556902 -54.21096802 177.84963989 C-53.92592407 176.88300415 -53.64088013 175.91636841 -53.34719849 174.92044067 C-52.18978887 170.97670011 -51.06811898 167.02368347 -49.96487427 163.06448364 C-49.76224976 162.33858032 -49.55962524 161.612677 -49.3508606 160.86477661 C-47.8283289 155.35113653 -46.44804814 149.80805154 -45.08987427 144.25198364 C-43.22663983 136.63622469 -41.0728346 129.14836536 -38.76687622 121.65603638 C-36.43330853 113.99743771 -34.49059777 106.26171162 -32.60549927 98.48245239 C-31.67613773 94.66713507 -30.63310699 90.89550129 -29.52737427 87.12698364 C-29.25796021 86.19112427 -28.98854614 85.25526489 -28.71096802 84.29104614 C-28.46475708 83.45315552 -28.21854614 82.61526489 -27.96487427 81.75198364 C-27.71608521 80.89862427 -27.46729614 80.04526489 -27.21096802 79.16604614 C-26.52737427 77.12698364 -26.52737427 77.12698364 -25.52737427 76.12698364 C-25.27158552 74.50596098 -25.04952777 72.87961621 -24.83987427 71.25198364 C-23.41966804 62.25734421 -20.36521405 53.75167192 -17.52737427 45.12698364 C-15.77349887 39.70003313 -14.3426765 34.34562345 -13.21487427 28.75198364 C-11.92368477 22.50317885 -10.23524168 16.42549072 -8.40237427 10.31448364 C-8.13642456 9.42390259 -7.87047485 8.53332153 -7.59646606 7.61575317 C-5.27627506 0.00232538 -5.27627506 0.00232538 0 0 Z M70.47262573 23.12698364 C70.16131714 24.40702271 70.16131714 24.40702271 69.84371948 25.71292114 C65.57108462 43.05374047 61.02865517 60.32178788 55.72262573 77.37698364 C53.52503385 84.44309593 51.64268496 91.3954787 50.21481323 98.65823364 C48.30839873 107.56821299 45.81890351 116.47134659 42.78512573 125.06448364 C41.30578532 129.26848492 40.59800048 133.54566947 39.90231323 137.93948364 C39.47262573 140.12698364 39.47262573 140.12698364 38.47262573 141.12698364 C38.4318179 143.12656728 38.43008217 145.12743618 38.47262573 147.12698364 C42.10195642 148.33676054 45.27934262 148.14912527 49.03512573 147.93948364 C49.72026245 147.92079224 50.40539917 147.90210083 51.11129761 147.88284302 C53.34635151 147.80195635 53.34635151 147.80195635 56.47262573 147.12698364 C58.68142139 144.26782038 59.0894697 140.8047769 59.91012573 137.31057739 C60.4661283 135.15220632 61.16001307 133.099955 61.91012573 131.00198364 C63.16793391 127.32818749 64.02022455 123.68349186 64.78512573 119.87698364 C66.23542123 112.80870136 68.18764613 105.93684059 70.21017456 99.01321411 C71.75604488 93.70038995 73.18764952 88.38342024 74.47262573 83.00198364 C76.13438829 76.18110889 78.18065667 69.53019558 80.3276062 62.84793091 C82.21270884 56.97936249 83.94814464 51.10062966 85.47262573 45.12698364 C85.63504761 44.5016272 85.79746948 43.87627075 85.96481323 43.23196411 C86.51410688 41.11489484 87.05685692 38.99624546 87.59762573 36.87698364 C87.76858765 36.21480835 87.93954956 35.55263306 88.11569214 34.87039185 C89.18297019 30.62841383 89.9228177 26.45812451 90.47262573 22.12698364 C87.88922189 22.09994802 85.30610265 22.08012753 82.72262573 22.06448364 C81.62821167 22.05191528 81.62821167 22.05191528 80.51168823 22.03909302 C76.98592016 22.0230668 73.86227657 22.17405651 70.47262573 23.12698364 Z " fill="#03438C" transform="translate(79.52737426757813,-0.126983642578125)"/>
<path d="M0 0 C1.30581024 -0.00315216 2.61162048 -0.00630432 3.95700073 -0.009552 C5.39727817 -0.00776037 6.8375553 -0.00570895 8.27783203 -0.00341797 C9.7522076 -0.00409169 11.22658306 -0.00506228 12.70095825 -0.00631714 C15.80309092 -0.00779551 18.90519488 -0.00563819 22.00732422 -0.00097656 C25.95552852 0.00467108 29.90366409 0.00147452 33.85186577 -0.00454903 C36.90449524 -0.00819367 39.95710893 -0.00699743 43.00973892 -0.00442123 C44.46317681 -0.0037601 45.9166162 -0.0045515 47.37005234 -0.00690079 C55.59911904 -0.0172663 63.72741409 0.18471466 71.91064453 1.12939453 C71.58064453 1.78939453 71.25064453 2.44939453 70.91064453 3.12939453 C70.67255019 5.46183723 70.52948588 7.79318821 70.38720703 10.13330078 C69.85659775 13.46918044 68.84394426 16.41408152 67.73974609 19.59741211 C66.22409733 24.22603204 65.12627815 28.96249606 63.97314453 33.69189453 C63.71009521 34.75545166 63.4470459 35.81900879 63.17602539 36.91479492 C62.06768201 41.39809993 60.96974218 45.88387067 59.87939453 50.37158203 C57.61368575 59.6102049 55.07122793 68.7547964 52.48388672 77.90795898 C50.46691056 85.06800675 48.57975887 92.24301422 46.81689453 99.46923828 C45.53622055 104.64161552 44.1408953 109.78070347 42.74267578 114.92236328 C42.03507455 117.64978399 41.42688751 120.3604549 40.91064453 123.12939453 C40.25064453 123.12939453 39.59064453 123.12939453 38.91064453 123.12939453 C38.96349609 124.25861328 39.01634766 125.38783203 39.07080078 126.55126953 C39.06324472 131.47781997 37.8126098 135.70904854 36.34814453 140.37939453 C33.44048236 150.0695576 30.92801782 159.82655294 28.53540039 169.65576172 C26.19095822 179.21867332 23.55083613 188.62470479 20.91064453 198.12939453 C-5.81935547 198.12939453 -32.54935547 198.12939453 -60.08935547 198.12939453 C-58.96443987 189.13006975 -58.96443987 189.13006975 -57.74951172 185.00048828 C-57.49105469 184.11039063 -57.23259766 183.22029297 -56.96630859 182.30322266 C-56.69753906 181.40023437 -56.42876953 180.49724609 -56.15185547 179.56689453 C-55.75450195 178.20661133 -55.75450195 178.20661133 -55.34912109 176.81884766 C-54.59972694 174.25454359 -53.84518984 171.69180638 -53.08935547 169.12939453 C-51.79453967 164.71232789 -50.64258973 160.31158162 -49.65185547 155.81689453 C-48.53972282 150.92463426 -47.26724953 146.13368168 -45.77685547 141.34423828 C-45.15665231 139.34619743 -44.58849289 137.33218175 -44.02685547 135.31689453 C-43.08935547 132.12939453 -43.08935547 132.12939453 -42.17138672 130.02392578 C-40.65905276 125.97829595 -39.7904381 121.83714453 -38.83935547 117.62939453 C-37.15379404 110.35891377 -35.31044919 103.16720486 -33.21435547 96.00439453 C-30.84883783 87.91684005 -28.67793673 79.79280618 -26.58935547 71.62939453 C-24.25003928 62.49158144 -21.78265374 53.40713857 -19.14794922 44.3503418 C-17.68010294 39.27946558 -16.32754328 34.19837999 -15.08935547 29.06689453 C-13.53816856 22.71815487 -11.77149162 16.45417644 -9.90185547 10.19189453 C-9.63953125 9.30816162 -9.37720703 8.42442871 -9.10693359 7.51391602 C-8.86007812 6.69737549 -8.61322266 5.88083496 -8.35888672 5.03955078 C-8.13821533 4.30873291 -7.91754395 3.57791504 -7.69018555 2.82495117 C-6.34051915 -0.98383921 -3.67746001 0.00253346 0 0 Z " fill="#03438C" transform="translate(458.08935546875,-0.12939453125)"/>
<path d="M0 0 C0.68451652 -0.00085442 1.36903304 -0.00170885 2.07429248 -0.00258917 C4.37286307 -0.00423908 6.67136103 0.00126942 8.96992493 0.00672913 C10.61566669 0.00701113 12.26140858 0.00685301 13.90715027 0.00628662 C18.37998144 0.00599916 22.85278592 0.01188766 27.32561088 0.01886058 C31.99812927 0.0251026 36.67064825 0.02569859 41.34317017 0.02688599 C50.1935264 0.02999679 59.04387032 0.03820682 67.89422113 0.04823548 C77.9690671 0.05940438 88.04391366 0.06490903 98.11876428 0.06993091 C118.84560661 0.08038962 139.57243785 0.09798424 160.29927063 0.12025452 C161.63003674 4.43793083 160.62413463 7.86381433 159.48677063 12.12025452 C159.2189679 13.18759827 159.2189679 13.18759827 158.945755 14.27650452 C156.93575005 22.05529626 156.93575005 22.05529626 155.29927063 24.12025452 C150.95887252 25.08933575 146.78738223 25.24390544 142.35166931 25.24050903 C141.33942561 25.24179067 141.33942561 25.24179067 140.30673254 25.2430982 C138.05893777 25.24473752 135.81121861 25.23925713 133.56343079 25.23377991 C131.94680279 25.23349768 130.33017467 25.23365647 128.71354675 25.23422241 C124.33386517 25.23450898 119.95421105 25.22863493 115.57453585 25.22164845 C110.99412456 25.21539155 106.41371263 25.21480927 101.83329773 25.21362305 C93.16366269 25.21051663 84.49404028 25.20231251 75.8244108 25.19227356 C65.95263533 25.18109104 56.08085925 25.17559658 46.20907903 25.17057812 C25.90580252 25.16012933 5.60253737 25.14254322 -14.70072937 25.12025452 C-15.59464153 21.90874187 -15.67216387 20.08644451 -14.73979187 16.86244202 C-14.515495 16.0722467 -14.29119812 15.28205139 -14.06010437 14.46791077 C-13.69658875 13.24394592 -13.69658875 13.24394592 -13.32572937 11.99525452 C-13.09112 11.17154358 -12.85651062 10.34783264 -12.61479187 9.49916077 C-10.88144245 3.48168067 -10.88144245 3.48168067 -9.70072937 1.12025452 C-6.26246182 -0.02583467 -3.6277364 -0.00272148 0 0 Z " fill="#C4C4C4" transform="translate(597.7007293701172,253.87974548339844)"/>
<path d="M0 0 C54.45 0 108.9 0 165 0 C165 5.55430712 165 5.55430712 163.1875 9.125 C160.45635492 14.87457898 160.45635492 14.87457898 158 25 C103.88 25 49.76 25 -6 25 C-5 17 -5 17 0 0 Z " fill="#04428C" transform="translate(382,254)"/>
<path d="M0 0 C1.85695197 0.00138269 1.85695197 0.00138269 3.75141811 0.00279331 C4.43830934 0.00193889 5.12520056 0.00108446 5.83290666 0.00020415 C8.15150846 -0.00145262 10.47003908 0.00407389 12.7886343 0.00952244 C14.44393315 0.00980429 16.09923213 0.00964661 17.75453091 0.00907993 C22.26260324 0.00879189 26.7706492 0.01468964 31.27871537 0.02165389 C35.98461128 0.02788638 40.69050773 0.02849114 45.39640713 0.0296793 C54.31412025 0.03279293 63.23182118 0.04100673 72.14952892 0.05102879 C82.29929688 0.06218895 92.44906541 0.06770013 102.59883797 0.07272422 C123.48364344 0.08318932 144.36843791 0.10078937 165.25323391 0.12304783 C163.98040868 8.48015032 161.77233751 15.93596111 159.25323391 24.12304783 C103.81323391 24.12304783 48.37323391 24.12304783 -8.74676609 24.12304783 C-8.74676609 15.11947782 -8.74676609 15.11947782 -7.68817234 12.09570408 C-7.46709812 11.44923923 -7.2460239 10.80277439 -7.01825047 10.1367197 C-6.78428562 9.49283298 -6.55032078 8.84894627 -6.30926609 8.18554783 C-6.07916843 7.5145908 -5.84907078 6.84363377 -5.61200047 6.1523447 C-3.52085403 0.15772491 -3.52085403 0.15772491 0 0 Z " fill="#C3C3C3" transform="translate(604.7467660903931,212.87695217132568)"/>
<path d="M0 0 C0.67226586 -0.00085442 1.34453172 -0.00170885 2.03716928 -0.00258917 C4.29428176 -0.00423889 6.55132025 0.00126911 8.8084259 0.00672913 C10.42461139 0.00701113 12.04079701 0.006853 13.65698242 0.00628662 C18.04923786 0.00599917 22.4414661 0.01188742 26.8337152 0.01886058 C31.42215192 0.02510286 36.01058923 0.02569861 40.59902954 0.02688599 C49.29001403 0.02999671 57.98098598 0.03820664 66.67196494 0.04823548 C76.56543586 0.05940462 86.45890737 0.06490909 96.35238302 0.06993091 C116.7059831 0.08038945 137.05957187 0.09798391 157.41316223 0.12025452 C156.80188786 5.37198138 155.98458406 10.06036756 154.35066223 15.12025452 C153.98843567 16.25462952 153.62620911 17.38900452 153.25300598 18.55775452 C152.97585754 19.40337952 152.69870911 20.24900452 152.41316223 21.12025452 C151.75316223 21.12025452 151.09316223 21.12025452 150.41316223 21.12025452 C150.08316223 22.11025452 149.75316223 23.10025452 149.41316223 24.12025452 C94.96316223 24.12025452 40.51316223 24.12025452 -15.58683777 24.12025452 C-13.29084431 11.49229049 -13.29084431 11.49229049 -11.64933777 6.49525452 C-11.33093933 5.49236389 -11.01254089 4.48947327 -10.68449402 3.45619202 C-10.32226746 2.68533264 -9.96004089 1.91447327 -9.58683777 1.12025452 C-6.17999878 -0.01535848 -3.59335185 -0.00274511 0 0 Z " fill="#04428B" transform="translate(402.5868377685547,212.87974548339844)"/>
<path d="M0 0 C2.43316947 -0.09284759 4.86279448 -0.16097384 7.296875 -0.21484375 C7.98507324 -0.24364624 8.67327148 -0.27244873 9.38232422 -0.30212402 C14.50207694 -0.38724688 14.50207694 -0.38724688 17.02978516 1.57861328 C18.58783256 3.95215729 19.74898282 6.44984958 21 9 C22.81415143 11.91513881 24.72524478 14.76514344 26.625 17.625 C29.27802279 21.68167817 31.88678312 25.74071276 34.2734375 29.9609375 C35.70450845 32.79301639 35.70450845 32.79301639 37 34 C37.33 22.78 37.66 11.56 38 0 C42.62 0 47.24 0 52 0 C52.66846993 4.01081959 53.12569936 7.19250503 53.12939453 11.14404297 C53.13254669 12.11880585 53.13569885 13.09356873 53.13894653 14.09786987 C53.1369223 15.13549469 53.13489807 16.17311951 53.1328125 17.2421875 C53.13376923 18.32452667 53.13472595 19.40686584 53.13571167 20.52200317 C53.1363907 22.8064988 53.13455573 25.09099638 53.13037109 27.37548828 C53.12502941 30.85583884 53.13032015 34.33605974 53.13671875 37.81640625 C53.13605772 40.04166695 53.13477603 42.26692757 53.1328125 44.4921875 C53.13483673 45.52576385 53.13686096 46.55934021 53.13894653 47.62423706 C53.12110463 53.17728853 52.82329065 58.50676279 52 64 C50.083412 64.02712153 48.1667127 64.04645097 46.25 64.0625 C44.64898438 64.07990234 44.64898438 64.07990234 43.015625 64.09765625 C38.03068953 63.93622699 38.03068953 63.93622699 36 63 C34.3671875 60.6015625 34.3671875 60.6015625 32.875 57.625 C31.34442015 54.61935357 29.87343144 51.81014716 28 49 C28 48.01 28 47.02 28 46 C27.34 46 26.68 46 26 46 C24.85498047 44.53125 24.85498047 44.53125 23.6171875 42.5 C23.21612793 41.8503125 22.81506836 41.200625 22.40185547 40.53125 C21.89799316 39.6959375 21.39413086 38.860625 20.875 38 C19.26625 35.36 17.6575 32.72 16 30 C15.67 40.89 15.34 51.78 15 63 C11.59112017 63.85221996 9.19565369 64.10783755 5.75 64.0625 C4.41195312 64.04896484 4.41195312 64.04896484 3.046875 64.03515625 C2.37140625 64.02355469 1.6959375 64.01195312 1 64 C-0.07619365 60.77141906 -0.12052496 58.45460721 -0.11352539 55.05981445 C-0.11344986 53.83877518 -0.11337433 52.6177359 -0.11329651 51.35969543 C-0.10813522 50.04087875 -0.10297394 48.72206207 -0.09765625 47.36328125 C-0.0957908 45.99993441 -0.0943675 44.63658689 -0.09336853 43.27323914 C-0.08955332 39.68771509 -0.07973155 36.10223165 -0.06866455 32.51672363 C-0.05842901 28.8568578 -0.05386632 25.1969854 -0.04882812 21.53710938 C-0.03810838 14.35805442 -0.02104393 7.1790329 0 0 Z " fill="#03428C" transform="translate(830,213)"/>
<path d="M0 0 C1.94115597 -0.04896508 3.88266451 -0.08410548 5.82421875 -0.11328125 C6.90533936 -0.13430908 7.98645996 -0.15533691 9.1003418 -0.17700195 C12 0 12 0 14.8125 1.8125 C18.00776739 6.46846105 21.04823487 11.18574445 24 16 C25.33332969 18.14731955 26.67041554 20.29225246 28.0090332 22.4362793 C28.91197013 23.88307636 29.81288634 25.33113671 30.71166992 26.78051758 C32.62471353 30.0653091 32.62471353 30.0653091 35 33 C35.33 22.44 35.66 11.88 36 1 C46 0 46 0 50 0 C50 21.33333333 50 42.66666667 50 64 C45.14879457 64.735857 40.82252592 65.02154581 36 64 C32.31086544 60.51830918 30.2411068 56.5103682 28 52 C27.1745208 50.62027048 26.3429761 49.24410947 25.5 47.875 C24 45 24 45 24 43 C23.34 43 22.68 43 22 43 C22 42.01 22 41.02 22 40 C21.34 40 20.68 40 20 40 C19.505 37.525 19.505 37.525 19 35 C18.34 35 17.68 35 17 35 C16.34 34.01 15.68 33.02 15 32 C14.67 42.23 14.34 52.46 14 63 C10.59112017 63.85221996 8.19565369 64.10783755 4.75 64.0625 C3.41195313 64.04896484 3.41195313 64.04896484 2.046875 64.03515625 C1.37140625 64.02355469 0.6959375 64.01195312 0 64 C-1.36924103 61.26151794 -1.07755148 59.14560373 -1.02172852 56.08154297 C-1.00163223 54.84040741 -0.98153595 53.59927185 -0.96083069 52.32052612 C-0.93363235 50.96107771 -0.90632154 49.60163155 -0.87890625 48.2421875 C-0.85460726 46.85499844 -0.83076359 45.46780134 -0.80735779 44.08059692 C-0.7444948 40.4275802 -0.67543452 36.77470571 -0.60510254 33.12182617 C-0.53443903 29.39508548 -0.46961021 25.66824386 -0.40429688 21.94140625 C-0.27525602 14.62749255 -0.13967089 7.31371924 0 0 Z " fill="#03428C" transform="translate(1023,213)"/>
<path d="M0 0 C6.47627649 5.2899679 10.71512487 11.07163414 11.71484375 19.45703125 C12.71964924 40.69815193 12.71964924 40.69815193 5.3515625 49.671875 C-2.06065015 57.75631696 -9.08603408 59.90983012 -19.84765625 60.45703125 C-28.43241304 60.45703125 -36.13148456 57.88381039 -42.78515625 52.39453125 C-44.28515625 50.45703125 -44.28515625 50.45703125 -44.28515625 47.45703125 C-44.94515625 47.45703125 -45.60515625 47.45703125 -46.28515625 47.45703125 C-51.54716655 37.61935982 -51.90747752 25.10511725 -49.6015625 14.234375 C-46.30060088 5.3724573 -41.11202279 0.38181894 -32.65234375 -3.59765625 C-21.95957739 -7.86770486 -9.5046916 -6.41769775 0 0 Z M-31.16015625 13.08203125 C-35.61286922 20.15398714 -35.95270947 27.36733093 -34.28515625 35.45703125 C-32.22912733 41.00830933 -29.22366589 43.56121858 -24.34765625 46.70703125 C-21.43269661 47.76701657 -19.3728018 47.82754872 -16.28515625 47.45703125 C-11.07228296 44.69101685 -6.94651787 40.77975449 -4.28515625 35.45703125 C-3.27838507 23.21981401 -3.27838507 23.21981401 -8.28515625 12.45703125 C-16.06930802 5.85742431 -23.81725923 6.37764702 -31.16015625 13.08203125 Z " fill="#03418C" transform="translate(1003.28515625,217.54296875)"/>
<path d="M0 0 C37.75 0 37.75 0 44 5 C44 5.66 44 6.32 44 7 C44.66 7 45.32 7 46 7 C46 7.66 46 8.32 46 9 C46.66 9 47.32 9 48 9 C53.58975004 16.73581479 54.58023899 23.4751395 54.5625 32.8125 C54.56443359 33.80258057 54.56636719 34.79266113 54.56835938 35.81274414 C54.43939265 41.60403391 53.68989245 45.85692563 51 51 C50.34 51 49.68 51 49 51 C48.835 51.70125 48.67 52.4025 48.5 53.125 C45.93054192 58.04979465 41.44245187 61.01425609 36.34619141 63.07104492 C32.56181609 64.12164671 29.08507113 64.25368416 25.1953125 64.1953125 C24.55263428 64.19329834 23.90995605 64.19128418 23.24780273 64.18920898 C20.87346135 64.17883578 18.49922263 64.15091395 16.125 64.125 C10.80375 64.08375 5.4825 64.0425 0 64 C0 42.88 0 21.76 0 0 Z M15 13 C15 25.54 15 38.08 15 51 C25.73060714 51.80288205 25.73060714 51.80288205 34 48 C37.91933217 43.67521967 38.25171971 39.43212227 38.6875 33.75 C38.79449219 32.46609375 38.90148437 31.1821875 39.01171875 29.859375 C38.99912663 25.71237099 38.31562744 22.89143443 37 19 C36.34 19 35.68 19 35 19 C34.67 18.01 34.34 17.02 34 16 C33.34 16 32.68 16 32 16 C32 15.34 32 14.68 32 14 C26.09247176 12.7226966 21.39645624 13 15 13 Z " fill="#03428C" transform="translate(893,213)"/>
<path d="M0 0 C4.12242944 3.43535787 7.18314387 6.94438681 8.625 12.1875 C8.11217949 16.70032051 8.11217949 16.70032051 6.625 18.1875 C2.24335244 18.67027567 -2.00329007 18.79068529 -6.375 18.1875 C-8.5625 15.3125 -8.5625 15.3125 -10.375 12.1875 C-14.43802416 10.57332741 -18.55500946 9.42507153 -22.6875 11.15625 C-23.244375 11.4965625 -23.80125 11.836875 -24.375 12.1875 C-24.375 13.8375 -24.375 15.4875 -24.375 17.1875 C-23.08916016 17.47753906 -23.08916016 17.47753906 -21.77734375 17.7734375 C-18.30643816 18.56388049 -14.84035016 19.37308163 -11.375 20.1875 C-10.1375 20.47625 -8.9 20.765 -7.625 21.0625 C-1.35998339 23.23115959 5.10343043 26.07539609 8.82421875 31.81640625 C10.66933358 37.27974626 10.10485804 43.51832004 9.625 49.1875 C9.13 50.1775 9.13 50.1775 8.625 51.1875 C7.965 51.1875 7.305 51.1875 6.625 51.1875 C6.41875 51.93 6.2125 52.6725 6 53.4375 C3.88913472 57.65923056 0.98314608 59.35363086 -3.4296875 60.9140625 C-8.82489412 62.27648841 -14.0960515 62.28069266 -19.625 62 C-20.29837402 61.97010986 -20.97174805 61.94021973 -21.66552734 61.90942383 C-28.99543502 61.39025979 -33.8627884 58.39671275 -38.828125 53.22265625 C-42.28104566 48.67979851 -43.375 43.80349981 -43.375 38.1875 C-41.45916353 37.9916991 -39.54227461 37.80617786 -37.625 37.625 C-36.02398438 37.46837891 -36.02398438 37.46837891 -34.390625 37.30859375 C-31.70400944 37.20071152 -29.84619632 37.16493601 -27.375 38.1875 C-26.35734073 40.17857248 -25.35922146 42.17968823 -24.375 44.1875 C-21.50138661 47.22075858 -20.04862523 48.10329685 -15.875 48.625 C-12.14818953 48.15914869 -10.22660812 47.61975399 -7.375 45.1875 C-6.30953102 42.69797485 -6.30953102 42.69797485 -6.375 40.1875 C-8.59298494 37.96951506 -9.69407833 37.65512728 -12.6640625 36.85546875 C-13.52386719 36.61376953 -14.38367187 36.37207031 -15.26953125 36.12304688 C-17.06506296 35.63113797 -18.86191448 35.14401705 -20.66015625 34.66210938 C-27.77678148 32.64767088 -33.66201338 29.96831128 -38.875 24.625 C-41.11892156 19.48267977 -41.12606183 14.71045971 -40.375 9.1875 C-37.67854809 3.59485901 -33.18658944 -0.52308598 -27.375 -2.8125 C-18.2846964 -4.87847809 -8.29491377 -4.45467592 0 0 Z " fill="#03418C" transform="translate(1181.375,215.8125)"/>
<path d="M0 0 C7.899375 -0.020625 15.79875 -0.04125 23.9375 -0.0625 C26.4343335 -0.071604 28.93116699 -0.08070801 31.50366211 -0.09008789 C33.46988877 -0.0930069 35.43611604 -0.09555549 37.40234375 -0.09765625 C38.94927917 -0.1053302 38.94927917 -0.1053302 40.52746582 -0.11315918 C41.50187622 -0.11328003 42.47628662 -0.11340088 43.48022461 -0.11352539 C44.33071884 -0.115746 45.18121307 -0.11796661 46.05747986 -0.12025452 C48 0 48 0 49 1 C49.09851171 2.83115883 49.12972629 4.66619933 49.125 6.5 C49.12886719 8.00046875 49.12886719 8.00046875 49.1328125 9.53125 C49 12 49 12 48 13 C45.55169574 13.08843793 43.13179401 13.11528752 40.68359375 13.09765625 C39.95253922 13.0962413 39.22148468 13.09482635 38.46827698 13.09336853 C36.12464368 13.08775408 33.78110461 13.07519922 31.4375 13.0625 C29.85221492 13.05748686 28.26692834 13.05292363 26.68164062 13.04882812 C22.7877239 13.03777997 18.89387795 13.02050572 15 13 C15 16.63 15 20.26 15 24 C15.89831543 23.98952637 16.79663086 23.97905273 17.72216797 23.96826172 C21.05064447 23.9342053 24.37893622 23.90911382 27.70751953 23.89013672 C29.14895547 23.88007037 30.59037095 23.8664162 32.03173828 23.84912109 C34.10193934 23.82489988 36.17187076 23.81352359 38.2421875 23.8046875 C40.11173096 23.78897705 40.11173096 23.78897705 42.01904297 23.77294922 C45 24 45 24 47 26 C47 29.63 47 33.26 47 37 C36.44 37 25.88 37 15 37 C15 41.62 15 46.24 15 51 C26.55 51 38.1 51 50 51 C50 55.29 50 59.58 50 64 C33.5 64 17 64 0 64 C0 42.88 0 21.76 0 0 Z " fill="#03428C" transform="translate(1084,213)"/>
<path d="M0 0 C1.06605469 0.00257813 2.13210938 0.00515625 3.23046875 0.0078125 C4.81794922 0.00394531 4.81794922 0.00394531 6.4375 0 C11.00046585 0.20333006 11.00046585 0.20333006 13.41796875 1.1328125 C14.60644531 2.92700195 14.60644531 2.92700195 15.55859375 5.24609375 C16.08066406 6.5000293 16.08066406 6.5000293 16.61328125 7.77929688 C16.96132812 8.65908203 17.309375 9.53886719 17.66796875 10.4453125 C18.03148437 11.31349609 18.395 12.18167969 18.76953125 13.07617188 C20.4105823 17.09551308 21.41796875 19.71564458 21.41796875 24.1328125 C22.07796875 24.1328125 22.73796875 24.1328125 23.41796875 24.1328125 C23.79308594 25.16019531 24.16820312 26.18757813 24.5546875 27.24609375 C27.24538314 34.55357761 30.01048881 41.75364663 33.33984375 48.80078125 C35.9152365 54.37146773 36.62487982 58.02893588 36.41796875 64.1328125 C31.46796875 64.1328125 26.51796875 64.1328125 21.41796875 64.1328125 C16.41796875 52.3828125 16.41796875 52.3828125 16.41796875 50.1328125 C8.82796875 50.1328125 1.23796875 50.1328125 -6.58203125 50.1328125 C-7.24203125 53.1028125 -7.90203125 56.0728125 -8.58203125 59.1328125 C-9.57203125 61.6078125 -9.57203125 61.6078125 -10.58203125 64.1328125 C-15.86203125 64.1328125 -21.14203125 64.1328125 -26.58203125 64.1328125 C-25.45682257 56.25635173 -25.45682257 56.25635173 -23.70703125 52.1328125 C-23.34867188 51.27558594 -22.9903125 50.41835938 -22.62109375 49.53515625 C-21.77844785 47.58693358 -20.93097153 45.64080064 -20.08203125 43.6953125 C-18.86069565 40.79464044 -17.76472563 37.90685675 -16.70703125 34.9453125 C-15.31330817 31.05978149 -13.81809264 27.24576502 -12.20703125 23.4453125 C-9.81181529 17.79200775 -7.65328842 12.06661218 -5.54931641 6.30004883 C-3.29306415 0.16938605 -3.29306415 0.16938605 0 0 Z M4.41796875 21.1328125 C3.57848055 23.23453117 2.74657219 25.33927875 1.91796875 27.4453125 C1.45390625 28.61707031 0.98984375 29.78882813 0.51171875 30.99609375 C-0.74665638 34.05127698 -0.74665638 34.05127698 -0.58203125 37.1328125 C3.37796875 37.1328125 7.33796875 37.1328125 11.41796875 37.1328125 C9.64993702 31.66033333 7.76361877 26.38260065 5.41796875 21.1328125 C5.08796875 21.1328125 4.75796875 21.1328125 4.41796875 21.1328125 Z " fill="#03418C" transform="translate(1243.58203125,212.8671875)"/>
<path d="M0 0 C10.23123317 -0.02316351 20.4624601 -0.04093558 30.69371414 -0.05181217 C35.44441911 -0.0570322 40.19510614 -0.06411394 44.94580078 -0.07543945 C49.52990648 -0.08629951 54.11399492 -0.09228347 58.69811249 -0.09487724 C60.44761171 -0.09672585 62.19710998 -0.10033568 63.94660187 -0.10573006 C66.39573716 -0.11298183 68.84480102 -0.11398919 71.29394531 -0.11352539 C72.38043617 -0.1189183 72.38043617 -0.1189183 73.48887634 -0.12442017 C76.80438355 -0.11761982 79.8300046 -0.02906662 83 1 C82.27826386 6.08459053 81.00027452 10.89556266 79.5625 15.8125 C79.34529297 16.58787109 79.12808594 17.36324219 78.90429688 18.16210938 C78.33176581 20.12728359 77.67235975 22.06670389 77 24 C73.94981022 25.52509489 70.77450387 25.12975944 67.42919922 25.11352539 C66.25833267 25.11374443 66.25833267 25.11374443 65.06381226 25.1139679 C62.47740931 25.11326986 59.89107791 25.10548257 57.3046875 25.09765625 C55.51392659 25.09579168 53.72316517 25.09436796 51.93240356 25.09336853 C47.21415809 25.08954641 42.4959433 25.07971871 37.77770996 25.06866455 C32.96509211 25.05844389 28.15246932 25.0538695 23.33984375 25.04882812 C13.89321567 25.03809619 4.44661038 25.0210234 -5 25 C-5.80270148 16.00974338 -2.88128955 8.38661065 0 0 Z " fill="#03428C" transform="translate(5,254)"/>
<path d="M0 0 C0.74132172 0.00202423 1.48264343 0.00404846 2.24642944 0.00613403 C3.02364853 0.00438171 3.80086761 0.00262939 4.60163879 0.00082397 C7.18386027 -0.00359546 9.76601385 -0.00065595 12.34823608 0.00271606 C14.13563551 0.00204298 15.92303485 0.00107292 17.71043396 -0.00018311 C21.46235015 -0.00166026 25.21424257 0.00049478 28.96615601 0.00515747 C33.7828991 0.01085066 38.59958643 0.00757846 43.41632748 0.00158501 C47.10939455 -0.00202364 50.80244835 -0.00088054 54.49551582 0.0017128 C56.27178517 0.00238144 58.0480557 0.00155583 59.82432365 -0.00076675 C62.30490194 -0.00329779 64.78538921 0.00055391 67.26596069 0.00613403 C68.00525818 0.0041098 68.74455566 0.00208557 69.5062561 0 C74.59236533 0.02126506 74.59236533 0.02126506 76.82089233 1.13552856 C77.06540474 5.29223952 76.196238 8.2266514 74.82089233 12.13552856 C74.026775 15.03243618 73.26158453 17.93577254 72.50448608 20.84255981 C71.82089233 23.13552856 71.82089233 23.13552856 70.82089233 24.13552856 C68.49169247 24.39204749 66.19807461 24.56771672 63.85995483 24.69412231 C63.0829422 24.73637436 62.30592957 24.7786264 61.50537109 24.82215881 C48.17058761 25.44482414 34.79953317 25.24458412 21.45339966 25.20419312 C17.65142378 25.1938111 13.84944091 25.18936419 10.04745483 25.18435669 C2.63858202 25.17375465 -4.7702569 25.15677489 -12.17910767 25.13552856 C-11.86877585 23.55199456 -11.55665916 21.96881029 -11.24380493 20.38577271 C-11.07018936 19.50409927 -10.89657379 18.62242584 -10.71769714 17.71403503 C-10.00000108 14.27805266 -9.09036124 10.94599245 -8.11660767 7.57302856 C-7.60420532 5.77671997 -7.60420532 5.77671997 -7.08145142 3.94412231 C-5.63940787 -0.54431627 -4.51218146 0.01894467 0 0 Z " fill="#04428C" transform="translate(22.179107666015625,211.86447143554688)"/>
<path d="M0 0 C1.13072182 0.00539291 1.13072182 0.00539291 2.2842865 0.01089478 C3.46956436 0.01067574 3.46956436 0.01067574 4.67878723 0.01045227 C7.30309245 0.0111516 9.92732759 0.01894489 12.55162048 0.02676392 C14.36623089 0.02862803 16.18084179 0.03005196 17.99545288 0.03105164 C22.78111653 0.03487737 27.56675003 0.04470813 32.35240173 0.05575562 C37.23195488 0.06596854 42.11151287 0.070549 46.99107361 0.07559204 C56.57246709 0.08633035 66.15383816 0.10340744 75.73521423 0.12442017 C75.11234583 2.81242994 74.48698216 5.49981936 73.86021423 8.18692017 C73.59917908 9.31517212 73.59917908 9.31517212 73.33287048 10.46621704 C72.2585666 15.06185034 71.06987367 19.59739966 69.73521423 24.12442017 C61.19868076 25.3427205 52.70655471 25.25170934 44.10630798 25.22207642 C42.50491378 25.22020819 40.903519 25.2187862 39.30212402 25.2177887 C35.11498906 25.21399535 30.92788953 25.20419273 26.74076843 25.19308472 C22.45702087 25.18280169 18.1732675 25.17827639 13.88951111 25.17324829 C5.50472934 25.1625672 -2.88002379 25.14552962 -11.26478577 25.12442017 C-10.71909175 20.34373887 -10.15535952 16.5676363 -8.26478577 12.12442017 C-7.86600678 10.2165364 -7.51174853 8.29881044 -7.20228577 6.37442017 C-6.24755452 0.47244521 -6.11902042 0.01231709 0 0 Z " fill="#03428C" transform="translate(294.26478576660156,253.87557983398438)"/>
<path d="M0 0 C0.68344986 0.00960754 1.36689972 0.01921509 2.07106018 0.02911377 C4.32563804 0.06203297 6.58001763 0.10241397 8.83447266 0.14282227 C10.40621221 0.16714603 11.97795929 0.19098844 13.54971313 0.21437073 C17.6870143 0.2771515 21.82418765 0.3461949 25.96136475 0.41662598 C30.1585951 0.48710318 34.35590844 0.55217318 38.55322266 0.61743164 C43.27594235 0.69093244 47.9986468 0.76490406 52.72128296 0.84361267 C53.80301537 0.86144554 53.80301537 0.86144554 54.90660095 0.87963867 C56.84890306 0.91175766 58.79119687 0.94437724 60.73348999 0.97703552 C63.86402369 1.01830722 66.99278093 1.02997709 70.12353516 1.02172852 C69.14864563 6.85032336 68.14903252 12.45161077 66.12353516 18.02172852 C65.13353516 21.48672852 65.13353516 21.48672852 64.12353516 25.02172852 C37.72353516 25.02172852 11.32353516 25.02172852 -15.87646484 25.02172852 C-17.26181407 22.25103006 -16.49380211 20.96900777 -15.66162109 18.01391602 C-15.38769531 17.0277832 -15.11376953 16.04165039 -14.83154297 15.02563477 C-14.53699219 13.9930957 -14.24244141 12.96055664 -13.93896484 11.89672852 C-13.64828125 10.85645508 -13.35759766 9.81618164 -13.05810547 8.74438477 C-12.3372742 6.16829925 -11.60980803 3.59427492 -10.87646484 1.02172852 C-7.21694277 -0.14039538 -3.82072067 -0.06186285 0 0 Z " fill="#03428C" transform="translate(310.87646484375,211.978271484375)"/>
<path d="M0 0 C25.08 0 50.16 0 76 0 C74.80968209 5.95158955 73.73659837 11.30855572 71.9375 17 C71.42509766 18.6396875 71.42509766 18.6396875 70.90234375 20.3125 C70 23 70 23 69 25 C60.40245404 25.0232369 51.80492135 25.04097272 43.20735168 25.05181217 C39.21455775 25.05701626 35.22178541 25.06406868 31.22900391 25.07543945 C27.37107126 25.08635663 23.51315931 25.09229545 19.6552124 25.09487724 C18.18812739 25.09671564 16.72104342 25.10030541 15.25396729 25.10573006 C8.10458473 25.13109858 1.07489399 25.15126372 -6 24 C-5 17 -5 17 0 0 Z " fill="#03428C" transform="translate(196,254)"/>
<path d="M0 0 C0.72830017 0.00088623 1.45660034 0.00177246 2.20697021 0.00268555 C17.17299694 0.02387407 32.11063442 0.47835847 47.0625 1.125 C48.20434472 4.4997102 47.90658845 6.51933064 46.84765625 9.890625 C46.57373047 10.78007812 46.29980469 11.66953125 46.01757812 12.5859375 C45.72302734 13.50632813 45.42847656 14.42671875 45.125 15.375 C44.68897461 16.77878906 44.68897461 16.77878906 44.24414062 18.2109375 C43.52593503 20.5186145 42.79846262 22.82293682 42.0625 25.125 C32.87433669 25.14816953 23.68618343 25.16593864 14.49799728 25.17681217 C10.23156452 25.18203089 5.96515173 25.18911023 1.69873047 25.20043945 C-2.41853787 25.2113042 -6.53578698 25.21728446 -10.65306854 25.21987724 C-12.22393852 25.22172501 -13.79480745 25.22533321 -15.36566925 25.23073006 C-17.56574275 25.23798806 -19.76573677 25.23898893 -21.96582031 25.23852539 C-23.8444577 25.24185631 -23.8444577 25.24185631 -25.76104736 25.24525452 C-28.36604885 25.14663406 -30.46875168 24.90290761 -32.9375 24.125 C-33.28266053 18.72323772 -32.03189069 14.33481356 -30.4375 9.25 C-30.19902344 8.46625 -29.96054688 7.6825 -29.71484375 6.875 C-29.12980107 4.95606 -28.53466749 3.04020146 -27.9375 1.125 C-18.61885474 0.15754457 -9.35849571 -0.0328936 0 0 Z " fill="#03428B" transform="translate(234.9375,211.875)"/>
<path d="M0 0 C5.28 0 10.56 0 16 0 C16 21.12 16 42.24 16 64 C11.05 64 6.1 64 1 64 C-0.29934462 42.67682664 -0.09969901 21.35245996 0 0 Z " fill="#03428B" transform="translate(806,213)"/>
<path d="M0 0 C0.98226563 -0.00257813 1.96453125 -0.00515625 2.9765625 -0.0078125 C5.375 0.125 5.375 0.125 6.375 1.125 C6.47420863 3.05261817 6.50299365 4.98389354 6.50439453 6.9140625 C6.50754669 8.1520459 6.51069885 9.3900293 6.51394653 10.66552734 C6.51215675 12.02701859 6.5101058 13.38850951 6.5078125 14.75 C6.50848559 16.13623064 6.50945566 17.52246117 6.51071167 18.90869141 C6.5121884 21.81739422 6.5100349 24.72606637 6.50537109 27.63476562 C6.49967381 31.37096598 6.50295294 35.10709452 6.50894356 38.84329224 C6.51254985 41.70679266 6.51141027 44.57027593 6.50881577 47.43377686 C6.50814668 48.81174732 6.50897426 50.18971932 6.51129532 51.56768799 C6.51382292 53.49043754 6.50929024 55.41319252 6.50439453 57.3359375 C6.50359894 58.43212402 6.50280334 59.52831055 6.50198364 60.65771484 C6.375 63.125 6.375 63.125 5.375 64.125 C0.755 64.125 -3.865 64.125 -8.625 64.125 C-8.625 43.335 -8.625 22.545 -8.625 1.125 C-5.50870851 0.08623617 -3.2655571 -0.00861625 0 0 Z " fill="#03438C" transform="translate(1207.625,212.875)"/>
</svg>
