<?xml version="1.0" encoding="UTF-8"?>
<svg version="1.1" xmlns="http://www.w3.org/2000/svg" width="600" height="135">
<path d="M0 0 C45.21 0 90.42 0 137 0 C137 38 137 38 127 50 C123.36675436 54.67971423 123.36675436 54.67971423 119.765625 59.3828125 C116.54077089 63.6121683 113.26932879 67.8049914 110 72 C104.30542365 79.31208988 98.63945917 86.64531362 93 94 C93.72445312 94.09796875 94.44890625 94.1959375 95.1953125 94.296875 C103.15707374 95.52829407 108.82113824 97.56085026 113.953125 104.17578125 C116.48681618 108.59083267 117.4035271 113.40827439 116.62109375 118.43359375 C114.73040389 124.84033138 111.45891037 129.86212413 105.51171875 133.15234375 C100.39877385 135.62503093 95.57719991 135.45000993 90 135.25 C89.03449219 135.23195312 88.06898437 135.21390625 87.07421875 135.1953125 C84.71507967 135.14859687 82.35808925 135.08312137 80 135 C79.99413376 134.12240524 79.98826752 133.24481049 79.98222351 132.34062195 C79.92407714 124.02925211 79.85187648 115.71814476 79.76428509 107.40703106 C79.71974929 103.13522452 79.68045728 98.86350967 79.65356445 94.59155273 C79.62736251 90.46109373 79.58684391 86.33099081 79.53681374 82.20075417 C79.52025829 80.63292721 79.50867409 79.06503882 79.50238609 77.49713707 C79.44162924 63.72739797 78.0034652 51.13916226 68.6875 40.3125 C67.3571875 39.1678125 67.3571875 39.1678125 66 38 C65.15501953 37.26136719 65.15501953 37.26136719 64.29296875 36.5078125 C53.96099429 28.04863993 41.45072901 26.16006506 28.47265625 27.203125 C17.79958316 28.64500859 8.83441785 34.1103881 0 40 C0 26.8 0 13.6 0 0 Z " fill="#C80607" transform="translate(0,0)"/>
<path d="M0 0 C4.95 0 9.9 0 15 0 C15 12.21 15 24.42 15 37 C16.98 35.35 18.96 33.7 21 32 C29.3472256 27.32555366 38.52728848 26.47135693 47.89453125 28.68359375 C55.24131695 31.40337156 61.57557239 35.77065283 65 43 C66.08421841 46.40434459 66.12679429 49.5687347 66.12939453 53.12963867 C66.13254669 54.36739548 66.13569885 55.60515228 66.13894653 56.88041687 C66.13715717 58.22626786 66.13510632 59.57211852 66.1328125 60.91796875 C66.13348623 62.29991167 66.13445683 63.68185448 66.13571167 65.063797 C66.13718392 67.95457085 66.13504829 70.84531374 66.13037109 73.73608398 C66.12465803 77.44865712 66.12796572 81.16115822 66.13394356 84.87372875 C66.13754828 87.72435555 66.13641128 90.57496512 66.13381577 93.42559242 C66.13314708 94.79518963 66.1339729 96.16478838 66.13629532 97.53438377 C66.13882207 99.4424372 66.13429112 101.3504961 66.12939453 103.25854492 C66.12859894 104.34568283 66.12780334 105.43282074 66.12698364 106.55290222 C66 109 66 109 65 110 C62.83519203 110.0989294 60.66706215 110.129711 58.5 110.125 C57.3140625 110.12757812 56.128125 110.13015625 54.90625 110.1328125 C52 110 52 110 51 109 C50.89255716 107.28820723 50.85375285 105.5720566 50.84228516 103.85693359 C50.82689194 102.20919449 50.82689194 102.20919449 50.81118774 100.52816772 C50.80388641 99.33035675 50.79658508 98.13254578 50.7890625 96.8984375 C50.76098276 94.38150404 50.73231823 91.86457704 50.703125 89.34765625 C50.66191703 85.36470977 50.62504642 81.38199961 50.59863281 77.39892578 C50.57097982 73.56517264 50.52509148 69.73197569 50.4765625 65.8984375 C50.47330963 64.71277191 50.47005676 63.52710632 50.46670532 62.30551147 C50.35559189 54.81092731 50.09461167 49.09461167 44.5625 43.5625 C38.74036494 41.00893199 32.70440369 40.93303583 26.5859375 42.6953125 C21.8939874 44.78648127 19.26415433 47.29752563 17 52 C14.81566813 59.59174281 14.79429257 67.03621841 14.9375 74.875 C15.0172832 83.4738555 14.99476078 92.03530419 14.5625 100.625 C14.52310303 101.46530762 14.48370605 102.30561523 14.44311523 103.17138672 C14.12987154 108.87012846 14.12987154 108.87012846 13 110 C11.00200428 110.09873816 9.00042842 110.12971799 7 110.125 C5.906875 110.12757812 4.81375 110.13015625 3.6875 110.1328125 C1 110 1 110 0 109 C-0.09550698 107.58321089 -0.12188483 106.16168759 -0.12025452 104.74168396 C-0.12162918 103.8231665 -0.12300385 102.90464905 -0.12442017 101.95829773 C-0.12082489 100.94266251 -0.11722961 99.92702728 -0.11352539 98.88061523 C-0.11367142 97.81733002 -0.11381744 96.7540448 -0.1139679 95.65853882 C-0.11326825 92.12520342 -0.10547343 88.59192 -0.09765625 85.05859375 C-0.09579225 82.61621632 -0.09436827 80.17383851 -0.09336853 77.73146057 C-0.08954189 71.28865536 -0.07971037 64.84587252 -0.06866455 58.40307617 C-0.05845356 51.83447574 -0.05387158 45.2658717 -0.04882812 38.69726562 C-0.03808823 25.79816723 -0.02101007 12.89908547 0 0 Z " fill="#CA1212" transform="translate(275,15)"/>
<path d="M0 0 C4.95 0 9.9 0 15 0 C15.33 19.47 15.66 38.94 16 59 C28.65886832 47.17480656 28.65886832 47.17480656 40.921875 35.015625 C41.60765625 34.35046875 42.2934375 33.6853125 43 33 C43.73089844 32.2575 44.46179688 31.515 45.21484375 30.75 C49.12372862 28.29392648 52.30165467 28.5533831 56.8125 28.75 C57.99489258 28.77707031 57.99489258 28.77707031 59.20117188 28.8046875 C61.13464261 28.85155952 63.06748285 28.9232959 65 29 C65 32 65 32 63.63671875 33.4375 C62.67185547 34.2109375 62.67185547 34.2109375 61.6875 35 C58.09594327 38.00038014 54.78431897 41.16529399 51.5 44.5 C47.67497562 48.37822361 43.78490136 52.02932135 39.55859375 55.46484375 C37.83076165 57.16669341 36.96051469 58.78747114 36 61 C36.55042969 61.79535156 37.10085938 62.59070313 37.66796875 63.41015625 C40.79053747 67.93196179 43.89572427 72.46562361 47 77 C47.41056641 77.59911194 47.82113281 78.19822388 48.24414062 78.81549072 C51.08009629 82.95440759 53.91018511 87.09725947 56.73452759 91.24411011 C57.7048794 92.66720172 58.67687126 94.0891764 59.65048218 95.51004028 C61.03571478 97.532377 62.41499213 99.55865227 63.79296875 101.5859375 C64.21747314 102.20302078 64.64197754 102.82010406 65.0793457 103.45588684 C68 107.77193686 68 107.77193686 68 110 C65.30695906 110.24537268 62.63640028 110.42186252 59.9375 110.5625 C59.18533203 110.63791016 58.43316406 110.71332031 57.65820312 110.79101562 C54.20983811 110.92536751 51.93083026 110.79424456 49.24633789 108.50366211 C47.31993425 106.09515952 45.66607422 103.59640424 44 101 C43.19733187 99.8134755 42.39120262 98.62928764 41.58227539 97.44702148 C38.87168038 93.46827664 36.21551999 89.45476753 33.5625 85.4375 C32.63118516 84.03298705 31.69954688 82.62868851 30.76757812 81.22460938 C28.50798608 77.81886418 26.25277781 74.410256 24 71 C22.85373678 71.97866338 21.70800212 72.95794587 20.5625 73.9375 C19.92441406 74.48277344 19.28632813 75.02804688 18.62890625 75.58984375 C17.73008851 76.36795695 16.84063472 77.15936528 16 78 C15.84028023 80.37338639 15.7407567 82.72118272 15.68359375 85.09765625 C15.66281265 85.80651474 15.64203156 86.51537323 15.62062073 87.24571228 C15.55505402 89.51787305 15.4962077 91.79015264 15.4375 94.0625 C15.39432151 95.59962183 15.35070745 97.1367315 15.30664062 98.67382812 C15.19936551 102.4490959 15.09811863 106.2244836 15 110 C12.87506859 110.02693575 10.75004088 110.04636628 8.625 110.0625 C7.44164062 110.07410156 6.25828125 110.08570312 5.0390625 110.09765625 C2 110 2 110 0 109 C0 73.03 0 37.06 0 0 Z " fill="#CB1314" transform="translate(383,15)"/>
<path d="M0 0 C7.58048087 5.94831991 12.80872107 15.24162829 14.1875 24.75 C15.1391582 39.35919474 15.34705456 54.0237621 5.30859375 65.74609375 C-3.10226632 73.69226542 -12.18891436 77.14923927 -23.625 77.125 C-24.81367676 77.12258301 -24.81367676 77.12258301 -26.02636719 77.12011719 C-32.29428616 76.98916108 -37.31991326 75.89018405 -42.8125 72.75 C-43.84375 72.193125 -44.875 71.63625 -45.9375 71.0625 C-55.49234805 63.37707874 -60.18062088 54.88996058 -61.8125 42.75 C-62.60927526 29.3733692 -61.90498593 16.26190116 -52.8125 5.75 C-39.08167308 -8.82089861 -16.72479096 -10.70241504 0 0 Z M-41.8125 14.75 C-47.6322114 25.78799366 -48.35296236 37.43833703 -44.72265625 49.30859375 C-42.49640116 55.28030805 -38.9777876 59.10391463 -33.8125 62.75 C-27.03774992 65.61624042 -20.47750539 64.97166846 -13.625 62.6875 C-7.8018153 58.67597276 -3.16536748 53.46588773 -1.25 46.55859375 C0.50383528 35.29959762 0.51308263 23.22789063 -6.3203125 13.6328125 C-11.02248106 8.3620096 -16.45158876 6.40413669 -23.3125 5.375 C-30.60503402 6.4688801 -37.09371907 8.86684456 -41.8125 14.75 Z " fill="#CA1111" transform="translate(511.8125,49.25)"/>
<path d="M0 0 C5.42175854 3.74425718 9.26912518 7.47903266 11 14 C11.42228903 18.80832393 11.37423958 23.60737998 11.328125 28.4296875 C11.32506353 29.82976071 11.32319036 31.22983697 11.32244873 32.62991333 C11.31786622 35.54994538 11.30351242 38.46969847 11.28125 41.38964844 C11.25281141 45.13914356 11.24202057 48.88842108 11.2375679 52.63801384 C11.23342241 55.52210679 11.22361484 58.40615552 11.21169281 61.29022598 C11.20598544 62.67377494 11.20122828 64.05732814 11.19742584 65.44088364 C11.19058602 67.36540012 11.17606004 69.28988473 11.16113281 71.21435547 C11.15430481 72.31020966 11.14747681 73.40606384 11.14044189 74.53512573 C11 77 11 77 10 78 C7.83519203 78.0989294 5.66706215 78.129711 3.5 78.125 C2.3140625 78.12757812 1.128125 78.13015625 -0.09375 78.1328125 C-3 78 -3 78 -4 77 C-4.10234279 75.22147149 -4.13570883 73.4389308 -4.1418457 71.6574707 C-4.14888016 70.51570877 -4.15591461 69.37394684 -4.16316223 68.19758606 C-4.16732651 66.95289047 -4.17149078 65.70819489 -4.17578125 64.42578125 C-4.19898452 61.81314303 -4.22310206 59.2005128 -4.24804688 56.58789062 C-4.28441501 52.45125369 -4.31417446 48.31476382 -4.32592773 44.17797852 C-4.33797855 40.19780103 -4.38161832 36.21823533 -4.42578125 32.23828125 C-4.42387283 31.00370682 -4.42196442 29.76913239 -4.41999817 28.49714661 C-4.53290436 19.94874382 -4.53290436 19.94874382 -9 13 C-13.52742891 9.50825744 -17.36337811 9.42652026 -22.921875 9.59765625 C-27.66047011 10.21704114 -31.61650821 11.55511421 -35 15 C-39.20587229 21.9457349 -39.58790756 28.47762137 -39.57421875 36.4375 C-39.58838333 37.59878418 -39.60254791 38.76006836 -39.61714172 39.95654297 C-39.65883465 43.63779157 -39.67425391 47.31854908 -39.6875 51 C-39.71653146 54.70978888 -39.75098288 58.41945344 -39.78999329 62.12915039 C-39.81253562 64.4316646 -39.82832141 66.73425642 -39.83683777 69.03686523 C-39.84387222 70.06884033 -39.85090668 71.10081543 -39.8581543 72.1640625 C-39.86337349 73.53232178 -39.86337349 73.53232178 -39.86869812 74.92822266 C-40 77 -40 77 -41 78 C-43.16480797 78.0989294 -45.33293785 78.129711 -47.5 78.125 C-48.6859375 78.12757812 -49.871875 78.13015625 -51.09375 78.1328125 C-54 78 -54 78 -55 77 C-55.09500548 74.53555943 -55.12557985 72.09925374 -55.11352539 69.63452148 C-55.11367142 68.86384338 -55.11381744 68.09316528 -55.1139679 67.2991333 C-55.1132686 64.73975861 -55.10547545 62.1804558 -55.09765625 59.62109375 C-55.09579213 57.85132385 -55.0943682 56.08155344 -55.09336853 54.31178284 C-55.08954288 49.64448634 -55.0797122 44.97722077 -55.06866455 40.30993652 C-55.05845144 35.55102965 -55.05387113 30.79211779 -55.04882812 26.03320312 C-55.03808997 16.68878847 -55.02101299 7.3443968 -55 -2 C-50.38 -2 -45.76 -2 -41 -2 C-40.67 0.31 -40.34 2.62 -40 5 C-39.13375 4.236875 -38.2675 3.47375 -37.375 2.6875 C-26.93152411 -6.00718629 -11.70098788 -6.89486288 0 0 Z " fill="#CA1011" transform="translate(589,47)"/>
<path d="M0 0 C6.01550565 4.28966406 11.45602137 9.89854083 13.19921875 17.265625 C13.369375 18.36777344 13.369375 18.36777344 13.54296875 19.4921875 C3.10634903 22.42176496 3.10634903 22.42176496 -1.45703125 21.4921875 C-3.19189816 19.36141506 -4.52581954 17.12521061 -5.91796875 14.7578125 C-8.5972088 10.81375355 -12.04455829 9.39686486 -16.45703125 7.7421875 C-24.11836558 6.78452071 -29.71900025 8.19839575 -36.20703125 12.1796875 C-42.71182633 18.86517133 -43.67741449 26.70028512 -43.76953125 35.6171875 C-43.81303711 36.98617187 -43.81303711 36.98617187 -43.85742188 38.3828125 C-43.92993903 46.21466481 -41.69738195 51.61465744 -37.83203125 58.3046875 C-33.34182417 62.44040454 -27.82523549 64.20636975 -21.83203125 64.9296875 C-14.82115923 64.02087076 -9.41658641 61.67717698 -4.45703125 56.4921875 C-2.8783019 53.57497022 -1.60835534 50.60076254 -0.45703125 47.4921875 C1.29329719 47.63402446 3.04322409 47.78082179 4.79296875 47.9296875 C5.7675 48.01089844 6.74203125 48.09210938 7.74609375 48.17578125 C10.10758628 48.44293334 12.2619794 48.84590718 14.54296875 49.4921875 C14.1293638 57.35068158 9.35074742 64.14032834 3.73046875 69.3671875 C-6.34551696 77.56722194 -17.92926207 78.56641444 -30.45703125 77.4921875 C-40.35835855 75.42941098 -48.33563733 70.0103993 -54.140625 61.76953125 C-61.59238135 48.87821389 -62.16830137 33.74081741 -58.4921875 19.56640625 C-55.37602943 10.31200473 -49.7397172 2.887115 -41.0859375 -1.7890625 C-27.96141139 -7.82332738 -12.41183767 -7.6168034 0 0 Z " fill="#CA1112" transform="translate(256.45703125,48.5078125)"/>
<path d="M0 0 C6.01708103 4.1153093 9.55796468 9.47840771 11.26171875 16.546875 C12.07463086 22.8179113 10.3578063 28.12872179 7.26171875 33.546875 C1.83172884 39.97396483 -4.35909554 43.05245081 -12.61328125 43.984375 C-19.45301938 43.66187261 -25.6662945 40.91532587 -30.67578125 36.296875 C-35.80418474 30.59999282 -37.34633825 24.59381166 -37.08984375 17.00390625 C-36.00268288 9.40585969 -31.40365496 4.73929727 -25.80078125 -0.140625 C-17.46677828 -5.44408144 -8.34901849 -4.66601347 0 0 Z " fill="#C90B0C" transform="translate(52.73828125,75.453125)"/>
<path d="M0 0 C2.16286318 0.96355042 4.26560193 1.97504036 6.34765625 3.1015625 C5.7160863 8.15412214 4.21306252 12.39749451 2.34765625 17.1015625 C0.64609375 16.575625 0.64609375 16.575625 -1.08984375 16.0390625 C-6.43875732 14.70895966 -11.94232003 14.52357401 -16.8125 17.359375 C-19.00489563 19.43540143 -19.55313307 20.89233012 -20.33984375 23.7890625 C-20.57058594 24.59730469 -20.80132812 25.40554687 -21.0390625 26.23828125 C-22.53613153 33.22778187 -22.82572417 40.13319361 -22.93359375 47.25390625 C-22.97134329 49.18294292 -23.00910403 51.11197937 -23.046875 53.04101562 C-23.10075698 56.05865389 -23.15298087 59.07631618 -23.20458984 62.09399414 C-23.25611029 65.02238814 -23.31337908 67.95062885 -23.37109375 70.87890625 C-23.38466919 71.78922104 -23.39824463 72.69953583 -23.41223145 73.63743591 C-23.53938893 79.98860768 -23.53938893 79.98860768 -24.65234375 81.1015625 C-29.27234375 81.1015625 -33.89234375 81.1015625 -38.65234375 81.1015625 C-38.65234375 54.7015625 -38.65234375 28.3015625 -38.65234375 1.1015625 C-34.03234375 1.1015625 -29.41234375 1.1015625 -24.65234375 1.1015625 C-24.32234375 3.4115625 -23.99234375 5.7215625 -23.65234375 8.1015625 C-23.1934375 7.61945312 -22.73453125 7.13734375 -22.26171875 6.640625 C-21.648125 6.00898437 -21.03453125 5.37734375 -20.40234375 4.7265625 C-19.7990625 4.10007812 -19.19578125 3.47359375 -18.57421875 2.828125 C-13.24954521 -1.95542318 -6.65467345 -2.25416037 0 0 Z " fill="#CA0F10" transform="translate(189.65234375,43.8984375)"/>
<path d="M0 0 C4.95 0 9.9 0 15 0 C15.02312312 10.80458085 15.04091493 21.60915586 15.05181217 32.41375637 C15.05704107 37.4302247 15.06413883 42.44667615 15.07543945 47.46313477 C15.0862681 52.30009694 15.09227679 57.13704284 15.09487724 61.97401619 C15.09673153 63.82368285 15.10035222 65.67334857 15.10573006 67.52300835 C15.1129402 70.10447014 15.11399095 72.68586382 15.11352539 75.26733398 C15.11712067 76.03985001 15.12071594 76.81236603 15.12442017 77.60829163 C15.11405216 82.88594784 15.11405216 82.88594784 14 84 C11.83519203 84.0989294 9.66706215 84.129711 7.5 84.125 C6.3140625 84.12757812 5.128125 84.13015625 3.90625 84.1328125 C1 84 1 84 0 83 C-0.09507821 80.41360962 -0.12556376 77.8540144 -0.11352539 75.26733398 C-0.11367142 74.4576416 -0.11381744 73.64794922 -0.1139679 72.8137207 C-0.11326854 70.12448492 -0.1054751 67.43531751 -0.09765625 64.74609375 C-0.09579215 62.88664284 -0.09436821 61.02719144 -0.09336853 59.16773987 C-0.08954271 54.26370904 -0.07971188 49.35970764 -0.06866455 44.45568848 C-0.05845181 39.45548908 -0.05387121 34.45528494 -0.04882812 29.45507812 C-0.03808967 19.63670579 -0.02101248 9.81835534 0 0 Z " fill="#CB1415" transform="translate(355,41)"/>
<path d="M0 0 C3.95768387 3.27632438 6.88732476 6.5093485 8.5703125 11.453125 C8.60956874 13.4527397 8.61468438 15.45361728 8.5703125 17.453125 C7.76207031 17.10378906 6.95382813 16.75445312 6.12109375 16.39453125 C5.05246094 15.93949219 3.98382813 15.48445313 2.8828125 15.015625 C1.82707031 14.56316406 0.77132812 14.11070313 -0.31640625 13.64453125 C-10.0653957 9.91373855 -20.86472187 10.39757957 -30.4296875 14.453125 C-39.45896272 18.81161725 -45.99270933 24.33012498 -49.7421875 33.765625 C-50.02707031 34.58675781 -50.31195313 35.40789062 -50.60546875 36.25390625 C-51.4296875 38.453125 -51.4296875 38.453125 -53.4296875 41.453125 C-53.52891335 37.27228209 -53.60132124 33.09207129 -53.64941406 28.91040039 C-53.66947171 27.48938043 -53.69672528 26.06844241 -53.73144531 24.64770508 C-53.78022761 22.59956605 -53.80271289 20.55252225 -53.8203125 18.50390625 C-53.84125977 17.27325439 -53.86220703 16.04260254 -53.88378906 14.7746582 C-53.23789789 10.05027678 -51.00767386 7.75788025 -47.421875 4.79296875 C-33.80467507 -4.22654191 -14.96679025 -9.52869605 0 0 Z " fill="#CA1212" transform="translate(53.4296875,46.546875)"/>
<path d="M0 0 C1.22803007 3.6840902 1.08733412 7.03692035 1.02172852 10.86791992 C1.01212097 11.66815079 1.00251343 12.46838165 0.99261475 13.29286194 C0.9596246 15.93882037 0.9192923 18.58461371 0.87890625 21.23046875 C0.85460515 23.06463539 0.83076158 24.89880814 0.80735779 26.73298645 C0.74451587 31.56142134 0.67544947 36.38974802 0.60510254 41.21807861 C0.53442011 46.14468456 0.46960259 51.07136724 0.40429688 55.99804688 C0.2752831 65.6654512 0.13915407 75.33273631 0 85 C-8.91 85 -17.82 85 -27 85 C-25 81 -25 81 -23.0625 78.75 C-17.96589772 71.9545303 -16.63902587 62.95871652 -14.71484375 54.84765625 C-14.26220909 52.96559731 -14.26220909 52.96559731 -13.8004303 51.04551697 C-13.00264755 47.72764817 -12.21106885 44.40832921 -11.42071533 41.08868408 C-10.77844446 38.39555965 -10.13182131 35.70348957 -9.48494625 33.01146793 C-8.14025818 27.41507201 -6.79908317 21.81783234 -5.46459961 16.21899414 C-5.21024139 15.15576935 -4.95588318 14.09254456 -4.69381714 12.99710083 C-4.05778402 10.24961121 -3.4882657 7.49584151 -2.92797852 4.73217773 C-2.62174561 3.50055908 -2.3155127 2.26894043 -2 1 C-1.34 0.67 -0.68 0.34 0 0 Z " fill="#C90B0C" transform="translate(137,50)"/>
<path d="M0 0 C1.04954459 2.09908918 2.09329958 4.20181104 3.078125 6.33203125 C8.15483524 17.07773459 14.39643818 23.61957542 25.64453125 28.0390625 C27.75196078 28.74928285 29.85625547 29.40969354 32 30 C32 30.66 32 31.32 32 32 C21.44 32 10.88 32 0 32 C0 21.44 0 10.88 0 0 Z " fill="#CB191A" transform="translate(0,103)"/>
<path d="M0 0 C4.95 0 9.9 0 15 0 C15 5.28 15 10.56 15 16 C10.05 16 5.1 16 0 16 C0 10.72 0 5.44 0 0 Z " fill="#CB1516" transform="translate(355,15)"/>
<path d="M0 0 C1.22803007 3.6840902 1.08733412 7.03692035 1.02172852 10.86791992 C1.01212097 11.66815079 1.00251343 12.46838165 0.99261475 13.29286194 C0.9596246 15.93882037 0.9192923 18.58461371 0.87890625 21.23046875 C0.85460515 23.06463539 0.83076158 24.89880814 0.80735779 26.73298645 C0.74451587 31.56142134 0.67544947 36.38974802 0.60510254 41.21807861 C0.53442011 46.14468456 0.46960259 51.07136724 0.40429688 55.99804688 C0.2752831 65.6654512 0.13915407 75.33273631 0 85 C-8.91 85 -17.82 85 -27 85 C-26.67 84.01 -26.34 83.02 -26 82 C-25.67 82.66 -25.34 83.32 -25 84 C-17.08 84 -9.16 84 -1 84 C-1.33 56.61 -1.66 29.22 -2 1 C-1.34 0.67 -0.68 0.34 0 0 Z " fill="#D85151" transform="translate(137,50)"/>
<path d="M0 0 C0 2.64 0 5.28 0 8 C-5.61 8 -11.22 8 -17 8 C-17 7.34 -17 6.68 -17 6 C-16.16855469 5.73445312 -15.33710937 5.46890625 -14.48046875 5.1953125 C-13.39378906 4.84210938 -12.30710937 4.48890625 -11.1875 4.125 C-10.10855469 3.77695313 -9.02960937 3.42890625 -7.91796875 3.0703125 C-5.06535343 2.02397167 -3.01513819 0 0 0 Z " fill="#DB6565" transform="translate(62,127)"/>
<path d="M0 0 C5.61 0 11.22 0 17 0 C17 0.99 17 1.98 17 3 C15.02 3.99 15.02 3.99 13 5 C13 4.01 13 3.02 13 2 C11.96939453 2.03480469 11.96939453 2.03480469 10.91796875 2.0703125 C9.56638672 2.09738281 9.56638672 2.09738281 8.1875 2.125 C7.29417969 2.14820313 6.40085937 2.17140625 5.48046875 2.1953125 C3 2 3 2 0 0 Z " fill="#DB6060" transform="translate(431,44)"/>
<path d="M0 0 C0.33 0 0.66 0 1 0 C1 4.29 1 8.58 1 13 C-0.32 13 -1.64 13 -3 13 C-2.88490339 11.58249437 -2.75746342 10.16598831 -2.625 8.75 C-2.55539063 7.96109375 -2.48578125 7.1721875 -2.4140625 6.359375 C-1.98492887 3.914123 -1.21399362 2.15163097 0 0 Z " fill="#CD2C2C" transform="translate(135,56)"/>
<path d="M0 0 C1.32 0 2.64 0 4 0 C4 1.65 4 3.3 4 5 C0.37 5 -3.26 5 -7 5 C-4 3 -4 3 -1 2 C-0.67 1.34 -0.34 0.68 0 0 Z " fill="#C60E0E" transform="translate(57,129)"/>
<path d="M0 0 C0.99 0.33 1.98 0.66 3 1 C3 2.98 3 4.96 3 7 C0.5625 6.1875 0.5625 6.1875 -2 5 C-2.33 4.01 -2.66 3.02 -3 2 C-2.34 2 -1.68 2 -1 2 C-0.67 1.34 -0.34 0.68 0 0 Z " fill="#D13F3F" transform="translate(59,57)"/>
<path d="M0 0 C0.66 0.33 1.32 0.66 2 1 C-0.31 3.64 -2.62 6.28 -5 9 C-5.33 8.01 -5.66 7.02 -6 6 C-4 4 -2 2 0 0 Z " fill="#CE3232" transform="translate(27,75)"/>
</svg>
