<?xml version="1.0" encoding="UTF-8"?>
<svg version="1.1" xmlns="http://www.w3.org/2000/svg" width="224" height="224">
<path d="M0 0 C1.93742341 -0.02703381 3.87495479 -0.04641125 5.8125 -0.0625 C6.89144531 -0.07410156 7.97039062 -0.08570313 9.08203125 -0.09765625 C12 0 12 0 15 1 C16.3426561 0.70646385 17.67627347 0.36964439 19 0 C25.57207499 -0.66487918 32.02768586 0.07975132 38 3 C40.37171966 5.11254205 42.16264705 7.4239815 44 10 C44.66 10.66 45.32 11.32 46 12 C48.33524782 9.74259377 50.18705073 7.7194239 52 5 C58.54921307 0.16447555 64.18148831 -0.42917367 72.1171875 0.5078125 C74.45580399 0.90708849 76.71451976 1.37066486 79 2 C79 1.67 79 1.34 79 1 C80.79090253 0.80533668 82.58276505 0.61948787 84.375 0.4375 C85.87160156 0.28087891 85.87160156 0.28087891 87.3984375 0.12109375 C90 0 90 0 92 1 C92.08811914 4.33316277 92.14076197 7.66602047 92.1875 11 C92.21263672 11.93457031 92.23777344 12.86914062 92.26367188 13.83203125 C92.339556 21.06631756 91.70316893 26.9209894 86.80859375 32.49609375 C86.02613281 33.13675781 85.24367188 33.77742188 84.4375 34.4375 C83.65246094 35.09621094 82.86742187 35.75492188 82.05859375 36.43359375 C80 38 80 38 78 39 C79.216875 39.474375 80.43375 39.94875 81.6875 40.4375 C86.8827908 43.09962596 89.19483133 46.49853359 91 52 C92.41005389 60.36171819 92.11117569 68.62344479 91 77 C89.97261719 76.91621094 88.94523437 76.83242187 87.88671875 76.74609375 C78.5294291 76.0195753 78.5294291 76.0195753 69.1875 76.6875 C63.2759008 77.40514482 58.23501133 75.73340997 53 73 C52.67 72.34 52.34 71.68 52 71 C51.01 70.34 50.02 69.68 49 69 C47.94895617 67.36504293 46.94011682 65.70116376 46 64 C45.360625 65.051875 44.72125 66.10375 44.0625 67.1875 C40.71378387 71.70138585 37.48001339 74.46420007 32 76 C27.93993593 76.32487813 23.89407279 76.25602757 19.82763672 76.07983398 C15.07077906 75.88304185 11.48924546 76.12162427 7 78 C6.67 77.67 6.34 77.34 6 77 C5.175 77 4.35 77 3.5 77 C2.675 77 1.85 77 1 77 C-1.26567469 74.73432531 -0.2327726 69.47598303 -0.25 66.4375 C-0.270625 65.55513672 -0.29125 64.67277344 -0.3125 63.76367188 C-0.36025637 55.68687519 1.17677341 49.01107261 7 43 C7.66 43 8.32 43 9 43 C9.33 42.34 9.66 41.68 10 41 C12.5625 40.375 12.5625 40.375 15 40 C14.34 39.67 13.68 39.34 13 39 C13 38.34 13 37.68 13 37 C11.515 37.495 11.515 37.495 10 38 C9.071875 37.0409375 9.071875 37.0409375 8.125 36.0625 C6.17402388 33.96116416 6.17402388 33.96116416 4 33 C4 32.34 4 31.68 4 31 C3.34 31 2.68 31 2 31 C0.42589988 26.82237097 -0.24126552 23.40275519 -0.1953125 18.9453125 C-0.18886719 17.83671875 -0.18242188 16.728125 -0.17578125 15.5859375 C-0.15902344 14.44382812 -0.14226563 13.30171875 -0.125 12.125 C-0.11597656 10.9596875 -0.10695312 9.794375 -0.09765625 8.59375 C-0.07417432 5.72895423 -0.04133141 2.86458465 0 0 Z M2 2 C1.91238337 5.54150893 1.85940261 9.08273633 1.8125 12.625 C1.78736328 13.62402344 1.76222656 14.62304688 1.73632812 15.65234375 C1.68014561 21.30805032 1.88631047 25.21096571 5 30 C5.66 30 6.32 30 7 30 C7 30.66 7 31.32 7 32 C8.093125 32.639375 9.18625 33.27875 10.3125 33.9375 C11.23482422 34.47697266 11.23482422 34.47697266 12.17578125 35.02734375 C18.20093535 38.23989915 25.8717446 37.69516787 32.375 36.25 C35.50928559 34.75748305 38.24436634 33.11478863 41 31 C41.495 29.515 41.495 29.515 42 28 C42.515625 27.443125 43.03125 26.88625 43.5625 26.3125 C45.66636335 22.92802417 45.45872041 19.88705188 45 16 C43.45079863 11.48149599 40.35729502 7.77532367 36.23046875 5.41796875 C27.51014018 1.89177684 22.09782458 1.14578052 13 4 C11 4 11 4 8 2 C4.87478167 1.83300768 4.87478167 1.83300768 2 2 Z M61 14 C58.81960224 16.67274564 58 18.10627341 58 21.5625 C59.35263854 24.85955644 61.0135124 26.09950789 64 28 C68.2127924 29.51228445 70.90885794 28.61742826 75 27 C75 26.34 75 25.68 75 25 C75.99 24.67 76.98 24.34 78 24 C79.01556171 20.36090386 79.34306794 18.65630389 77.5625 15.25 C72.26153155 10.59549112 66.904613 9.74318598 61 14 Z M46 27 C45.67 27.99 45.34 28.98 45 30 C44.01 30.33 43.02 30.66 42 31 C42 31.66 42 32.32 42 33 C41.401875 33.268125 40.80375 33.53625 40.1875 33.8125 C37.98180967 35.00987475 36.56416813 36.04478984 35 38 C35 38.99 35 39.98 35 41 C36.63080944 42.55076166 36.63080944 42.55076166 38.75 43.9375 C41.78272376 46.09374508 44.46510479 48.25386352 47 51 C47.56267578 50.18595703 47.56267578 50.18595703 48.13671875 49.35546875 C53.35074846 42.06633402 53.35074846 42.06633402 58 40 C58.66 40 59.32 40 60 40 C58.79655911 36.38967732 57.84607474 36.01140782 54.6875 34.0625 C51.40518516 31.96662699 48.59976275 29.93886224 46 27 Z M31 38 C31.33 38.66 31.66 39.32 32 40 C32.66 39.67 33.32 39.34 34 39 C33.01 38.67 32.02 38.34 31 38 Z M15 52 C13.08960542 56.55640795 13.08960542 56.55640795 13.6875 61.3125 C16.0124119 64.30167245 18.1044804 65.02437876 21.75 65.875 C26.68660315 66.36774782 29.17149454 65.12531058 33 62 C34.40110154 57.94417975 34.47022917 56.03002581 32.6875 52.125 C27.6544978 48.14541686 19.80877762 47.19122238 15 52 Z M59 53 C57.83789781 55.39351495 57.83789781 55.39351495 58 58 C59.62155629 61.48634601 60.76453292 62.84302194 64 65 C67.83565427 66.22043545 70.20422446 66.2177748 73.75 64.4375 C76.40153731 62.73839959 77.03893622 61.92524245 78.5625 59 C79.0317907 55.78200665 78.82128551 54.63074573 77 52 C76.34 52 75.68 52 75 52 C75 51.34 75 50.68 75 50 C69.41526805 47.20763403 63.03803813 48.33101842 59 53 Z " fill="#23069D" transform="translate(64,38)"/>
<path d="M0 0 C1.93742341 -0.02703381 3.87495479 -0.04641125 5.8125 -0.0625 C6.89144531 -0.07410156 7.97039062 -0.08570313 9.08203125 -0.09765625 C12 0 12 0 15 1 C16.3426561 0.70646385 17.67627347 0.36964439 19 0 C25.57207499 -0.66487918 32.02768586 0.07975132 38 3 C40.37171966 5.11254205 42.16264705 7.4239815 44 10 C44.66 10.66 45.32 11.32 46 12 C48.33524782 9.74259377 50.18705073 7.7194239 52 5 C58.49585166 0.20387423 64.13942326 -0.44408201 72.01953125 0.41015625 C74.8863796 0.97751418 77.33637336 1.81343064 80 3 C80 3.33 80 3.66 80 4 C78.77023438 3.96519531 77.54046875 3.93039063 76.2734375 3.89453125 C74.64063873 3.86637955 73.0078251 3.83908087 71.375 3.8125 C70.56675781 3.78736328 69.75851563 3.76222656 68.92578125 3.73632812 C63.77944241 3.6735679 60.54517789 4.3358265 56 7 C55.34 7 54.68 7 54 7 C53.67 7.99 53.34 8.98 53 10 C52.34 10 51.68 10 51 10 C50.855625 10.763125 50.71125 11.52625 50.5625 12.3125 C50 15 50 15 49 18 C50.32 18 51.64 18 53 18 C53.625 19.875 53.625 19.875 54 22 C53.34 22.66 52.68 23.32 52 24 C51.01 24 50.02 24 49 24 C49 24.99 49 25.98 49 27 C49.66 27 50.32 27 51 27 C51 27.66 51 28.32 51 29 C49.35 28.67 47.7 28.34 46 28 C45.46375 28.721875 44.9275 29.44375 44.375 30.1875 C42.53760617 32.36336111 40.99978532 33.89098344 38.8125 35.625 C35.79133392 37.75800103 35.79133392 37.75800103 35 41 C35.99 41.495 35.99 41.495 37 42 C33.625 42.125 33.625 42.125 30 42 C29.34 41.34 28.68 40.68 28 40 C25.65393435 39.90183815 25.65393435 39.90183815 23.0625 40.25 C22.18722656 40.33765625 21.31195313 40.4253125 20.41015625 40.515625 C17.75176624 40.89112765 17.75176624 40.89112765 15 43 C14.01 43.495 14.01 43.495 13 44 C13 44.99 13 45.98 13 47 C16.06017439 47.95328232 18.17657461 47.94314279 21.3125 47.375 C25.97996199 46.77719699 28.81450684 47.74627292 33 50 C34.4540625 50.7734375 34.4540625 50.7734375 35.9375 51.5625 C36.618125 52.036875 37.29875 52.51125 38 53 C38 53.66 38 54.32 38 55 C37.34 55 36.68 55 36 55 C36.495 57.475 36.495 57.475 37 60 C36.360625 60.2475 35.72125 60.495 35.0625 60.75 C32.80939427 61.80148727 32.80939427 61.80148727 32.375 64.0625 C32.189375 65.0215625 32.189375 65.0215625 32 66 C27.84084461 68.07957769 22.54088436 67.33745816 18 67 C14.3125 65.6875 14.3125 65.6875 12 64 C11.505 62.515 11.505 62.515 11 61 C10.01 61.495 10.01 61.495 9 62 C7.10440566 57.79672559 5.92011417 54.60057086 5 50 C4.67 58.25 4.34 66.5 4 75 C4.99 74.505 4.99 74.505 6 74 C8.6723621 73.86584528 11.32250488 73.95681459 14 74 C14.33 73.01 14.66 72.02 15 71 C15.33 71.99 15.66 72.98 16 74 C28.53754316 74.02135163 28.53754316 74.02135163 39.59375 68.5703125 C41.3335599 66.97884848 41.3335599 66.97884848 41 64 C41.66 64 42.32 64 43 64 C43.33 63.01 43.66 62.02 44 61 C46.475 60.505 46.475 60.505 49 60 C48.67 60.99 48.34 61.98 48 63 C48.66 63 49.32 63 50 63 C50 63.66 50 64.32 50 65 C50.66 65 51.32 65 52 65 C52.495 64.01 52.495 64.01 53 63 C54.65 63.33 56.3 63.66 58 64 C56.68 65.65 55.36 67.3 54 69 C60.55616112 73.37077408 66.32700919 73.28755768 73.921875 73.07421875 C79.31709231 72.92520071 84.63865343 73.43137233 90 74 C90 71.03 90 68.06 90 65 C90.66 64.67 91.32 64.34 92 64 C91.67 68.29 91.34 72.58 91 77 C89.97261719 76.91621094 88.94523437 76.83242187 87.88671875 76.74609375 C78.5294291 76.0195753 78.5294291 76.0195753 69.1875 76.6875 C63.2759008 77.40514482 58.23501133 75.73340997 53 73 C52.67 72.34 52.34 71.68 52 71 C51.01 70.34 50.02 69.68 49 69 C47.94895617 67.36504293 46.94011682 65.70116376 46 64 C45.360625 65.051875 44.72125 66.10375 44.0625 67.1875 C40.71378387 71.70138585 37.48001339 74.46420007 32 76 C27.93993593 76.32487813 23.89407279 76.25602757 19.82763672 76.07983398 C15.07077906 75.88304185 11.48924546 76.12162427 7 78 C6.67 77.67 6.34 77.34 6 77 C5.175 77 4.35 77 3.5 77 C2.675 77 1.85 77 1 77 C-1.26567469 74.73432531 -0.2327726 69.47598303 -0.25 66.4375 C-0.270625 65.55513672 -0.29125 64.67277344 -0.3125 63.76367188 C-0.36025637 55.68687519 1.17677341 49.01107261 7 43 C7.66 43 8.32 43 9 43 C9.33 42.34 9.66 41.68 10 41 C12.5625 40.375 12.5625 40.375 15 40 C14.34 39.67 13.68 39.34 13 39 C13 38.34 13 37.68 13 37 C11.515 37.495 11.515 37.495 10 38 C9.071875 37.0409375 9.071875 37.0409375 8.125 36.0625 C6.17402388 33.96116416 6.17402388 33.96116416 4 33 C4 32.34 4 31.68 4 31 C3.34 31 2.68 31 2 31 C0.42589988 26.82237097 -0.24126552 23.40275519 -0.1953125 18.9453125 C-0.18886719 17.83671875 -0.18242188 16.728125 -0.17578125 15.5859375 C-0.15902344 14.44382812 -0.14226563 13.30171875 -0.125 12.125 C-0.11597656 10.9596875 -0.10695312 9.794375 -0.09765625 8.59375 C-0.07417432 5.72895423 -0.04133141 2.86458465 0 0 Z M2 2 C1.91238337 5.54150893 1.85940261 9.08273633 1.8125 12.625 C1.78736328 13.62402344 1.76222656 14.62304688 1.73632812 15.65234375 C1.68014561 21.30805032 1.88631047 25.21096571 5 30 C5.66 30 6.32 30 7 30 C7 30.66 7 31.32 7 32 C8.093125 32.639375 9.18625 33.27875 10.3125 33.9375 C11.23482422 34.47697266 11.23482422 34.47697266 12.17578125 35.02734375 C18.20093535 38.23989915 25.8717446 37.69516787 32.375 36.25 C35.50928559 34.75748305 38.24436634 33.11478863 41 31 C41.495 29.515 41.495 29.515 42 28 C42.515625 27.443125 43.03125 26.88625 43.5625 26.3125 C45.66636335 22.92802417 45.45872041 19.88705188 45 16 C43.45079863 11.48149599 40.35729502 7.77532367 36.23046875 5.41796875 C27.51014018 1.89177684 22.09782458 1.14578052 13 4 C11 4 11 4 8 2 C4.87478167 1.83300768 4.87478167 1.83300768 2 2 Z M31 38 C31.33 38.66 31.66 39.32 32 40 C32.66 39.67 33.32 39.34 34 39 C33.01 38.67 32.02 38.34 31 38 Z M15 52 C13.08960542 56.55640795 13.08960542 56.55640795 13.6875 61.3125 C16.0124119 64.30167245 18.1044804 65.02437876 21.75 65.875 C26.68660315 66.36774782 29.17149454 65.12531058 33 62 C34.40110154 57.94417975 34.47022917 56.03002581 32.6875 52.125 C27.6544978 48.14541686 19.80877762 47.19122238 15 52 Z " fill="#200795" transform="translate(64,38)"/>
<path d="M0 0 C0.66 0.66 1.32 1.32 2 2 C4.32275177 2.40047444 6.65739357 2.7397104 9 3 C9 3.99 9 4.98 9 6 C9.99 6.33 10.98 6.66 12 7 C12 7.66 12 8.32 12 9 C12.99 9.33 13.98 9.66 15 10 C15.144375 10.639375 15.28875 11.27875 15.4375 11.9375 C15.80104993 14.20311706 15.80104993 14.20311706 18.0625 15.25 C19.0215625 15.62125 19.0215625 15.62125 20 16 C22.21324523 12.62305199 22.21324523 12.62305199 23.375 8.8125 C24 7 24 7 26.5625 5.75 C27.366875 5.5025 28.17125 5.255 29 5 C30.5625 6.8125 30.5625 6.8125 32 9 C31.67 9.99 31.34 10.98 31 12 C30.34 12 29.68 12 29 12 C28.80185739 18.08408472 28.80185739 18.08408472 30 24 C30.66 24 31.32 24 32 24 C32.495 24.99 32.495 24.99 33 26 C33.99 26.33 34.98 26.66 36 27 C36 27.66 36 28.32 36 29 C36.99 29 37.98 29 39 29 C38.67 30.32 38.34 31.64 38 33 C35.31143576 34.00821159 33.58296785 34.22736824 30.88671875 33.17578125 C28.89205069 32.16604698 26.9353228 31.11893353 25 30 C25.66 28.68 26.32 27.36 27 26 C26.505 26.495 26.505 26.495 26 27 C23.9375 26.5625 23.9375 26.5625 22 26 C22 25.34 22 24.68 22 24 C21.34 24 20.68 24 20 24 C20 23.34 20 22.68 20 22 C18.07690578 22.03955898 18.07690578 22.03955898 16 23 C15.608125 23.886875 15.21625 24.77375 14.8125 25.6875 C12.17285831 30.51167274 9.15588444 33.04103599 4 35 C-1.31505199 35.69087825 -6.66953464 35.35318421 -12 35 C-12.33 34.34 -12.66 33.68 -13 33 C-13.33 33.66 -13.66 34.32 -14 35 C-18.95 35.495 -18.95 35.495 -24 36 C-24 27.75 -24 19.5 -24 11 C-23.34 10.67 -22.68 10.34 -22 10 C-21.7525 11.2375 -21.505 12.475 -21.25 13.75 C-20.31812452 17.57879273 -18.95040587 19.34463471 -16 22 C-16 22.99 -16 23.98 -16 25 C-10.19207724 27.581299 -4.23647099 27.40144948 2 27 C2.66 26.67 3.32 26.34 4 26 C4.33 25.01 4.66 24.02 5 23 C5.99 22.34 6.98 21.68 8 21 C8.16671852 18.4582293 8.16671852 18.4582293 8 16 C8.33 15.67 8.66 15.34 9 15 C7.39022286 11.78044573 4.55529379 11.22470404 1.31640625 9.9140625 C-2.51082684 8.85920674 -5.43402581 9.00320998 -9.375 9.375 C-11.24285156 9.54128906 -11.24285156 9.54128906 -13.1484375 9.7109375 C-14.08945313 9.80632812 -15.03046875 9.90171875 -16 10 C-17 7 -17 7 -16.3125 4.875 C-15 3 -15 3 -13.1875 2.375 C-12.465625 2.25125 -11.74375 2.1275 -11 2 C-10.21625 1.649375 -9.4325 1.29875 -8.625 0.9375 C-5.5615904 -0.15657486 -3.23091909 -0.28719281 0 0 Z " fill="#2307A2" transform="translate(92,77)"/>
<path d="M0 0 C0.33 0.66 0.66 1.32 1 2 C2.0725 1.9175 3.145 1.835 4.25 1.75 C8 2 8 2 10.375 3.6875 C12.20245754 6.28811265 12.92047734 7.81909368 13 11 C11.5625 13.3125 11.5625 13.3125 10 15 C10.639375 15.5775 11.27875 16.155 11.9375 16.75 C14.90883191 19.99145299 14.90883191 19.99145299 15 23 C13.61846916 26.33192733 12.41348676 27.74790245 9.32348633 29.63183594 C5.57952454 31.17309516 2.92245098 31.35906446 -1.11328125 31.328125 C-2.09581123 31.32531525 -2.09581123 31.32531525 -3.09819031 31.32244873 C-4.47054196 31.31577037 -5.84287597 31.30194067 -7.21508789 31.28125 C-9.32390869 31.24983002 -11.43198292 31.2402477 -13.54101562 31.234375 C-23.8361847 31.1638153 -23.8361847 31.1638153 -25 30 C-25.28150942 25.71508535 -25.23182832 21.41805904 -25.25 17.125 C-25.270625 15.91457031 -25.29125 14.70414063 -25.3125 13.45703125 C-25.31765625 12.29816406 -25.3228125 11.13929688 -25.328125 9.9453125 C-25.3374707 8.87812988 -25.34681641 7.81094727 -25.35644531 6.71142578 C-25 4 -25 4 -23.78271484 2.14453125 C-21.43230112 0.6355283 -19.92977406 0.67060322 -17.1484375 0.7421875 C-16.21515625 0.75636719 -15.281875 0.77054687 -14.3203125 0.78515625 C-12.86238281 0.82962891 -12.86238281 0.82962891 -11.375 0.875 C-9.44539984 0.91816211 -7.51570754 0.95744095 -5.5859375 0.9921875 C-4.7304834 1.01651855 -3.8750293 1.04084961 -2.99365234 1.06591797 C-0.99950905 1.22729359 -0.99950905 1.22729359 0 0 Z M-14 7 C-14 8.98 -14 10.96 -14 13 C-9.38 13 -4.76 13 0 13 C0.66 11.68 1.32 10.36 2 9 C-1.4766338 6.85663839 -4.21229195 6.78722374 -8.25 6.875 C-9.86648437 6.90207031 -9.86648437 6.90207031 -11.515625 6.9296875 C-12.33546875 6.95289062 -13.1553125 6.97609375 -14 7 Z M-14 19 C-14 20.98 -14 22.96 -14 25 C-11.56183415 25.0809723 -9.12635616 25.14046972 -6.6875 25.1875 C-5.99720703 25.21263672 -5.30691406 25.23777344 -4.59570312 25.26367188 C-0.51768766 25.35746667 -0.51768766 25.35746667 2.98046875 23.48828125 C3.48513672 22.75158203 3.48513672 22.75158203 4 22 C2.98478853 20.35157312 2.98478853 20.35157312 1 19 C-1.64996326 18.7827899 -4.05076558 18.71648446 -6.6875 18.8125 C-7.38939453 18.82603516 -8.09128906 18.83957031 -8.81445312 18.85351562 C-10.54329829 18.88879818 -12.27174765 18.94260417 -14 19 Z " fill="#21099B" transform="translate(70,118)"/>
<path d="M0 0 C3.64576392 -0.05878077 7.29140352 -0.0938558 10.9375 -0.125 C12.46987305 -0.15013672 12.46987305 -0.15013672 14.03320312 -0.17578125 C28.95745652 -0.27114389 28.95745652 -0.27114389 33.65625 3.23632812 C35.0625 4.625 35.0625 4.625 37 7 C36.39816251 9.02045442 35.72693904 11.02111039 35 13 C34.34 13.33 33.68 13.66 33 14 C34.010625 14.680625 35.02125 15.36125 36.0625 16.0625 C37.71484375 17.43359375 37.71484375 17.43359375 39 19 C39.125 22.625 39.125 22.625 38 26 C34.68220307 29.43220372 31.3514887 29.95350383 26.70019531 30.11352539 C25.42241211 30.10828857 24.14462891 30.10305176 22.828125 30.09765625 C21.8044986 30.09553383 21.8044986 30.09553383 20.76019287 30.09336853 C18.59008316 30.08779084 16.4200783 30.07524254 14.25 30.0625 C12.77474108 30.05748211 11.29948053 30.05291971 9.82421875 30.04882812 C6.21611202 30.03782875 2.60806625 30.02057953 -1 30 C-1.0246985 26.04900072 -1.04285923 22.09803126 -1.05493164 18.14697266 C-1.06244036 16.14093449 -1.0751447 14.13491798 -1.08789062 12.12890625 C-1.09111328 10.87207031 -1.09433594 9.61523438 -1.09765625 8.3203125 C-1.10289307 7.15773926 -1.10812988 5.99516602 -1.11352539 4.79736328 C-1 2 -1 2 0 0 Z M11 6 C9.98888907 9.04913228 9.98888907 9.04913228 11 12 C12.91541138 12.10841951 14.83259773 12.18578079 16.75 12.25 C18.35101563 12.31960937 18.35101563 12.31960937 19.984375 12.390625 C23.63802112 11.91735478 24.72228105 10.80844958 27 8 C21.51324804 6.13216954 16.77807024 5.7641604 11 6 Z M10 18 C10 19.98 10 21.96 10 24 C12.62506802 24.02690844 15.24986173 24.04679404 17.875 24.0625 C18.62136719 24.07087891 19.36773437 24.07925781 20.13671875 24.08789062 C24.19845578 24.20688084 24.19845578 24.20688084 28 23 C27.65213292 21.02463255 27.65213292 21.02463255 27 19 C23.93466836 17.46733418 20.73245728 17.89723529 17.375 17.9375 C16.31539062 17.94426758 16.31539062 17.94426758 15.234375 17.95117188 C13.48954725 17.96296125 11.744763 17.98089676 10 18 Z " fill="#21099E" transform="translate(137,119)"/>
<path d="M0 0 C1.75546106 -0.09487961 3.51240612 -0.16256328 5.26953125 -0.21875 C6.24768799 -0.25935547 7.22584473 -0.29996094 8.23364258 -0.34179688 C11.57894531 0.0715315 12.54379988 0.96860592 14.6875 3.5 C15.21859375 4.221875 15.7496875 4.94375 16.296875 5.6875 C18.15339548 8.2082801 20.2020409 10.31143864 22.4375 12.5 C23.45650391 13.50546875 23.45650391 13.50546875 24.49609375 14.53125 C24.99238281 15.0159375 25.48867187 15.500625 26 16 C27.00109515 12.68929162 27.10356134 9.69915231 27.0625 6.25 C27.05347656 5.26515625 27.04445313 4.2803125 27.03515625 3.265625 C27.02355469 2.51796875 27.01195313 1.7703125 27 1 C29 0 29 0 37 0 C37 9.9 37 19.8 37 30 C33.37 30.33 29.74 30.66 26 31 C25.525625 30.195625 25.05125 29.39125 24.5625 28.5625 C21.41107119 23.81829129 17.28757885 19.72473066 13 16 C12.34 16 11.68 16 11 16 C10.95101562 16.99902344 10.90203125 17.99804688 10.8515625 19.02734375 C10.77679688 20.31769531 10.70203125 21.60804688 10.625 22.9375 C10.55539063 24.22527344 10.48578125 25.51304687 10.4140625 26.83984375 C10.27742188 27.88269531 10.14078125 28.92554688 10 30 C7.01787087 31.49106457 4.28390342 31.11941467 1 31 C0 30 0 30 -0.11352539 27.13256836 C-0.10828857 25.88096924 -0.10305176 24.62937012 -0.09765625 23.33984375 C-0.0962413 22.67537735 -0.09482635 22.01091095 -0.09336853 21.3263092 C-0.08775518 19.19666101 -0.07520054 17.06711661 -0.0625 14.9375 C-0.05748671 13.49674631 -0.05292351 12.05599097 -0.04882812 10.61523438 C-0.03778145 7.07678898 -0.02050792 3.53840461 0 0 Z " fill="#2209A0" transform="translate(91,119)"/>
<path d="M0 0 C1.20205078 0.00644531 2.40410156 0.01289062 3.64257812 0.01953125 C5.51139648 0.04466797 5.51139648 0.04466797 7.41796875 0.0703125 C9.31579102 0.08384766 9.31579102 0.08384766 11.25195312 0.09765625 C14.36998439 0.12118856 17.48762972 0.15406705 20.60546875 0.1953125 C21.5389419 4.53203418 21.82259138 8.70669698 21.85546875 13.1328125 C21.87609375 13.82310547 21.89671875 14.51339844 21.91796875 15.22460938 C21.95395638 19.97047801 21.21381262 23.22041034 18.60546875 27.1953125 C16.32901002 28.74544928 14.25104805 29.29681387 11.60546875 30.1953125 C11.27546875 29.5353125 10.94546875 28.8753125 10.60546875 28.1953125 C10.93546875 27.5353125 11.26546875 26.8753125 11.60546875 26.1953125 C10.28546875 26.5253125 8.96546875 26.8553125 7.60546875 27.1953125 C7.60546875 25.1953125 7.60546875 25.1953125 8.98046875 23.5703125 C10.60546875 22.1953125 10.60546875 22.1953125 12.60546875 22.1953125 C12.60546875 19.5553125 12.60546875 16.9153125 12.60546875 14.1953125 C11.94546875 13.8653125 11.28546875 13.5353125 10.60546875 13.1953125 C10.20199219 12.35742188 9.79851562 11.51953125 9.3828125 10.65625 C7.80706894 7.87144169 7.80706894 7.87144169 4.609375 7.671875 C3.47371094 7.72085938 2.33804688 7.76984375 1.16796875 7.8203125 C-0.53166016 7.87058594 -0.53166016 7.87058594 -2.265625 7.921875 C-4.78309588 8.1418787 -6.98479292 8.47298307 -9.39453125 9.1953125 C-9.39453125 9.8553125 -9.39453125 10.5153125 -9.39453125 11.1953125 C-10.38453125 11.1953125 -11.37453125 11.1953125 -12.39453125 11.1953125 C-12.32234375 11.85917969 -12.25015625 12.52304687 -12.17578125 13.20703125 C-12.0365625 14.53154297 -12.0365625 14.53154297 -11.89453125 15.8828125 C-11.80171875 16.75292969 -11.70890625 17.62304688 -11.61328125 18.51953125 C-11.40293261 21.09254589 -11.35733981 23.61515614 -11.39453125 26.1953125 C-10.07453125 26.8553125 -8.75453125 27.5153125 -7.39453125 28.1953125 C-9.14453125 29.3203125 -9.14453125 29.3203125 -11.39453125 30.1953125 C-13.64453125 29.3203125 -13.64453125 29.3203125 -15.39453125 28.1953125 C-15.39453125 27.5353125 -15.39453125 26.8753125 -15.39453125 26.1953125 C-16.05453125 26.1953125 -16.71453125 26.1953125 -17.39453125 26.1953125 C-17.39453125 25.5353125 -17.39453125 24.8753125 -17.39453125 24.1953125 C-18.05453125 24.1953125 -18.71453125 24.1953125 -19.39453125 24.1953125 C-19.39453125 23.2053125 -19.39453125 22.2153125 -19.39453125 21.1953125 C-18.07453125 20.5353125 -16.75453125 19.8753125 -15.39453125 19.1953125 C-15.39453125 17.8753125 -15.39453125 16.5553125 -15.39453125 15.1953125 C-16.71453125 15.1953125 -18.03453125 15.1953125 -19.39453125 15.1953125 C-18.36642916 9.76105862 -17.49905458 7.04413353 -13.16015625 3.37890625 C-8.87322452 0.5051445 -5.10168145 -0.04835717 0 0 Z M-14.39453125 12.1953125 C-13.39453125 14.1953125 -13.39453125 14.1953125 -13.39453125 14.1953125 Z " fill="#2107A0" transform="translate(132.39453125,40.8046875)"/>
<path d="M0 0 C1.93742341 -0.02703381 3.87495479 -0.04641125 5.8125 -0.0625 C6.89144531 -0.07410156 7.97039062 -0.08570313 9.08203125 -0.09765625 C12 0 12 0 15 1 C16.3426561 0.70646385 17.67627347 0.36964439 19 0 C25.57207499 -0.66487918 32.02768586 0.07975132 38 3 C40.37171966 5.11254205 42.16264705 7.4239815 44 10 C44.66 10.66 45.32 11.32 46 12 C48.33524782 9.74259377 50.18705073 7.7194239 52 5 C58.49585166 0.20387423 64.13942326 -0.44408201 72.01953125 0.41015625 C74.8863796 0.97751418 77.33637336 1.81343064 80 3 C80 3.33 80 3.66 80 4 C78.77023438 3.96519531 77.54046875 3.93039063 76.2734375 3.89453125 C74.64063873 3.86637955 73.0078251 3.83908087 71.375 3.8125 C70.56675781 3.78736328 69.75851563 3.76222656 68.92578125 3.73632812 C63.77944241 3.6735679 60.54517789 4.3358265 56 7 C55.34 7 54.68 7 54 7 C53.67 7.99 53.34 8.98 53 10 C52.34 10 51.68 10 51 10 C50.855625 10.763125 50.71125 11.52625 50.5625 12.3125 C50 15 50 15 49 18 C50.32 18 51.64 18 53 18 C53.625 19.875 53.625 19.875 54 22 C53.34 22.66 52.68 23.32 52 24 C51.01 24 50.02 24 49 24 C49 24.99 49 25.98 49 27 C49.66 27 50.32 27 51 27 C51 27.66 51 28.32 51 29 C49.35 28.67 47.7 28.34 46 28 C45.46375 28.721875 44.9275 29.44375 44.375 30.1875 C42.53760617 32.36336111 40.99978532 33.89098344 38.8125 35.625 C35.79133392 37.75800103 35.79133392 37.75800103 35 41 C35.99 41.495 35.99 41.495 37 42 C33.625 42.125 33.625 42.125 30 42 C29.34 41.34 28.68 40.68 28 40 C25.65393435 39.90183815 25.65393435 39.90183815 23.0625 40.25 C22.18722656 40.33765625 21.31195313 40.4253125 20.41015625 40.515625 C17.75176624 40.89112765 17.75176624 40.89112765 15 43 C13.34450469 43.38499891 11.6777567 43.72793135 10 44 C10 43.01 10 42.02 10 41 C12.475 40.505 12.475 40.505 15 40 C14.34 39.67 13.68 39.34 13 39 C13 38.34 13 37.68 13 37 C11.515 37.495 11.515 37.495 10 38 C9.071875 37.0409375 9.071875 37.0409375 8.125 36.0625 C6.17402388 33.96116416 6.17402388 33.96116416 4 33 C4 32.34 4 31.68 4 31 C3.34 31 2.68 31 2 31 C0.42589988 26.82237097 -0.24126552 23.40275519 -0.1953125 18.9453125 C-0.18886719 17.83671875 -0.18242188 16.728125 -0.17578125 15.5859375 C-0.15902344 14.44382812 -0.14226563 13.30171875 -0.125 12.125 C-0.11597656 10.9596875 -0.10695312 9.794375 -0.09765625 8.59375 C-0.07417432 5.72895423 -0.04133141 2.86458465 0 0 Z M2 2 C1.91238337 5.54150893 1.85940261 9.08273633 1.8125 12.625 C1.78736328 13.62402344 1.76222656 14.62304688 1.73632812 15.65234375 C1.68014561 21.30805032 1.88631047 25.21096571 5 30 C5.66 30 6.32 30 7 30 C7 30.66 7 31.32 7 32 C8.093125 32.639375 9.18625 33.27875 10.3125 33.9375 C11.23482422 34.47697266 11.23482422 34.47697266 12.17578125 35.02734375 C18.20093535 38.23989915 25.8717446 37.69516787 32.375 36.25 C35.50928559 34.75748305 38.24436634 33.11478863 41 31 C41.495 29.515 41.495 29.515 42 28 C42.515625 27.443125 43.03125 26.88625 43.5625 26.3125 C45.66636335 22.92802417 45.45872041 19.88705188 45 16 C43.45079863 11.48149599 40.35729502 7.77532367 36.23046875 5.41796875 C27.51014018 1.89177684 22.09782458 1.14578052 13 4 C11 4 11 4 8 2 C4.87478167 1.83300768 4.87478167 1.83300768 2 2 Z M31 38 C31.33 38.66 31.66 39.32 32 40 C32.66 39.67 33.32 39.34 34 39 C33.01 38.67 32.02 38.34 31 38 Z " fill="#200895" transform="translate(64,38)"/>
<path d="M0 0 C0.33 0.66 0.66 1.32 1 2 C2.0725 1.9175 3.145 1.835 4.25 1.75 C8 2 8 2 10.375 3.6875 C12.20245754 6.28811265 12.92047734 7.81909368 13 11 C11.5625 13.3125 11.5625 13.3125 10 15 C10.639375 15.5775 11.27875 16.155 11.9375 16.75 C14.90883191 19.99145299 14.90883191 19.99145299 15 23 C13.61846916 26.33192733 12.41348676 27.74790245 9.32348633 29.63183594 C5.57952454 31.17309516 2.92245098 31.35906446 -1.11328125 31.328125 C-2.09581123 31.32531525 -2.09581123 31.32531525 -3.09819031 31.32244873 C-4.47054196 31.31577037 -5.84287597 31.30194067 -7.21508789 31.28125 C-9.32390869 31.24983002 -11.43198292 31.2402477 -13.54101562 31.234375 C-23.8361847 31.1638153 -23.8361847 31.1638153 -25 30 C-25.28150942 25.71508535 -25.23182832 21.41805904 -25.25 17.125 C-25.270625 15.91457031 -25.29125 14.70414063 -25.3125 13.45703125 C-25.31765625 12.29816406 -25.3228125 11.13929688 -25.328125 9.9453125 C-25.3374707 8.87812988 -25.34681641 7.81094727 -25.35644531 6.71142578 C-25 4 -25 4 -23.78271484 2.14453125 C-21.43230112 0.6355283 -19.92977406 0.67060322 -17.1484375 0.7421875 C-16.21515625 0.75636719 -15.281875 0.77054687 -14.3203125 0.78515625 C-12.86238281 0.82962891 -12.86238281 0.82962891 -11.375 0.875 C-9.44539984 0.91816211 -7.51570754 0.95744095 -5.5859375 0.9921875 C-4.7304834 1.01651855 -3.8750293 1.04084961 -2.99365234 1.06591797 C-0.99950905 1.22729359 -0.99950905 1.22729359 0 0 Z M-22 4 C-24.76692182 8.5718344 -24.22499342 13.65514705 -24.125 18.8125 C-24.11597656 19.69615234 -24.10695312 20.57980469 -24.09765625 21.49023438 C-24.07419637 23.66027359 -24.03832865 25.83017247 -24 28 C-19.80438593 30.09780704 -14.43066439 29.53665381 -9.8125 29.75 C-8.68779297 29.81832031 -7.56308594 29.88664062 -6.40429688 29.95703125 C0.91895942 30.29284194 6.40337698 30.26965729 12.0625 25.125 C13.26401783 22.96020495 13.26401783 22.96020495 12.4375 20.3125 C11.22370676 17.84004806 11.22370676 17.84004806 8.875 17.1875 C8.25625 17.125625 7.6375 17.06375 7 17 C7 15.68 7 14.36 7 13 C6.05362671 13.05329468 6.05362671 13.05329468 5.08813477 13.10766602 C2.24652446 13.26467409 -0.595449 13.4136919 -3.4375 13.5625 C-4.92733398 13.64661133 -4.92733398 13.64661133 -6.44726562 13.73242188 C-7.39150391 13.78076172 -8.33574219 13.82910156 -9.30859375 13.87890625 C-10.18314209 13.9260376 -11.05769043 13.97316895 -11.95874023 14.02172852 C-14 14 -14 14 -15 13 C-15.15672777 9.47362528 -15.04028969 6.38094149 -14 3 C-17.04386724 2.91773332 -19.07175348 3.02391783 -22 4 Z M-14 7 C-14 8.98 -14 10.96 -14 13 C-9.38 13 -4.76 13 0 13 C0.66 11.68 1.32 10.36 2 9 C-1.4766338 6.85663839 -4.21229195 6.78722374 -8.25 6.875 C-9.86648437 6.90207031 -9.86648437 6.90207031 -11.515625 6.9296875 C-12.33546875 6.95289062 -13.1553125 6.97609375 -14 7 Z " fill="#1E0B8A" transform="translate(70,118)"/>
<path d="M0 0 C1.32 0 2.64 0 4 0 C4 1.32 4 2.64 4 4 C4.66 3.67 5.32 3.34 6 3 C6.33 2.01 6.66 1.02 7 0 C8.32 0 9.64 0 11 0 C11.33 1.32 11.66 2.64 12 4 C12.99 3.34 13.98 2.68 15 2 C17.5 1.6875 17.5 1.6875 20 2 C21.8125 3.5 21.8125 3.5 23 5 C23 4.34 23 3.68 23 3 C23.99 3 24.98 3 26 3 C26.33 4.32 26.66 5.64 27 7 C27.66 5.35 28.32 3.7 29 2 C29.66 2 30.32 2 31 2 C31 2.66 31 3.32 31 4 C31.515625 3.649375 32.03125 3.29875 32.5625 2.9375 C35.93638815 1.63985071 38.46025015 2.45072847 42 3 C43.0725 2.814375 44.145 2.62875 45.25 2.4375 C48 2 48 2 51 4 C51.3125 6.5 51.3125 6.5 51 9 C50.34 9.66 49.68 10.32 49 11 C47.00513984 10.738379 45.01046812 10.47187941 43.0234375 10.15625 C40.30614075 9.94642014 38.4692241 10.93222741 36 12 C34.32345271 11.72057545 32.65391846 11.39171753 31 11 C30.01 11.33 29.02 11.66 28 12 C25.64811553 11.40206327 23.31074405 10.74118205 21 10 C20.67 10.33 20.34 10.66 20 11 C14.47058824 11.23529412 14.47058824 11.23529412 12 10 C11.34 10.66 10.68 11.32 10 12 C9.01 11.34 8.02 10.68 7 10 C7 9.01 7 8.02 7 7 C6.01 7 5.02 7 4 7 C3.67 8.32 3.34 9.64 3 11 C2.01 11 1.02 11 0 11 C0 7.37 0 3.74 0 0 Z M32 6 C33 9 33 9 33 9 Z M17 6 C16.34 6.66 15.68 7.32 15 8 C15.99 8 16.98 8 18 8 C17.67 7.34 17.34 6.68 17 6 Z " fill="#0C054E" transform="translate(45,154)"/>
<path d="M0 0 C2.0625 0.4375 2.0625 0.4375 4 1 C4 1.66 4 2.32 4 3 C4.66 2.34 5.32 1.68 6 1 C9 0.6875 9 0.6875 12 1 C12.66 1.99 13.32 2.98 14 4 C14.639375 3.835 15.27875 3.67 15.9375 3.5 C19.37665406 2.93850546 22.54301532 3.05960088 26.01171875 3.2578125 C26.66785156 3.17273438 27.32398438 3.08765625 28 3 C28.66 2.01 29.32 1.02 30 0 C31.313702 0.6433848 32.62592898 1.28978215 33.9375 1.9375 C34.66839844 2.29714844 35.39929688 2.65679687 36.15234375 3.02734375 C38 4 38 4 39 5 C39.33 3.68 39.66 2.36 40 1 C41.32 1.33 42.64 1.66 44 2 C43.67 5.3 43.34 8.6 43 12 C41.33333333 12 39.66666667 12 38 12 C36.62361068 12.1547747 35.248676 12.32275148 33.875 12.5 C32.59625 12.665 31.3175 12.83 30 13 C29.34 11.02 28.68 9.04 28 7 C27.34 7 26.68 7 26 7 C26 8.65 26 10.3 26 12 C20.99513447 13.22069891 17.87462187 12.44433241 13 11 C11.66068704 11.30843099 10.32767788 11.64480942 9 12 C7.25113019 12.06624507 5.49997252 12.08552595 3.75 12.0625 C2.85796875 12.05347656 1.9659375 12.04445312 1.046875 12.03515625 C0.37140625 12.02355469 -0.3040625 12.01195312 -1 12 C-1.02687279 10.18757948 -1.04633715 8.37504767 -1.0625 6.5625 C-1.07410156 5.55316406 -1.08570312 4.54382813 -1.09765625 3.50390625 C-1 1 -1 1 0 0 Z M12 5 C12.33 6.32 12.66 7.64 13 9 C13 7.68 13 6.36 13 5 C12.67 5 12.34 5 12 5 Z M33 6 C33 6.99 33 7.98 33 9 C33.66 9 34.32 9 35 9 C35 8.01 35 7.02 35 6 C34.34 6 33.68 6 33 6 Z M22 8 C23 10 23 10 23 10 Z " fill="#12084F" transform="translate(123,153)"/>
<path d="M0 0 C1.26328125 0.01804688 2.5265625 0.03609375 3.828125 0.0546875 C4.79234375 0.07789063 5.7565625 0.10109375 6.75 0.125 C10.34378942 5.51568413 11.20356243 8.66173535 10.75 15.125 C10.09 15.125 9.43 15.125 8.75 15.125 C8.42 16.115 8.09 17.105 7.75 18.125 C5.8125 18.6875 5.8125 18.6875 3.75 19.125 C3.09 19.785 2.43 20.445 1.75 21.125 C-1.875 21.25 -1.875 21.25 -5.25 21.125 C-4.92 21.785 -4.59 22.445 -4.25 23.125 C-4.91 23.125 -5.57 23.125 -6.25 23.125 C-6.25 23.785 -6.25 24.445 -6.25 25.125 C-5.59 25.455 -4.93 25.785 -4.25 26.125 C-4.25 26.785 -4.25 27.445 -4.25 28.125 C-4.91 28.125 -5.57 28.125 -6.25 28.125 C-5.92 29.115 -5.59 30.105 -5.25 31.125 C-5.87648437 31.23457031 -6.50296875 31.34414062 -7.1484375 31.45703125 C-8.37433594 31.69486328 -8.37433594 31.69486328 -9.625 31.9375 C-10.84316406 32.16373047 -10.84316406 32.16373047 -12.0859375 32.39453125 C-14.60820641 33.00044942 -14.60820641 33.00044942 -16.25 36.125 C-16.91 36.125 -17.57 36.125 -18.25 36.125 C-18.146875 36.846875 -18.04375 37.56875 -17.9375 38.3125 C-18.37449065 42.24541589 -20.35082197 43.58821923 -23.25 46.125 C-24.95884005 44.50160195 -26.62446717 42.83180947 -28.25 41.125 C-28.25 40.465 -28.25 39.805 -28.25 39.125 C-29.87626404 37.74267557 -31.5425002 36.40562485 -33.25 35.125 C-32.92 34.135 -32.59 33.145 -32.25 32.125 C-31.10073734 33.07921808 -29.95569459 34.03852045 -28.8125 35 C-28.17441406 35.53367188 -27.53632812 36.06734375 -26.87890625 36.6171875 C-25.25 38.125 -25.25 38.125 -24.25 40.125 C-23.70730469 39.4753125 -23.16460937 38.825625 -22.60546875 38.15625 C-21.89003906 37.3209375 -21.17460938 36.485625 -20.4375 35.625 C-19.72980469 34.7896875 -19.02210937 33.954375 -18.29296875 33.09375 C-16.25 31.125 -16.25 31.125 -13.25 31.125 C-12.92 30.465 -12.59 29.805 -12.25 29.125 C-11.59 29.455 -10.93 29.785 -10.25 30.125 C-13.06199255 27.14446531 -16.2474589 24.94837979 -19.60546875 22.625 C-20.14816406 22.13 -20.69085938 21.635 -21.25 21.125 C-21.25 20.135 -21.25 19.145 -21.25 18.125 C-19.3125 18.5 -19.3125 18.5 -17.25 19.125 C-16.92 19.785 -16.59 20.445 -16.25 21.125 C-13.72266765 21.78055119 -13.72266765 21.78055119 -11.25 22.125 C-11.25 21.465 -11.25 20.805 -11.25 20.125 C-11.74113281 19.72667969 -12.23226562 19.32835938 -12.73828125 18.91796875 C-15.0245924 16.20629738 -14.540638 13.90981278 -14.4375 10.4375 C-14.41042969 9.25800781 -14.38335937 8.07851563 -14.35546875 6.86328125 C-14.32066406 5.95964844 -14.28585938 5.05601563 -14.25 4.125 C-13.26 4.125 -12.27 4.125 -11.25 4.125 C-11.25 3.465 -11.25 2.805 -11.25 2.125 C-7.54583874 -0.25090142 -4.32015427 -0.08000286 0 0 Z M-9.25 4.125 C-11.43039776 6.79774564 -12.25 8.23127341 -12.25 11.6875 C-10.89736146 14.98455644 -9.2364876 16.22450789 -6.25 18.125 C-2.0372076 19.63728445 0.65885794 18.74242826 4.75 17.125 C4.75 16.465 4.75 15.805 4.75 15.125 C5.74 14.795 6.73 14.465 7.75 14.125 C8.76556171 10.48590386 9.09306794 8.78130389 7.3125 5.375 C2.01153155 0.72049112 -3.345387 -0.13181402 -9.25 4.125 Z " fill="#1A0682" transform="translate(134.25,47.875)"/>
<path d="M0 0 C3.64576392 -0.05878077 7.29140352 -0.0938558 10.9375 -0.125 C12.46987305 -0.15013672 12.46987305 -0.15013672 14.03320312 -0.17578125 C28.95745652 -0.27114389 28.95745652 -0.27114389 33.65625 3.23632812 C35.0625 4.625 35.0625 4.625 37 7 C35.52307692 12.66153846 35.52307692 12.66153846 32.875 14.375 C32.25625 14.58125 31.6375 14.7875 31 15 C31 12 31 12 33 10 C32.67958603 7.39719432 32.67958603 7.39719432 32 5 C29.36 4.67 26.72 4.34 24 4 C24.639375 4.226875 25.27875 4.45375 25.9375 4.6875 C28 6 28 6 28.75 8.625 C28.87375 9.800625 28.87375 9.800625 29 11 C26.06171403 13.50298434 23.82097239 14.46930939 20 15 C20 14.34 20 13.68 20 13 C13.565 13.495 13.565 13.495 7 14 C6.67 11.36 6.34 8.72 6 6 C4.68 6 3.36 6 2 6 C2 13.92 2 21.84 2 30 C1.01 29.67 0.02 29.34 -1 29 C-1.02891546 24.54168018 -1.04676981 20.08338431 -1.0625 15.625 C-1.07087891 14.35398438 -1.07925781 13.08296875 -1.08789062 11.7734375 C-1.09111328 10.56171875 -1.09433594 9.35 -1.09765625 8.1015625 C-1.10289307 6.98088379 -1.10812988 5.86020508 -1.11352539 4.70556641 C-1 2 -1 2 0 0 Z M11 6 C9.98888907 9.04913228 9.98888907 9.04913228 11 12 C12.91541138 12.10841951 14.83259773 12.18578079 16.75 12.25 C18.35101563 12.31960937 18.35101563 12.31960937 19.984375 12.390625 C23.63802112 11.91735478 24.72228105 10.80844958 27 8 C21.51324804 6.13216954 16.77807024 5.7641604 11 6 Z " fill="#1B0788" transform="translate(137,119)"/>
<path d="M0 0 C0.33 0 0.66 0 1 0 C1 6.27 1 12.54 1 19 C2.65 18.67 4.3 18.34 6 18 C7.43628457 17.93733488 8.8750555 17.91313653 10.3125 17.9375 C12.1378125 17.9684375 12.1378125 17.9684375 14 18 C14.33 17.01 14.66 16.02 15 15 C15.33 15.99 15.66 16.98 16 18 C28.53754316 18.02135163 28.53754316 18.02135163 39.59375 12.5703125 C41.3335599 10.97884848 41.3335599 10.97884848 41 8 C41.66 8 42.32 8 43 8 C43.33 7.01 43.66 6.02 44 5 C45.65 4.67 47.3 4.34 49 4 C48.67 4.99 48.34 5.98 48 7 C48.66 7 49.32 7 50 7 C50 7.66 50 8.32 50 9 C50.66 9 51.32 9 52 9 C52.33 8.34 52.66 7.68 53 7 C55.475 7.495 55.475 7.495 58 8 C56.68 9.65 55.36 11.3 54 13 C60.55616112 17.37077408 66.32700919 17.28755768 73.921875 17.07421875 C79.31709231 16.92520071 84.63865343 17.43137233 90 18 C90 15.03 90 12.06 90 9 C90.66 8.67 91.32 8.34 92 8 C91.67 12.29 91.34 16.58 91 21 C89.97261719 20.91621094 88.94523437 20.83242187 87.88671875 20.74609375 C78.5294291 20.0195753 78.5294291 20.0195753 69.1875 20.6875 C63.2759008 21.40514482 58.23501133 19.73340997 53 17 C52.505 16.01 52.505 16.01 52 15 C51.01 14.34 50.02 13.68 49 13 C47.94895617 11.36504293 46.94011682 9.70116376 46 8 C45.360625 9.051875 44.72125 10.10375 44.0625 11.1875 C40.71378387 15.70138585 37.48001339 18.46420007 32 20 C27.93993593 20.32487813 23.89407279 20.25602757 19.82763672 20.07983398 C15.07077906 19.88304185 11.48924546 20.12162427 7 22 C6.67 21.67 6.34 21.34 6 21 C5.175 21 4.35 21 3.5 21 C2.675 21 1.85 21 1 21 C0 20 0 20 -0.11352539 18.05053711 C-0.10567017 16.8015564 -0.10567017 16.8015564 -0.09765625 15.52734375 C-0.09443359 14.62822266 -0.09121094 13.72910156 -0.08789062 12.80273438 C-0.07951172 11.85720703 -0.07113281 10.91167969 -0.0625 9.9375 C-0.05798828 8.98810547 -0.05347656 8.03871094 -0.04882812 7.06054688 C-0.0370011 4.70696935 -0.02052025 2.35351523 0 0 Z " fill="#19086F" transform="translate(64,94)"/>
<path d="M0 0 C0.76699219 0.2165625 1.53398438 0.433125 2.32421875 0.65625 C13.26161947 3.40012753 23.78921228 3.31292637 35 3 C35 2.34 35 1.68 35 1 C35.598125 1.350625 36.19625 1.70125 36.8125 2.0625 C39.10813214 3.33304698 39.10813214 3.33304698 42 2 C44.3406065 2.27769908 46.67624308 2.60539977 49 3 C49.495 6.465 49.495 6.465 50 10 C48.02 10 46.04 10 44 10 C44 9.34 44 8.68 44 8 C43.13117188 8.08378906 42.26234375 8.16757813 41.3671875 8.25390625 C40.21476562 8.35574219 39.06234375 8.45757812 37.875 8.5625 C36.16957031 8.71912109 36.16957031 8.71912109 34.4296875 8.87890625 C31.10277764 8.99637118 28.26270203 8.58573052 25 8 C22.6618385 8.29758419 20.32817964 8.63239269 18 9 C14.1875 9.1875 14.1875 9.1875 11 9 C10.34 8.34 9.68 7.68 9 7 C6.11564062 7 3.57820832 7.12290556 0.75 7.5 C-0.4875 7.665 -1.725 7.83 -3 8 C-2.34 7.34 -1.68 6.68 -1 6 C-0.60235737 4.01178687 -0.26224651 2.01055661 0 0 Z M35 3 C36 5 36 5 36 5 Z " fill="#0C0A42" transform="translate(84,166)"/>
<path d="M0 0 C1.3921875 0.3403125 1.3921875 0.3403125 2.8125 0.6875 C3.1425 1.6775 3.4725 2.6675 3.8125 3.6875 C5.6073633 5.46847763 5.6073633 5.46847763 7.75 7.1875 C10.32225192 9.31626021 11.93510763 10.87141145 13.8125 13.6875 C13.1525 13.6875 12.4925 13.6875 11.8125 13.6875 C12.8025 15.9975 13.7925 18.3075 14.8125 20.6875 C14.1525 20.6875 13.4925 20.6875 12.8125 20.6875 C9.8125 17.22596154 9.8125 17.22596154 9.8125 14.6875 C9.1525 14.6875 8.4925 14.6875 7.8125 14.6875 C7.173125 14.0275 6.53375 13.3675 5.875 12.6875 C3.93237668 10.33942708 3.93237668 10.33942708 0.8125 10.6875 C0.8125 15.9675 0.8125 21.2475 0.8125 26.6875 C-0.8375 26.6875 -2.4875 26.6875 -4.1875 26.6875 C-7.10243325 22.31510012 -6.51720877 18.32947939 -6.5 13.1875 C-6.51611328 12.22457031 -6.53222656 11.26164063 -6.54882812 10.26953125 C-6.54947266 9.34527344 -6.55011719 8.42101562 -6.55078125 7.46875 C-6.55376221 6.62376953 -6.55674316 5.77878906 -6.55981445 4.90820312 C-6.1875 2.6875 -6.1875 2.6875 -4.86401367 0.86914062 C-3.1875 -0.3125 -3.1875 -0.3125 0 0 Z " fill="#220899" transform="translate(98.1875,120.3125)"/>
<path d="M0 0 C1.93742341 -0.02703381 3.87495479 -0.04641125 5.8125 -0.0625 C6.89144531 -0.07410156 7.97039062 -0.08570313 9.08203125 -0.09765625 C12 0 12 0 15 1 C16.3426561 0.70646385 17.67627347 0.36964439 19 0 C25.57207499 -0.66487918 32.02768586 0.07975132 38 3 C40.37171966 5.11254205 42.16264705 7.4239815 44 10 C44.66 10.66 45.32 11.32 46 12 C45.34 13.65 44.68 15.3 44 17 C43.9175 16.443125 43.835 15.88625 43.75 15.3125 C42.39950078 11.14846072 40.00458752 8.5738476 36.23046875 6.41796875 C28.38474586 3.22271333 28.38474586 3.22271333 20 3 C18.72125 3.12375 17.4425 3.2475 16.125 3.375 C15.09375 3.58125 14.0625 3.7875 13 4 C12.67 4.66 12.34 5.32 12 6 C11.46375 5.525625 10.9275 5.05125 10.375 4.5625 C7.56772408 2.71560795 5.29474551 2.46487505 2 2 C2.11055553 5.54227101 2.24102309 9.0835436 2.375 12.625 C2.42140625 14.12353516 2.42140625 14.12353516 2.46875 15.65234375 C2.67239148 20.77732101 2.98611183 25.20268917 5 30 C5.66 30 6.32 30 7 30 C7 30.66 7 31.32 7 32 C9.93720508 33.52299523 12.9168649 34.80100302 16 36 C15.01 36.99 14.02 37.98 13 39 C13 38.34 13 37.68 13 37 C11.515 37.495 11.515 37.495 10 38 C9.071875 37.0409375 9.071875 37.0409375 8.125 36.0625 C6.17402388 33.96116416 6.17402388 33.96116416 4 33 C4 32.34 4 31.68 4 31 C3.34 31 2.68 31 2 31 C0.42589988 26.82237097 -0.24126552 23.40275519 -0.1953125 18.9453125 C-0.18886719 17.83671875 -0.18242188 16.728125 -0.17578125 15.5859375 C-0.15902344 14.44382812 -0.14226563 13.30171875 -0.125 12.125 C-0.11597656 10.9596875 -0.10695312 9.794375 -0.09765625 8.59375 C-0.07417432 5.72895423 -0.04133141 2.86458465 0 0 Z " fill="#030213" transform="translate(64,38)"/>
<path d="M0 0 C2.46800047 1.15173355 4.04783565 2.04783565 6 4 C5.77459283 10.19869707 5.77459283 10.19869707 3.1875 12.875 C-0.7604774 14.90538838 -4.23146765 15.12110921 -8.640625 15.09765625 C-9.71054688 15.09443359 -10.78046875 15.09121094 -11.8828125 15.08789062 C-12.99398437 15.07951172 -14.10515625 15.07113281 -15.25 15.0625 C-16.93996094 15.05573242 -16.93996094 15.05573242 -18.6640625 15.04882812 C-21.44276217 15.03705397 -24.22135409 15.0206084 -27 15 C-27 14.67 -27 14.34 -27 14 C-21.72 13.34 -16.44 12.68 -11 12 C-13.10375 11.896875 -15.2075 11.79375 -17.375 11.6875 C-20.9609375 11.51171875 -20.9609375 11.51171875 -24 11 C-26 8 -26 8 -25.6875 4.875 C-25 2 -25 2 -24 1 C-21.00820277 0.84672566 -18.05543676 0.76834751 -15.0625 0.75 C-14.22525391 0.729375 -13.38800781 0.70875 -12.52539062 0.6875 C-11.72423828 0.68234375 -10.92308594 0.6771875 -10.09765625 0.671875 C-8.99176147 0.65785645 -8.99176147 0.65785645 -7.86352539 0.64355469 C-7.24856201 0.76118164 -6.63359863 0.87880859 -6 1 C-3.85084215 4.22373677 -3.61713197 5.26703674 -4 9 C-4.66 9.66 -5.32 10.32 -6 11 C-2.56206661 10.81870185 -2.56206661 10.81870185 1 10 C2.51294288 8.06402968 2.51294288 8.06402968 3 6 C2.505 5.38125 2.01 4.7625 1.5 4.125 C0 2 0 2 0 0 Z M-23 3 C-23 4.98 -23 6.96 -23 9 C-20.37493198 9.02690844 -17.75013827 9.04679404 -15.125 9.0625 C-14.37863281 9.07087891 -13.63226563 9.07925781 -12.86328125 9.08789062 C-8.80154422 9.20688084 -8.80154422 9.20688084 -5 8 C-5.34786708 6.02463255 -5.34786708 6.02463255 -6 4 C-9.06533164 2.46733418 -12.26754272 2.89723529 -15.625 2.9375 C-16.68460938 2.94426758 -16.68460938 2.94426758 -17.765625 2.95117188 C-19.51045275 2.96296125 -21.255237 2.98089676 -23 3 Z " fill="#180679" transform="translate(170,134)"/>
<path d="M0 0 C0.08811914 3.33316277 0.14076197 6.66602047 0.1875 10 C0.21263672 10.93457031 0.23777344 11.86914062 0.26367188 12.83203125 C0.339556 20.06631756 -0.29683107 25.9209894 -5.19140625 31.49609375 C-5.97386719 32.13675781 -6.75632813 32.77742188 -7.5625 33.4375 C-8.34753906 34.09621094 -9.13257813 34.75492188 -9.94140625 35.43359375 C-12 37 -12 37 -14 38 C-12.783125 38.474375 -11.56625 38.94875 -10.3125 39.4375 C-5.19798191 41.99021684 -2.94160245 45.72212292 -1 51 C-0.6875 54.5625 -0.6875 54.5625 -1 57 C-2.97967481 54.03048779 -4.41633146 51.07056683 -5.90234375 47.83984375 C-7.01078617 45.68200395 -7.01078617 45.68200395 -10 44 C-10.33 44.99 -10.66 45.98 -11 47 C-12 45 -13 43 -14 41 C-16.30965848 39.94647157 -18.6429774 38.94280904 -21 38 C-20.4375 36.0625 -20.4375 36.0625 -19 34 C-16.6693782 33.64820803 -14.33564933 33.31669821 -12 33 C-9.2299003 31.03490091 -9.2299003 31.03490091 -7 29 C-6.34 29 -5.68 29 -5 29 C-2.59070448 23.36566322 -2.76920169 18.1310889 -2.875 12.125 C-2.88402344 11.15046875 -2.89304688 10.1759375 -2.90234375 9.171875 C-2.9257823 6.78114328 -2.96164911 4.39053901 -3 2 C-5.97 2 -8.94 2 -12 2 C-12.33 1.34 -12.66 0.68 -13 0 C-11.39679026 -0.19551338 -9.79237014 -0.38111983 -8.1875 -0.5625 C-7.29417969 -0.66691406 -6.40085938 -0.77132812 -5.48046875 -0.87890625 C-3 -1 -3 -1 0 0 Z " fill="#130461" transform="translate(156,39)"/>
<path d="M0 0 C1.08667969 0.02707031 2.17335938 0.05414063 3.29296875 0.08203125 C4.54013672 0.13423828 4.54013672 0.13423828 5.8125 0.1875 C5.8125 0.5175 5.8125 0.8475 5.8125 1.1875 C2.1825 1.5175 -1.4475 1.8475 -5.1875 2.1875 C-7.32887154 7.49740503 -7.60857063 12.42045407 -7.8125 18.0625 C-7.85117187 18.94164062 -7.88984375 19.82078125 -7.9296875 20.7265625 C-8.02331034 22.87988793 -8.10646459 25.03366414 -8.1875 27.1875 C-3.83448985 27.44382348 0.51963804 27.66270683 4.875 27.875 C6.10412109 27.94783203 7.33324219 28.02066406 8.59960938 28.09570312 C17.64065763 28.53511196 17.64065763 28.53511196 25.8125 25.1875 C27.42256032 22.75187999 27.42256032 22.75187999 27.8125 20.1875 C26.42054085 17.4035817 24.65674221 17.20851003 21.8125 16.1875 C22.37621414 12.91795798 23.31212266 11.36174117 25.8125 9.1875 C25.0390625 8.0428125 25.0390625 8.0428125 24.25 6.875 C23.775625 5.988125 23.30125 5.10125 22.8125 4.1875 C23.1425 3.1975 23.4725 2.2075 23.8125 1.1875 C26.17121993 3.24186898 27.64242505 4.73396679 28.75 7.6875 C28.82868762 10.83500486 27.91095357 11.92117014 25.8125 14.1875 C26.7715625 15.05375 26.7715625 15.05375 27.75 15.9375 C30.72133191 19.17895299 30.72133191 19.17895299 30.8125 22.1875 C29.43096916 25.51942733 28.22598676 26.93540245 25.13598633 28.81933594 C21.39202454 30.36059516 18.73495098 30.54656446 14.69921875 30.515625 C13.71668877 30.51281525 13.71668877 30.51281525 12.71430969 30.50994873 C11.34195804 30.50327037 9.96962403 30.48944067 8.59741211 30.46875 C6.48859131 30.43733002 4.38051708 30.4277477 2.27148438 30.421875 C-8.0236847 30.3513153 -8.0236847 30.3513153 -9.1875 29.1875 C-9.46900942 24.90258535 -9.41932832 20.60555904 -9.4375 16.3125 C-9.458125 15.10207031 -9.47875 13.89164063 -9.5 12.64453125 C-9.50515625 11.48566406 -9.5103125 10.32679688 -9.515625 9.1328125 C-9.5249707 8.06562988 -9.53431641 6.99844727 -9.54394531 5.89892578 C-9.1875 3.1875 -9.1875 3.1875 -7.84936523 1.33422852 C-5.28609724 -0.43449042 -3.06005095 -0.09871132 0 0 Z " fill="#150660" transform="translate(54.1875,118.8125)"/>
<path d="M0 0 C0.33 0.66 0.66 1.32 1 2 C1.99 1.67 2.98 1.34 4 1 C4.66 1.33 5.32 1.66 6 2 C8.33293334 2.04320247 10.6670134 2.04022391 13 2 C14.32 2 15.64 2 17 2 C17.639375 1.814375 18.27875 1.62875 18.9375 1.4375 C21.57483891 0.87806447 23.43142325 1.23636908 26 2 C26.33 2.66 26.66 3.32 27 4 C30.465 3.505 30.465 3.505 34 3 C33.67 4.98 33.34 6.96 33 9 C30.42758446 9.66147828 28.50854496 10.11395174 25.890625 9.52734375 C21.89045262 8.79758257 17.99285511 8.93453825 13.9375 9 C12.34251766 9.02562221 10.74745279 9.0466151 9.15234375 9.0625 C8.1003479 9.07990234 8.1003479 9.07990234 7.02709961 9.09765625 C4.90143971 8.99525182 3.04229419 8.58212117 1 8 C1 6.68 1 5.36 1 4 C0.34 4 -0.32 4 -1 4 C-0.67 2.68 -0.34 1.36 0 0 Z " fill="#08033E" transform="translate(142,166)"/>
<path d="M0 0 C1.75546106 -0.09487961 3.51240612 -0.16256328 5.26953125 -0.21875 C6.24768799 -0.25935547 7.22584473 -0.29996094 8.23364258 -0.34179688 C11.57894531 0.0715315 12.54379988 0.96860592 14.6875 3.5 C15.21859375 4.221875 15.7496875 4.94375 16.296875 5.6875 C18.15339548 8.2082801 20.2020409 10.31143864 22.4375 12.5 C23.45650391 13.50546875 23.45650391 13.50546875 24.49609375 14.53125 C24.99238281 15.0159375 25.48867187 15.500625 26 16 C25.67 16.99 25.34 17.98 25 19 C24.16855469 18.15695313 23.33710937 17.31390625 22.48046875 16.4453125 C21.38294603 15.33840925 20.28528241 14.2316457 19.1875 13.125 C18.64029297 12.56941406 18.09308594 12.01382813 17.52929688 11.44140625 C16.99755859 10.90644531 16.46582031 10.37148437 15.91796875 9.8203125 C15.43094482 9.32805176 14.9439209 8.83579102 14.44213867 8.32861328 C12.82996499 6.77411511 12.82996499 6.77411511 10 5 C10 4.01 10 3.02 10 2 C7.36 2 4.72 2 2 2 C1.9710663 5.79165074 1.95322399 9.58327327 1.9375 13.375 C1.92912109 14.45523438 1.92074219 15.53546875 1.91210938 16.6484375 C1.90888672 17.6796875 1.90566406 18.7109375 1.90234375 19.7734375 C1.89710693 20.72653809 1.89187012 21.67963867 1.88647461 22.66162109 C1.84357401 25.02324406 1.84357401 25.02324406 3 27 C5.52733235 27.65555119 5.52733235 27.65555119 8 28 C7.91621094 27.09636719 7.83242187 26.19273437 7.74609375 25.26171875 C7.59333984 23.49248047 7.59333984 23.49248047 7.4375 21.6875 C7.33308594 20.51574219 7.22867188 19.34398437 7.12109375 18.13671875 C7 15 7 15 8 12 C9.875 11.125 9.875 11.125 12 11 C13.75 12.3125 13.75 12.3125 15 14 C15 14.66 15 15.32 15 16 C15.66 16 16.32 16 17 16 C18.625 18 18.625 18 20 20 C19.67 20.66 19.34 21.32 19 22 C18.50628906 21.566875 18.01257813 21.13375 17.50390625 20.6875 C16.86324219 20.130625 16.22257812 19.57375 15.5625 19 C14.92441406 18.443125 14.28632812 17.88625 13.62890625 17.3125 C12.21886821 15.89542935 12.21886821 15.89542935 11 16 C10.95101562 16.99902344 10.90203125 17.99804688 10.8515625 19.02734375 C10.77679688 20.31769531 10.70203125 21.60804688 10.625 22.9375 C10.55539063 24.22527344 10.48578125 25.51304687 10.4140625 26.83984375 C10.27742188 27.88269531 10.14078125 28.92554688 10 30 C7.01787087 31.49106457 4.28390342 31.11941467 1 31 C0 30 0 30 -0.11352539 27.13256836 C-0.10828857 25.88096924 -0.10305176 24.62937012 -0.09765625 23.33984375 C-0.0962413 22.67537735 -0.09482635 22.01091095 -0.09336853 21.3263092 C-0.08775518 19.19666101 -0.07520054 17.06711661 -0.0625 14.9375 C-0.05748671 13.49674631 -0.05292351 12.05599097 -0.04882812 10.61523438 C-0.03778145 7.07678898 -0.02050792 3.53840461 0 0 Z " fill="#170A57" transform="translate(91,119)"/>
<path d="M0 0 C0.66 0.33 1.32 0.66 2 1 C3.66821323 0.67449498 5.33499557 0.34153937 7 0 C7.33 0.33 7.66 0.66 8 1 C9.66608987 1.04384447 11.33380554 1.0396713 13 1 C13.99 1 14.98 1 16 1 C16.33 1.33 16.66 1.66 17 2 C18.68608966 2.07205511 20.37500659 2.08386068 22.0625 2.0625 C22.98160156 2.05347656 23.90070313 2.04445312 24.84765625 2.03515625 C25.55792969 2.02355469 26.26820312 2.01195312 27 2 C27.33 4.31 27.66 6.62 28 9 C26.02 9 24.04 9 22 9 C22 8.34 22 7.68 22 7 C14.70098575 6.88352637 7.56338899 7.11590855 0.30078125 7.87890625 C-0.45847656 7.91886719 -1.21773437 7.95882812 -2 8 C-3 7 -3 7 -3.0625 3.9375 C-3.041875 2.968125 -3.02125 1.99875 -3 1 C-2.01 0.67 -1.02 0.34 0 0 Z " fill="#090944" transform="translate(48,167)"/>
<path d="M0 0 C2.66106086 2.75688853 3.40121489 4.51860868 3.53515625 8.3359375 C2.14862665 12.57255571 1.0872725 14.22196908 -2.58984375 16.7734375 C-7.7933343 18.38276447 -12.26744278 18.42874591 -17.15234375 15.8984375 C-19.54999502 14.19547794 -20.43975521 13.26471092 -21.3046875 10.43359375 C-21.56441357 8.18144848 -21.66876171 6.03739641 -21.58984375 3.7734375 C-20.92984375 3.7734375 -20.26984375 3.7734375 -19.58984375 3.7734375 C-19.91984375 2.7834375 -20.24984375 1.7934375 -20.58984375 0.7734375 C-13.76638383 -2.96321912 -6.82153264 -5.26280405 0 0 Z M-17.58984375 2.7734375 C-18.86767155 6.83241994 -19.06861643 8.81589213 -17.15234375 12.6484375 C-13.7514763 15.46866904 -10.96886545 16.0781408 -6.58984375 15.7734375 C-3.59369184 14.53589649 -2.12694894 13.54073062 -0.27734375 10.8984375 C0.52284312 8.42513264 0.55370252 6.35727044 0.41015625 3.7734375 C-0.57984375 3.4434375 -1.56984375 3.1134375 -2.58984375 2.7734375 C-2.58984375 2.1134375 -2.58984375 1.4534375 -2.58984375 0.7734375 C-10.61990714 -0.69511976 -10.61990714 -0.69511976 -17.58984375 2.7734375 Z " fill="#05041C" transform="translate(96.58984375,50.2265625)"/>
<path d="M0 0 C1.48039971 0.64300189 2.95928782 1.28948499 4.4375 1.9375 C5.26121094 2.29714844 6.08492187 2.65679687 6.93359375 3.02734375 C9 4 9 4 10 5 C10.33 3.68 10.66 2.36 11 1 C12.32 1.33 13.64 1.66 15 2 C14.67 5.3 14.34 8.6 14 12 C12.33333333 12 10.66666667 12 9 12 C7.62361068 12.1547747 6.248676 12.32275148 4.875 12.5 C3.59625 12.665 2.3175 12.83 1 13 C0.79375 12.071875 0.5875 11.14375 0.375 10.1875 C-0.74446192 6.73995905 -0.74446192 6.73995905 -4.125 5.125 C-5.07375 4.75375 -6.0225 4.3825 -7 4 C-4.92446352 3.4465236 -3.15634036 3 -1 3 C-0.67 2.01 -0.34 1.02 0 0 Z M4 6 C4 6.99 4 7.98 4 9 C4.66 9 5.32 9 6 9 C6 8.01 6 7.02 6 6 C5.34 6 4.68 6 4 6 Z " fill="#0A0445" transform="translate(152,153)"/>
<path d="M0 0 C1.375 2.0625 1.375 2.0625 2 4 C2.66 4 3.32 4 4 4 C5.76317813 7.52635625 5.78558643 11.17109137 5 15 C2.59656482 18.28494589 -0.34964736 19.73970948 -4.328125 20.3671875 C-8.50529976 20.49167284 -11.32287735 20.06682515 -15 18 C-15 17.34 -15 16.68 -15 16 C-15.66 16 -16.32 16 -17 16 C-19.37896072 12.64146722 -19.22772426 9.73555604 -18.59765625 5.83203125 C-18 4 -18 4 -15.875 2.125 C-5.70098731 -1.8561354 -5.70098731 -1.8561354 0 0 Z M-16 6 C-17.16210219 8.39351495 -17.16210219 8.39351495 -17 11 C-15.37844371 14.48634601 -14.23546708 15.84302194 -11 18 C-7.16434573 19.22043545 -4.79577554 19.2177748 -1.25 17.4375 C1.40153731 15.73839959 2.03893622 14.92524245 3.5625 12 C4.0317907 8.78200665 3.82128551 7.63074573 2 5 C1.34 5 0.68 5 0 5 C0 4.34 0 3.68 0 3 C-5.58473195 0.20763403 -11.96196187 1.33101842 -16 6 Z " fill="#180860" transform="translate(139,85)"/>
<path d="M0 0 C1.65 0.33 3.3 0.66 5 1 C4.01 4.96 3.02 8.92 2 13 C1.01 12.67 0.02 12.34 -1 12 C-1 11.34 -1 10.68 -1 10 C-1.99 10.66 -2.98 11.32 -4 12 C-7.0625 12.25 -7.0625 12.25 -10 12 C-12 10 -12 10 -12.125 7.375 C-12.08375 6.59125 -12.0425 5.8075 -12 5 C-9.06149334 3.97493954 -6.25569351 3.04545662 -3.1875 2.5 C-2.465625 2.335 -1.74375 2.17 -1 2 C-0.67 1.34 -0.34 0.68 0 0 Z " fill="#0D054C" transform="translate(113,153)"/>
<path d="M0 0 C0 9.9 0 19.8 0 30 C-3.63 30.33 -7.26 30.66 -11 31 C-13 28 -15 25 -17 22 C-14.50638429 23.20381448 -12.31856917 24.45428722 -10 26 C-7.03 26.33 -4.06 26.66 -1 27 C-1 19.08 -1 11.16 -1 3 C-3.31 3.33 -5.62 3.66 -8 4 C-7.82597656 4.56203125 -7.65195313 5.1240625 -7.47265625 5.703125 C-6.94946654 8.24556755 -7.09795162 10.18452337 -7.4375 12.75 C-7.53933594 13.54921875 -7.64117187 14.3484375 -7.74609375 15.171875 C-7.82988281 15.77515625 -7.91367188 16.3784375 -8 17 C-8.66 16.67 -9.32 16.34 -10 16 C-10 11.05 -10 6.1 -10 1 C-8 0 -8 0 0 0 Z " fill="#1A0A68" transform="translate(128,119)"/>
<path d="M0 0 C0.99 0.33 1.98 0.66 3 1 C1.649239 5.05228301 -0.83819702 6.54568797 -4.08984375 9.18359375 C-6.02441554 11.02321723 -6.97471492 12.55756696 -8 15 C-7.34 15.33 -6.68 15.66 -6 16 C-9.375 16.125 -9.375 16.125 -13 16 C-13.66 15.34 -14.32 14.68 -15 14 C-17.34606565 13.90183815 -17.34606565 13.90183815 -19.9375 14.25 C-20.81277344 14.33765625 -21.68804687 14.4253125 -22.58984375 14.515625 C-25.24823376 14.89112765 -25.24823376 14.89112765 -28 17 C-29.65549531 17.38499891 -31.3222433 17.72793135 -33 18 C-33 17.01 -33 16.02 -33 15 C-31.35 14.67 -29.7 14.34 -28 14 C-27.67 12.68 -27.34 11.36 -27 10 C-26.13117188 10.02320312 -25.26234375 10.04640625 -24.3671875 10.0703125 C-22.63855469 10.09738281 -22.63855469 10.09738281 -20.875 10.125 C-19.73804687 10.14820312 -18.60109375 10.17140625 -17.4296875 10.1953125 C-10.80292269 9.81793409 -7.40303426 7.87903796 -3 3 C-2 2 -1 1 0 0 Z M-12 12 C-11.67 12.66 -11.34 13.32 -11 14 C-10.34 13.67 -9.68 13.34 -9 13 C-9.99 12.67 -10.98 12.34 -12 12 Z " fill="#16075A" transform="translate(107,64)"/>
<path d="M0 0 C3.64576392 -0.05878077 7.29140352 -0.0938558 10.9375 -0.125 C12.46987305 -0.15013672 12.46987305 -0.15013672 14.03320312 -0.17578125 C28.95745652 -0.27114389 28.95745652 -0.27114389 33.65625 3.23632812 C35.0625 4.625 35.0625 4.625 37 7 C35.52307692 12.66153846 35.52307692 12.66153846 32.875 14.375 C32.25625 14.58125 31.6375 14.7875 31 15 C31 12 31 12 33 10 C32.67958603 7.39719432 32.67958603 7.39719432 32 5 C25.63460728 2.88706171 19.68993219 1.53951066 13 1 C13 1.66 13 2.32 13 3 C9.37 2.67 5.74 2.34 2 2 C2 11.24 2 20.48 2 30 C1.01 29.67 0.02 29.34 -1 29 C-1.02891546 24.54168018 -1.04676981 20.08338431 -1.0625 15.625 C-1.07087891 14.35398438 -1.07925781 13.08296875 -1.08789062 11.7734375 C-1.09111328 10.56171875 -1.09433594 9.35 -1.09765625 8.1015625 C-1.10289307 6.98088379 -1.10812988 5.86020508 -1.11352539 4.70556641 C-1 2 -1 2 0 0 Z " fill="#180A5E" transform="translate(137,119)"/>
<path d="M0 0 C0.33 1.32 0.66 2.64 1 4 C0.34 4 -0.32 4 -1 4 C-1 3.34 -1 2.68 -1 2 C-6.61 1.67 -12.22 1.34 -18 1 C-18 2.98 -18 4.96 -18 7 C-15.58299013 6.85870713 -13.16649571 6.71213513 -10.75 6.5625 C-10.06808594 6.52318359 -9.38617188 6.48386719 -8.68359375 6.44335938 C-5.35551959 6.23333528 -2.19744598 5.98065998 1 5 C0.34 6.32 -0.32 7.64 -1 9 C-3.79173055 9.02690104 -6.58320348 9.04679053 -9.375 9.0625 C-10.56609375 9.07506836 -10.56609375 9.07506836 -11.78125 9.08789062 C-17.7734375 9.11328125 -17.7734375 9.11328125 -20 8 C-20.09765625 1.84765625 -20.09765625 1.84765625 -20 0 C-15.59625768 -4.40374232 -5.21740543 -1.31796672 0 0 Z " fill="#12036C" transform="translate(74,136)"/>
<path d="M0 0 C2.63245151 2.56317647 4.90809855 5.16932313 5.09765625 8.9453125 C5.06510417 10.96354167 5.03255208 12.98177083 5 15 C4.34 15 3.68 15 3 15 C2.67 15.99 2.34 16.98 2 18 C0.0625 18.5625 0.0625 18.5625 -2 19 C-2.66 19.66 -3.32 20.32 -4 21 C-10.70299728 21.78201635 -10.70299728 21.78201635 -13.859375 19.87890625 C-15.5 18.5 -15.5 18.5 -18 16 C-17.67 14.68 -17.34 13.36 -17 12 C-16.278125 12.804375 -15.55625 13.60875 -14.8125 14.4375 C-11.89134601 17.09899586 -10.85131117 17.81213116 -7 18 C-3.77888408 17.61666338 -3.77888408 17.61666338 -1 17 C-1 16.34 -1 15.68 -1 15 C-0.484375 14.5875 0.03125 14.175 0.5625 13.75 C2.31736971 11.99108835 2.31736971 11.99108835 2 9 C1.26881745 5.84619064 1.26881745 5.84619064 -1.375 4.25 C-2.24125 3.8375 -3.1075 3.425 -4 3 C-4.99 2.34 -5.98 1.68 -7 1 C-3.75 0.1875 -3.75 0.1875 0 0 Z " fill="#19066E" transform="translate(140,48)"/>
<path d="M0 0 C0.99 0 1.98 0 3 0 C3.12375 0.804375 3.2475 1.60875 3.375 2.4375 C3.58125 3.283125 3.7875 4.12875 4 5 C4.66 5.33 5.32 5.66 6 6 C3.91952703 6.5321441 1.83547707 7.05031786 -0.25 7.5625 C-1.41015625 7.85253906 -2.5703125 8.14257812 -3.765625 8.44140625 C-6.72090983 8.95179964 -8.24434101 9.02996165 -11 8 C-11 5 -11 5 -10 2 C-8.54364629 1.77825067 -7.08477044 1.57301302 -5.625 1.375 C-4.40683594 1.20097656 -4.40683594 1.20097656 -3.1640625 1.0234375 C-2.44992188 1.01570313 -1.73578125 1.00796875 -1 1 C-0.34 1.66 0.32 2.32 1 3 C0.67 2.01 0.34 1.02 0 0 Z " fill="#280BA5" transform="translate(87,78)"/>
<path d="M0 0 C2.46800047 1.15173355 4.04783565 2.04783565 6 4 C5.77459283 10.19869707 5.77459283 10.19869707 3.1875 12.875 C-0.7604774 14.90538838 -4.23146765 15.12110921 -8.640625 15.09765625 C-9.71054688 15.09443359 -10.78046875 15.09121094 -11.8828125 15.08789062 C-12.99398437 15.07951172 -14.10515625 15.07113281 -15.25 15.0625 C-16.93996094 15.05573242 -16.93996094 15.05573242 -18.6640625 15.04882812 C-21.44276217 15.03705397 -24.22135409 15.0206084 -27 15 C-27 14.67 -27 14.34 -27 14 C-17.76 13.34 -8.52 12.68 1 12 C1.66 10.02 2.32 8.04 3 6 C1.71649673 3.73242436 1.71649673 3.73242436 0 2 C0 1.34 0 0.68 0 0 Z " fill="#11045E" transform="translate(170,134)"/>
<path d="M0 0 C0 0.33 0 0.66 0 1 C-1.22976562 0.96519531 -2.45953125 0.93039063 -3.7265625 0.89453125 C-5.35936127 0.86637955 -6.9921749 0.83908087 -8.625 0.8125 C-9.43324219 0.78736328 -10.24148437 0.76222656 -11.07421875 0.73632812 C-16.22055759 0.6735679 -19.45482211 1.3358265 -24 4 C-24.66 4 -25.32 4 -26 4 C-26.33 4.99 -26.66 5.98 -27 7 C-27.66 7 -28.32 7 -29 7 C-29.33 8.32 -29.66 9.64 -30 11 C-30.99 11 -31.98 11 -33 11 C-30.54768435 4.20897204 -27.43545124 1.01159266 -20.96484375 -2.0859375 C-14.00284809 -4.23232352 -6.55321352 -2.91926887 0 0 Z " fill="#140663" transform="translate(144,41)"/>
<path d="M0 0 C1.89575251 -0.02721176 3.79161979 -0.04649136 5.6875 -0.0625 C6.74324219 -0.07410156 7.79898438 -0.08570312 8.88671875 -0.09765625 C11.74859515 -0.00788597 14.24555807 0.22777253 17 1 C18.7941758 3.56310828 19 4.83119306 19 8 C12.91464325 9.39663925 7.2546706 10.44676219 1 10 C-1 8 -1 8 -1.1875 5 C-1 2 -1 2 0 0 Z M1 2 C1 3.98 1 5.96 1 8 C5.62 8 10.24 8 15 8 C15.66 6.68 16.32 5.36 17 4 C13.5233662 1.85663839 10.78770805 1.78722374 6.75 1.875 C5.13351563 1.90207031 5.13351563 1.90207031 3.484375 1.9296875 C2.66453125 1.95289062 1.8446875 1.97609375 1 2 Z " fill="#120464" transform="translate(55,123)"/>
<path d="M0 0 C0.47308594 0.41378906 0.94617188 0.82757813 1.43359375 1.25390625 C1.43359375 1.91390625 1.43359375 2.57390625 1.43359375 3.25390625 C0.77359375 3.25390625 0.11359375 3.25390625 -0.56640625 3.25390625 C-0.23640625 4.90390625 0.09359375 6.55390625 0.43359375 8.25390625 C-1.54640625 9.24390625 -1.54640625 9.24390625 -3.56640625 10.25390625 C-3.47359375 8.64515625 -3.47359375 8.64515625 -3.37890625 7.00390625 C-3.5788402 3.00522721 -3.84266555 2.01918548 -6.56640625 -0.74609375 C-10.87924539 -2.0180158 -15.2468115 -2.0153988 -19.62890625 -1.12109375 C-21.82280865 0.14069479 -21.82280865 0.14069479 -22.37890625 2.87890625 C-22.44078125 3.66265625 -22.50265625 4.44640625 -22.56640625 5.25390625 C-22.89640625 5.25390625 -23.22640625 5.25390625 -23.56640625 5.25390625 C-23.81640625 2.44140625 -23.81640625 2.44140625 -23.56640625 -0.74609375 C-16.86385448 -7.68802237 -7.06236515 -4.61187588 0 0 Z " fill="#120362" transform="translate(100.56640625,89.74609375)"/>
<path d="M0 0 C7.92 1.98 7.92 1.98 16 4 C15.01 4.33 14.02 4.66 13 5 C12.34 4.67 11.68 4.34 11 4 C11 4.66 11 5.32 11 6 C12.65 6.33 14.3 6.66 16 7 C15.34 7.66 14.68 8.32 14 9 C12.1875 8.6875 12.1875 8.6875 10 8 C5.38535247 6.71815347 1.67433893 7.28696525 -3 8 C-2.34 7.34 -1.68 6.68 -1 6 C-0.67 4.02 -0.34 2.04 0 0 Z " fill="#090735" transform="translate(84,166)"/>
<path d="M0 0 C0.66 0.33 1.32 0.66 2 1 C2 1.99 2 2.98 2 4 C3.051875 4.1546875 3.051875 4.1546875 4.125 4.3125 C8.44597115 5.34577571 11.73065601 6.30864898 14.4921875 9.98828125 C17.10761444 14.38426722 18.67188787 17.75927461 18 23 C16.02032519 20.03048779 14.58366854 17.07056683 13.09765625 13.83984375 C11.98921383 11.68200395 11.98921383 11.68200395 9 10 C8.67 10.99 8.34 11.98 8 13 C7 11 6 9 5 7 C2.69034152 5.94647157 0.3570226 4.94280904 -2 4 C-1.34 2.68 -0.68 1.36 0 0 Z " fill="#200882" transform="translate(137,73)"/>
<path d="M0 0 C2.64 0.33 5.28 0.66 8 1 C8.125 3.875 8.125 3.875 8 7 C5.4345406 9.5654594 3.52313332 9.54046087 0 10 C-1.36952673 7.26094655 -1.12621361 5.02912668 -1 2 C-0.67 1.34 -0.34 0.68 0 0 Z " fill="#09024A" transform="translate(168,156)"/>
<path d="M0 0 C0.66 0 1.32 0 2 0 C2 0.66 2 1.32 2 2 C2.53625 1.649375 3.0725 1.29875 3.625 0.9375 C6.73274763 -0.28924249 8.79431703 0.27143569 12 1 C10.125 6.875 10.125 6.875 9 8 C7.33382885 8.04063832 5.66611905 8.042721 4 8 C4 6.68 4 5.36 4 4 C3.34 4 2.68 4 2 4 C1.67 4.99 1.34 5.98 1 7 C0.34 6.34 -0.32 5.68 -1 5 C-0.625 2.375 -0.625 2.375 0 0 Z " fill="#100A51" transform="translate(74,156)"/>
<path d="M0 0 C0.33 0.66 0.66 1.32 1 2 C3.12576782 2.46651207 3.12576782 2.46651207 5.5625 2.625 C6.38878906 2.69976562 7.21507812 2.77453125 8.06640625 2.8515625 C8.70449219 2.90054688 9.34257813 2.94953125 10 3 C10 4.32 10 5.64 10 7 C8.02145742 7.19397476 6.0421352 7.38001321 4.0625 7.5625 C2.40927734 7.71912109 2.40927734 7.71912109 0.72265625 7.87890625 C-0.62505859 7.93884766 -0.62505859 7.93884766 -2 8 C-3 7 -3 7 -3.0625 3.9375 C-3.041875 2.968125 -3.02125 1.99875 -3 1 C-2.01 0.67 -1.02 0.34 0 0 Z " fill="#08084D" transform="translate(48,167)"/>
<path d="M0 0 C2.0625 0.4375 2.0625 0.4375 4 1 C4 1.66 4 2.32 4 3 C5.65 3 7.3 3 9 3 C9.66 4.65 10.32 6.3 11 8 C6.31034294 9.11658501 3.46236469 8.80619523 -1 7 C-1.04254356 5.00045254 -1.04080783 2.99958364 -1 1 C-0.67 0.67 -0.34 0.34 0 0 Z " fill="#13075B" transform="translate(123,153)"/>
<path d="M0 0 C0.33 0.66 0.66 1.32 1 2 C-2.96 1.67 -6.92 1.34 -11 1 C-11.66 2.32 -12.32 3.64 -13 5 C-13.99 5.495 -13.99 5.495 -15 6 C-15.94141059 8.28431033 -15.94141059 8.28431033 -16 11 C-14.68134288 13.64225405 -14.68134288 13.64225405 -13 16 C-12.67 16.99 -12.34 17.98 -12 19 C-12.99 18.67 -13.98 18.34 -15 18 C-15 17.34 -15 16.68 -15 16 C-15.66 16 -16.32 16 -17 16 C-19.37896072 12.64146722 -19.22772426 9.73555604 -18.59765625 5.83203125 C-18 4 -18 4 -15.875 2.125 C-10.28296261 -0.06318854 -5.95955008 -1.70272859 0 0 Z " fill="#160673" transform="translate(139,85)"/>
<path d="M0 0 C5.28 0.33 10.56 0.66 16 1 C16.66 2.98 17.32 4.96 18 7 C15.06171403 9.50298434 12.82097239 10.46930939 9 11 C9 10.34 9 9.68 9 9 C4.545 9.495 4.545 9.495 0 10 C0 9.34 0 8.68 0 8 C0.83144531 7.95101562 1.66289062 7.90203125 2.51953125 7.8515625 C3.60621094 7.77679688 4.69289062 7.70203125 5.8125 7.625 C6.89144531 7.55539063 7.97039062 7.48578125 9.08203125 7.4140625 C12.18626186 7.18804267 12.18626186 7.18804267 15 5 C10.01770224 3.08373163 5.27315333 2.4452885 0 2 C0 1.34 0 0.68 0 0 Z " fill="#13046A" transform="translate(148,123)"/>
<path d="M0 0 C5.61 0.33 11.22 0.66 17 1 C16.67 1.66 16.34 2.32 16 3 C14.05053711 3.41064453 14.05053711 3.41064453 11.52734375 3.6328125 C10.62822266 3.71660156 9.72910156 3.80039063 8.80273438 3.88671875 C7.85720703 3.96535156 6.91167969 4.04398438 5.9375 4.125 C4.98810547 4.21136719 4.03871094 4.29773438 3.06054688 4.38671875 C0.70764908 4.59954368 -1.64568595 4.80357031 -4 5 C-4 4.01 -4 3.02 -4 2 C-3.01 2 -2.02 2 -1 2 C-0.67 1.34 -0.34 0.68 0 0 Z " fill="#1E088F" transform="translate(143,144)"/>
<path d="M0 0 C3.97256398 2.09663099 6.43898489 4.30075595 9 8 C9 8.66 9 9.32 9 10 C9.66 10 10.32 10 11 10 C11 9.34 11 8.68 11 8 C12.32 8.33 13.64 8.66 15 9 C13.35 10.65 11.7 12.3 10 14 C8.29115995 12.37660195 6.62553283 10.70680947 5 9 C5 8.34 5 7.68 5 7 C4.175 6.360625 3.35 5.72125 2.5 5.0625 C1.675 4.381875 0.85 3.70125 0 3 C0 2.01 0 1.02 0 0 Z " fill="#1A048F" transform="translate(101,80)"/>
<path d="M0 0 C1.65 0 3.3 0 5 0 C5 7.92 5 15.84 5 24 C4.67 24 4.34 24 4 24 C3.67 22.02 3.34 20.04 3 18 C2.67 18 2.34 18 2 18 C2 12.39 2 6.78 2 1 C1.34 0.67 0.68 0.34 0 0 Z " fill="#1A048F" transform="translate(122,122)"/>
<path d="M0 0 C0.99 0.33 1.98 0.66 3 1 C3 2.98 3 4.96 3 7 C1 6 1 6 0 4 C-0.70125 5.093125 -1.4025 6.18625 -2.125 7.3125 C-4.5902078 10.80193453 -6.98035534 12.41083816 -11 14 C-9.92730209 11.40764673 -9.16833074 10.1237726 -6.875 8.4375 C-5.946875 7.7259375 -5.946875 7.7259375 -5 7 C-5 6.01 -5 5.02 -5 4 C-4.34 4 -3.68 4 -3 4 C-2.67 3.01 -2.34 2.02 -2 1 C-1.34 0.67 -0.68 0.34 0 0 Z " fill="#13036B" transform="translate(110,98)"/>
<path d="M0 0 C0.99 0.33 1.98 0.66 3 1 C1.86528532 4.40414403 0.82774013 5.24276648 -1.875 7.5 C-4.35415347 9.58578225 -6.7439576 11.67301287 -9 14 C-10.32 13.01 -11.64 12.02 -13 11 C-12.38511719 10.61328125 -11.77023438 10.2265625 -11.13671875 9.828125 C-10.32847656 9.30734375 -9.52023438 8.7865625 -8.6875 8.25 C-7.88699219 7.73953125 -7.08648437 7.2290625 -6.26171875 6.703125 C-3.98799037 4.99095648 -2.59540075 3.33664848 -1 1 C-0.67 0.67 -0.34 0.34 0 0 Z " fill="#08042C" transform="translate(107,64)"/>
<path d="M0 0 C0.21398437 0.62390625 0.42796875 1.2478125 0.6484375 1.890625 C2.53556697 4.83585597 4.27476726 4.97087611 7.625 5.75 C8.62789062 5.99234375 9.63078125 6.2346875 10.6640625 6.484375 C11.43492188 6.65453125 12.20578125 6.8246875 13 7 C13.33 6.34 13.66 5.68 14 5 C15.97888961 4.27306096 17.97954558 3.60183749 20 3 C19.625 4.9375 19.625 4.9375 19 7 C16.30335792 8.34832104 14.13412479 8.16910682 11.125 8.1875 C10.07570313 8.20167969 9.02640625 8.21585938 7.9453125 8.23046875 C5.02660069 8.00208149 3.37489527 7.68918607 1 6 C0.25 2.875 0.25 2.875 0 0 Z " fill="#17066E" transform="translate(77,97)"/>
<path d="M0 0 C0.33 0 0.66 0 1 0 C1 6.27 1 12.54 1 19 C2.60875 18.79375 4.2175 18.5875 5.875 18.375 C8.6171875 18.0234375 8.6171875 18.0234375 11 18 C11.66 18.66 12.32 19.32 13 20 C11.02 20.66 9.04 21.32 7 22 C6.67 21.67 6.34 21.34 6 21 C5.175 21 4.35 21 3.5 21 C2.675 21 1.85 21 1 21 C0 20 0 20 -0.11352539 18.05053711 C-0.10567017 16.8015564 -0.10567017 16.8015564 -0.09765625 15.52734375 C-0.09443359 14.62822266 -0.09121094 13.72910156 -0.08789062 12.80273438 C-0.07951172 11.85720703 -0.07113281 10.91167969 -0.0625 9.9375 C-0.05798828 8.98810547 -0.05347656 8.03871094 -0.04882812 7.06054688 C-0.0370011 4.70696935 -0.02052025 2.35351523 0 0 Z " fill="#1B0B63" transform="translate(64,94)"/>
<path d="M0 0 C2.79224073 -0.08071788 5.58216566 -0.14035408 8.375 -0.1875 C9.1690625 -0.21263672 9.963125 -0.23777344 10.78125 -0.26367188 C12.85586148 -0.29004405 14.93100865 -0.15486462 17 0 C19.1519437 3.22791555 19.20086443 4.28400809 19 8 C18.01 7.67 17.02 7.34 16 7 C16.66 7 17.32 7 18 7 C17.67 6.01 17.34 5.02 17 4 C13.95786733 2.47893366 10.71952428 2.62570662 7.375 2.4375 C6.66859375 2.39431641 5.9621875 2.35113281 5.234375 2.30664062 C3.48981463 2.20055249 1.74493303 2.09977111 0 2 C0 1.34 0 0.68 0 0 Z " fill="#0F0262" transform="translate(147,135)"/>
<path d="M0 0 C2.1875 1.3125 2.1875 1.3125 4 3 C4 3.66 4 4.32 4 5 C4.66 5 5.32 5 6 5 C7.625 7 7.625 7 9 9 C8.67 9.66 8.34 10.32 8 11 C6.84775972 10.07038578 5.70340824 9.1309875 4.5625 8.1875 C3.92441406 7.66542969 3.28632812 7.14335937 2.62890625 6.60546875 C1 5 1 5 0 2 C-0.66 2 -1.32 2 -2 2 C-2 6.62 -2 11.24 -2 16 C-2.33 16 -2.66 16 -3 16 C-3.19517554 14.06325815 -3.38087873 12.12555991 -3.5625 10.1875 C-3.66691406 9.10855469 -3.77132812 8.02960938 -3.87890625 6.91796875 C-4 4 -4 4 -3 1 C-2.01 0.67 -1.02 0.34 0 0 Z " fill="#100169" transform="translate(102,130)"/>
<path d="M0 0 C-2 2 -2 2 -4.5 2.9375 C-7.30191747 3.8583474 -7.30191747 3.8583474 -9 7 C-9.63292383 9.11280345 -9.63292383 9.11280345 -10 11 C-10.66 11 -11.32 11 -12 11 C-12.33 8.69 -12.66 6.38 -13 4 C-12.01 4 -11.02 4 -10 4 C-10 3.34 -10 2.68 -10 2 C-6.5980513 -0.09350689 -3.94727588 -0.17942163 0 0 Z " fill="#14076D" transform="translate(133,48)"/>
<path d="M0 0 C0.33 0.66 0.66 1.32 1 2 C0.30132812 1.9278125 -0.39734375 1.855625 -1.1171875 1.78125 C-2.02726562 1.6884375 -2.93734375 1.595625 -3.875 1.5 C-4.77992188 1.4071875 -5.68484375 1.314375 -6.6171875 1.21875 C-8.93313211 0.96952705 -8.93313211 0.96952705 -11 1 C-13.66666667 1 -16.33333333 1 -19 1 C-19 0.34 -19 -0.32 -19 -1 C-12.07884417 -3.32376971 -6.67989133 -3.12788562 0 0 Z " fill="#080442" transform="translate(146,164)"/>
<path d="M0 0 C5.11790246 1.30574051 7.7614885 3.31616356 11.375 7.125 C12.24898437 8.03507813 13.12296875 8.94515625 14.0234375 9.8828125 C14.67570312 10.58148438 15.32796875 11.28015625 16 12 C15.67 12.99 15.34 13.98 15 15 C10 10 5 5 0 0 Z " fill="#0F0360" transform="translate(101,123)"/>
<path d="M0 0 C0.66 0.33 1.32 0.66 2 1 C4.5065854 1.72771834 6.35226007 2 9 2 C7.84054159 4.31891683 7.10358381 5.45737187 5 7 C1.3125 7.1875 1.3125 7.1875 -2 7 C-2 5.02 -2 3.04 -2 1 C-1.34 0.67 -0.68 0.34 0 0 Z " fill="#2909A9" transform="translate(130,70)"/>
<path d="M0 0 C0.33 0 0.66 0 1 0 C1.92642017 6.38200564 2.45018425 12.64440988 1 19 C0.34 19.33 -0.32 19.66 -1 20 C-1.02888514 16.85418577 -1.04675923 13.70840531 -1.0625 10.5625 C-1.07087891 9.66466797 -1.07925781 8.76683594 -1.08789062 7.84179688 C-1.09111328 6.98779297 -1.09433594 6.13378906 -1.09765625 5.25390625 C-1.10551147 4.06776733 -1.10551147 4.06776733 -1.11352539 2.85766602 C-1 1 -1 1 0 0 Z " fill="#1D098C" transform="translate(47,126)"/>
<path d="M0 0 C1.32 0.33 2.64 0.66 4 1 C4.33 2.32 4.66 3.64 5 5 C5.33 4.34 5.66 3.68 6 3 C6.66 3 7.32 3 8 3 C7.25 4.9375 7.25 4.9375 6 7 C3.875 7.75 3.875 7.75 2 8 C2 7.34 2 6.68 2 6 C-0.97 5.505 -0.97 5.505 -4 5 C-3.34 4.54625 -2.68 4.0925 -2 3.625 C-1.34 3.08875 -0.68 2.5525 0 2 C0 1.34 0 0.68 0 0 Z " fill="#280AA6" transform="translate(140,80)"/>
<path d="M0 0 C2 0 2 0 3.5 1.375 C3.995 1.91125 4.49 2.4475 5 3 C5.66 3.66 6.32 4.32 7 5 C5.625 7.5 5.625 7.5 4 10 C3.34 10 2.68 10 2 10 C0 3.375 0 3.375 0 0 Z " fill="#230B9F" transform="translate(167,135)"/>
<path d="M0 0 C13.81776765 -0.55353075 13.81776765 -0.55353075 19 3 C19 3.33 19 3.66 19 4 C15.625 4.125 15.625 4.125 12 4 C11.34 3.34 10.68 2.68 10 2 C7.33050591 1.75684344 7.33050591 1.75684344 4.375 1.875 C3.37210937 1.89304687 2.36921875 1.91109375 1.3359375 1.9296875 C0.17964844 1.96449219 0.17964844 1.96449219 -1 2 C-0.67 1.34 -0.34 0.68 0 0 Z " fill="#251677" transform="translate(82,76)"/>
<path d="M0 0 C1.98 0.99 3.96 1.98 6 3 C6 3.66 6 4.32 6 5 C5.34 5 4.68 5 4 5 C4.33 6.65 4.66 8.3 5 10 C3.02 10.99 3.02 10.99 1 12 C1.020625 10.948125 1.04125 9.89625 1.0625 8.8125 C1.01103198 5.67295096 0.73482813 3.03116604 0 0 Z " fill="#180671" transform="translate(96,88)"/>
<path d="M0 0 C2.71185401 0.35346815 3.74570831 0.68213538 5.484375 2.85546875 C7.94414581 7.38782423 9.6814647 10.68457536 9 16 C7.03929756 13.05894634 5.59012265 10.12787352 4.09765625 6.9375 C3.07372392 4.9284662 3.07372392 4.9284662 1.37109375 3.375 C0 2 0 2 0 0 Z " fill="#17065E" transform="translate(146,80)"/>
<path d="M0 0 C2.64 0.33 5.28 0.66 8 1 C8 2.98 8 4.96 8 7 C7.34 5.68 6.68 4.36 6 3 C3.55519921 3.18828772 3.55519921 3.18828772 1 4 C-0.36020151 5.96758273 -0.36020151 5.96758273 -1 8 C-1.125 2.25 -1.125 2.25 0 0 Z " fill="#040240" transform="translate(168,156)"/>
<path d="M0 0 C0.66 0.33 1.32 0.66 2 1 C2.4140625 3.94140625 2.4140625 3.94140625 2.625 7.5625 C2.69976562 8.76003906 2.77453125 9.95757812 2.8515625 11.19140625 C2.90054688 12.11824219 2.94953125 13.04507813 3 14 C1.68 13.34 0.36 12.68 -1 12 C-1.14285714 3.42857143 -1.14285714 3.42857143 0 0 Z " fill="#160965" transform="translate(109,52)"/>
<path d="M0 0 C2.9375 1 2.9375 1 5 2 C5 2.33 5 2.66 5 3 C0.38 3 -4.24 3 -9 3 C-9 2.34 -9 1.68 -9 1 C-5.96967558 -0.51516221 -3.34885038 -0.17028053 0 0 Z " fill="#1E0A8A" transform="translate(157,132)"/>
<path d="M0 0 C0.99 0.33 1.98 0.66 3 1 C2.67 5.95 2.34 10.9 2 16 C1.34 15.67 0.68 15.34 0 15 C0 10.05 0 5.1 0 0 Z " fill="#0F0461" transform="translate(118,120)"/>
<path d="M0 0 C0.33 0.66 0.66 1.32 1 2 C1.66 2 2.32 2 3 2 C3.33 1.34 3.66 0.68 4 0 C5.65 0.33 7.3 0.66 9 1 C7.35 2.98 5.7 4.96 4 7 C2.68 6.67 1.36 6.34 0 6 C0 4.02 0 2.04 0 0 Z " fill="#190583" transform="translate(113,101)"/>
<path d="M0 0 C2 2 2 2 2 6 C1.01 6 0.02 6 -1 6 C-1 6.66 -1 7.32 -1 8 C-2.65 8.33 -4.3 8.66 -6 9 C-6 6 -6 6 -4.125 3.8125 C-2 2 -2 2 0 2 C0 1.34 0 0.68 0 0 Z " fill="#270AA8" transform="translate(142,101)"/>
<path d="M0 0 C1.65 0.33 3.3 0.66 5 1 C5 1.66 5 2.32 5 3 C4.34 3 3.68 3 3 3 C2.34 4.65 1.68 6.3 1 8 C0.34 8 -0.32 8 -1 8 C-1.625 5.6875 -1.625 5.6875 -2 3 C-1.34 2.01 -0.68 1.02 0 0 Z " fill="#140A56" transform="translate(113,153)"/>
<path d="M0 0 C0.33 0.66 0.66 1.32 1 2 C1.99 1.67 2.98 1.34 4 1 C4.66 1.33 5.32 1.66 6 2 C6 2.66 6 3.32 6 4 C5.34 4 4.68 4 4 4 C3.67 5.65 3.34 7.3 3 9 C2.34 8.67 1.68 8.34 1 8 C1 6.68 1 5.36 1 4 C0.34 4 -0.32 4 -1 4 C-0.67 2.68 -0.34 1.36 0 0 Z " fill="#03022C" transform="translate(142,166)"/>
<path d="M0 0 C0.66 0.33 1.32 0.66 2 1 C2.625 3.0625 2.625 3.0625 3 5 C-0.66305234 5.74926071 -3.42355152 6.2380014 -7 5 C-7 3.68 -7 2.36 -7 1 C-4.525 1.99 -4.525 1.99 -2 3 C-1.34 2.01 -0.68 1.02 0 0 Z " fill="#281A7F" transform="translate(131,156)"/>
<path d="M0 0 C1.32 0 2.64 0 4 0 C4 0.99 4 1.98 4 3 C3.01 3 2.02 3 1 3 C1.34786708 4.97536745 1.34786708 4.97536745 2 7 C2.66 7.33 3.32 7.66 4 8 C3.34 9.32 2.68 10.64 2 12 C1.34 11.67 0.68 11.34 0 11 C0 7.37 0 3.74 0 0 Z " fill="#09043F" transform="translate(45,154)"/>
<path d="M0 0 C2.46800047 1.15173355 4.04783565 2.04783565 6 4 C6.125 6.625 6.125 6.625 6 9 C4.68 9.33 3.36 9.66 2 10 C2.226875 9.4225 2.45375 8.845 2.6875 8.25 C3.27095593 5.89006205 3.27095593 5.89006205 1.5625 3.875 C1.046875 3.25625 0.53125 2.6375 0 2 C0 1.34 0 0.68 0 0 Z " fill="#16046A" transform="translate(170,134)"/>
<path d="M0 0 C0.66 0 1.32 0 2 0 C2 0.99 2 1.98 2 3 C0.33333333 4.66666667 -1.33333333 6.33333333 -3 8 C-4.319018 10.66533035 -4.319018 10.66533035 -5 13 C-5.75 11.4375 -5.75 11.4375 -6 9 C-4.51591028 5.54737677 -2.65467043 2.65467043 0 0 Z " fill="#0E0360" transform="translate(71,81)"/>
<path d="M0 0 C2.97 0.495 2.97 0.495 6 1 C5.67 5.62 5.34 10.24 5 15 C4.34 14.67 3.68 14.34 3 14 C3 10.37 3 6.74 3 3 C2.34 3 1.68 3 1 3 C0.67 2.01 0.34 1.02 0 0 Z " fill="#210894" transform="translate(140,86)"/>
<path d="M0 0 C0.66 0.33 1.32 0.66 2 1 C1.34 1.66 0.68 2.32 0 3 C-0.24360073 6.12814514 -0.24360073 6.12814514 -0.125 9.625 C-0.10695313 10.81351563 -0.08890625 12.00203125 -0.0703125 13.2265625 C-0.04710938 14.14179687 -0.02390625 15.05703125 0 16 C-0.66 16 -1.32 16 -2 16 C-4.25185265 11.12098592 -3.88498587 7.89526118 -2.703125 2.85546875 C-2 1 -2 1 0 0 Z " fill="#1C0587" transform="translate(78,86)"/>
<path d="M0 0 C3.96 0 7.92 0 12 0 C12.33 0.99 12.66 1.98 13 3 C8.71 3 4.42 3 0 3 C0 2.01 0 1.02 0 0 Z " fill="#18096D" transform="translate(55,123)"/>
<path d="M0 0 C4.29 0 8.58 0 13 0 C9 3 9 3 6.640625 3.07421875 C5.85171875 2.94660156 5.0628125 2.81898437 4.25 2.6875 C3.45078125 2.56761719 2.6515625 2.44773437 1.828125 2.32421875 C1.22484375 2.21722656 0.6215625 2.11023438 0 2 C0 1.34 0 0.68 0 0 Z " fill="#1E0A8B" transform="translate(56,121)"/>
<path d="M0 0 C0.33 1.32 0.66 2.64 1 4 C1.66 4 2.32 4 3 4 C3 3.34 3 2.68 3 2 C4.9375 2.8125 4.9375 2.8125 7 4 C7.33 4.99 7.66 5.98 8 7 C5.125 7.125 5.125 7.125 2 7 C0 5 0 5 -0.125 2.375 C-0.08375 1.59125 -0.0425 0.8075 0 0 Z " fill="#060231" transform="translate(101,158)"/>
<path d="M0 0 C1.875 0.25 1.875 0.25 4 1 C5.3125 2.9375 5.3125 2.9375 6 5 C5.67 5.66 5.34 6.32 5 7 C2 6 2 6 0 3 C0 2.01 0 1.02 0 0 Z " fill="#240AAA" transform="translate(110,134)"/>
<path d="M0 0 C2.97 0.33 5.94 0.66 9 1 C8.01 1.33 7.02 1.66 6 2 C6 2.99 6 3.98 6 5 C7.32 4.67 8.64 4.34 10 4 C10 4.66 10 5.32 10 6 C8.35 6.33 6.7 6.66 5 7 C4.87625 6.071875 4.87625 6.071875 4.75 5.125 C4.18741541 2.81562433 4.18741541 2.81562433 1.9375 1.75 C1.298125 1.5025 0.65875 1.255 0 1 C0 0.67 0 0.34 0 0 Z " fill="#1F099A" transform="translate(160,122)"/>
<path d="M0 0 C4.20393865 0.76836694 5.52187506 2.54832597 8 6 C7.34 7.65 6.68 9.3 6 11 C5.88785156 10.41734375 5.77570313 9.8346875 5.66015625 9.234375 C4.93999124 6.79689343 3.95620605 5.2749414 2.4375 3.25 C1.98246094 2.63640625 1.52742188 2.0228125 1.05859375 1.390625 C0.53458984 0.70226563 0.53458984 0.70226563 0 0 Z " fill="#04021A" transform="translate(102,44)"/>
<path d="M0 0 C0.99 0.33 1.98 0.66 3 1 C5.63804589 0.60602665 5.63804589 0.60602665 8 0 C8.33 0.99 8.66 1.98 9 3 C7.3125 4.125 7.3125 4.125 5 5 C2.25 4.125 2.25 4.125 0 3 C0 2.01 0 1.02 0 0 Z " fill="#1A1858" transform="translate(106,170)"/>
<path d="M0 0 C0.33 0.66 0.66 1.32 1 2 C1.99 2.33 2.98 2.66 4 3 C2 5 2 5 -1 5.25 C-4 5 -4 5 -6 3 C-3 2 -3 2 0 2 C0 1.34 0 0.68 0 0 Z " fill="#05023B" transform="translate(63,160)"/>
<path d="M0 0 C0.33 0 0.66 0 1 0 C1 3.96 1 7.92 1 12 C-0.98 12.99 -0.98 12.99 -3 14 C-3.66 13.01 -4.32 12.02 -5 11 C-3.35 10.34 -1.7 9.68 0 9 C0 6.03 0 3.06 0 0 Z " fill="#1A0586" transform="translate(120,127)"/>
<path d="M0 0 C0.33 0.66 0.66 1.32 1 2 C0.06553465 4.03144641 -0.93224776 6.03533587 -2 8 C-2.99 8 -3.98 8 -5 8 C-5 8.66 -5 9.32 -5 10 C-5.66 9.67 -6.32 9.34 -7 9 C-6.02180976 7.68677212 -5.0424189 6.37443848 -4.0625 5.0625 C-3.51722656 4.33160156 -2.97195312 3.60070312 -2.41015625 2.84765625 C-1 1 -1 1 0 0 Z " fill="#150462" transform="translate(117,80)"/>
<path d="M0 0 C3.98175544 2.10148204 6.35039045 4.36905358 9 8 C8.01 8.495 8.01 8.495 7 9 C7 8.34 7 7.68 7 7 C6.401875 6.896875 5.80375 6.79375 5.1875 6.6875 C2.66578648 5.89496146 1.60314301 5.08408591 0 3 C0 2.01 0 1.02 0 0 Z " fill="#1A0966" transform="translate(101,80)"/>
<path d="M0 0 C0.33 0 0.66 0 1 0 C1 1.98 1 3.96 1 6 C-0.65 6.33 -2.3 6.66 -4 7 C-3.67 5.35 -3.34 3.7 -3 2 C-2.01 2 -1.02 2 0 2 C0 1.34 0 0.68 0 0 Z " fill="#2407B0" transform="translate(117,49)"/>
<path d="M0 0 C0.66 0 1.32 0 2 0 C2.33 2.31 2.66 4.62 3 7 C1.02 7 -0.96 7 -3 7 C-2.01 6.67 -1.02 6.34 0 6 C-0.2784375 4.7934375 -0.2784375 4.7934375 -0.5625 3.5625 C-0.706875 2.716875 -0.85125 1.87125 -1 1 C-0.67 0.67 -0.34 0.34 0 0 Z " fill="#050535" transform="translate(73,169)"/>
<path d="M0 0 C1.98 0 3.96 0 6 0 C6 0.66 6 1.32 6 2 C4.68 2 3.36 2 2 2 C1.67 4.31 1.34 6.62 1 9 C0.34 8.67 -0.32 8.34 -1 8 C-1.125 2.25 -1.125 2.25 0 0 Z " fill="#1C106C" transform="translate(137,119)"/>
<path d="M0 0 C0.99 0 1.98 0 3 0 C3 0.66 3 1.32 3 2 C4.65 2.33 6.3 2.66 8 3 C8 4.65 8 6.3 8 8 C7.67 7.34 7.34 6.68 7 6 C6.34 6 5.68 6 5 6 C5 5.34 5 4.68 5 4 C3.68 4 2.36 4 1 4 C0.67 2.68 0.34 1.36 0 0 Z " fill="#1F0794" transform="translate(107,95)"/>
<path d="M0 0 C1.32 0.33 2.64 0.66 4 1 C4 4 4 4 3 6 C2.34 6 1.68 6 1 6 C0.67 6.66 0.34 7.32 0 8 C0 7.34 0 6.68 0 6 C-0.66 5.67 -1.32 5.34 -2 5 C-1.34 3.35 -0.68 1.7 0 0 Z " fill="#1D0797" transform="translate(73,81)"/>
<path d="M0 0 C1.32 1.32 2.64 2.64 4 4 C3.67 4.99 3.34 5.98 3 7 C2.34 6.67 1.68 6.34 1 6 C1.33 5.34 1.66 4.68 2 4 C1.38125 4.185625 0.7625 4.37125 0.125 4.5625 C-2 5 -2 5 -4 4 C-4 3.34 -4 2.68 -4 2 C-2.68 1.34 -1.36 0.68 0 0 Z " fill="#270EAB" transform="translate(120,82)"/>
<path d="M0 0 C2.475 0.495 2.475 0.495 5 1 C5.33 1.99 5.66 2.98 6 4 C6.66 4.33 7.32 4.66 8 5 C7.01 5.99 6.02 6.98 5 8 C4.67 7.01 4.34 6.02 4 5 C3.01 4.34 2.02 3.68 1 3 C0.67 2.67 0.34 2.34 0 2 C0 1.34 0 0.68 0 0 Z " fill="#1D0697" transform="translate(119,81)"/>
<path d="M0 0 C4.74452555 3.28467153 4.74452555 3.28467153 5.9375 6.625 C5.958125 7.40875 5.97875 8.1925 6 9 C5.34 9.66 4.68 10.32 4 11 C0.71428571 3.57142857 0.71428571 3.57142857 0 0 Z " fill="#130755" transform="translate(77,120)"/>
<path d="M0 0 C0.66 0.99 1.32 1.98 2 3 C-1.62326739 4.2077558 -2.64146369 3.54311128 -6 2 C-6 1.34 -6 0.68 -6 0 C-3 -1 -3 -1 0 0 Z " fill="#2003A3" transform="translate(84,82)"/>
<path d="M0 0 C0.66 0.33 1.32 0.66 2 1 C2 2.66666667 2 4.33333333 2 6 C1.01 5.34 0.02 4.68 -1 4 C-1 4.66 -1 5.32 -1 6 C-1.66 6 -2.32 6 -3 6 C-3 4.35 -3 2.7 -3 1 C-2.01 0.67 -1.02 0.34 0 0 Z " fill="#0A034A" transform="translate(105,156)"/>
<path d="M0 0 C1.67542976 0.28604898 3.34385343 0.61781233 5 1 C5.33 1.99 5.66 2.98 6 4 C3 5 3 5 0 4 C-0.33 3.01 -0.66 2.02 -1 1 C-0.67 0.67 -0.34 0.34 0 0 Z " fill="#100B62" transform="translate(64,158)"/>
<path d="M0 0 C0.66 0.99 1.32 1.98 2 3 C1.23056641 6.15467773 0.67047831 7.58588104 -2.125 9.3125 C-3.053125 9.6528125 -3.053125 9.6528125 -4 10 C-4 9.01 -4 8.02 -4 7 C-2.68 6.34 -1.36 5.68 0 5 C0 3.35 0 1.7 0 0 Z " fill="#100456" transform="translate(172,124)"/>
<path d="M0 0 C0.66 0.33 1.32 0.66 2 1 C-0.80804268 3.96404505 -3.18315774 6.44499019 -7 8 C-5.50902342 4.2047869 -3.24299151 2.38957269 0 0 Z " fill="#12045A" transform="translate(106,104)"/>
<path d="M0 0 C0.165 0.61875 0.33 1.2375 0.5 1.875 C2.90181375 5.27756949 6.00162134 5.22612026 10 6 C10 6.33 10 6.66 10 7 C8.72125 7.061875 7.4425 7.12375 6.125 7.1875 C5.40570313 7.22230469 4.68640625 7.25710937 3.9453125 7.29296875 C3.30335937 7.19628906 2.66140625 7.09960938 2 7 C0 4 0 4 0 0 Z " fill="#15045A" transform="translate(77,97)"/>
<path d="M0 0 C0.33 0.66 0.66 1.32 1 2 C0.06421005 4.35981813 -0.93347808 6.69631264 -2 9 C-2.99 9 -3.98 9 -5 9 C-3.7508258 5.54074837 -2.32472205 2.85306797 0 0 Z " fill="#120554" transform="translate(116,43)"/>
<path d="M0 0 C0.625 1.875 0.625 1.875 1 4 C-1 6 -1 6 -3.625 6.125 C-4.40875 6.08375 -5.1925 6.0425 -6 6 C-5.34 4.68 -4.68 3.36 -4 2 C-3.01 2.33 -2.02 2.66 -1 3 C-0.67 2.01 -0.34 1.02 0 0 Z " fill="#06033D" transform="translate(95,159)"/>
<path d="M0 0 C4.29 0.33 8.58 0.66 13 1 C13 1.33 13 1.66 13 2 C6.565 2.495 6.565 2.495 0 3 C0 2.01 0 1.02 0 0 Z " fill="#1C097A" transform="translate(139,146)"/>
<path d="M0 0 C1.65 0 3.3 0 5 0 C5 1.32 5 2.64 5 4 C3.35 4 1.7 4 0 4 C0 2.68 0 1.36 0 0 Z " fill="#140D68" transform="translate(169,159)"/>
<path d="M0 0 C1.32 0.33 2.64 0.66 4 1 C3.34 2.98 2.68 4.96 2 7 C1.34 7 0.68 7 0 7 C0 4.69 0 2.38 0 0 Z " fill="#120561" transform="translate(153,157)"/>
<path d="M0 0 C1.3921875 0.3403125 1.3921875 0.3403125 2.8125 0.6875 C2.4825 1.3475 2.1525 2.0075 1.8125 2.6875 C-0.8275 2.6875 -3.4675 2.6875 -6.1875 2.6875 C-4.14987265 -0.14253799 -3.59070275 -0.35202968 0 0 Z " fill="#0C063F" transform="translate(142.1875,156.3125)"/>
<path d="M0 0 C1.0625 1.875 1.0625 1.875 2 4 C1.67 4.66 1.34 5.32 1 6 C-1.71224618 4.38731308 -4.37352812 2.75098126 -7 1 C-3.535 0.505 -3.535 0.505 0 0 Z " fill="#120765" transform="translate(140,48)"/>
<path d="M0 0 C1.32 0 2.64 0 4 0 C4.33 2.31 4.66 4.62 5 7 C4.34 7 3.68 7 3 7 C3 6.01 3 5.02 3 4 C2.34 3.67 1.68 3.34 1 3 C0.67 2.01 0.34 1.02 0 0 Z " fill="#030231" transform="translate(129,169)"/>
<path d="M0 0 C0.8971875 0.5259375 0.8971875 0.5259375 1.8125 1.0625 C4.10813214 2.33304698 4.10813214 2.33304698 7 1 C7.33 1.99 7.66 2.98 8 4 C6.25 4.6875 6.25 4.6875 4 5 C1.75 3.6875 1.75 3.6875 0 2 C0 1.34 0 0.68 0 0 Z " fill="#07053A" transform="translate(119,167)"/>
<path d="M0 0 C0.66 1.32 1.32 2.64 2 4 C-2.625 6.125 -2.625 6.125 -6 5 C-6 4.34 -6 3.68 -6 3 C-5.195625 2.87625 -4.39125 2.7525 -3.5625 2.625 C-2.716875 2.41875 -1.87125 2.2125 -1 2 C-0.67 1.34 -0.34 0.68 0 0 Z " fill="#05023E" transform="translate(76,160)"/>
<path d="M0 0 C0.66 0.33 1.32 0.66 2 1 C1.25 2.9375 1.25 2.9375 0 5 C-2 5.875 -2 5.875 -4 6 C-4.66 5.34 -5.32 4.68 -6 4 C-5.38125 3.896875 -4.7625 3.79375 -4.125 3.6875 C-1.63473516 3.12474627 -1.63473516 3.12474627 0 0 Z " fill="#050338" transform="translate(85,160)"/>
<path d="M0 0 C1.65 0.33 3.3 0.66 5 1 C4.67 1.99 4.34 2.98 4 4 C2.35 4.33 0.7 4.66 -1 5 C-0.67 3.35 -0.34 1.7 0 0 Z " fill="#130D5D" transform="translate(90,158)"/>
<path d="M0 0 C0.33 0.99 0.66 1.98 1 3 C0.01 4.485 0.01 4.485 -1 6 C-0.67 6.66 -0.34 7.32 0 8 C-1.32 7.67 -2.64 7.34 -4 7 C-3.43628586 3.73045798 -2.50037734 2.17424117 0 0 Z " fill="#11036E" transform="translate(80,128)"/>
<path d="M0 0 C1.2065625 0.0309375 1.2065625 0.0309375 2.4375 0.0625 C2.4375 1.0525 2.4375 2.0425 2.4375 3.0625 C3.0975 3.3925 3.7575 3.7225 4.4375 4.0625 C1.06287285 3.51526317 -0.64485 3.0076 -3.5625 1.0625 C-2.5625 0.0625 -2.5625 0.0625 0 0 Z " fill="#1E0690" transform="translate(98.5625,79.9375)"/>
<path d="M0 0 C2.97 0.495 2.97 0.495 6 1 C6 1.66 6 2.32 6 3 C3.69 3 1.38 3 -1 3 C-0.67 2.01 -0.34 1.02 0 0 Z " fill="#120F54" transform="translate(117,170)"/>
<path d="M0 0 C1.65 0.33 3.3 0.66 5 1 C5 1.66 5 2.32 5 3 C3.02 3.33 1.04 3.66 -1 4 C-0.67 2.68 -0.34 1.36 0 0 Z " fill="#120E6C" transform="translate(47,169)"/>
<path d="M0 0 C4.35535069 1.16142685 6.64619703 2.07699505 9 6 C4.75177626 5.52797514 2.80010291 3.03344482 0 0 Z " fill="#16076A" transform="translate(101,123)"/>
<path d="M0 0 C0.99 0.66 1.98 1.32 3 2 C3 2.66 3 3.32 3 4 C1 5.625 1 5.625 -1 7 C-1.625 5.1875 -1.625 5.1875 -2 3 C-1.34 2.01 -0.68 1.02 0 0 Z " fill="#270CAE" transform="translate(99,103)"/>
<path d="M0 0 C6.75 0.75 6.75 0.75 9 3 C5.625 3.1875 5.625 3.1875 2 3 C1.34 2.01 0.68 1.02 0 0 Z " fill="#160767" transform="translate(92,77)"/>
<path d="M0 0 C1.32 0.33 2.64 0.66 4 1 C4 2.32 4 3.64 4 5 C3.01 5 2.02 5 1 5 C0.67 3.35 0.34 1.7 0 0 Z " fill="#040223" transform="translate(135,169)"/>
<path d="M0 0 C0 3 0 3 0 3 Z " fill="#020128" transform="translate(79,169)"/>
<path d="M0 0 C0.33 0.66 0.66 1.32 1 2 C0.34 1.67 -0.32 1.34 -1 1 C-0.67 0.67 -0.34 0.34 0 0 Z " fill="#080625" transform="translate(79,172)"/>
<path d="M0 0 C2 1 2 1 2 1 Z " fill="#000020" transform="translate(79,166)"/>
<path d="M0 0 C2 1 2 1 2 1 Z " fill="#000025" transform="translate(77,165)"/>
<path d="M0 0 C2 1 2 1 2 1 Z " fill="#000033" transform="translate(57,165)"/>
<path d="" fill="#000000" transform="translate(0,0)"/>
<path d="" fill="#000000" transform="translate(0,0)"/>
<path d="" fill="#000000" transform="translate(0,0)"/>
<path d="" fill="#171717" transform="translate(0,0)"/>
<path d="" fill="#000033" transform="translate(0,0)"/>
<path d="" fill="#000000" transform="translate(0,0)"/>
<path d="" fill="#000000" transform="translate(0,0)"/>
<path d="" fill="#000000" transform="translate(0,0)"/>
<path d="" fill="#000000" transform="translate(0,0)"/>
<path d="" fill="#000000" transform="translate(0,0)"/>
<path d="" fill="#000000" transform="translate(0,0)"/>
<path d="" fill="#00002A" transform="translate(0,0)"/>
<path d="" fill="#0F001E" transform="translate(0,0)"/>
<path d="" fill="#000000" transform="translate(0,0)"/>
<path d="" fill="#000000" transform="translate(0,0)"/>
<path d="" fill="#00002A" transform="translate(0,0)"/>
<path d="" fill="#00002A" transform="translate(0,0)"/>
<path d="" fill="#000000" transform="translate(0,0)"/>
<path d="" fill="#000000" transform="translate(0,0)"/>
<path d="" fill="#2A2A2A" transform="translate(0,0)"/>
<path d="" fill="#000000" transform="translate(0,0)"/>
<path d="" fill="#000040" transform="translate(0,0)"/>
<path d="" fill="#000040" transform="translate(0,0)"/>
<path d="" fill="#000000" transform="translate(0,0)"/>
<path d="" fill="#000033" transform="translate(0,0)"/>
<path d="" fill="#000040" transform="translate(0,0)"/>
<path d="" fill="#000000" transform="translate(0,0)"/>
<path d="" fill="#000000" transform="translate(0,0)"/>
<path d="" fill="#000040" transform="translate(0,0)"/>
<path d="" fill="#170046" transform="translate(0,0)"/>
<path d="" fill="#000000" transform="translate(0,0)"/>
<path d="" fill="#000055" transform="translate(0,0)"/>
<path d="" fill="#000000" transform="translate(0,0)"/>
<path d="" fill="#000000" transform="translate(0,0)"/>
<path d="" fill="#000000" transform="translate(0,0)"/>
<path d="" fill="#000049" transform="translate(0,0)"/>
<path d="" fill="#000000" transform="translate(0,0)"/>
<path d="" fill="#000000" transform="translate(0,0)"/>
<path d="" fill="#2A002A" transform="translate(0,0)"/>
<path d="" fill="#000000" transform="translate(0,0)"/>
<path d="" fill="#000000" transform="translate(0,0)"/>
<path d="" fill="#000000" transform="translate(0,0)"/>
<path d="" fill="#1A0033" transform="translate(0,0)"/>
<path d="" fill="#000040" transform="translate(0,0)"/>
<path d="" fill="#000000" transform="translate(0,0)"/>
<path d="" fill="#000055" transform="translate(0,0)"/>
<path d="" fill="#00002E" transform="translate(0,0)"/>
<path d="" fill="#000000" transform="translate(0,0)"/>
<path d="" fill="#000000" transform="translate(0,0)"/>
<path d="" fill="#000033" transform="translate(0,0)"/>
<path d="" fill="#000000" transform="translate(0,0)"/>
<path d="" fill="#000020" transform="translate(0,0)"/>
<path d="" fill="#001515" transform="translate(0,0)"/>
<path d="" fill="#000033" transform="translate(0,0)"/>
<path d="" fill="#000000" transform="translate(0,0)"/>
<path d="" fill="#000000" transform="translate(0,0)"/>
</svg>
